%TF.GenerationSoftware,KiCad,Pcbnew,(5.1.6)-1*%
%TF.CreationDate,2020-11-28T00:37:20-05:00*%
%TF.ProjectId,arduino_graphite,61726475-696e-46f5-9f67-726170686974,rev?*%
%TF.SameCoordinates,Original*%
%TF.FileFunction,Legend,Top*%
%TF.FilePolarity,Positive*%
%FSLAX46Y46*%
G04 Gerber Fmt 4.6, Leading zero omitted, Abs format (unit mm)*
G04 Created by KiCad (PCBNEW (5.1.6)-1) date 2020-11-28 00:37:20*
%MOMM*%
%LPD*%
G01*
G04 APERTURE LIST*
%ADD10C,0.150000*%
%ADD11C,0.300000*%
%ADD12C,0.120000*%
G04 APERTURE END LIST*
D10*
X116097561Y-110234361D02*
X116002323Y-110281980D01*
X115811847Y-110281980D01*
X115716609Y-110234361D01*
X115668990Y-110186742D01*
X115621371Y-110091504D01*
X115621371Y-109805790D01*
X115668990Y-109710552D01*
X115716609Y-109662933D01*
X115811847Y-109615314D01*
X116002323Y-109615314D01*
X116097561Y-109662933D01*
X116526133Y-110281980D02*
X116526133Y-109281980D01*
X116954704Y-110281980D02*
X116954704Y-109758171D01*
X116907085Y-109662933D01*
X116811847Y-109615314D01*
X116668990Y-109615314D01*
X116573752Y-109662933D01*
X116526133Y-109710552D01*
X117859466Y-110281980D02*
X117859466Y-109758171D01*
X117811847Y-109662933D01*
X117716609Y-109615314D01*
X117526133Y-109615314D01*
X117430895Y-109662933D01*
X117859466Y-110234361D02*
X117764228Y-110281980D01*
X117526133Y-110281980D01*
X117430895Y-110234361D01*
X117383276Y-110139123D01*
X117383276Y-110043885D01*
X117430895Y-109948647D01*
X117526133Y-109901028D01*
X117764228Y-109901028D01*
X117859466Y-109853409D01*
X118335657Y-110281980D02*
X118335657Y-109615314D01*
X118335657Y-109710552D02*
X118383276Y-109662933D01*
X118478514Y-109615314D01*
X118621371Y-109615314D01*
X118716609Y-109662933D01*
X118764228Y-109758171D01*
X118764228Y-110281980D01*
X118764228Y-109758171D02*
X118811847Y-109662933D01*
X118907085Y-109615314D01*
X119049942Y-109615314D01*
X119145180Y-109662933D01*
X119192800Y-109758171D01*
X119192800Y-110281980D01*
X119668990Y-110281980D02*
X119668990Y-109281980D01*
X119668990Y-109662933D02*
X119764228Y-109615314D01*
X119954704Y-109615314D01*
X120049942Y-109662933D01*
X120097561Y-109710552D01*
X120145180Y-109805790D01*
X120145180Y-110091504D01*
X120097561Y-110186742D01*
X120049942Y-110234361D01*
X119954704Y-110281980D01*
X119764228Y-110281980D01*
X119668990Y-110234361D01*
X120954704Y-110234361D02*
X120859466Y-110281980D01*
X120668990Y-110281980D01*
X120573752Y-110234361D01*
X120526133Y-110139123D01*
X120526133Y-109758171D01*
X120573752Y-109662933D01*
X120668990Y-109615314D01*
X120859466Y-109615314D01*
X120954704Y-109662933D01*
X121002323Y-109758171D01*
X121002323Y-109853409D01*
X120526133Y-109948647D01*
X121430895Y-110281980D02*
X121430895Y-109615314D01*
X121430895Y-109805790D02*
X121478514Y-109710552D01*
X121526133Y-109662933D01*
X121621371Y-109615314D01*
X121716609Y-109615314D01*
X122954704Y-110281980D02*
X122859466Y-110234361D01*
X122811847Y-110186742D01*
X122764228Y-110091504D01*
X122764228Y-109805790D01*
X122811847Y-109710552D01*
X122859466Y-109662933D01*
X122954704Y-109615314D01*
X123097561Y-109615314D01*
X123192800Y-109662933D01*
X123240419Y-109710552D01*
X123288038Y-109805790D01*
X123288038Y-110091504D01*
X123240419Y-110186742D01*
X123192800Y-110234361D01*
X123097561Y-110281980D01*
X122954704Y-110281980D01*
X124145180Y-109615314D02*
X124145180Y-110281980D01*
X123716609Y-109615314D02*
X123716609Y-110139123D01*
X123764228Y-110234361D01*
X123859466Y-110281980D01*
X124002323Y-110281980D01*
X124097561Y-110234361D01*
X124145180Y-110186742D01*
X124478514Y-109615314D02*
X124859466Y-109615314D01*
X124621371Y-109281980D02*
X124621371Y-110139123D01*
X124668990Y-110234361D01*
X124764228Y-110281980D01*
X124859466Y-110281980D01*
X102268876Y-109412114D02*
X102506971Y-110078780D01*
X102745066Y-109412114D01*
X103126019Y-110078780D02*
X103126019Y-109412114D01*
X103126019Y-109078780D02*
X103078400Y-109126400D01*
X103126019Y-109174019D01*
X103173638Y-109126400D01*
X103126019Y-109078780D01*
X103126019Y-109174019D01*
X103602209Y-110078780D02*
X103602209Y-109078780D01*
X103602209Y-109459733D02*
X103697447Y-109412114D01*
X103887923Y-109412114D01*
X103983161Y-109459733D01*
X104030780Y-109507352D01*
X104078400Y-109602590D01*
X104078400Y-109888304D01*
X104030780Y-109983542D01*
X103983161Y-110031161D01*
X103887923Y-110078780D01*
X103697447Y-110078780D01*
X103602209Y-110031161D01*
X104506971Y-110078780D02*
X104506971Y-109412114D01*
X104506971Y-109602590D02*
X104554590Y-109507352D01*
X104602209Y-109459733D01*
X104697447Y-109412114D01*
X104792685Y-109412114D01*
X105554590Y-110078780D02*
X105554590Y-109554971D01*
X105506971Y-109459733D01*
X105411733Y-109412114D01*
X105221257Y-109412114D01*
X105126019Y-109459733D01*
X105554590Y-110031161D02*
X105459352Y-110078780D01*
X105221257Y-110078780D01*
X105126019Y-110031161D01*
X105078400Y-109935923D01*
X105078400Y-109840685D01*
X105126019Y-109745447D01*
X105221257Y-109697828D01*
X105459352Y-109697828D01*
X105554590Y-109650209D01*
X105887923Y-109412114D02*
X106268876Y-109412114D01*
X106030780Y-109078780D02*
X106030780Y-109935923D01*
X106078400Y-110031161D01*
X106173638Y-110078780D01*
X106268876Y-110078780D01*
X106745066Y-110078780D02*
X106649828Y-110031161D01*
X106602209Y-109983542D01*
X106554590Y-109888304D01*
X106554590Y-109602590D01*
X106602209Y-109507352D01*
X106649828Y-109459733D01*
X106745066Y-109412114D01*
X106887923Y-109412114D01*
X106983161Y-109459733D01*
X107030780Y-109507352D01*
X107078400Y-109602590D01*
X107078400Y-109888304D01*
X107030780Y-109983542D01*
X106983161Y-110031161D01*
X106887923Y-110078780D01*
X106745066Y-110078780D01*
X107506971Y-110078780D02*
X107506971Y-109412114D01*
X107506971Y-109602590D02*
X107554590Y-109507352D01*
X107602209Y-109459733D01*
X107697447Y-109412114D01*
X107792685Y-109412114D01*
X109030780Y-110078780D02*
X108935542Y-110031161D01*
X108887923Y-109983542D01*
X108840304Y-109888304D01*
X108840304Y-109602590D01*
X108887923Y-109507352D01*
X108935542Y-109459733D01*
X109030780Y-109412114D01*
X109173638Y-109412114D01*
X109268876Y-109459733D01*
X109316495Y-109507352D01*
X109364114Y-109602590D01*
X109364114Y-109888304D01*
X109316495Y-109983542D01*
X109268876Y-110031161D01*
X109173638Y-110078780D01*
X109030780Y-110078780D01*
X110221257Y-109412114D02*
X110221257Y-110078780D01*
X109792685Y-109412114D02*
X109792685Y-109935923D01*
X109840304Y-110031161D01*
X109935542Y-110078780D01*
X110078400Y-110078780D01*
X110173638Y-110031161D01*
X110221257Y-109983542D01*
X110554590Y-109412114D02*
X110935542Y-109412114D01*
X110697447Y-109078780D02*
X110697447Y-109935923D01*
X110745066Y-110031161D01*
X110840304Y-110078780D01*
X110935542Y-110078780D01*
X88067047Y-110231180D02*
X88067047Y-109231180D01*
X88495619Y-110231180D02*
X88495619Y-109707371D01*
X88448000Y-109612133D01*
X88352761Y-109564514D01*
X88209904Y-109564514D01*
X88114666Y-109612133D01*
X88067047Y-109659752D01*
X89114666Y-110231180D02*
X89019428Y-110183561D01*
X88971809Y-110135942D01*
X88924190Y-110040704D01*
X88924190Y-109754990D01*
X88971809Y-109659752D01*
X89019428Y-109612133D01*
X89114666Y-109564514D01*
X89257523Y-109564514D01*
X89352761Y-109612133D01*
X89400380Y-109659752D01*
X89448000Y-109754990D01*
X89448000Y-110040704D01*
X89400380Y-110135942D01*
X89352761Y-110183561D01*
X89257523Y-110231180D01*
X89114666Y-110231180D01*
X89876571Y-109564514D02*
X89876571Y-110564514D01*
X89876571Y-109612133D02*
X89971809Y-109564514D01*
X90162285Y-109564514D01*
X90257523Y-109612133D01*
X90305142Y-109659752D01*
X90352761Y-109754990D01*
X90352761Y-110040704D01*
X90305142Y-110135942D01*
X90257523Y-110183561D01*
X90162285Y-110231180D01*
X89971809Y-110231180D01*
X89876571Y-110183561D01*
X90781333Y-109564514D02*
X90781333Y-110564514D01*
X90781333Y-109612133D02*
X90876571Y-109564514D01*
X91067047Y-109564514D01*
X91162285Y-109612133D01*
X91209904Y-109659752D01*
X91257523Y-109754990D01*
X91257523Y-110040704D01*
X91209904Y-110135942D01*
X91162285Y-110183561D01*
X91067047Y-110231180D01*
X90876571Y-110231180D01*
X90781333Y-110183561D01*
X92067047Y-110183561D02*
X91971809Y-110231180D01*
X91781333Y-110231180D01*
X91686095Y-110183561D01*
X91638476Y-110088323D01*
X91638476Y-109707371D01*
X91686095Y-109612133D01*
X91781333Y-109564514D01*
X91971809Y-109564514D01*
X92067047Y-109612133D01*
X92114666Y-109707371D01*
X92114666Y-109802609D01*
X91638476Y-109897847D01*
X92543238Y-110231180D02*
X92543238Y-109564514D01*
X92543238Y-109754990D02*
X92590857Y-109659752D01*
X92638476Y-109612133D01*
X92733714Y-109564514D01*
X92828952Y-109564514D01*
X94067047Y-110231180D02*
X93971809Y-110183561D01*
X93924190Y-110135942D01*
X93876571Y-110040704D01*
X93876571Y-109754990D01*
X93924190Y-109659752D01*
X93971809Y-109612133D01*
X94067047Y-109564514D01*
X94209904Y-109564514D01*
X94305142Y-109612133D01*
X94352761Y-109659752D01*
X94400380Y-109754990D01*
X94400380Y-110040704D01*
X94352761Y-110135942D01*
X94305142Y-110183561D01*
X94209904Y-110231180D01*
X94067047Y-110231180D01*
X95257523Y-109564514D02*
X95257523Y-110231180D01*
X94828952Y-109564514D02*
X94828952Y-110088323D01*
X94876571Y-110183561D01*
X94971809Y-110231180D01*
X95114666Y-110231180D01*
X95209904Y-110183561D01*
X95257523Y-110135942D01*
X95590857Y-109564514D02*
X95971809Y-109564514D01*
X95733714Y-109231180D02*
X95733714Y-110088323D01*
X95781333Y-110183561D01*
X95876571Y-110231180D01*
X95971809Y-110231180D01*
D11*
X94858999Y-118993457D02*
X94358999Y-118993457D01*
X94358999Y-119779171D02*
X94358999Y-118279171D01*
X95073285Y-118279171D01*
X96216142Y-119707742D02*
X96073285Y-119779171D01*
X95787571Y-119779171D01*
X95644714Y-119707742D01*
X95573285Y-119564885D01*
X95573285Y-118993457D01*
X95644714Y-118850600D01*
X95787571Y-118779171D01*
X96073285Y-118779171D01*
X96216142Y-118850600D01*
X96287571Y-118993457D01*
X96287571Y-119136314D01*
X95573285Y-119279171D01*
X96930428Y-119779171D02*
X96930428Y-118779171D01*
X96930428Y-119064885D02*
X97001857Y-118922028D01*
X97073285Y-118850600D01*
X97216142Y-118779171D01*
X97358999Y-118779171D01*
X97858999Y-118779171D02*
X97858999Y-119779171D01*
X97858999Y-118922028D02*
X97930428Y-118850600D01*
X98073285Y-118779171D01*
X98287571Y-118779171D01*
X98430428Y-118850600D01*
X98501857Y-118993457D01*
X98501857Y-119779171D01*
X99858999Y-119779171D02*
X99858999Y-118993457D01*
X99787571Y-118850600D01*
X99644714Y-118779171D01*
X99358999Y-118779171D01*
X99216142Y-118850600D01*
X99858999Y-119707742D02*
X99716142Y-119779171D01*
X99358999Y-119779171D01*
X99216142Y-119707742D01*
X99144714Y-119564885D01*
X99144714Y-119422028D01*
X99216142Y-119279171D01*
X99358999Y-119207742D01*
X99716142Y-119207742D01*
X99858999Y-119136314D01*
X100573285Y-118779171D02*
X100573285Y-119779171D01*
X100573285Y-118922028D02*
X100644714Y-118850600D01*
X100787571Y-118779171D01*
X101001857Y-118779171D01*
X101144714Y-118850600D01*
X101216142Y-118993457D01*
X101216142Y-119779171D01*
X102573285Y-119779171D02*
X102573285Y-118279171D01*
X102573285Y-119707742D02*
X102430428Y-119779171D01*
X102144714Y-119779171D01*
X102001857Y-119707742D01*
X101930428Y-119636314D01*
X101858999Y-119493457D01*
X101858999Y-119064885D01*
X101930428Y-118922028D01*
X102001857Y-118850600D01*
X102144714Y-118779171D01*
X102430428Y-118779171D01*
X102573285Y-118850600D01*
X103501857Y-119779171D02*
X103359000Y-119707742D01*
X103287571Y-119636314D01*
X103216142Y-119493457D01*
X103216142Y-119064885D01*
X103287571Y-118922028D01*
X103359000Y-118850600D01*
X103501857Y-118779171D01*
X103716142Y-118779171D01*
X103859000Y-118850600D01*
X103930428Y-118922028D01*
X104001857Y-119064885D01*
X104001857Y-119493457D01*
X103930428Y-119636314D01*
X103859000Y-119707742D01*
X103716142Y-119779171D01*
X103501857Y-119779171D01*
X105573285Y-118279171D02*
X106430428Y-118279171D01*
X106001857Y-119779171D02*
X106001857Y-118279171D01*
X106930428Y-119779171D02*
X106930428Y-118779171D01*
X106930428Y-119064885D02*
X107001857Y-118922028D01*
X107073285Y-118850600D01*
X107216142Y-118779171D01*
X107358999Y-118779171D01*
X108430428Y-119707742D02*
X108287571Y-119779171D01*
X108001857Y-119779171D01*
X107858999Y-119707742D01*
X107787571Y-119564885D01*
X107787571Y-118993457D01*
X107858999Y-118850600D01*
X108001857Y-118779171D01*
X108287571Y-118779171D01*
X108430428Y-118850600D01*
X108501857Y-118993457D01*
X108501857Y-119136314D01*
X107787571Y-119279171D01*
X109001857Y-118779171D02*
X109358999Y-119779171D01*
X109716142Y-118779171D01*
X110287571Y-119779171D02*
X110287571Y-118779171D01*
X110287571Y-118279171D02*
X110216142Y-118350600D01*
X110287571Y-118422028D01*
X110359000Y-118350600D01*
X110287571Y-118279171D01*
X110287571Y-118422028D01*
X111001857Y-118779171D02*
X111001857Y-119779171D01*
X111001857Y-118922028D02*
X111073285Y-118850600D01*
X111216142Y-118779171D01*
X111430428Y-118779171D01*
X111573285Y-118850600D01*
X111644714Y-118993457D01*
X111644714Y-119779171D01*
X112573285Y-119779171D02*
X112430428Y-119707742D01*
X112359000Y-119636314D01*
X112287571Y-119493457D01*
X112287571Y-119064885D01*
X112359000Y-118922028D01*
X112430428Y-118850600D01*
X112573285Y-118779171D01*
X112787571Y-118779171D01*
X112930428Y-118850600D01*
X113001857Y-118922028D01*
X113073285Y-119064885D01*
X113073285Y-119493457D01*
X113001857Y-119636314D01*
X112930428Y-119707742D01*
X112787571Y-119779171D01*
X112573285Y-119779171D01*
X115644714Y-119779171D02*
X114787571Y-119779171D01*
X115216142Y-119779171D02*
X115216142Y-118279171D01*
X115073285Y-118493457D01*
X114930428Y-118636314D01*
X114787571Y-118707742D01*
X117073285Y-119779171D02*
X116216142Y-119779171D01*
X116644714Y-119779171D02*
X116644714Y-118279171D01*
X116501857Y-118493457D01*
X116359000Y-118636314D01*
X116216142Y-118707742D01*
X118787571Y-118207742D02*
X117501857Y-120136314D01*
X119216142Y-118422028D02*
X119287571Y-118350600D01*
X119430428Y-118279171D01*
X119787571Y-118279171D01*
X119930428Y-118350600D01*
X120001857Y-118422028D01*
X120073285Y-118564885D01*
X120073285Y-118707742D01*
X120001857Y-118922028D01*
X119144714Y-119779171D01*
X120073285Y-119779171D01*
X121001857Y-118279171D02*
X121144714Y-118279171D01*
X121287571Y-118350600D01*
X121359000Y-118422028D01*
X121430428Y-118564885D01*
X121501857Y-118850600D01*
X121501857Y-119207742D01*
X121430428Y-119493457D01*
X121359000Y-119636314D01*
X121287571Y-119707742D01*
X121144714Y-119779171D01*
X121001857Y-119779171D01*
X120859000Y-119707742D01*
X120787571Y-119636314D01*
X120716142Y-119493457D01*
X120644714Y-119207742D01*
X120644714Y-118850600D01*
X120716142Y-118564885D01*
X120787571Y-118422028D01*
X120859000Y-118350600D01*
X121001857Y-118279171D01*
X123216142Y-118207742D02*
X121930428Y-120136314D01*
X123644714Y-118422028D02*
X123716142Y-118350600D01*
X123859000Y-118279171D01*
X124216142Y-118279171D01*
X124359000Y-118350600D01*
X124430428Y-118422028D01*
X124501857Y-118564885D01*
X124501857Y-118707742D01*
X124430428Y-118922028D01*
X123573285Y-119779171D01*
X124501857Y-119779171D01*
X125430428Y-118279171D02*
X125573285Y-118279171D01*
X125716142Y-118350600D01*
X125787571Y-118422028D01*
X125859000Y-118564885D01*
X125930428Y-118850600D01*
X125930428Y-119207742D01*
X125859000Y-119493457D01*
X125787571Y-119636314D01*
X125716142Y-119707742D01*
X125573285Y-119779171D01*
X125430428Y-119779171D01*
X125287571Y-119707742D01*
X125216142Y-119636314D01*
X125144714Y-119493457D01*
X125073285Y-119207742D01*
X125073285Y-118850600D01*
X125144714Y-118564885D01*
X125216142Y-118422028D01*
X125287571Y-118350600D01*
X125430428Y-118279171D01*
X97579600Y-114566000D02*
X97436742Y-114494571D01*
X97222457Y-114494571D01*
X97008171Y-114566000D01*
X96865314Y-114708857D01*
X96793885Y-114851714D01*
X96722457Y-115137428D01*
X96722457Y-115351714D01*
X96793885Y-115637428D01*
X96865314Y-115780285D01*
X97008171Y-115923142D01*
X97222457Y-115994571D01*
X97365314Y-115994571D01*
X97579600Y-115923142D01*
X97651028Y-115851714D01*
X97651028Y-115351714D01*
X97365314Y-115351714D01*
X99151028Y-115994571D02*
X98651028Y-115280285D01*
X98293885Y-115994571D02*
X98293885Y-114494571D01*
X98865314Y-114494571D01*
X99008171Y-114566000D01*
X99079600Y-114637428D01*
X99151028Y-114780285D01*
X99151028Y-114994571D01*
X99079600Y-115137428D01*
X99008171Y-115208857D01*
X98865314Y-115280285D01*
X98293885Y-115280285D01*
X99722457Y-115566000D02*
X100436742Y-115566000D01*
X99579600Y-115994571D02*
X100079600Y-114494571D01*
X100579600Y-115994571D01*
X101079600Y-115994571D02*
X101079600Y-114494571D01*
X101651028Y-114494571D01*
X101793885Y-114566000D01*
X101865314Y-114637428D01*
X101936742Y-114780285D01*
X101936742Y-114994571D01*
X101865314Y-115137428D01*
X101793885Y-115208857D01*
X101651028Y-115280285D01*
X101079600Y-115280285D01*
X102579600Y-115994571D02*
X102579600Y-114494571D01*
X102579600Y-115208857D02*
X103436742Y-115208857D01*
X103436742Y-115994571D02*
X103436742Y-114494571D01*
X104151028Y-115994571D02*
X104151028Y-114494571D01*
X104651028Y-114494571D02*
X105508171Y-114494571D01*
X105079600Y-115994571D02*
X105079600Y-114494571D01*
X106008171Y-115208857D02*
X106508171Y-115208857D01*
X106722457Y-115994571D02*
X106008171Y-115994571D01*
X106008171Y-114494571D01*
X106722457Y-114494571D01*
X109365314Y-115851714D02*
X109293885Y-115923142D01*
X109079600Y-115994571D01*
X108936742Y-115994571D01*
X108722457Y-115923142D01*
X108579600Y-115780285D01*
X108508171Y-115637428D01*
X108436742Y-115351714D01*
X108436742Y-115137428D01*
X108508171Y-114851714D01*
X108579600Y-114708857D01*
X108722457Y-114566000D01*
X108936742Y-114494571D01*
X109079600Y-114494571D01*
X109293885Y-114566000D01*
X109365314Y-114637428D01*
X110293885Y-114494571D02*
X110579600Y-114494571D01*
X110722457Y-114566000D01*
X110865314Y-114708857D01*
X110936742Y-114994571D01*
X110936742Y-115494571D01*
X110865314Y-115780285D01*
X110722457Y-115923142D01*
X110579600Y-115994571D01*
X110293885Y-115994571D01*
X110151028Y-115923142D01*
X110008171Y-115780285D01*
X109936742Y-115494571D01*
X109936742Y-114994571D01*
X110008171Y-114708857D01*
X110151028Y-114566000D01*
X110293885Y-114494571D01*
X111579599Y-115994571D02*
X111579599Y-114494571D01*
X112436742Y-115994571D01*
X112436742Y-114494571D01*
X112936742Y-114494571D02*
X113793885Y-114494571D01*
X113365314Y-115994571D02*
X113365314Y-114494571D01*
X115151028Y-115994571D02*
X114651028Y-115280285D01*
X114293885Y-115994571D02*
X114293885Y-114494571D01*
X114865314Y-114494571D01*
X115008171Y-114566000D01*
X115079599Y-114637428D01*
X115151028Y-114780285D01*
X115151028Y-114994571D01*
X115079599Y-115137428D01*
X115008171Y-115208857D01*
X114865314Y-115280285D01*
X114293885Y-115280285D01*
X116079599Y-114494571D02*
X116365314Y-114494571D01*
X116508171Y-114566000D01*
X116651028Y-114708857D01*
X116722457Y-114994571D01*
X116722457Y-115494571D01*
X116651028Y-115780285D01*
X116508171Y-115923142D01*
X116365314Y-115994571D01*
X116079599Y-115994571D01*
X115936742Y-115923142D01*
X115793885Y-115780285D01*
X115722457Y-115494571D01*
X115722457Y-114994571D01*
X115793885Y-114708857D01*
X115936742Y-114566000D01*
X116079599Y-114494571D01*
X118079599Y-115994571D02*
X117365314Y-115994571D01*
X117365314Y-114494571D01*
X120651028Y-114494571D02*
X121151028Y-115994571D01*
X121651028Y-114494571D01*
X122936742Y-115994571D02*
X122079599Y-115994571D01*
X122508171Y-115994571D02*
X122508171Y-114494571D01*
X122365314Y-114708857D01*
X122222457Y-114851714D01*
X122079599Y-114923142D01*
X35449771Y-113890714D02*
X35449771Y-113033571D01*
X36949771Y-113462142D02*
X35449771Y-113462142D01*
X36949771Y-111390714D02*
X35449771Y-111390714D01*
X36949771Y-109533571D02*
X35449771Y-109533571D01*
X36521200Y-109033571D01*
X35449771Y-108533571D01*
X36949771Y-108533571D01*
X36164057Y-106676428D02*
X36164057Y-106176428D01*
X36949771Y-105962142D02*
X36949771Y-106676428D01*
X35449771Y-106676428D01*
X35449771Y-105962142D01*
D12*
X38963600Y-44170600D02*
X36042600Y-44399200D01*
X38811200Y-33578800D02*
X38963600Y-44170600D01*
X36042600Y-33502600D02*
X38811200Y-33578800D01*
X36042600Y-44094400D02*
X36042600Y-33502600D01*
X35229800Y-96164400D02*
X39573200Y-96240600D01*
X35306000Y-81229200D02*
X35229800Y-96164400D01*
X39725600Y-81153000D02*
X35306000Y-81229200D01*
X35306000Y-79375000D02*
X39649400Y-79400400D01*
X35382200Y-63677800D02*
X35306000Y-79375000D01*
X37998400Y-63677800D02*
X35382200Y-63677800D01*
X35382200Y-61722000D02*
X40843200Y-61645800D01*
X35382200Y-46304200D02*
X35382200Y-61722000D01*
X40614600Y-46304200D02*
X35382200Y-46304200D01*
D10*
X36666514Y-50507780D02*
X37476038Y-50507780D01*
X37571276Y-50555400D01*
X37618895Y-50603019D01*
X37666514Y-50698257D01*
X37666514Y-50841114D01*
X37618895Y-50936352D01*
X37285561Y-50507780D02*
X37333180Y-50603019D01*
X37333180Y-50793495D01*
X37285561Y-50888733D01*
X37237942Y-50936352D01*
X37142704Y-50983971D01*
X36856990Y-50983971D01*
X36761752Y-50936352D01*
X36714133Y-50888733D01*
X36666514Y-50793495D01*
X36666514Y-50603019D01*
X36714133Y-50507780D01*
X37333180Y-49603019D02*
X36809371Y-49603019D01*
X36714133Y-49650638D01*
X36666514Y-49745876D01*
X36666514Y-49936352D01*
X36714133Y-50031590D01*
X37285561Y-49603019D02*
X37333180Y-49698257D01*
X37333180Y-49936352D01*
X37285561Y-50031590D01*
X37190323Y-50079209D01*
X37095085Y-50079209D01*
X36999847Y-50031590D01*
X36952228Y-49936352D01*
X36952228Y-49698257D01*
X36904609Y-49603019D01*
X36666514Y-49269685D02*
X36666514Y-48888733D01*
X36333180Y-49126828D02*
X37190323Y-49126828D01*
X37285561Y-49079209D01*
X37333180Y-48983971D01*
X37333180Y-48888733D01*
X37285561Y-48174447D02*
X37333180Y-48269685D01*
X37333180Y-48460161D01*
X37285561Y-48555400D01*
X37190323Y-48603019D01*
X36809371Y-48603019D01*
X36714133Y-48555400D01*
X36666514Y-48460161D01*
X36666514Y-48269685D01*
X36714133Y-48174447D01*
X36809371Y-48126828D01*
X36904609Y-48126828D01*
X36999847Y-48603019D01*
X37587180Y-68259152D02*
X37539561Y-68354390D01*
X37444323Y-68402009D01*
X36587180Y-68402009D01*
X37539561Y-67497247D02*
X37587180Y-67592485D01*
X37587180Y-67782961D01*
X37539561Y-67878200D01*
X37444323Y-67925819D01*
X37063371Y-67925819D01*
X36968133Y-67878200D01*
X36920514Y-67782961D01*
X36920514Y-67592485D01*
X36968133Y-67497247D01*
X37063371Y-67449628D01*
X37158609Y-67449628D01*
X37253847Y-67925819D01*
X36920514Y-67116295D02*
X37587180Y-66878200D01*
X36920514Y-66640104D01*
X37539561Y-65878200D02*
X37587180Y-65973438D01*
X37587180Y-66163914D01*
X37539561Y-66259152D01*
X37444323Y-66306771D01*
X37063371Y-66306771D01*
X36968133Y-66259152D01*
X36920514Y-66163914D01*
X36920514Y-65973438D01*
X36968133Y-65878200D01*
X37063371Y-65830580D01*
X37158609Y-65830580D01*
X37253847Y-66306771D01*
X37587180Y-65259152D02*
X37539561Y-65354390D01*
X37444323Y-65402009D01*
X36587180Y-65402009D01*
X37358580Y-85658200D02*
X36358580Y-85658200D01*
X37310961Y-85658200D02*
X37358580Y-85753438D01*
X37358580Y-85943914D01*
X37310961Y-86039152D01*
X37263342Y-86086771D01*
X37168104Y-86134390D01*
X36882390Y-86134390D01*
X36787152Y-86086771D01*
X36739533Y-86039152D01*
X36691914Y-85943914D01*
X36691914Y-85753438D01*
X36739533Y-85658200D01*
X37358580Y-85039152D02*
X37310961Y-85134390D01*
X37263342Y-85182009D01*
X37168104Y-85229628D01*
X36882390Y-85229628D01*
X36787152Y-85182009D01*
X36739533Y-85134390D01*
X36691914Y-85039152D01*
X36691914Y-84896295D01*
X36739533Y-84801057D01*
X36787152Y-84753438D01*
X36882390Y-84705819D01*
X37168104Y-84705819D01*
X37263342Y-84753438D01*
X37310961Y-84801057D01*
X37358580Y-84896295D01*
X37358580Y-85039152D01*
X37358580Y-84134390D02*
X37310961Y-84229628D01*
X37263342Y-84277247D01*
X37168104Y-84324866D01*
X36882390Y-84324866D01*
X36787152Y-84277247D01*
X36739533Y-84229628D01*
X36691914Y-84134390D01*
X36691914Y-83991533D01*
X36739533Y-83896295D01*
X36787152Y-83848676D01*
X36882390Y-83801057D01*
X37168104Y-83801057D01*
X37263342Y-83848676D01*
X37310961Y-83896295D01*
X37358580Y-83991533D01*
X37358580Y-84134390D01*
X37358580Y-83372485D02*
X36691914Y-83372485D01*
X36882390Y-83372485D02*
X36787152Y-83324866D01*
X36739533Y-83277247D01*
X36691914Y-83182009D01*
X36691914Y-83086771D01*
X36733219Y-90525457D02*
X36685600Y-90477838D01*
X36637980Y-90382600D01*
X36637980Y-90144504D01*
X36685600Y-90049266D01*
X36733219Y-90001647D01*
X36828457Y-89954028D01*
X36923695Y-89954028D01*
X37066552Y-90001647D01*
X37637980Y-90573076D01*
X37637980Y-89954028D01*
X36971314Y-89096885D02*
X37637980Y-89096885D01*
X36590361Y-89334980D02*
X37304647Y-89573076D01*
X37304647Y-88954028D01*
X36971314Y-88668314D02*
X37637980Y-88430219D01*
X36971314Y-88192123D01*
X36453819Y-72694657D02*
X36406200Y-72647038D01*
X36358580Y-72551800D01*
X36358580Y-72313704D01*
X36406200Y-72218466D01*
X36453819Y-72170847D01*
X36549057Y-72123228D01*
X36644295Y-72123228D01*
X36787152Y-72170847D01*
X37358580Y-72742276D01*
X37358580Y-72123228D01*
X36691914Y-71266085D02*
X37358580Y-71266085D01*
X36310961Y-71504180D02*
X37025247Y-71742276D01*
X37025247Y-71123228D01*
X36691914Y-70837514D02*
X37358580Y-70599419D01*
X36691914Y-70361323D01*
X36453819Y-55930657D02*
X36406200Y-55883038D01*
X36358580Y-55787800D01*
X36358580Y-55549704D01*
X36406200Y-55454466D01*
X36453819Y-55406847D01*
X36549057Y-55359228D01*
X36644295Y-55359228D01*
X36787152Y-55406847D01*
X37358580Y-55978276D01*
X37358580Y-55359228D01*
X36691914Y-54502085D02*
X37358580Y-54502085D01*
X36310961Y-54740180D02*
X37025247Y-54978276D01*
X37025247Y-54359228D01*
X36691914Y-54073514D02*
X37358580Y-53835419D01*
X36691914Y-53597323D01*
X36863400Y-95478504D02*
X36815780Y-95573742D01*
X36815780Y-95716600D01*
X36863400Y-95859457D01*
X36958638Y-95954695D01*
X37053876Y-96002314D01*
X37244352Y-96049933D01*
X37387209Y-96049933D01*
X37577685Y-96002314D01*
X37672923Y-95954695D01*
X37768161Y-95859457D01*
X37815780Y-95716600D01*
X37815780Y-95621361D01*
X37768161Y-95478504D01*
X37720542Y-95430885D01*
X37387209Y-95430885D01*
X37387209Y-95621361D01*
X37815780Y-95002314D02*
X36815780Y-95002314D01*
X37815780Y-94430885D01*
X36815780Y-94430885D01*
X37815780Y-93954695D02*
X36815780Y-93954695D01*
X36815780Y-93716600D01*
X36863400Y-93573742D01*
X36958638Y-93478504D01*
X37053876Y-93430885D01*
X37244352Y-93383266D01*
X37387209Y-93383266D01*
X37577685Y-93430885D01*
X37672923Y-93478504D01*
X37768161Y-93573742D01*
X37815780Y-93716600D01*
X37815780Y-93954695D01*
X36609400Y-77901704D02*
X36561780Y-77996942D01*
X36561780Y-78139800D01*
X36609400Y-78282657D01*
X36704638Y-78377895D01*
X36799876Y-78425514D01*
X36990352Y-78473133D01*
X37133209Y-78473133D01*
X37323685Y-78425514D01*
X37418923Y-78377895D01*
X37514161Y-78282657D01*
X37561780Y-78139800D01*
X37561780Y-78044561D01*
X37514161Y-77901704D01*
X37466542Y-77854085D01*
X37133209Y-77854085D01*
X37133209Y-78044561D01*
X37561780Y-77425514D02*
X36561780Y-77425514D01*
X37561780Y-76854085D01*
X36561780Y-76854085D01*
X37561780Y-76377895D02*
X36561780Y-76377895D01*
X36561780Y-76139800D01*
X36609400Y-75996942D01*
X36704638Y-75901704D01*
X36799876Y-75854085D01*
X36990352Y-75806466D01*
X37133209Y-75806466D01*
X37323685Y-75854085D01*
X37418923Y-75901704D01*
X37514161Y-75996942D01*
X37561780Y-76139800D01*
X37561780Y-76377895D01*
X36685600Y-60883704D02*
X36637980Y-60978942D01*
X36637980Y-61121800D01*
X36685600Y-61264657D01*
X36780838Y-61359895D01*
X36876076Y-61407514D01*
X37066552Y-61455133D01*
X37209409Y-61455133D01*
X37399885Y-61407514D01*
X37495123Y-61359895D01*
X37590361Y-61264657D01*
X37637980Y-61121800D01*
X37637980Y-61026561D01*
X37590361Y-60883704D01*
X37542742Y-60836085D01*
X37209409Y-60836085D01*
X37209409Y-61026561D01*
X37637980Y-60407514D02*
X36637980Y-60407514D01*
X37637980Y-59836085D01*
X36637980Y-59836085D01*
X37637980Y-59359895D02*
X36637980Y-59359895D01*
X36637980Y-59121800D01*
X36685600Y-58978942D01*
X36780838Y-58883704D01*
X36876076Y-58836085D01*
X37066552Y-58788466D01*
X37209409Y-58788466D01*
X37399885Y-58836085D01*
X37495123Y-58883704D01*
X37590361Y-58978942D01*
X37637980Y-59121800D01*
X37637980Y-59359895D01*
X36787200Y-43002104D02*
X36739580Y-43097342D01*
X36739580Y-43240200D01*
X36787200Y-43383057D01*
X36882438Y-43478295D01*
X36977676Y-43525914D01*
X37168152Y-43573533D01*
X37311009Y-43573533D01*
X37501485Y-43525914D01*
X37596723Y-43478295D01*
X37691961Y-43383057D01*
X37739580Y-43240200D01*
X37739580Y-43144961D01*
X37691961Y-43002104D01*
X37644342Y-42954485D01*
X37311009Y-42954485D01*
X37311009Y-43144961D01*
X37739580Y-42525914D02*
X36739580Y-42525914D01*
X37739580Y-41954485D01*
X36739580Y-41954485D01*
X37739580Y-41478295D02*
X36739580Y-41478295D01*
X36739580Y-41240200D01*
X36787200Y-41097342D01*
X36882438Y-41002104D01*
X36977676Y-40954485D01*
X37168152Y-40906866D01*
X37311009Y-40906866D01*
X37501485Y-40954485D01*
X37596723Y-41002104D01*
X37691961Y-41097342D01*
X37739580Y-41240200D01*
X37739580Y-41478295D01*
X37165019Y-37922057D02*
X37117400Y-37874438D01*
X37069780Y-37779200D01*
X37069780Y-37541104D01*
X37117400Y-37445866D01*
X37165019Y-37398247D01*
X37260257Y-37350628D01*
X37355495Y-37350628D01*
X37498352Y-37398247D01*
X38069780Y-37969676D01*
X38069780Y-37350628D01*
X37403114Y-36493485D02*
X38069780Y-36493485D01*
X37022161Y-36731580D02*
X37736447Y-36969676D01*
X37736447Y-36350628D01*
X37403114Y-36064914D02*
X38069780Y-35826819D01*
X37403114Y-35588723D01*
X39317561Y-120329009D02*
X39365180Y-120424247D01*
X39365180Y-120614723D01*
X39317561Y-120709961D01*
X39269942Y-120757580D01*
X39174704Y-120805200D01*
X38888990Y-120805200D01*
X38793752Y-120757580D01*
X38746133Y-120709961D01*
X38698514Y-120614723D01*
X38698514Y-120424247D01*
X38746133Y-120329009D01*
X39365180Y-119900438D02*
X38365180Y-119900438D01*
X39365180Y-119471866D02*
X38841371Y-119471866D01*
X38746133Y-119519485D01*
X38698514Y-119614723D01*
X38698514Y-119757580D01*
X38746133Y-119852819D01*
X38793752Y-119900438D01*
X39365180Y-118567104D02*
X38841371Y-118567104D01*
X38746133Y-118614723D01*
X38698514Y-118709961D01*
X38698514Y-118900438D01*
X38746133Y-118995676D01*
X39317561Y-118567104D02*
X39365180Y-118662342D01*
X39365180Y-118900438D01*
X39317561Y-118995676D01*
X39222323Y-119043295D01*
X39127085Y-119043295D01*
X39031847Y-118995676D01*
X38984228Y-118900438D01*
X38984228Y-118662342D01*
X38936609Y-118567104D01*
X39365180Y-118090914D02*
X38698514Y-118090914D01*
X38793752Y-118090914D02*
X38746133Y-118043295D01*
X38698514Y-117948057D01*
X38698514Y-117805200D01*
X38746133Y-117709961D01*
X38841371Y-117662342D01*
X39365180Y-117662342D01*
X38841371Y-117662342D02*
X38746133Y-117614723D01*
X38698514Y-117519485D01*
X38698514Y-117376628D01*
X38746133Y-117281390D01*
X38841371Y-117233771D01*
X39365180Y-117233771D01*
X39365180Y-116757580D02*
X38365180Y-116757580D01*
X38746133Y-116757580D02*
X38698514Y-116662342D01*
X38698514Y-116471866D01*
X38746133Y-116376628D01*
X38793752Y-116329009D01*
X38888990Y-116281390D01*
X39174704Y-116281390D01*
X39269942Y-116329009D01*
X39317561Y-116376628D01*
X39365180Y-116471866D01*
X39365180Y-116662342D01*
X39317561Y-116757580D01*
X39317561Y-115471866D02*
X39365180Y-115567104D01*
X39365180Y-115757580D01*
X39317561Y-115852819D01*
X39222323Y-115900438D01*
X38841371Y-115900438D01*
X38746133Y-115852819D01*
X38698514Y-115757580D01*
X38698514Y-115567104D01*
X38746133Y-115471866D01*
X38841371Y-115424247D01*
X38936609Y-115424247D01*
X39031847Y-115900438D01*
X39365180Y-114995676D02*
X38698514Y-114995676D01*
X38888990Y-114995676D02*
X38793752Y-114948057D01*
X38746133Y-114900438D01*
X38698514Y-114805200D01*
X38698514Y-114709961D01*
X39288980Y-112697923D02*
X38288980Y-112697923D01*
X39288980Y-112269352D02*
X38765171Y-112269352D01*
X38669933Y-112316971D01*
X38622314Y-112412209D01*
X38622314Y-112555066D01*
X38669933Y-112650304D01*
X38717552Y-112697923D01*
X39288980Y-111650304D02*
X39241361Y-111745542D01*
X39193742Y-111793161D01*
X39098504Y-111840780D01*
X38812790Y-111840780D01*
X38717552Y-111793161D01*
X38669933Y-111745542D01*
X38622314Y-111650304D01*
X38622314Y-111507447D01*
X38669933Y-111412209D01*
X38717552Y-111364590D01*
X38812790Y-111316971D01*
X39098504Y-111316971D01*
X39193742Y-111364590D01*
X39241361Y-111412209D01*
X39288980Y-111507447D01*
X39288980Y-111650304D01*
X38622314Y-110888400D02*
X39622314Y-110888400D01*
X38669933Y-110888400D02*
X38622314Y-110793161D01*
X38622314Y-110602685D01*
X38669933Y-110507447D01*
X38717552Y-110459828D01*
X38812790Y-110412209D01*
X39098504Y-110412209D01*
X39193742Y-110459828D01*
X39241361Y-110507447D01*
X39288980Y-110602685D01*
X39288980Y-110793161D01*
X39241361Y-110888400D01*
X38622314Y-109983638D02*
X39622314Y-109983638D01*
X38669933Y-109983638D02*
X38622314Y-109888400D01*
X38622314Y-109697923D01*
X38669933Y-109602685D01*
X38717552Y-109555066D01*
X38812790Y-109507447D01*
X39098504Y-109507447D01*
X39193742Y-109555066D01*
X39241361Y-109602685D01*
X39288980Y-109697923D01*
X39288980Y-109888400D01*
X39241361Y-109983638D01*
X39241361Y-108697923D02*
X39288980Y-108793161D01*
X39288980Y-108983638D01*
X39241361Y-109078876D01*
X39146123Y-109126495D01*
X38765171Y-109126495D01*
X38669933Y-109078876D01*
X38622314Y-108983638D01*
X38622314Y-108793161D01*
X38669933Y-108697923D01*
X38765171Y-108650304D01*
X38860409Y-108650304D01*
X38955647Y-109126495D01*
X39288980Y-108221733D02*
X38622314Y-108221733D01*
X38812790Y-108221733D02*
X38717552Y-108174114D01*
X38669933Y-108126495D01*
X38622314Y-108031257D01*
X38622314Y-107936019D01*
X38901714Y-105074695D02*
X39568380Y-104836600D01*
X38901714Y-104598504D01*
X39568380Y-104217552D02*
X38901714Y-104217552D01*
X38568380Y-104217552D02*
X38616000Y-104265171D01*
X38663619Y-104217552D01*
X38616000Y-104169933D01*
X38568380Y-104217552D01*
X38663619Y-104217552D01*
X39568380Y-103741361D02*
X38568380Y-103741361D01*
X38949333Y-103741361D02*
X38901714Y-103646123D01*
X38901714Y-103455647D01*
X38949333Y-103360409D01*
X38996952Y-103312790D01*
X39092190Y-103265171D01*
X39377904Y-103265171D01*
X39473142Y-103312790D01*
X39520761Y-103360409D01*
X39568380Y-103455647D01*
X39568380Y-103646123D01*
X39520761Y-103741361D01*
X39568380Y-102836600D02*
X38901714Y-102836600D01*
X39092190Y-102836600D02*
X38996952Y-102788980D01*
X38949333Y-102741361D01*
X38901714Y-102646123D01*
X38901714Y-102550885D01*
X39568380Y-101788980D02*
X39044571Y-101788980D01*
X38949333Y-101836600D01*
X38901714Y-101931838D01*
X38901714Y-102122314D01*
X38949333Y-102217552D01*
X39520761Y-101788980D02*
X39568380Y-101884219D01*
X39568380Y-102122314D01*
X39520761Y-102217552D01*
X39425523Y-102265171D01*
X39330285Y-102265171D01*
X39235047Y-102217552D01*
X39187428Y-102122314D01*
X39187428Y-101884219D01*
X39139809Y-101788980D01*
X38901714Y-101455647D02*
X38901714Y-101074695D01*
X38568380Y-101312790D02*
X39425523Y-101312790D01*
X39520761Y-101265171D01*
X39568380Y-101169933D01*
X39568380Y-101074695D01*
X39568380Y-100598504D02*
X39520761Y-100693742D01*
X39473142Y-100741361D01*
X39377904Y-100788980D01*
X39092190Y-100788980D01*
X38996952Y-100741361D01*
X38949333Y-100693742D01*
X38901714Y-100598504D01*
X38901714Y-100455647D01*
X38949333Y-100360409D01*
X38996952Y-100312790D01*
X39092190Y-100265171D01*
X39377904Y-100265171D01*
X39473142Y-100312790D01*
X39520761Y-100360409D01*
X39568380Y-100455647D01*
X39568380Y-100598504D01*
X39568380Y-99836600D02*
X38901714Y-99836600D01*
X39092190Y-99836600D02*
X38996952Y-99788980D01*
X38949333Y-99741361D01*
X38901714Y-99646123D01*
X38901714Y-99550885D01*
X57429447Y-34691628D02*
X58191352Y-34691628D01*
X57810400Y-35072580D02*
X57810400Y-34310676D01*
X56667447Y-46147028D02*
X57429352Y-46147028D01*
X57048400Y-46527980D02*
X57048400Y-45766076D01*
D12*
X72699935Y-38963600D02*
G75*
G03*
X72699935Y-38963600I-944935J0D01*
G01*
D10*
X129408180Y-85874123D02*
X128408180Y-85874123D01*
X129408180Y-85302695D01*
X128408180Y-85302695D01*
X128408180Y-84636028D02*
X128408180Y-84445552D01*
X128455800Y-84350314D01*
X128551038Y-84255076D01*
X128741514Y-84207457D01*
X129074847Y-84207457D01*
X129265323Y-84255076D01*
X129360561Y-84350314D01*
X129408180Y-84445552D01*
X129408180Y-84636028D01*
X129360561Y-84731266D01*
X129265323Y-84826504D01*
X129074847Y-84874123D01*
X128741514Y-84874123D01*
X128551038Y-84826504D01*
X128455800Y-84731266D01*
X128408180Y-84636028D01*
X128881142Y-80884542D02*
X128928761Y-80932161D01*
X128976380Y-81075019D01*
X128976380Y-81170257D01*
X128928761Y-81313114D01*
X128833523Y-81408352D01*
X128738285Y-81455971D01*
X128547809Y-81503590D01*
X128404952Y-81503590D01*
X128214476Y-81455971D01*
X128119238Y-81408352D01*
X128024000Y-81313114D01*
X127976380Y-81170257D01*
X127976380Y-81075019D01*
X128024000Y-80932161D01*
X128071619Y-80884542D01*
X127976380Y-80265495D02*
X127976380Y-80075019D01*
X128024000Y-79979780D01*
X128119238Y-79884542D01*
X128309714Y-79836923D01*
X128643047Y-79836923D01*
X128833523Y-79884542D01*
X128928761Y-79979780D01*
X128976380Y-80075019D01*
X128976380Y-80265495D01*
X128928761Y-80360733D01*
X128833523Y-80455971D01*
X128643047Y-80503590D01*
X128309714Y-80503590D01*
X128119238Y-80455971D01*
X128024000Y-80360733D01*
X127976380Y-80265495D01*
X128976380Y-79408352D02*
X127976380Y-79408352D01*
X128690666Y-79075019D01*
X127976380Y-78741685D01*
X128976380Y-78741685D01*
X128976380Y-78265495D02*
X127976380Y-78265495D01*
X128690666Y-77932161D01*
X127976380Y-77598828D01*
X128976380Y-77598828D01*
X128646180Y-75258514D02*
X127646180Y-75258514D01*
X128646180Y-74687085D01*
X127646180Y-74687085D01*
X128550942Y-73639466D02*
X128598561Y-73687085D01*
X128646180Y-73829942D01*
X128646180Y-73925180D01*
X128598561Y-74068038D01*
X128503323Y-74163276D01*
X128408085Y-74210895D01*
X128217609Y-74258514D01*
X128074752Y-74258514D01*
X127884276Y-74210895D01*
X127789038Y-74163276D01*
X127693800Y-74068038D01*
X127646180Y-73925180D01*
X127646180Y-73829942D01*
X127693800Y-73687085D01*
X127741419Y-73639466D01*
X128550942Y-63358542D02*
X128598561Y-63406161D01*
X128646180Y-63549019D01*
X128646180Y-63644257D01*
X128598561Y-63787114D01*
X128503323Y-63882352D01*
X128408085Y-63929971D01*
X128217609Y-63977590D01*
X128074752Y-63977590D01*
X127884276Y-63929971D01*
X127789038Y-63882352D01*
X127693800Y-63787114D01*
X127646180Y-63644257D01*
X127646180Y-63549019D01*
X127693800Y-63406161D01*
X127741419Y-63358542D01*
X127646180Y-62739495D02*
X127646180Y-62549019D01*
X127693800Y-62453780D01*
X127789038Y-62358542D01*
X127979514Y-62310923D01*
X128312847Y-62310923D01*
X128503323Y-62358542D01*
X128598561Y-62453780D01*
X128646180Y-62549019D01*
X128646180Y-62739495D01*
X128598561Y-62834733D01*
X128503323Y-62929971D01*
X128312847Y-62977590D01*
X127979514Y-62977590D01*
X127789038Y-62929971D01*
X127693800Y-62834733D01*
X127646180Y-62739495D01*
X128646180Y-61882352D02*
X127646180Y-61882352D01*
X128360466Y-61549019D01*
X127646180Y-61215685D01*
X128646180Y-61215685D01*
X128646180Y-60739495D02*
X127646180Y-60739495D01*
X128360466Y-60406161D01*
X127646180Y-60072828D01*
X128646180Y-60072828D01*
X128519180Y-67992523D02*
X127519180Y-67992523D01*
X128519180Y-67421095D01*
X127519180Y-67421095D01*
X127519180Y-66754428D02*
X127519180Y-66563952D01*
X127566800Y-66468714D01*
X127662038Y-66373476D01*
X127852514Y-66325857D01*
X128185847Y-66325857D01*
X128376323Y-66373476D01*
X128471561Y-66468714D01*
X128519180Y-66563952D01*
X128519180Y-66754428D01*
X128471561Y-66849666D01*
X128376323Y-66944904D01*
X128185847Y-66992523D01*
X127852514Y-66992523D01*
X127662038Y-66944904D01*
X127566800Y-66849666D01*
X127519180Y-66754428D01*
X128696980Y-57249914D02*
X127696980Y-57249914D01*
X128696980Y-56678485D01*
X127696980Y-56678485D01*
X128601742Y-55630866D02*
X128649361Y-55678485D01*
X128696980Y-55821342D01*
X128696980Y-55916580D01*
X128649361Y-56059438D01*
X128554123Y-56154676D01*
X128458885Y-56202295D01*
X128268409Y-56249914D01*
X128125552Y-56249914D01*
X127935076Y-56202295D01*
X127839838Y-56154676D01*
X127744600Y-56059438D01*
X127696980Y-55916580D01*
X127696980Y-55821342D01*
X127744600Y-55678485D01*
X127792219Y-55630866D01*
X128493780Y-49552123D02*
X127493780Y-49552123D01*
X128493780Y-48980695D01*
X127493780Y-48980695D01*
X127493780Y-48314028D02*
X127493780Y-48123552D01*
X127541400Y-48028314D01*
X127636638Y-47933076D01*
X127827114Y-47885457D01*
X128160447Y-47885457D01*
X128350923Y-47933076D01*
X128446161Y-48028314D01*
X128493780Y-48123552D01*
X128493780Y-48314028D01*
X128446161Y-48409266D01*
X128350923Y-48504504D01*
X128160447Y-48552123D01*
X127827114Y-48552123D01*
X127636638Y-48504504D01*
X127541400Y-48409266D01*
X127493780Y-48314028D01*
X128271542Y-44714942D02*
X128319161Y-44762561D01*
X128366780Y-44905419D01*
X128366780Y-45000657D01*
X128319161Y-45143514D01*
X128223923Y-45238752D01*
X128128685Y-45286371D01*
X127938209Y-45333990D01*
X127795352Y-45333990D01*
X127604876Y-45286371D01*
X127509638Y-45238752D01*
X127414400Y-45143514D01*
X127366780Y-45000657D01*
X127366780Y-44905419D01*
X127414400Y-44762561D01*
X127462019Y-44714942D01*
X127366780Y-44095895D02*
X127366780Y-43905419D01*
X127414400Y-43810180D01*
X127509638Y-43714942D01*
X127700114Y-43667323D01*
X128033447Y-43667323D01*
X128223923Y-43714942D01*
X128319161Y-43810180D01*
X128366780Y-43905419D01*
X128366780Y-44095895D01*
X128319161Y-44191133D01*
X128223923Y-44286371D01*
X128033447Y-44333990D01*
X127700114Y-44333990D01*
X127509638Y-44286371D01*
X127414400Y-44191133D01*
X127366780Y-44095895D01*
X128366780Y-43238752D02*
X127366780Y-43238752D01*
X128081066Y-42905419D01*
X127366780Y-42572085D01*
X128366780Y-42572085D01*
X128366780Y-42095895D02*
X127366780Y-42095895D01*
X128081066Y-41762561D01*
X127366780Y-41429228D01*
X128366780Y-41429228D01*
X127960380Y-38834914D02*
X126960380Y-38834914D01*
X127960380Y-38263485D01*
X126960380Y-38263485D01*
X127865142Y-37215866D02*
X127912761Y-37263485D01*
X127960380Y-37406342D01*
X127960380Y-37501580D01*
X127912761Y-37644438D01*
X127817523Y-37739676D01*
X127722285Y-37787295D01*
X127531809Y-37834914D01*
X127388952Y-37834914D01*
X127198476Y-37787295D01*
X127103238Y-37739676D01*
X127008000Y-37644438D01*
X126960380Y-37501580D01*
X126960380Y-37406342D01*
X127008000Y-37263485D01*
X127055619Y-37215866D01*
X130300361Y-81416209D02*
X130347980Y-81511447D01*
X130347980Y-81701923D01*
X130300361Y-81797161D01*
X130252742Y-81844780D01*
X130157504Y-81892400D01*
X129871790Y-81892400D01*
X129776552Y-81844780D01*
X129728933Y-81797161D01*
X129681314Y-81701923D01*
X129681314Y-81511447D01*
X129728933Y-81416209D01*
X130347980Y-80987638D02*
X129347980Y-80987638D01*
X130347980Y-80559066D02*
X129824171Y-80559066D01*
X129728933Y-80606685D01*
X129681314Y-80701923D01*
X129681314Y-80844780D01*
X129728933Y-80940019D01*
X129776552Y-80987638D01*
X130347980Y-79654304D02*
X129824171Y-79654304D01*
X129728933Y-79701923D01*
X129681314Y-79797161D01*
X129681314Y-79987638D01*
X129728933Y-80082876D01*
X130300361Y-79654304D02*
X130347980Y-79749542D01*
X130347980Y-79987638D01*
X130300361Y-80082876D01*
X130205123Y-80130495D01*
X130109885Y-80130495D01*
X130014647Y-80082876D01*
X129967028Y-79987638D01*
X129967028Y-79749542D01*
X129919409Y-79654304D01*
X130347980Y-79178114D02*
X129681314Y-79178114D01*
X129776552Y-79178114D02*
X129728933Y-79130495D01*
X129681314Y-79035257D01*
X129681314Y-78892400D01*
X129728933Y-78797161D01*
X129824171Y-78749542D01*
X130347980Y-78749542D01*
X129824171Y-78749542D02*
X129728933Y-78701923D01*
X129681314Y-78606685D01*
X129681314Y-78463828D01*
X129728933Y-78368590D01*
X129824171Y-78320971D01*
X130347980Y-78320971D01*
X130347980Y-77844780D02*
X129347980Y-77844780D01*
X129728933Y-77844780D02*
X129681314Y-77749542D01*
X129681314Y-77559066D01*
X129728933Y-77463828D01*
X129776552Y-77416209D01*
X129871790Y-77368590D01*
X130157504Y-77368590D01*
X130252742Y-77416209D01*
X130300361Y-77463828D01*
X130347980Y-77559066D01*
X130347980Y-77749542D01*
X130300361Y-77844780D01*
X130300361Y-76559066D02*
X130347980Y-76654304D01*
X130347980Y-76844780D01*
X130300361Y-76940019D01*
X130205123Y-76987638D01*
X129824171Y-76987638D01*
X129728933Y-76940019D01*
X129681314Y-76844780D01*
X129681314Y-76654304D01*
X129728933Y-76559066D01*
X129824171Y-76511447D01*
X129919409Y-76511447D01*
X130014647Y-76987638D01*
X130347980Y-76082876D02*
X129681314Y-76082876D01*
X129871790Y-76082876D02*
X129776552Y-76035257D01*
X129728933Y-75987638D01*
X129681314Y-75892400D01*
X129681314Y-75797161D01*
X129376514Y-63926695D02*
X130043180Y-63688600D01*
X129376514Y-63450504D01*
X130043180Y-63069552D02*
X129376514Y-63069552D01*
X129043180Y-63069552D02*
X129090800Y-63117171D01*
X129138419Y-63069552D01*
X129090800Y-63021933D01*
X129043180Y-63069552D01*
X129138419Y-63069552D01*
X130043180Y-62593361D02*
X129043180Y-62593361D01*
X129424133Y-62593361D02*
X129376514Y-62498123D01*
X129376514Y-62307647D01*
X129424133Y-62212409D01*
X129471752Y-62164790D01*
X129566990Y-62117171D01*
X129852704Y-62117171D01*
X129947942Y-62164790D01*
X129995561Y-62212409D01*
X130043180Y-62307647D01*
X130043180Y-62498123D01*
X129995561Y-62593361D01*
X130043180Y-61688600D02*
X129376514Y-61688600D01*
X129566990Y-61688600D02*
X129471752Y-61640980D01*
X129424133Y-61593361D01*
X129376514Y-61498123D01*
X129376514Y-61402885D01*
X130043180Y-60640980D02*
X129519371Y-60640980D01*
X129424133Y-60688600D01*
X129376514Y-60783838D01*
X129376514Y-60974314D01*
X129424133Y-61069552D01*
X129995561Y-60640980D02*
X130043180Y-60736219D01*
X130043180Y-60974314D01*
X129995561Y-61069552D01*
X129900323Y-61117171D01*
X129805085Y-61117171D01*
X129709847Y-61069552D01*
X129662228Y-60974314D01*
X129662228Y-60736219D01*
X129614609Y-60640980D01*
X129376514Y-60307647D02*
X129376514Y-59926695D01*
X129043180Y-60164790D02*
X129900323Y-60164790D01*
X129995561Y-60117171D01*
X130043180Y-60021933D01*
X130043180Y-59926695D01*
X130043180Y-59450504D02*
X129995561Y-59545742D01*
X129947942Y-59593361D01*
X129852704Y-59640980D01*
X129566990Y-59640980D01*
X129471752Y-59593361D01*
X129424133Y-59545742D01*
X129376514Y-59450504D01*
X129376514Y-59307647D01*
X129424133Y-59212409D01*
X129471752Y-59164790D01*
X129566990Y-59117171D01*
X129852704Y-59117171D01*
X129947942Y-59164790D01*
X129995561Y-59212409D01*
X130043180Y-59307647D01*
X130043180Y-59450504D01*
X130043180Y-58688600D02*
X129376514Y-58688600D01*
X129566990Y-58688600D02*
X129471752Y-58640980D01*
X129424133Y-58593361D01*
X129376514Y-58498123D01*
X129376514Y-58402885D01*
X129916180Y-44651323D02*
X128916180Y-44651323D01*
X129916180Y-44222752D02*
X129392371Y-44222752D01*
X129297133Y-44270371D01*
X129249514Y-44365609D01*
X129249514Y-44508466D01*
X129297133Y-44603704D01*
X129344752Y-44651323D01*
X129916180Y-43603704D02*
X129868561Y-43698942D01*
X129820942Y-43746561D01*
X129725704Y-43794180D01*
X129439990Y-43794180D01*
X129344752Y-43746561D01*
X129297133Y-43698942D01*
X129249514Y-43603704D01*
X129249514Y-43460847D01*
X129297133Y-43365609D01*
X129344752Y-43317990D01*
X129439990Y-43270371D01*
X129725704Y-43270371D01*
X129820942Y-43317990D01*
X129868561Y-43365609D01*
X129916180Y-43460847D01*
X129916180Y-43603704D01*
X129249514Y-42841800D02*
X130249514Y-42841800D01*
X129297133Y-42841800D02*
X129249514Y-42746561D01*
X129249514Y-42556085D01*
X129297133Y-42460847D01*
X129344752Y-42413228D01*
X129439990Y-42365609D01*
X129725704Y-42365609D01*
X129820942Y-42413228D01*
X129868561Y-42460847D01*
X129916180Y-42556085D01*
X129916180Y-42746561D01*
X129868561Y-42841800D01*
X129249514Y-41937038D02*
X130249514Y-41937038D01*
X129297133Y-41937038D02*
X129249514Y-41841800D01*
X129249514Y-41651323D01*
X129297133Y-41556085D01*
X129344752Y-41508466D01*
X129439990Y-41460847D01*
X129725704Y-41460847D01*
X129820942Y-41508466D01*
X129868561Y-41556085D01*
X129916180Y-41651323D01*
X129916180Y-41841800D01*
X129868561Y-41937038D01*
X129868561Y-40651323D02*
X129916180Y-40746561D01*
X129916180Y-40937038D01*
X129868561Y-41032276D01*
X129773323Y-41079895D01*
X129392371Y-41079895D01*
X129297133Y-41032276D01*
X129249514Y-40937038D01*
X129249514Y-40746561D01*
X129297133Y-40651323D01*
X129392371Y-40603704D01*
X129487609Y-40603704D01*
X129582847Y-41079895D01*
X129916180Y-40175133D02*
X129249514Y-40175133D01*
X129439990Y-40175133D02*
X129344752Y-40127514D01*
X129297133Y-40079895D01*
X129249514Y-39984657D01*
X129249514Y-39889419D01*
D12*
%TO.C,J4*%
X41434000Y-43833800D02*
X41434000Y-34833800D01*
X41434000Y-34833800D02*
X45434000Y-34833800D01*
X45434000Y-34833800D02*
X45434000Y-43833800D01*
X45434000Y-43833800D02*
X41434000Y-43833800D01*
%TO.C,J5*%
X121028200Y-36074600D02*
X126028200Y-36074600D01*
X121028200Y-50074600D02*
X121028200Y-36074600D01*
X122028200Y-50074600D02*
X121028200Y-50074600D01*
X126028200Y-50074600D02*
X122028200Y-50074600D01*
X126028200Y-36074600D02*
X126028200Y-50074600D01*
%TO.C,J1*%
X47119800Y-61436000D02*
X42119800Y-61436000D01*
X47119800Y-47436000D02*
X47119800Y-61436000D01*
X46119800Y-47436000D02*
X47119800Y-47436000D01*
X42119800Y-47436000D02*
X46119800Y-47436000D01*
X42119800Y-61436000D02*
X42119800Y-47436000D01*
%TO.C,J2*%
X46713400Y-78758800D02*
X41713400Y-78758800D01*
X46713400Y-64758800D02*
X46713400Y-78758800D01*
X45713400Y-64758800D02*
X46713400Y-64758800D01*
X41713400Y-64758800D02*
X45713400Y-64758800D01*
X41713400Y-78758800D02*
X41713400Y-64758800D01*
%TO.C,J3*%
X46967400Y-96538800D02*
X41967400Y-96538800D01*
X46967400Y-82538800D02*
X46967400Y-96538800D01*
X45967400Y-82538800D02*
X46967400Y-82538800D01*
X41967400Y-82538800D02*
X45967400Y-82538800D01*
X41967400Y-96538800D02*
X41967400Y-82538800D01*
%TO.C,J6*%
X121155200Y-54692800D02*
X126155200Y-54692800D01*
X121155200Y-68692800D02*
X121155200Y-54692800D01*
X122155200Y-68692800D02*
X121155200Y-68692800D01*
X126155200Y-68692800D02*
X122155200Y-68692800D01*
X126155200Y-54692800D02*
X126155200Y-68692800D01*
%TO.C,J7*%
X121282200Y-72726800D02*
X126282200Y-72726800D01*
X121282200Y-86726800D02*
X121282200Y-72726800D01*
X122282200Y-86726800D02*
X121282200Y-86726800D01*
X126282200Y-86726800D02*
X122282200Y-86726800D01*
X126282200Y-72726800D02*
X126282200Y-86726800D01*
%TO.C,U5*%
X77316400Y-102879200D02*
X77316400Y-113739200D01*
X55576400Y-102879200D02*
X55576400Y-113739200D01*
X52846400Y-100809200D02*
X80046400Y-100809200D01*
X52846400Y-120069200D02*
X80046400Y-120069200D01*
X55576400Y-113739200D02*
X77316400Y-113739200D01*
X55576400Y-102879200D02*
X77316400Y-102879200D01*
X52846400Y-124039200D02*
X80046400Y-124039200D01*
X80046400Y-96839200D02*
X80046400Y-124039200D01*
X52846400Y-96839200D02*
X80046400Y-96839200D01*
X52846400Y-96839200D02*
X52846400Y-124039200D01*
%TO.C,A1*%
X92103400Y-35125200D02*
X74063400Y-35125200D01*
X92103400Y-78565200D02*
X92103400Y-35125200D01*
X74063400Y-78565200D02*
X92103400Y-78565200D01*
X76733400Y-75895200D02*
X74063400Y-75895200D01*
X76733400Y-40335200D02*
X76733400Y-75895200D01*
X76733400Y-40335200D02*
X74063400Y-40335200D01*
X89433400Y-75895200D02*
X92103400Y-75895200D01*
X89433400Y-37795200D02*
X89433400Y-75895200D01*
X89433400Y-37795200D02*
X92103400Y-37795200D01*
X74063400Y-35125200D02*
X74063400Y-37795200D01*
X74063400Y-40335200D02*
X74063400Y-78565200D01*
X76733400Y-37795200D02*
X74063400Y-37795200D01*
X76733400Y-40335200D02*
X76733400Y-37795200D01*
%TO.C,D1*%
X54040600Y-57772800D02*
X54040600Y-57928800D01*
X54040600Y-55456800D02*
X54040600Y-55612800D01*
X56641730Y-57772637D02*
G75*
G02*
X54559639Y-57772800I-1041130J1079837D01*
G01*
X56641730Y-55612963D02*
G75*
G03*
X54559639Y-55612800I-1041130J-1079837D01*
G01*
X57272935Y-57771408D02*
G75*
G02*
X54040600Y-57928316I-1672335J1078608D01*
G01*
X57272935Y-55614192D02*
G75*
G03*
X54040600Y-55457284I-1672335J-1078608D01*
G01*
%TO.C,D2*%
X54167600Y-86297000D02*
X54167600Y-86453000D01*
X54167600Y-83981000D02*
X54167600Y-84137000D01*
X56768730Y-86296837D02*
G75*
G02*
X54686639Y-86297000I-1041130J1079837D01*
G01*
X56768730Y-84137163D02*
G75*
G03*
X54686639Y-84137000I-1041130J-1079837D01*
G01*
X57399935Y-86295608D02*
G75*
G02*
X54167600Y-86452516I-1672335J1078608D01*
G01*
X57399935Y-84138392D02*
G75*
G03*
X54167600Y-83981484I-1672335J-1078608D01*
G01*
%TO.C,D3*%
X54853400Y-71387200D02*
X54853400Y-71543200D01*
X54853400Y-69071200D02*
X54853400Y-69227200D01*
X57454530Y-71387037D02*
G75*
G02*
X55372439Y-71387200I-1041130J1079837D01*
G01*
X57454530Y-69227363D02*
G75*
G03*
X55372439Y-69227200I-1041130J-1079837D01*
G01*
X58085735Y-71385808D02*
G75*
G02*
X54853400Y-71542716I-1672335J1078608D01*
G01*
X58085735Y-69228592D02*
G75*
G03*
X54853400Y-69071684I-1672335J-1078608D01*
G01*
%TO.C,D4*%
X99070600Y-93052400D02*
X99070600Y-92896400D01*
X99070600Y-95368400D02*
X99070600Y-95212400D01*
X96469470Y-93052563D02*
G75*
G02*
X98551561Y-93052400I1041130J-1079837D01*
G01*
X96469470Y-95212237D02*
G75*
G03*
X98551561Y-95212400I1041130J1079837D01*
G01*
X95838265Y-93053792D02*
G75*
G02*
X99070600Y-92896884I1672335J-1078608D01*
G01*
X95838265Y-95211008D02*
G75*
G03*
X99070600Y-95367916I1672335J1078608D01*
G01*
%TO.C,D5*%
X126756600Y-91884000D02*
X126756600Y-91728000D01*
X126756600Y-94200000D02*
X126756600Y-94044000D01*
X124155470Y-91884163D02*
G75*
G02*
X126237561Y-91884000I1041130J-1079837D01*
G01*
X124155470Y-94043837D02*
G75*
G03*
X126237561Y-94044000I1041130J1079837D01*
G01*
X123524265Y-91885392D02*
G75*
G02*
X126756600Y-91728484I1672335J-1078608D01*
G01*
X123524265Y-94042608D02*
G75*
G03*
X126756600Y-94199516I1672335J1078608D01*
G01*
%TO.C,D6*%
X113015200Y-91960200D02*
X113015200Y-91804200D01*
X113015200Y-94276200D02*
X113015200Y-94120200D01*
X110414070Y-91960363D02*
G75*
G02*
X112496161Y-91960200I1041130J-1079837D01*
G01*
X110414070Y-94120037D02*
G75*
G03*
X112496161Y-94120200I1041130J1079837D01*
G01*
X109782865Y-91961592D02*
G75*
G02*
X113015200Y-91804684I1672335J-1078608D01*
G01*
X109782865Y-94118808D02*
G75*
G03*
X113015200Y-94275716I1672335J1078608D01*
G01*
%TO.C,K1*%
X98229400Y-35010200D02*
X118229400Y-35010200D01*
X118229400Y-35010200D02*
X118229400Y-51510200D01*
X118229400Y-51510200D02*
X98229400Y-51510200D01*
X98229400Y-51510200D02*
X98229400Y-35010200D01*
%TO.C,K2*%
X97975400Y-54034800D02*
X117975400Y-54034800D01*
X117975400Y-54034800D02*
X117975400Y-70534800D01*
X117975400Y-70534800D02*
X97975400Y-70534800D01*
X97975400Y-70534800D02*
X97975400Y-54034800D01*
%TO.C,K3*%
X97696000Y-72018000D02*
X117696000Y-72018000D01*
X117696000Y-72018000D02*
X117696000Y-88518000D01*
X117696000Y-88518000D02*
X97696000Y-88518000D01*
X97696000Y-88518000D02*
X97696000Y-72018000D01*
%TO.C,C1*%
X57593600Y-36991800D02*
G75*
G03*
X57593600Y-36991800I-2120000J0D01*
G01*
X57553600Y-36991800D02*
X53393600Y-36991800D01*
X57553600Y-37031800D02*
X53393600Y-37031800D01*
X57552600Y-37071800D02*
X53394600Y-37071800D01*
X57550600Y-37111800D02*
X53396600Y-37111800D01*
X57547600Y-37151800D02*
X53399600Y-37151800D01*
X57544600Y-37191800D02*
X56313600Y-37191800D01*
X54633600Y-37191800D02*
X53402600Y-37191800D01*
X57540600Y-37231800D02*
X56313600Y-37231800D01*
X54633600Y-37231800D02*
X53406600Y-37231800D01*
X57535600Y-37271800D02*
X56313600Y-37271800D01*
X54633600Y-37271800D02*
X53411600Y-37271800D01*
X57529600Y-37311800D02*
X56313600Y-37311800D01*
X54633600Y-37311800D02*
X53417600Y-37311800D01*
X57523600Y-37351800D02*
X56313600Y-37351800D01*
X54633600Y-37351800D02*
X53423600Y-37351800D01*
X57515600Y-37391800D02*
X56313600Y-37391800D01*
X54633600Y-37391800D02*
X53431600Y-37391800D01*
X57507600Y-37431800D02*
X56313600Y-37431800D01*
X54633600Y-37431800D02*
X53439600Y-37431800D01*
X57498600Y-37471800D02*
X56313600Y-37471800D01*
X54633600Y-37471800D02*
X53448600Y-37471800D01*
X57489600Y-37511800D02*
X56313600Y-37511800D01*
X54633600Y-37511800D02*
X53457600Y-37511800D01*
X57478600Y-37551800D02*
X56313600Y-37551800D01*
X54633600Y-37551800D02*
X53468600Y-37551800D01*
X57467600Y-37591800D02*
X56313600Y-37591800D01*
X54633600Y-37591800D02*
X53479600Y-37591800D01*
X57455600Y-37631800D02*
X56313600Y-37631800D01*
X54633600Y-37631800D02*
X53491600Y-37631800D01*
X57441600Y-37671800D02*
X56313600Y-37671800D01*
X54633600Y-37671800D02*
X53505600Y-37671800D01*
X57427600Y-37712800D02*
X56313600Y-37712800D01*
X54633600Y-37712800D02*
X53519600Y-37712800D01*
X57413600Y-37752800D02*
X56313600Y-37752800D01*
X54633600Y-37752800D02*
X53533600Y-37752800D01*
X57397600Y-37792800D02*
X56313600Y-37792800D01*
X54633600Y-37792800D02*
X53549600Y-37792800D01*
X57380600Y-37832800D02*
X56313600Y-37832800D01*
X54633600Y-37832800D02*
X53566600Y-37832800D01*
X57362600Y-37872800D02*
X56313600Y-37872800D01*
X54633600Y-37872800D02*
X53584600Y-37872800D01*
X57343600Y-37912800D02*
X56313600Y-37912800D01*
X54633600Y-37912800D02*
X53603600Y-37912800D01*
X57324600Y-37952800D02*
X56313600Y-37952800D01*
X54633600Y-37952800D02*
X53622600Y-37952800D01*
X57303600Y-37992800D02*
X56313600Y-37992800D01*
X54633600Y-37992800D02*
X53643600Y-37992800D01*
X57281600Y-38032800D02*
X56313600Y-38032800D01*
X54633600Y-38032800D02*
X53665600Y-38032800D01*
X57258600Y-38072800D02*
X56313600Y-38072800D01*
X54633600Y-38072800D02*
X53688600Y-38072800D01*
X57233600Y-38112800D02*
X56313600Y-38112800D01*
X54633600Y-38112800D02*
X53713600Y-38112800D01*
X57208600Y-38152800D02*
X56313600Y-38152800D01*
X54633600Y-38152800D02*
X53738600Y-38152800D01*
X57181600Y-38192800D02*
X56313600Y-38192800D01*
X54633600Y-38192800D02*
X53765600Y-38192800D01*
X57153600Y-38232800D02*
X56313600Y-38232800D01*
X54633600Y-38232800D02*
X53793600Y-38232800D01*
X57123600Y-38272800D02*
X56313600Y-38272800D01*
X54633600Y-38272800D02*
X53823600Y-38272800D01*
X57092600Y-38312800D02*
X56313600Y-38312800D01*
X54633600Y-38312800D02*
X53854600Y-38312800D01*
X57060600Y-38352800D02*
X56313600Y-38352800D01*
X54633600Y-38352800D02*
X53886600Y-38352800D01*
X57025600Y-38392800D02*
X56313600Y-38392800D01*
X54633600Y-38392800D02*
X53921600Y-38392800D01*
X56989600Y-38432800D02*
X56313600Y-38432800D01*
X54633600Y-38432800D02*
X53957600Y-38432800D01*
X56951600Y-38472800D02*
X56313600Y-38472800D01*
X54633600Y-38472800D02*
X53995600Y-38472800D01*
X56911600Y-38512800D02*
X56313600Y-38512800D01*
X54633600Y-38512800D02*
X54035600Y-38512800D01*
X56869600Y-38552800D02*
X56313600Y-38552800D01*
X54633600Y-38552800D02*
X54077600Y-38552800D01*
X56824600Y-38592800D02*
X56313600Y-38592800D01*
X54633600Y-38592800D02*
X54122600Y-38592800D01*
X56777600Y-38632800D02*
X56313600Y-38632800D01*
X54633600Y-38632800D02*
X54169600Y-38632800D01*
X56727600Y-38672800D02*
X56313600Y-38672800D01*
X54633600Y-38672800D02*
X54219600Y-38672800D01*
X56673600Y-38712800D02*
X56313600Y-38712800D01*
X54633600Y-38712800D02*
X54273600Y-38712800D01*
X56615600Y-38752800D02*
X56313600Y-38752800D01*
X54633600Y-38752800D02*
X54331600Y-38752800D01*
X56553600Y-38792800D02*
X56313600Y-38792800D01*
X54633600Y-38792800D02*
X54393600Y-38792800D01*
X56486600Y-38832800D02*
X54460600Y-38832800D01*
X56413600Y-38872800D02*
X54533600Y-38872800D01*
X56332600Y-38912800D02*
X54614600Y-38912800D01*
X56241600Y-38952800D02*
X54705600Y-38952800D01*
X56137600Y-38992800D02*
X54809600Y-38992800D01*
X56010600Y-39032800D02*
X54936600Y-39032800D01*
X55843600Y-39072800D02*
X55103600Y-39072800D01*
X56668600Y-34721999D02*
X56668600Y-35121999D01*
X56868600Y-34921999D02*
X56468600Y-34921999D01*
%TO.C,C2*%
X57542800Y-43348400D02*
G75*
G03*
X57542800Y-43348400I-2120000J0D01*
G01*
X53342800Y-43348400D02*
X57502800Y-43348400D01*
X53342800Y-43308400D02*
X57502800Y-43308400D01*
X53343800Y-43268400D02*
X57501800Y-43268400D01*
X53345800Y-43228400D02*
X57499800Y-43228400D01*
X53348800Y-43188400D02*
X57496800Y-43188400D01*
X53351800Y-43148400D02*
X54582800Y-43148400D01*
X56262800Y-43148400D02*
X57493800Y-43148400D01*
X53355800Y-43108400D02*
X54582800Y-43108400D01*
X56262800Y-43108400D02*
X57489800Y-43108400D01*
X53360800Y-43068400D02*
X54582800Y-43068400D01*
X56262800Y-43068400D02*
X57484800Y-43068400D01*
X53366800Y-43028400D02*
X54582800Y-43028400D01*
X56262800Y-43028400D02*
X57478800Y-43028400D01*
X53372800Y-42988400D02*
X54582800Y-42988400D01*
X56262800Y-42988400D02*
X57472800Y-42988400D01*
X53380800Y-42948400D02*
X54582800Y-42948400D01*
X56262800Y-42948400D02*
X57464800Y-42948400D01*
X53388800Y-42908400D02*
X54582800Y-42908400D01*
X56262800Y-42908400D02*
X57456800Y-42908400D01*
X53397800Y-42868400D02*
X54582800Y-42868400D01*
X56262800Y-42868400D02*
X57447800Y-42868400D01*
X53406800Y-42828400D02*
X54582800Y-42828400D01*
X56262800Y-42828400D02*
X57438800Y-42828400D01*
X53417800Y-42788400D02*
X54582800Y-42788400D01*
X56262800Y-42788400D02*
X57427800Y-42788400D01*
X53428800Y-42748400D02*
X54582800Y-42748400D01*
X56262800Y-42748400D02*
X57416800Y-42748400D01*
X53440800Y-42708400D02*
X54582800Y-42708400D01*
X56262800Y-42708400D02*
X57404800Y-42708400D01*
X53454800Y-42668400D02*
X54582800Y-42668400D01*
X56262800Y-42668400D02*
X57390800Y-42668400D01*
X53468800Y-42627400D02*
X54582800Y-42627400D01*
X56262800Y-42627400D02*
X57376800Y-42627400D01*
X53482800Y-42587400D02*
X54582800Y-42587400D01*
X56262800Y-42587400D02*
X57362800Y-42587400D01*
X53498800Y-42547400D02*
X54582800Y-42547400D01*
X56262800Y-42547400D02*
X57346800Y-42547400D01*
X53515800Y-42507400D02*
X54582800Y-42507400D01*
X56262800Y-42507400D02*
X57329800Y-42507400D01*
X53533800Y-42467400D02*
X54582800Y-42467400D01*
X56262800Y-42467400D02*
X57311800Y-42467400D01*
X53552800Y-42427400D02*
X54582800Y-42427400D01*
X56262800Y-42427400D02*
X57292800Y-42427400D01*
X53571800Y-42387400D02*
X54582800Y-42387400D01*
X56262800Y-42387400D02*
X57273800Y-42387400D01*
X53592800Y-42347400D02*
X54582800Y-42347400D01*
X56262800Y-42347400D02*
X57252800Y-42347400D01*
X53614800Y-42307400D02*
X54582800Y-42307400D01*
X56262800Y-42307400D02*
X57230800Y-42307400D01*
X53637800Y-42267400D02*
X54582800Y-42267400D01*
X56262800Y-42267400D02*
X57207800Y-42267400D01*
X53662800Y-42227400D02*
X54582800Y-42227400D01*
X56262800Y-42227400D02*
X57182800Y-42227400D01*
X53687800Y-42187400D02*
X54582800Y-42187400D01*
X56262800Y-42187400D02*
X57157800Y-42187400D01*
X53714800Y-42147400D02*
X54582800Y-42147400D01*
X56262800Y-42147400D02*
X57130800Y-42147400D01*
X53742800Y-42107400D02*
X54582800Y-42107400D01*
X56262800Y-42107400D02*
X57102800Y-42107400D01*
X53772800Y-42067400D02*
X54582800Y-42067400D01*
X56262800Y-42067400D02*
X57072800Y-42067400D01*
X53803800Y-42027400D02*
X54582800Y-42027400D01*
X56262800Y-42027400D02*
X57041800Y-42027400D01*
X53835800Y-41987400D02*
X54582800Y-41987400D01*
X56262800Y-41987400D02*
X57009800Y-41987400D01*
X53870800Y-41947400D02*
X54582800Y-41947400D01*
X56262800Y-41947400D02*
X56974800Y-41947400D01*
X53906800Y-41907400D02*
X54582800Y-41907400D01*
X56262800Y-41907400D02*
X56938800Y-41907400D01*
X53944800Y-41867400D02*
X54582800Y-41867400D01*
X56262800Y-41867400D02*
X56900800Y-41867400D01*
X53984800Y-41827400D02*
X54582800Y-41827400D01*
X56262800Y-41827400D02*
X56860800Y-41827400D01*
X54026800Y-41787400D02*
X54582800Y-41787400D01*
X56262800Y-41787400D02*
X56818800Y-41787400D01*
X54071800Y-41747400D02*
X54582800Y-41747400D01*
X56262800Y-41747400D02*
X56773800Y-41747400D01*
X54118800Y-41707400D02*
X54582800Y-41707400D01*
X56262800Y-41707400D02*
X56726800Y-41707400D01*
X54168800Y-41667400D02*
X54582800Y-41667400D01*
X56262800Y-41667400D02*
X56676800Y-41667400D01*
X54222800Y-41627400D02*
X54582800Y-41627400D01*
X56262800Y-41627400D02*
X56622800Y-41627400D01*
X54280800Y-41587400D02*
X54582800Y-41587400D01*
X56262800Y-41587400D02*
X56564800Y-41587400D01*
X54342800Y-41547400D02*
X54582800Y-41547400D01*
X56262800Y-41547400D02*
X56502800Y-41547400D01*
X54409800Y-41507400D02*
X56435800Y-41507400D01*
X54482800Y-41467400D02*
X56362800Y-41467400D01*
X54563800Y-41427400D02*
X56281800Y-41427400D01*
X54654800Y-41387400D02*
X56190800Y-41387400D01*
X54758800Y-41347400D02*
X56086800Y-41347400D01*
X54885800Y-41307400D02*
X55959800Y-41307400D01*
X55052800Y-41267400D02*
X55792800Y-41267400D01*
X54227800Y-45618201D02*
X54227800Y-45218201D01*
X54027800Y-45418201D02*
X54427800Y-45418201D01*
%TO.C,D7*%
X96220800Y-41057400D02*
X94380800Y-41057400D01*
X94380800Y-41057400D02*
X94380800Y-44337400D01*
X94380800Y-44337400D02*
X96220800Y-44337400D01*
X96220800Y-44337400D02*
X96220800Y-41057400D01*
X95300800Y-38607400D02*
X95300800Y-41057400D01*
X95300800Y-46787400D02*
X95300800Y-44337400D01*
X96220800Y-41633400D02*
X94380800Y-41633400D01*
X96220800Y-41753400D02*
X94380800Y-41753400D01*
X96220800Y-41513400D02*
X94380800Y-41513400D01*
%TO.C,D8*%
X95916000Y-59726400D02*
X94076000Y-59726400D01*
X94076000Y-59726400D02*
X94076000Y-63006400D01*
X94076000Y-63006400D02*
X95916000Y-63006400D01*
X95916000Y-63006400D02*
X95916000Y-59726400D01*
X94996000Y-57276400D02*
X94996000Y-59726400D01*
X94996000Y-65456400D02*
X94996000Y-63006400D01*
X95916000Y-60302400D02*
X94076000Y-60302400D01*
X95916000Y-60422400D02*
X94076000Y-60422400D01*
X95916000Y-60182400D02*
X94076000Y-60182400D01*
%TO.C,D9*%
X95585800Y-77531800D02*
X93745800Y-77531800D01*
X93745800Y-77531800D02*
X93745800Y-80811800D01*
X93745800Y-80811800D02*
X95585800Y-80811800D01*
X95585800Y-80811800D02*
X95585800Y-77531800D01*
X94665800Y-75081800D02*
X94665800Y-77531800D01*
X94665800Y-83261800D02*
X94665800Y-80811800D01*
X95585800Y-78107800D02*
X93745800Y-78107800D01*
X95585800Y-78227800D02*
X93745800Y-78227800D01*
X95585800Y-77987800D02*
X93745800Y-77987800D01*
%TO.C,R1*%
X62604400Y-62533200D02*
X62604400Y-59793200D01*
X62604400Y-59793200D02*
X56064400Y-59793200D01*
X56064400Y-59793200D02*
X56064400Y-62533200D01*
X56064400Y-62533200D02*
X62604400Y-62533200D01*
X63374400Y-61163200D02*
X62604400Y-61163200D01*
X55294400Y-61163200D02*
X56064400Y-61163200D01*
%TO.C,R2*%
X62502800Y-92962400D02*
X62502800Y-90222400D01*
X62502800Y-90222400D02*
X55962800Y-90222400D01*
X55962800Y-90222400D02*
X55962800Y-92962400D01*
X55962800Y-92962400D02*
X62502800Y-92962400D01*
X63272800Y-91592400D02*
X62502800Y-91592400D01*
X55192800Y-91592400D02*
X55962800Y-91592400D01*
%TO.C,R3*%
X63341000Y-77570000D02*
X63341000Y-74830000D01*
X63341000Y-74830000D02*
X56801000Y-74830000D01*
X56801000Y-74830000D02*
X56801000Y-77570000D01*
X56801000Y-77570000D02*
X63341000Y-77570000D01*
X64111000Y-76200000D02*
X63341000Y-76200000D01*
X56031000Y-76200000D02*
X56801000Y-76200000D01*
%TO.C,R4*%
X69233800Y-50823800D02*
X69233800Y-48083800D01*
X69233800Y-48083800D02*
X62693800Y-48083800D01*
X62693800Y-48083800D02*
X62693800Y-50823800D01*
X62693800Y-50823800D02*
X69233800Y-50823800D01*
X70003800Y-49453800D02*
X69233800Y-49453800D01*
X61923800Y-49453800D02*
X62693800Y-49453800D01*
%TO.C,R5*%
X70148200Y-66444800D02*
X70148200Y-63704800D01*
X70148200Y-63704800D02*
X63608200Y-63704800D01*
X63608200Y-63704800D02*
X63608200Y-66444800D01*
X63608200Y-66444800D02*
X70148200Y-66444800D01*
X70918200Y-65074800D02*
X70148200Y-65074800D01*
X62838200Y-65074800D02*
X63608200Y-65074800D01*
%TO.C,R6*%
X70834000Y-81507000D02*
X70834000Y-78767000D01*
X70834000Y-78767000D02*
X64294000Y-78767000D01*
X64294000Y-78767000D02*
X64294000Y-81507000D01*
X64294000Y-81507000D02*
X70834000Y-81507000D01*
X71604000Y-80137000D02*
X70834000Y-80137000D01*
X63524000Y-80137000D02*
X64294000Y-80137000D01*
%TO.C,R7*%
X90303600Y-97283600D02*
X90303600Y-100023600D01*
X90303600Y-100023600D02*
X96843600Y-100023600D01*
X96843600Y-100023600D02*
X96843600Y-97283600D01*
X96843600Y-97283600D02*
X90303600Y-97283600D01*
X89533600Y-98653600D02*
X90303600Y-98653600D01*
X97613600Y-98653600D02*
X96843600Y-98653600D01*
%TO.C,R8*%
X104527600Y-97537600D02*
X104527600Y-100277600D01*
X104527600Y-100277600D02*
X111067600Y-100277600D01*
X111067600Y-100277600D02*
X111067600Y-97537600D01*
X111067600Y-97537600D02*
X104527600Y-97537600D01*
X103757600Y-98907600D02*
X104527600Y-98907600D01*
X111837600Y-98907600D02*
X111067600Y-98907600D01*
%TO.C,R9*%
X118243600Y-97613800D02*
X118243600Y-100353800D01*
X118243600Y-100353800D02*
X124783600Y-100353800D01*
X124783600Y-100353800D02*
X124783600Y-97613800D01*
X124783600Y-97613800D02*
X118243600Y-97613800D01*
X117473600Y-98983800D02*
X118243600Y-98983800D01*
X125553600Y-98983800D02*
X124783600Y-98983800D01*
%TO.C,RV1*%
X49843000Y-121986200D02*
X40073000Y-121986200D01*
X49843000Y-116916200D02*
X40073000Y-116916200D01*
X49843000Y-121986200D02*
X49843000Y-116916200D01*
X40073000Y-121986200D02*
X40073000Y-116916200D01*
%TO.C,RV2*%
X49970000Y-112486600D02*
X40200000Y-112486600D01*
X49970000Y-107416600D02*
X40200000Y-107416600D01*
X49970000Y-112486600D02*
X49970000Y-107416600D01*
X40200000Y-112486600D02*
X40200000Y-107416600D01*
%TO.C,RV3*%
X50224000Y-104307800D02*
X40454000Y-104307800D01*
X50224000Y-99237800D02*
X40454000Y-99237800D01*
X50224000Y-104307800D02*
X50224000Y-99237800D01*
X40454000Y-104307800D02*
X40454000Y-99237800D01*
%TO.C,U1*%
X65271400Y-34605600D02*
X65271400Y-44845600D01*
X60630400Y-34605600D02*
X60630400Y-44845600D01*
X65271400Y-34605600D02*
X60630400Y-34605600D01*
X65271400Y-44845600D02*
X60630400Y-44845600D01*
X63761400Y-34605600D02*
X63761400Y-44845600D01*
X65271400Y-37875600D02*
X63761400Y-37875600D01*
X65271400Y-41576600D02*
X63761400Y-41576600D01*
%TO.C,U2*%
X66962800Y-52924400D02*
X65312800Y-52924400D01*
X66962800Y-58124400D02*
X66962800Y-52924400D01*
X61662800Y-58124400D02*
X66962800Y-58124400D01*
X61662800Y-52924400D02*
X61662800Y-58124400D01*
X63312800Y-52924400D02*
X61662800Y-52924400D01*
X65312800Y-52924400D02*
G75*
G02*
X63312800Y-52924400I-1000000J0D01*
G01*
%TO.C,U3*%
X67750200Y-67758000D02*
X66100200Y-67758000D01*
X67750200Y-72958000D02*
X67750200Y-67758000D01*
X62450200Y-72958000D02*
X67750200Y-72958000D01*
X62450200Y-67758000D02*
X62450200Y-72958000D01*
X64100200Y-67758000D02*
X62450200Y-67758000D01*
X66100200Y-67758000D02*
G75*
G02*
X64100200Y-67758000I-1000000J0D01*
G01*
%TO.C,U4*%
X67623200Y-82286800D02*
X65973200Y-82286800D01*
X67623200Y-87486800D02*
X67623200Y-82286800D01*
X62323200Y-87486800D02*
X67623200Y-87486800D01*
X62323200Y-82286800D02*
X62323200Y-87486800D01*
X63973200Y-82286800D02*
X62323200Y-82286800D01*
X65973200Y-82286800D02*
G75*
G02*
X63973200Y-82286800I-1000000J0D01*
G01*
%TO.C,U6*%
X94953600Y-101743200D02*
X93303600Y-101743200D01*
X94953600Y-106943200D02*
X94953600Y-101743200D01*
X89653600Y-106943200D02*
X94953600Y-106943200D01*
X89653600Y-101743200D02*
X89653600Y-106943200D01*
X91303600Y-101743200D02*
X89653600Y-101743200D01*
X93303600Y-101743200D02*
G75*
G02*
X91303600Y-101743200I-1000000J0D01*
G01*
%TO.C,U7*%
X109838000Y-102530600D02*
X108188000Y-102530600D01*
X109838000Y-107730600D02*
X109838000Y-102530600D01*
X104538000Y-107730600D02*
X109838000Y-107730600D01*
X104538000Y-102530600D02*
X104538000Y-107730600D01*
X106188000Y-102530600D02*
X104538000Y-102530600D01*
X108188000Y-102530600D02*
G75*
G02*
X106188000Y-102530600I-1000000J0D01*
G01*
%TO.C,U8*%
X122766600Y-102860800D02*
X121116600Y-102860800D01*
X122766600Y-108060800D02*
X122766600Y-102860800D01*
X117466600Y-108060800D02*
X122766600Y-108060800D01*
X117466600Y-102860800D02*
X117466600Y-108060800D01*
X119116600Y-102860800D02*
X117466600Y-102860800D01*
X121116600Y-102860800D02*
G75*
G02*
X119116600Y-102860800I-1000000J0D01*
G01*
%TO.C,REF\u002A\u002A*%
D10*
X127800266Y-30373980D02*
X127466933Y-29897790D01*
X127228838Y-30373980D02*
X127228838Y-29373980D01*
X127609790Y-29373980D01*
X127705028Y-29421600D01*
X127752647Y-29469219D01*
X127800266Y-29564457D01*
X127800266Y-29707314D01*
X127752647Y-29802552D01*
X127705028Y-29850171D01*
X127609790Y-29897790D01*
X127228838Y-29897790D01*
X128228838Y-29850171D02*
X128562171Y-29850171D01*
X128705028Y-30373980D02*
X128228838Y-30373980D01*
X128228838Y-29373980D01*
X128705028Y-29373980D01*
X129466933Y-29850171D02*
X129133600Y-29850171D01*
X129133600Y-30373980D02*
X129133600Y-29373980D01*
X129609790Y-29373980D01*
X130133600Y-29373980D02*
X130133600Y-29612076D01*
X129895504Y-29516838D02*
X130133600Y-29612076D01*
X130371695Y-29516838D01*
X129990742Y-29802552D02*
X130133600Y-29612076D01*
X130276457Y-29802552D01*
X130895504Y-29373980D02*
X130895504Y-29612076D01*
X130657409Y-29516838D02*
X130895504Y-29612076D01*
X131133600Y-29516838D01*
X130752647Y-29802552D02*
X130895504Y-29612076D01*
X131038361Y-29802552D01*
%TO.C,1*%
X37293514Y-121077380D02*
X36722085Y-121077380D01*
X37007800Y-121077380D02*
X37007800Y-120077380D01*
X36912561Y-120220238D01*
X36817323Y-120315476D01*
X36722085Y-120363095D01*
%TO.C,REF\u002A\u002A*%
X126047666Y-119908980D02*
X125714333Y-119432790D01*
X125476238Y-119908980D02*
X125476238Y-118908980D01*
X125857190Y-118908980D01*
X125952428Y-118956600D01*
X126000047Y-119004219D01*
X126047666Y-119099457D01*
X126047666Y-119242314D01*
X126000047Y-119337552D01*
X125952428Y-119385171D01*
X125857190Y-119432790D01*
X125476238Y-119432790D01*
X126476238Y-119385171D02*
X126809571Y-119385171D01*
X126952428Y-119908980D02*
X126476238Y-119908980D01*
X126476238Y-118908980D01*
X126952428Y-118908980D01*
X127714333Y-119385171D02*
X127381000Y-119385171D01*
X127381000Y-119908980D02*
X127381000Y-118908980D01*
X127857190Y-118908980D01*
X128381000Y-118908980D02*
X128381000Y-119147076D01*
X128142904Y-119051838D02*
X128381000Y-119147076D01*
X128619095Y-119051838D01*
X128238142Y-119337552D02*
X128381000Y-119147076D01*
X128523857Y-119337552D01*
X129142904Y-118908980D02*
X129142904Y-119147076D01*
X128904809Y-119051838D02*
X129142904Y-119147076D01*
X129381000Y-119051838D01*
X129000047Y-119337552D02*
X129142904Y-119147076D01*
X129285761Y-119337552D01*
%TO.C,J4*%
X41514780Y-39576333D02*
X42229066Y-39576333D01*
X42371923Y-39623952D01*
X42467161Y-39719190D01*
X42514780Y-39862047D01*
X42514780Y-39957285D01*
X41848114Y-38671571D02*
X42514780Y-38671571D01*
X41467161Y-38909666D02*
X42181447Y-39147761D01*
X42181447Y-38528714D01*
%TO.C,J5*%
X122439180Y-40439933D02*
X123153466Y-40439933D01*
X123296323Y-40487552D01*
X123391561Y-40582790D01*
X123439180Y-40725647D01*
X123439180Y-40820885D01*
X122439180Y-39487552D02*
X122439180Y-39963742D01*
X122915371Y-40011361D01*
X122867752Y-39963742D01*
X122820133Y-39868504D01*
X122820133Y-39630409D01*
X122867752Y-39535171D01*
X122915371Y-39487552D01*
X123010609Y-39439933D01*
X123248704Y-39439933D01*
X123343942Y-39487552D01*
X123391561Y-39535171D01*
X123439180Y-39630409D01*
X123439180Y-39868504D01*
X123391561Y-39963742D01*
X123343942Y-40011361D01*
%TO.C,J1*%
X39572180Y-54769333D02*
X40286466Y-54769333D01*
X40429323Y-54816952D01*
X40524561Y-54912190D01*
X40572180Y-55055047D01*
X40572180Y-55150285D01*
X40572180Y-53769333D02*
X40572180Y-54340761D01*
X40572180Y-54055047D02*
X39572180Y-54055047D01*
X39715038Y-54150285D01*
X39810276Y-54245523D01*
X39857895Y-54340761D01*
%TO.C,J2*%
X39558980Y-71732733D02*
X40273266Y-71732733D01*
X40416123Y-71780352D01*
X40511361Y-71875590D01*
X40558980Y-72018447D01*
X40558980Y-72113685D01*
X39654219Y-71304161D02*
X39606600Y-71256542D01*
X39558980Y-71161304D01*
X39558980Y-70923209D01*
X39606600Y-70827971D01*
X39654219Y-70780352D01*
X39749457Y-70732733D01*
X39844695Y-70732733D01*
X39987552Y-70780352D01*
X40558980Y-71351780D01*
X40558980Y-70732733D01*
%TO.C,J3*%
X39914580Y-88547533D02*
X40628866Y-88547533D01*
X40771723Y-88595152D01*
X40866961Y-88690390D01*
X40914580Y-88833247D01*
X40914580Y-88928485D01*
X39914580Y-88166580D02*
X39914580Y-87547533D01*
X40295533Y-87880866D01*
X40295533Y-87738009D01*
X40343152Y-87642771D01*
X40390771Y-87595152D01*
X40486009Y-87547533D01*
X40724104Y-87547533D01*
X40819342Y-87595152D01*
X40866961Y-87642771D01*
X40914580Y-87738009D01*
X40914580Y-88023723D01*
X40866961Y-88118961D01*
X40819342Y-88166580D01*
%TO.C,J6*%
X124521980Y-59566133D02*
X125236266Y-59566133D01*
X125379123Y-59613752D01*
X125474361Y-59708990D01*
X125521980Y-59851847D01*
X125521980Y-59947085D01*
X124521980Y-58661371D02*
X124521980Y-58851847D01*
X124569600Y-58947085D01*
X124617219Y-58994704D01*
X124760076Y-59089942D01*
X124950552Y-59137561D01*
X125331504Y-59137561D01*
X125426742Y-59089942D01*
X125474361Y-59042323D01*
X125521980Y-58947085D01*
X125521980Y-58756609D01*
X125474361Y-58661371D01*
X125426742Y-58613752D01*
X125331504Y-58566133D01*
X125093409Y-58566133D01*
X124998171Y-58613752D01*
X124950552Y-58661371D01*
X124902933Y-58756609D01*
X124902933Y-58947085D01*
X124950552Y-59042323D01*
X124998171Y-59089942D01*
X125093409Y-59137561D01*
%TO.C,J7*%
X122667780Y-77346133D02*
X123382066Y-77346133D01*
X123524923Y-77393752D01*
X123620161Y-77488990D01*
X123667780Y-77631847D01*
X123667780Y-77727085D01*
X122667780Y-76965180D02*
X122667780Y-76298514D01*
X123667780Y-76727085D01*
%TO.C,U5*%
X62839695Y-121448580D02*
X62839695Y-122258104D01*
X62887314Y-122353342D01*
X62934933Y-122400961D01*
X63030171Y-122448580D01*
X63220647Y-122448580D01*
X63315885Y-122400961D01*
X63363504Y-122353342D01*
X63411123Y-122258104D01*
X63411123Y-121448580D01*
X64363504Y-121448580D02*
X63887314Y-121448580D01*
X63839695Y-121924771D01*
X63887314Y-121877152D01*
X63982552Y-121829533D01*
X64220647Y-121829533D01*
X64315885Y-121877152D01*
X64363504Y-121924771D01*
X64411123Y-122020009D01*
X64411123Y-122258104D01*
X64363504Y-122353342D01*
X64315885Y-122400961D01*
X64220647Y-122448580D01*
X63982552Y-122448580D01*
X63887314Y-122400961D01*
X63839695Y-122353342D01*
X70851161Y-101653485D02*
X70898780Y-101510628D01*
X70898780Y-101272533D01*
X70851161Y-101177295D01*
X70803542Y-101129676D01*
X70708304Y-101082057D01*
X70613066Y-101082057D01*
X70517828Y-101129676D01*
X70470209Y-101177295D01*
X70422590Y-101272533D01*
X70374971Y-101463009D01*
X70327352Y-101558247D01*
X70279733Y-101605866D01*
X70184495Y-101653485D01*
X70089257Y-101653485D01*
X69994019Y-101605866D01*
X69946400Y-101558247D01*
X69898780Y-101463009D01*
X69898780Y-101224914D01*
X69946400Y-101082057D01*
X70898780Y-100653485D02*
X69898780Y-100653485D01*
X69898780Y-100415390D01*
X69946400Y-100272533D01*
X70041638Y-100177295D01*
X70136876Y-100129676D01*
X70327352Y-100082057D01*
X70470209Y-100082057D01*
X70660685Y-100129676D01*
X70755923Y-100177295D01*
X70851161Y-100272533D01*
X70898780Y-100415390D01*
X70898780Y-100653485D01*
X70613066Y-99701104D02*
X70613066Y-99224914D01*
X70898780Y-99796342D02*
X69898780Y-99463009D01*
X70898780Y-99129676D01*
X67851161Y-101629676D02*
X67898780Y-101486819D01*
X67898780Y-101248723D01*
X67851161Y-101153485D01*
X67803542Y-101105866D01*
X67708304Y-101058247D01*
X67613066Y-101058247D01*
X67517828Y-101105866D01*
X67470209Y-101153485D01*
X67422590Y-101248723D01*
X67374971Y-101439200D01*
X67327352Y-101534438D01*
X67279733Y-101582057D01*
X67184495Y-101629676D01*
X67089257Y-101629676D01*
X66994019Y-101582057D01*
X66946400Y-101534438D01*
X66898780Y-101439200D01*
X66898780Y-101201104D01*
X66946400Y-101058247D01*
X67803542Y-100058247D02*
X67851161Y-100105866D01*
X67898780Y-100248723D01*
X67898780Y-100343961D01*
X67851161Y-100486819D01*
X67755923Y-100582057D01*
X67660685Y-100629676D01*
X67470209Y-100677295D01*
X67327352Y-100677295D01*
X67136876Y-100629676D01*
X67041638Y-100582057D01*
X66946400Y-100486819D01*
X66898780Y-100343961D01*
X66898780Y-100248723D01*
X66946400Y-100105866D01*
X66994019Y-100058247D01*
X67898780Y-99153485D02*
X67898780Y-99629676D01*
X66898780Y-99629676D01*
X64898780Y-100629676D02*
X64898780Y-101105866D01*
X65374971Y-101153485D01*
X65327352Y-101105866D01*
X65279733Y-101010628D01*
X65279733Y-100772533D01*
X65327352Y-100677295D01*
X65374971Y-100629676D01*
X65470209Y-100582057D01*
X65708304Y-100582057D01*
X65803542Y-100629676D01*
X65851161Y-100677295D01*
X65898780Y-100772533D01*
X65898780Y-101010628D01*
X65851161Y-101105866D01*
X65803542Y-101153485D01*
X64898780Y-100296342D02*
X65898780Y-99963009D01*
X64898780Y-99629676D01*
X60946400Y-101201104D02*
X60898780Y-101296342D01*
X60898780Y-101439200D01*
X60946400Y-101582057D01*
X61041638Y-101677295D01*
X61136876Y-101724914D01*
X61327352Y-101772533D01*
X61470209Y-101772533D01*
X61660685Y-101724914D01*
X61755923Y-101677295D01*
X61851161Y-101582057D01*
X61898780Y-101439200D01*
X61898780Y-101343961D01*
X61851161Y-101201104D01*
X61803542Y-101153485D01*
X61470209Y-101153485D01*
X61470209Y-101343961D01*
X61898780Y-100724914D02*
X60898780Y-100724914D01*
X61898780Y-100153485D01*
X60898780Y-100153485D01*
X61898780Y-99677295D02*
X60898780Y-99677295D01*
X60898780Y-99439200D01*
X60946400Y-99296342D01*
X61041638Y-99201104D01*
X61136876Y-99153485D01*
X61327352Y-99105866D01*
X61470209Y-99105866D01*
X61660685Y-99153485D01*
X61755923Y-99201104D01*
X61851161Y-99296342D01*
X61898780Y-99439200D01*
X61898780Y-99677295D01*
%TO.C,A1*%
X82369114Y-34151866D02*
X82845304Y-34151866D01*
X82273876Y-34437580D02*
X82607209Y-33437580D01*
X82940542Y-34437580D01*
X83797685Y-34437580D02*
X83226257Y-34437580D01*
X83511971Y-34437580D02*
X83511971Y-33437580D01*
X83416733Y-33580438D01*
X83321495Y-33675676D01*
X83226257Y-33723295D01*
%TO.C,D1*%
X54862504Y-54185180D02*
X54862504Y-53185180D01*
X55100600Y-53185180D01*
X55243457Y-53232800D01*
X55338695Y-53328038D01*
X55386314Y-53423276D01*
X55433933Y-53613752D01*
X55433933Y-53756609D01*
X55386314Y-53947085D01*
X55338695Y-54042323D01*
X55243457Y-54137561D01*
X55100600Y-54185180D01*
X54862504Y-54185180D01*
X56386314Y-54185180D02*
X55814885Y-54185180D01*
X56100600Y-54185180D02*
X56100600Y-53185180D01*
X56005361Y-53328038D01*
X55910123Y-53423276D01*
X55814885Y-53470895D01*
X56949647Y-58764228D02*
X57711552Y-58764228D01*
X57330600Y-59145180D02*
X57330600Y-58383276D01*
%TO.C,D2*%
X54989504Y-82709380D02*
X54989504Y-81709380D01*
X55227600Y-81709380D01*
X55370457Y-81757000D01*
X55465695Y-81852238D01*
X55513314Y-81947476D01*
X55560933Y-82137952D01*
X55560933Y-82280809D01*
X55513314Y-82471285D01*
X55465695Y-82566523D01*
X55370457Y-82661761D01*
X55227600Y-82709380D01*
X54989504Y-82709380D01*
X55941885Y-81804619D02*
X55989504Y-81757000D01*
X56084742Y-81709380D01*
X56322838Y-81709380D01*
X56418076Y-81757000D01*
X56465695Y-81804619D01*
X56513314Y-81899857D01*
X56513314Y-81995095D01*
X56465695Y-82137952D01*
X55894266Y-82709380D01*
X56513314Y-82709380D01*
X57076647Y-87288428D02*
X57838552Y-87288428D01*
X57457600Y-87669380D02*
X57457600Y-86907476D01*
%TO.C,D3*%
X55675304Y-67799580D02*
X55675304Y-66799580D01*
X55913400Y-66799580D01*
X56056257Y-66847200D01*
X56151495Y-66942438D01*
X56199114Y-67037676D01*
X56246733Y-67228152D01*
X56246733Y-67371009D01*
X56199114Y-67561485D01*
X56151495Y-67656723D01*
X56056257Y-67751961D01*
X55913400Y-67799580D01*
X55675304Y-67799580D01*
X56580066Y-66799580D02*
X57199114Y-66799580D01*
X56865780Y-67180533D01*
X57008638Y-67180533D01*
X57103876Y-67228152D01*
X57151495Y-67275771D01*
X57199114Y-67371009D01*
X57199114Y-67609104D01*
X57151495Y-67704342D01*
X57103876Y-67751961D01*
X57008638Y-67799580D01*
X56722923Y-67799580D01*
X56627685Y-67751961D01*
X56580066Y-67704342D01*
X57762447Y-72378628D02*
X58524352Y-72378628D01*
X58143400Y-72759580D02*
X58143400Y-71997676D01*
%TO.C,D4*%
X96772504Y-97544780D02*
X96772504Y-96544780D01*
X97010600Y-96544780D01*
X97153457Y-96592400D01*
X97248695Y-96687638D01*
X97296314Y-96782876D01*
X97343933Y-96973352D01*
X97343933Y-97116209D01*
X97296314Y-97306685D01*
X97248695Y-97401923D01*
X97153457Y-97497161D01*
X97010600Y-97544780D01*
X96772504Y-97544780D01*
X98201076Y-96878114D02*
X98201076Y-97544780D01*
X97962980Y-96497161D02*
X97724885Y-97211447D01*
X98343933Y-97211447D01*
X95399647Y-92203828D02*
X96161552Y-92203828D01*
X95780600Y-92584780D02*
X95780600Y-91822876D01*
%TO.C,D5*%
X124458504Y-96376380D02*
X124458504Y-95376380D01*
X124696600Y-95376380D01*
X124839457Y-95424000D01*
X124934695Y-95519238D01*
X124982314Y-95614476D01*
X125029933Y-95804952D01*
X125029933Y-95947809D01*
X124982314Y-96138285D01*
X124934695Y-96233523D01*
X124839457Y-96328761D01*
X124696600Y-96376380D01*
X124458504Y-96376380D01*
X125934695Y-95376380D02*
X125458504Y-95376380D01*
X125410885Y-95852571D01*
X125458504Y-95804952D01*
X125553742Y-95757333D01*
X125791838Y-95757333D01*
X125887076Y-95804952D01*
X125934695Y-95852571D01*
X125982314Y-95947809D01*
X125982314Y-96185904D01*
X125934695Y-96281142D01*
X125887076Y-96328761D01*
X125791838Y-96376380D01*
X125553742Y-96376380D01*
X125458504Y-96328761D01*
X125410885Y-96281142D01*
X123085647Y-91035428D02*
X123847552Y-91035428D01*
X123466600Y-91416380D02*
X123466600Y-90654476D01*
%TO.C,D6*%
X110717104Y-96452580D02*
X110717104Y-95452580D01*
X110955200Y-95452580D01*
X111098057Y-95500200D01*
X111193295Y-95595438D01*
X111240914Y-95690676D01*
X111288533Y-95881152D01*
X111288533Y-96024009D01*
X111240914Y-96214485D01*
X111193295Y-96309723D01*
X111098057Y-96404961D01*
X110955200Y-96452580D01*
X110717104Y-96452580D01*
X112145676Y-95452580D02*
X111955200Y-95452580D01*
X111859961Y-95500200D01*
X111812342Y-95547819D01*
X111717104Y-95690676D01*
X111669485Y-95881152D01*
X111669485Y-96262104D01*
X111717104Y-96357342D01*
X111764723Y-96404961D01*
X111859961Y-96452580D01*
X112050438Y-96452580D01*
X112145676Y-96404961D01*
X112193295Y-96357342D01*
X112240914Y-96262104D01*
X112240914Y-96024009D01*
X112193295Y-95928771D01*
X112145676Y-95881152D01*
X112050438Y-95833533D01*
X111859961Y-95833533D01*
X111764723Y-95881152D01*
X111717104Y-95928771D01*
X111669485Y-96024009D01*
X109344247Y-91111628D02*
X110106152Y-91111628D01*
X109725200Y-91492580D02*
X109725200Y-90730676D01*
%TO.C,K1*%
X113491304Y-52962580D02*
X113491304Y-51962580D01*
X114062733Y-52962580D02*
X113634161Y-52391152D01*
X114062733Y-51962580D02*
X113491304Y-52534009D01*
X115015114Y-52962580D02*
X114443685Y-52962580D01*
X114729400Y-52962580D02*
X114729400Y-51962580D01*
X114634161Y-52105438D01*
X114538923Y-52200676D01*
X114443685Y-52248295D01*
%TO.C,K2*%
X113237304Y-71987180D02*
X113237304Y-70987180D01*
X113808733Y-71987180D02*
X113380161Y-71415752D01*
X113808733Y-70987180D02*
X113237304Y-71558609D01*
X114189685Y-71082419D02*
X114237304Y-71034800D01*
X114332542Y-70987180D01*
X114570638Y-70987180D01*
X114665876Y-71034800D01*
X114713495Y-71082419D01*
X114761114Y-71177657D01*
X114761114Y-71272895D01*
X114713495Y-71415752D01*
X114142066Y-71987180D01*
X114761114Y-71987180D01*
%TO.C,K3*%
X112957904Y-89970380D02*
X112957904Y-88970380D01*
X113529333Y-89970380D02*
X113100761Y-89398952D01*
X113529333Y-88970380D02*
X112957904Y-89541809D01*
X113862666Y-88970380D02*
X114481714Y-88970380D01*
X114148380Y-89351333D01*
X114291238Y-89351333D01*
X114386476Y-89398952D01*
X114434095Y-89446571D01*
X114481714Y-89541809D01*
X114481714Y-89779904D01*
X114434095Y-89875142D01*
X114386476Y-89922761D01*
X114291238Y-89970380D01*
X114005523Y-89970380D01*
X113910285Y-89922761D01*
X113862666Y-89875142D01*
%TO.C,C1*%
X59080742Y-37158466D02*
X59128361Y-37206085D01*
X59175980Y-37348942D01*
X59175980Y-37444180D01*
X59128361Y-37587038D01*
X59033123Y-37682276D01*
X58937885Y-37729895D01*
X58747409Y-37777514D01*
X58604552Y-37777514D01*
X58414076Y-37729895D01*
X58318838Y-37682276D01*
X58223600Y-37587038D01*
X58175980Y-37444180D01*
X58175980Y-37348942D01*
X58223600Y-37206085D01*
X58271219Y-37158466D01*
X59175980Y-36206085D02*
X59175980Y-36777514D01*
X59175980Y-36491800D02*
X58175980Y-36491800D01*
X58318838Y-36587038D01*
X58414076Y-36682276D01*
X58461695Y-36777514D01*
%TO.C,C2*%
X52529942Y-43515066D02*
X52577561Y-43562685D01*
X52625180Y-43705542D01*
X52625180Y-43800780D01*
X52577561Y-43943638D01*
X52482323Y-44038876D01*
X52387085Y-44086495D01*
X52196609Y-44134114D01*
X52053752Y-44134114D01*
X51863276Y-44086495D01*
X51768038Y-44038876D01*
X51672800Y-43943638D01*
X51625180Y-43800780D01*
X51625180Y-43705542D01*
X51672800Y-43562685D01*
X51720419Y-43515066D01*
X51720419Y-43134114D02*
X51672800Y-43086495D01*
X51625180Y-42991257D01*
X51625180Y-42753161D01*
X51672800Y-42657923D01*
X51720419Y-42610304D01*
X51815657Y-42562685D01*
X51910895Y-42562685D01*
X52053752Y-42610304D01*
X52625180Y-43181733D01*
X52625180Y-42562685D01*
%TO.C,D7*%
X97673180Y-43435495D02*
X96673180Y-43435495D01*
X96673180Y-43197400D01*
X96720800Y-43054542D01*
X96816038Y-42959304D01*
X96911276Y-42911685D01*
X97101752Y-42864066D01*
X97244609Y-42864066D01*
X97435085Y-42911685D01*
X97530323Y-42959304D01*
X97625561Y-43054542D01*
X97673180Y-43197400D01*
X97673180Y-43435495D01*
X96673180Y-42530733D02*
X96673180Y-41864066D01*
X97673180Y-42292638D01*
%TO.C,D8*%
X97368380Y-62104495D02*
X96368380Y-62104495D01*
X96368380Y-61866400D01*
X96416000Y-61723542D01*
X96511238Y-61628304D01*
X96606476Y-61580685D01*
X96796952Y-61533066D01*
X96939809Y-61533066D01*
X97130285Y-61580685D01*
X97225523Y-61628304D01*
X97320761Y-61723542D01*
X97368380Y-61866400D01*
X97368380Y-62104495D01*
X96796952Y-60961638D02*
X96749333Y-61056876D01*
X96701714Y-61104495D01*
X96606476Y-61152114D01*
X96558857Y-61152114D01*
X96463619Y-61104495D01*
X96416000Y-61056876D01*
X96368380Y-60961638D01*
X96368380Y-60771161D01*
X96416000Y-60675923D01*
X96463619Y-60628304D01*
X96558857Y-60580685D01*
X96606476Y-60580685D01*
X96701714Y-60628304D01*
X96749333Y-60675923D01*
X96796952Y-60771161D01*
X96796952Y-60961638D01*
X96844571Y-61056876D01*
X96892190Y-61104495D01*
X96987428Y-61152114D01*
X97177904Y-61152114D01*
X97273142Y-61104495D01*
X97320761Y-61056876D01*
X97368380Y-60961638D01*
X97368380Y-60771161D01*
X97320761Y-60675923D01*
X97273142Y-60628304D01*
X97177904Y-60580685D01*
X96987428Y-60580685D01*
X96892190Y-60628304D01*
X96844571Y-60675923D01*
X96796952Y-60771161D01*
%TO.C,D9*%
X97038180Y-79909895D02*
X96038180Y-79909895D01*
X96038180Y-79671800D01*
X96085800Y-79528942D01*
X96181038Y-79433704D01*
X96276276Y-79386085D01*
X96466752Y-79338466D01*
X96609609Y-79338466D01*
X96800085Y-79386085D01*
X96895323Y-79433704D01*
X96990561Y-79528942D01*
X97038180Y-79671800D01*
X97038180Y-79909895D01*
X97038180Y-78862276D02*
X97038180Y-78671800D01*
X96990561Y-78576561D01*
X96942942Y-78528942D01*
X96800085Y-78433704D01*
X96609609Y-78386085D01*
X96228657Y-78386085D01*
X96133419Y-78433704D01*
X96085800Y-78481323D01*
X96038180Y-78576561D01*
X96038180Y-78767038D01*
X96085800Y-78862276D01*
X96133419Y-78909895D01*
X96228657Y-78957514D01*
X96466752Y-78957514D01*
X96561990Y-78909895D01*
X96609609Y-78862276D01*
X96657228Y-78767038D01*
X96657228Y-78576561D01*
X96609609Y-78481323D01*
X96561990Y-78433704D01*
X96466752Y-78386085D01*
%TO.C,R1*%
X59167733Y-63985580D02*
X58834400Y-63509390D01*
X58596304Y-63985580D02*
X58596304Y-62985580D01*
X58977257Y-62985580D01*
X59072495Y-63033200D01*
X59120114Y-63080819D01*
X59167733Y-63176057D01*
X59167733Y-63318914D01*
X59120114Y-63414152D01*
X59072495Y-63461771D01*
X58977257Y-63509390D01*
X58596304Y-63509390D01*
X60120114Y-63985580D02*
X59548685Y-63985580D01*
X59834400Y-63985580D02*
X59834400Y-62985580D01*
X59739161Y-63128438D01*
X59643923Y-63223676D01*
X59548685Y-63271295D01*
%TO.C,R2*%
X59066133Y-94414780D02*
X58732800Y-93938590D01*
X58494704Y-94414780D02*
X58494704Y-93414780D01*
X58875657Y-93414780D01*
X58970895Y-93462400D01*
X59018514Y-93510019D01*
X59066133Y-93605257D01*
X59066133Y-93748114D01*
X59018514Y-93843352D01*
X58970895Y-93890971D01*
X58875657Y-93938590D01*
X58494704Y-93938590D01*
X59447085Y-93510019D02*
X59494704Y-93462400D01*
X59589942Y-93414780D01*
X59828038Y-93414780D01*
X59923276Y-93462400D01*
X59970895Y-93510019D01*
X60018514Y-93605257D01*
X60018514Y-93700495D01*
X59970895Y-93843352D01*
X59399466Y-94414780D01*
X60018514Y-94414780D01*
%TO.C,R3*%
X59904333Y-79022380D02*
X59571000Y-78546190D01*
X59332904Y-79022380D02*
X59332904Y-78022380D01*
X59713857Y-78022380D01*
X59809095Y-78070000D01*
X59856714Y-78117619D01*
X59904333Y-78212857D01*
X59904333Y-78355714D01*
X59856714Y-78450952D01*
X59809095Y-78498571D01*
X59713857Y-78546190D01*
X59332904Y-78546190D01*
X60237666Y-78022380D02*
X60856714Y-78022380D01*
X60523380Y-78403333D01*
X60666238Y-78403333D01*
X60761476Y-78450952D01*
X60809095Y-78498571D01*
X60856714Y-78593809D01*
X60856714Y-78831904D01*
X60809095Y-78927142D01*
X60761476Y-78974761D01*
X60666238Y-79022380D01*
X60380523Y-79022380D01*
X60285285Y-78974761D01*
X60237666Y-78927142D01*
%TO.C,R4*%
X65797133Y-52276180D02*
X65463800Y-51799990D01*
X65225704Y-52276180D02*
X65225704Y-51276180D01*
X65606657Y-51276180D01*
X65701895Y-51323800D01*
X65749514Y-51371419D01*
X65797133Y-51466657D01*
X65797133Y-51609514D01*
X65749514Y-51704752D01*
X65701895Y-51752371D01*
X65606657Y-51799990D01*
X65225704Y-51799990D01*
X66654276Y-51609514D02*
X66654276Y-52276180D01*
X66416180Y-51228561D02*
X66178085Y-51942847D01*
X66797133Y-51942847D01*
%TO.C,R5*%
X66711533Y-67897180D02*
X66378200Y-67420990D01*
X66140104Y-67897180D02*
X66140104Y-66897180D01*
X66521057Y-66897180D01*
X66616295Y-66944800D01*
X66663914Y-66992419D01*
X66711533Y-67087657D01*
X66711533Y-67230514D01*
X66663914Y-67325752D01*
X66616295Y-67373371D01*
X66521057Y-67420990D01*
X66140104Y-67420990D01*
X67616295Y-66897180D02*
X67140104Y-66897180D01*
X67092485Y-67373371D01*
X67140104Y-67325752D01*
X67235342Y-67278133D01*
X67473438Y-67278133D01*
X67568676Y-67325752D01*
X67616295Y-67373371D01*
X67663914Y-67468609D01*
X67663914Y-67706704D01*
X67616295Y-67801942D01*
X67568676Y-67849561D01*
X67473438Y-67897180D01*
X67235342Y-67897180D01*
X67140104Y-67849561D01*
X67092485Y-67801942D01*
%TO.C,R6*%
X67397333Y-82959380D02*
X67064000Y-82483190D01*
X66825904Y-82959380D02*
X66825904Y-81959380D01*
X67206857Y-81959380D01*
X67302095Y-82007000D01*
X67349714Y-82054619D01*
X67397333Y-82149857D01*
X67397333Y-82292714D01*
X67349714Y-82387952D01*
X67302095Y-82435571D01*
X67206857Y-82483190D01*
X66825904Y-82483190D01*
X68254476Y-81959380D02*
X68064000Y-81959380D01*
X67968761Y-82007000D01*
X67921142Y-82054619D01*
X67825904Y-82197476D01*
X67778285Y-82387952D01*
X67778285Y-82768904D01*
X67825904Y-82864142D01*
X67873523Y-82911761D01*
X67968761Y-82959380D01*
X68159238Y-82959380D01*
X68254476Y-82911761D01*
X68302095Y-82864142D01*
X68349714Y-82768904D01*
X68349714Y-82530809D01*
X68302095Y-82435571D01*
X68254476Y-82387952D01*
X68159238Y-82340333D01*
X67968761Y-82340333D01*
X67873523Y-82387952D01*
X67825904Y-82435571D01*
X67778285Y-82530809D01*
%TO.C,R7*%
X93406933Y-96735980D02*
X93073600Y-96259790D01*
X92835504Y-96735980D02*
X92835504Y-95735980D01*
X93216457Y-95735980D01*
X93311695Y-95783600D01*
X93359314Y-95831219D01*
X93406933Y-95926457D01*
X93406933Y-96069314D01*
X93359314Y-96164552D01*
X93311695Y-96212171D01*
X93216457Y-96259790D01*
X92835504Y-96259790D01*
X93740266Y-95735980D02*
X94406933Y-95735980D01*
X93978361Y-96735980D01*
%TO.C,R8*%
X107630933Y-96989980D02*
X107297600Y-96513790D01*
X107059504Y-96989980D02*
X107059504Y-95989980D01*
X107440457Y-95989980D01*
X107535695Y-96037600D01*
X107583314Y-96085219D01*
X107630933Y-96180457D01*
X107630933Y-96323314D01*
X107583314Y-96418552D01*
X107535695Y-96466171D01*
X107440457Y-96513790D01*
X107059504Y-96513790D01*
X108202361Y-96418552D02*
X108107123Y-96370933D01*
X108059504Y-96323314D01*
X108011885Y-96228076D01*
X108011885Y-96180457D01*
X108059504Y-96085219D01*
X108107123Y-96037600D01*
X108202361Y-95989980D01*
X108392838Y-95989980D01*
X108488076Y-96037600D01*
X108535695Y-96085219D01*
X108583314Y-96180457D01*
X108583314Y-96228076D01*
X108535695Y-96323314D01*
X108488076Y-96370933D01*
X108392838Y-96418552D01*
X108202361Y-96418552D01*
X108107123Y-96466171D01*
X108059504Y-96513790D01*
X108011885Y-96609028D01*
X108011885Y-96799504D01*
X108059504Y-96894742D01*
X108107123Y-96942361D01*
X108202361Y-96989980D01*
X108392838Y-96989980D01*
X108488076Y-96942361D01*
X108535695Y-96894742D01*
X108583314Y-96799504D01*
X108583314Y-96609028D01*
X108535695Y-96513790D01*
X108488076Y-96466171D01*
X108392838Y-96418552D01*
%TO.C,R9*%
X121346933Y-97066180D02*
X121013600Y-96589990D01*
X120775504Y-97066180D02*
X120775504Y-96066180D01*
X121156457Y-96066180D01*
X121251695Y-96113800D01*
X121299314Y-96161419D01*
X121346933Y-96256657D01*
X121346933Y-96399514D01*
X121299314Y-96494752D01*
X121251695Y-96542371D01*
X121156457Y-96589990D01*
X120775504Y-96589990D01*
X121823123Y-97066180D02*
X122013600Y-97066180D01*
X122108838Y-97018561D01*
X122156457Y-96970942D01*
X122251695Y-96828085D01*
X122299314Y-96637609D01*
X122299314Y-96256657D01*
X122251695Y-96161419D01*
X122204076Y-96113800D01*
X122108838Y-96066180D01*
X121918361Y-96066180D01*
X121823123Y-96113800D01*
X121775504Y-96161419D01*
X121727885Y-96256657D01*
X121727885Y-96494752D01*
X121775504Y-96589990D01*
X121823123Y-96637609D01*
X121918361Y-96685228D01*
X122108838Y-96685228D01*
X122204076Y-96637609D01*
X122251695Y-96589990D01*
X122299314Y-96494752D01*
%TO.C,RV1*%
X44362761Y-123568580D02*
X44029428Y-123092390D01*
X43791333Y-123568580D02*
X43791333Y-122568580D01*
X44172285Y-122568580D01*
X44267523Y-122616200D01*
X44315142Y-122663819D01*
X44362761Y-122759057D01*
X44362761Y-122901914D01*
X44315142Y-122997152D01*
X44267523Y-123044771D01*
X44172285Y-123092390D01*
X43791333Y-123092390D01*
X44648476Y-122568580D02*
X44981809Y-123568580D01*
X45315142Y-122568580D01*
X46172285Y-123568580D02*
X45600857Y-123568580D01*
X45886571Y-123568580D02*
X45886571Y-122568580D01*
X45791333Y-122711438D01*
X45696095Y-122806676D01*
X45600857Y-122854295D01*
%TO.C,RV2*%
X44489761Y-114068980D02*
X44156428Y-113592790D01*
X43918333Y-114068980D02*
X43918333Y-113068980D01*
X44299285Y-113068980D01*
X44394523Y-113116600D01*
X44442142Y-113164219D01*
X44489761Y-113259457D01*
X44489761Y-113402314D01*
X44442142Y-113497552D01*
X44394523Y-113545171D01*
X44299285Y-113592790D01*
X43918333Y-113592790D01*
X44775476Y-113068980D02*
X45108809Y-114068980D01*
X45442142Y-113068980D01*
X45727857Y-113164219D02*
X45775476Y-113116600D01*
X45870714Y-113068980D01*
X46108809Y-113068980D01*
X46204047Y-113116600D01*
X46251666Y-113164219D01*
X46299285Y-113259457D01*
X46299285Y-113354695D01*
X46251666Y-113497552D01*
X45680238Y-114068980D01*
X46299285Y-114068980D01*
%TO.C,RV3*%
X44743761Y-105890180D02*
X44410428Y-105413990D01*
X44172333Y-105890180D02*
X44172333Y-104890180D01*
X44553285Y-104890180D01*
X44648523Y-104937800D01*
X44696142Y-104985419D01*
X44743761Y-105080657D01*
X44743761Y-105223514D01*
X44696142Y-105318752D01*
X44648523Y-105366371D01*
X44553285Y-105413990D01*
X44172333Y-105413990D01*
X45029476Y-104890180D02*
X45362809Y-105890180D01*
X45696142Y-104890180D01*
X45934238Y-104890180D02*
X46553285Y-104890180D01*
X46219952Y-105271133D01*
X46362809Y-105271133D01*
X46458047Y-105318752D01*
X46505666Y-105366371D01*
X46553285Y-105461609D01*
X46553285Y-105699704D01*
X46505666Y-105794942D01*
X46458047Y-105842561D01*
X46362809Y-105890180D01*
X46077095Y-105890180D01*
X45981857Y-105842561D01*
X45934238Y-105794942D01*
%TO.C,U1*%
X65723780Y-40487504D02*
X66533304Y-40487504D01*
X66628542Y-40439885D01*
X66676161Y-40392266D01*
X66723780Y-40297028D01*
X66723780Y-40106552D01*
X66676161Y-40011314D01*
X66628542Y-39963695D01*
X66533304Y-39916076D01*
X65723780Y-39916076D01*
X66723780Y-38916076D02*
X66723780Y-39487504D01*
X66723780Y-39201790D02*
X65723780Y-39201790D01*
X65866638Y-39297028D01*
X65961876Y-39392266D01*
X66009495Y-39487504D01*
%TO.C,U2*%
X63550895Y-51376780D02*
X63550895Y-52186304D01*
X63598514Y-52281542D01*
X63646133Y-52329161D01*
X63741371Y-52376780D01*
X63931847Y-52376780D01*
X64027085Y-52329161D01*
X64074704Y-52281542D01*
X64122323Y-52186304D01*
X64122323Y-51376780D01*
X64550895Y-51472019D02*
X64598514Y-51424400D01*
X64693752Y-51376780D01*
X64931847Y-51376780D01*
X65027085Y-51424400D01*
X65074704Y-51472019D01*
X65122323Y-51567257D01*
X65122323Y-51662495D01*
X65074704Y-51805352D01*
X64503276Y-52376780D01*
X65122323Y-52376780D01*
%TO.C,U3*%
X64338295Y-66210380D02*
X64338295Y-67019904D01*
X64385914Y-67115142D01*
X64433533Y-67162761D01*
X64528771Y-67210380D01*
X64719247Y-67210380D01*
X64814485Y-67162761D01*
X64862104Y-67115142D01*
X64909723Y-67019904D01*
X64909723Y-66210380D01*
X65290676Y-66210380D02*
X65909723Y-66210380D01*
X65576390Y-66591333D01*
X65719247Y-66591333D01*
X65814485Y-66638952D01*
X65862104Y-66686571D01*
X65909723Y-66781809D01*
X65909723Y-67019904D01*
X65862104Y-67115142D01*
X65814485Y-67162761D01*
X65719247Y-67210380D01*
X65433533Y-67210380D01*
X65338295Y-67162761D01*
X65290676Y-67115142D01*
%TO.C,U4*%
X64211295Y-80739180D02*
X64211295Y-81548704D01*
X64258914Y-81643942D01*
X64306533Y-81691561D01*
X64401771Y-81739180D01*
X64592247Y-81739180D01*
X64687485Y-81691561D01*
X64735104Y-81643942D01*
X64782723Y-81548704D01*
X64782723Y-80739180D01*
X65687485Y-81072514D02*
X65687485Y-81739180D01*
X65449390Y-80691561D02*
X65211295Y-81405847D01*
X65830342Y-81405847D01*
%TO.C,U6*%
X91541695Y-100195580D02*
X91541695Y-101005104D01*
X91589314Y-101100342D01*
X91636933Y-101147961D01*
X91732171Y-101195580D01*
X91922647Y-101195580D01*
X92017885Y-101147961D01*
X92065504Y-101100342D01*
X92113123Y-101005104D01*
X92113123Y-100195580D01*
X93017885Y-100195580D02*
X92827409Y-100195580D01*
X92732171Y-100243200D01*
X92684552Y-100290819D01*
X92589314Y-100433676D01*
X92541695Y-100624152D01*
X92541695Y-101005104D01*
X92589314Y-101100342D01*
X92636933Y-101147961D01*
X92732171Y-101195580D01*
X92922647Y-101195580D01*
X93017885Y-101147961D01*
X93065504Y-101100342D01*
X93113123Y-101005104D01*
X93113123Y-100767009D01*
X93065504Y-100671771D01*
X93017885Y-100624152D01*
X92922647Y-100576533D01*
X92732171Y-100576533D01*
X92636933Y-100624152D01*
X92589314Y-100671771D01*
X92541695Y-100767009D01*
%TO.C,U7*%
X106426095Y-100982980D02*
X106426095Y-101792504D01*
X106473714Y-101887742D01*
X106521333Y-101935361D01*
X106616571Y-101982980D01*
X106807047Y-101982980D01*
X106902285Y-101935361D01*
X106949904Y-101887742D01*
X106997523Y-101792504D01*
X106997523Y-100982980D01*
X107378476Y-100982980D02*
X108045142Y-100982980D01*
X107616571Y-101982980D01*
%TO.C,U8*%
X119354695Y-101313180D02*
X119354695Y-102122704D01*
X119402314Y-102217942D01*
X119449933Y-102265561D01*
X119545171Y-102313180D01*
X119735647Y-102313180D01*
X119830885Y-102265561D01*
X119878504Y-102217942D01*
X119926123Y-102122704D01*
X119926123Y-101313180D01*
X120545171Y-101741752D02*
X120449933Y-101694133D01*
X120402314Y-101646514D01*
X120354695Y-101551276D01*
X120354695Y-101503657D01*
X120402314Y-101408419D01*
X120449933Y-101360800D01*
X120545171Y-101313180D01*
X120735647Y-101313180D01*
X120830885Y-101360800D01*
X120878504Y-101408419D01*
X120926123Y-101503657D01*
X120926123Y-101551276D01*
X120878504Y-101646514D01*
X120830885Y-101694133D01*
X120735647Y-101741752D01*
X120545171Y-101741752D01*
X120449933Y-101789371D01*
X120402314Y-101836990D01*
X120354695Y-101932228D01*
X120354695Y-102122704D01*
X120402314Y-102217942D01*
X120449933Y-102265561D01*
X120545171Y-102313180D01*
X120735647Y-102313180D01*
X120830885Y-102265561D01*
X120878504Y-102217942D01*
X120926123Y-102122704D01*
X120926123Y-101932228D01*
X120878504Y-101836990D01*
X120830885Y-101789371D01*
X120735647Y-101741752D01*
%TD*%
M02*
