M48
; DRILL file {KiCad (5.1.6)-1} date 11/28/20 00:37:36
; FORMAT={-:-/ absolute / metric / decimal}
; #@! TF.CreationDate,2020-11-28T00:37:36-05:00
; #@! TF.GenerationSoftware,Kicad,Pcbnew,(5.1.6)-1
; #@! TF.FileFunction,Plated,1,2,PTH
FMAT,2
METRIC
T1C0.400
T2C0.600
T3C0.750
T4C0.762
T5C0.800
T6C0.900
T7C1.000
T8C1.100
T9C1.320
T10C2.000
%
G90
G05
T1
X65.659Y-104.902
X67.488Y-110.82
X68.91Y-59.487
X74.117Y-89.611
X81.915Y-65.278
X87.046Y-83.896
X88.894Y-77.541
T2
X55.474Y-35.992
X55.474Y-37.992
X55.423Y-42.348
X55.423Y-44.348
T3
X94.666Y-74.092
X94.666Y-84.252
X95.301Y-37.617
X95.301Y-47.777
X94.996Y-56.286
X94.996Y-66.446
T4
X62.636Y-98.339
X65.176Y-98.339
X67.716Y-98.339
X70.256Y-98.339
X99.825Y-62.285
X101.675Y-56.145
X101.825Y-68.285
X100.079Y-43.26
X101.929Y-37.12
X102.079Y-49.26
X99.546Y-80.268
X101.396Y-74.128
X101.546Y-86.268
T5
X42.799Y-101.778
X45.339Y-101.778
X47.879Y-101.778
X61.29Y-69.088
X61.29Y-71.628
X68.91Y-69.088
X68.91Y-71.628
X54.153Y-91.592
X64.313Y-91.592
X113.596Y-74.128
X113.746Y-86.268
X61.163Y-83.617
X61.163Y-86.157
X68.783Y-83.617
X68.783Y-86.157
X62.484Y-80.137
X72.644Y-80.137
X60.884Y-49.454
X71.044Y-49.454
X116.434Y-98.984
X126.594Y-98.984
X61.798Y-65.075
X71.958Y-65.075
X60.503Y-54.254
X60.503Y-56.794
X68.123Y-54.254
X68.123Y-56.794
X54.254Y-61.163
X64.414Y-61.163
X116.307Y-104.191
X116.307Y-106.731
X123.927Y-104.191
X123.927Y-106.731
X102.718Y-98.908
X112.878Y-98.908
X42.545Y-109.957
X45.085Y-109.957
X47.625Y-109.957
X103.378Y-103.861
X103.378Y-106.401
X110.998Y-103.861
X110.998Y-106.401
X113.875Y-56.145
X114.025Y-68.285
X88.494Y-103.073
X88.494Y-105.613
X96.114Y-103.073
X96.114Y-105.613
X114.129Y-37.12
X114.279Y-49.26
X42.418Y-119.456
X44.958Y-119.456
X47.498Y-119.456
X54.991Y-76.2
X65.151Y-76.2
X88.494Y-98.654
X98.654Y-98.654
T6
X110.185Y-93.04
X112.725Y-93.04
X55.143Y-70.307
X57.683Y-70.307
X54.458Y-85.217
X56.998Y-85.217
X123.927Y-92.964
X126.467Y-92.964
X54.331Y-56.693
X56.871Y-56.693
X96.241Y-94.132
X98.781Y-94.132
T7
X75.463Y-39.065
X75.463Y-41.605
X75.463Y-44.145
X75.463Y-46.685
X75.463Y-49.225
X75.463Y-51.765
X75.463Y-54.305
X75.463Y-56.845
X75.463Y-59.385
X75.463Y-61.925
X75.463Y-64.465
X75.463Y-67.005
X75.463Y-69.545
X75.463Y-72.085
X75.463Y-74.625
X90.703Y-39.065
X90.703Y-41.605
X90.703Y-44.145
X90.703Y-46.685
X90.703Y-49.225
X90.703Y-51.765
X90.703Y-54.305
X90.703Y-56.845
X90.703Y-59.385
X90.703Y-61.925
X90.703Y-64.465
X90.703Y-67.005
X90.703Y-69.545
X90.703Y-72.085
X90.703Y-74.625
T8
X62.001Y-37.186
X62.001Y-39.726
X62.001Y-42.266
T9
X44.12Y-49.436
X44.12Y-54.436
X44.12Y-59.436
X43.434Y-36.834
X43.434Y-41.834
X124.028Y-38.075
X124.028Y-43.075
X124.028Y-48.075
X43.713Y-66.759
X43.713Y-71.759
X43.713Y-76.759
X124.155Y-56.693
X124.155Y-61.693
X124.155Y-66.693
X43.967Y-84.539
X43.967Y-89.539
X43.967Y-94.539
X124.282Y-74.727
X124.282Y-79.727
X124.282Y-84.727
T10
X54.446Y-98.439
X54.446Y-122.439
X78.446Y-98.439
X78.446Y-122.439
T0
M30
