%TF.GenerationSoftware,KiCad,Pcbnew,(5.1.6)-1*%
%TF.CreationDate,2020-11-28T00:37:20-05:00*%
%TF.ProjectId,arduino_graphite,61726475-696e-46f5-9f67-726170686974,rev?*%
%TF.SameCoordinates,Original*%
%TF.FileFunction,Other,Fab,Top*%
%FSLAX46Y46*%
G04 Gerber Fmt 4.6, Leading zero omitted, Abs format (unit mm)*
G04 Created by KiCad (PCBNEW (5.1.6)-1) date 2020-11-28 00:37:20*
%MOMM*%
%LPD*%
G01*
G04 APERTURE LIST*
%ADD10C,0.100000*%
%ADD11C,0.120000*%
%ADD12C,0.150000*%
%ADD13C,0.170000*%
%ADD14C,0.091200*%
G04 APERTURE END LIST*
D10*
%TO.C,J4*%
X43184000Y-38473800D02*
X43184000Y-35163800D01*
X43184000Y-38853800D02*
X43184000Y-38473800D01*
X43184000Y-34783800D02*
X43184000Y-35163800D01*
X42794000Y-35163800D02*
X42794000Y-38473800D01*
X42794000Y-40173800D02*
X42794000Y-38473800D01*
X42794000Y-43473800D02*
X42794000Y-40173800D01*
X43184000Y-40173800D02*
X43184000Y-43473800D01*
X43184000Y-39793800D02*
X43184000Y-40173800D01*
X43184000Y-43853800D02*
X43184000Y-43473800D01*
X43944000Y-35163800D02*
X43944000Y-35553800D01*
X43944000Y-38473800D02*
X43944000Y-38093800D01*
X43944000Y-40173800D02*
X43944000Y-40553800D01*
X43944000Y-43473800D02*
X43944000Y-43093800D01*
X43184000Y-38093800D02*
X43184000Y-35553800D01*
X43184000Y-43093800D02*
X43184000Y-40553800D01*
%TO.C,J5*%
X124288200Y-46494600D02*
X124288200Y-49794600D01*
X124288200Y-46114600D02*
X124288200Y-46494600D01*
X124288200Y-50174600D02*
X124288200Y-49794600D01*
X123528200Y-49794600D02*
X123528200Y-49414600D01*
X123528200Y-46494600D02*
X123528200Y-46874600D01*
X124288200Y-46874600D02*
X124288200Y-49414600D01*
X124288200Y-36794600D02*
X124288200Y-39334600D01*
X124288200Y-41794600D02*
X124288200Y-44334600D01*
X123528200Y-36404600D02*
X123528200Y-36794600D01*
X123528200Y-39714600D02*
X123528200Y-39334600D01*
X123528200Y-41414600D02*
X123528200Y-41794600D01*
X123528200Y-44714600D02*
X123528200Y-44334600D01*
X124288200Y-36024600D02*
X124288200Y-36404600D01*
X124288200Y-40094600D02*
X124288200Y-39714600D01*
X124288200Y-39714600D02*
X124288200Y-36404600D01*
X124288200Y-45094600D02*
X124288200Y-44714600D01*
X124288200Y-41034600D02*
X124288200Y-41414600D01*
X124288200Y-41414600D02*
X124288200Y-44714600D01*
%TO.C,J1*%
X43859800Y-51016000D02*
X43859800Y-47716000D01*
X43859800Y-51396000D02*
X43859800Y-51016000D01*
X43859800Y-47336000D02*
X43859800Y-47716000D01*
X44619800Y-47716000D02*
X44619800Y-48096000D01*
X44619800Y-51016000D02*
X44619800Y-50636000D01*
X43859800Y-50636000D02*
X43859800Y-48096000D01*
X43859800Y-60716000D02*
X43859800Y-58176000D01*
X43859800Y-55716000D02*
X43859800Y-53176000D01*
X44619800Y-61106000D02*
X44619800Y-60716000D01*
X44619800Y-57796000D02*
X44619800Y-58176000D01*
X44619800Y-56096000D02*
X44619800Y-55716000D01*
X44619800Y-52796000D02*
X44619800Y-53176000D01*
X43859800Y-61486000D02*
X43859800Y-61106000D01*
X43859800Y-57416000D02*
X43859800Y-57796000D01*
X43859800Y-57796000D02*
X43859800Y-61106000D01*
X43859800Y-52416000D02*
X43859800Y-52796000D01*
X43859800Y-56476000D02*
X43859800Y-56096000D01*
X43859800Y-56096000D02*
X43859800Y-52796000D01*
%TO.C,J2*%
X43453400Y-68338800D02*
X43453400Y-65038800D01*
X43453400Y-68718800D02*
X43453400Y-68338800D01*
X43453400Y-64658800D02*
X43453400Y-65038800D01*
X44213400Y-65038800D02*
X44213400Y-65418800D01*
X44213400Y-68338800D02*
X44213400Y-67958800D01*
X43453400Y-67958800D02*
X43453400Y-65418800D01*
X43453400Y-78038800D02*
X43453400Y-75498800D01*
X43453400Y-73038800D02*
X43453400Y-70498800D01*
X44213400Y-78428800D02*
X44213400Y-78038800D01*
X44213400Y-75118800D02*
X44213400Y-75498800D01*
X44213400Y-73418800D02*
X44213400Y-73038800D01*
X44213400Y-70118800D02*
X44213400Y-70498800D01*
X43453400Y-78808800D02*
X43453400Y-78428800D01*
X43453400Y-74738800D02*
X43453400Y-75118800D01*
X43453400Y-75118800D02*
X43453400Y-78428800D01*
X43453400Y-69738800D02*
X43453400Y-70118800D01*
X43453400Y-73798800D02*
X43453400Y-73418800D01*
X43453400Y-73418800D02*
X43453400Y-70118800D01*
%TO.C,J3*%
X43707400Y-86118800D02*
X43707400Y-82818800D01*
X43707400Y-86498800D02*
X43707400Y-86118800D01*
X43707400Y-82438800D02*
X43707400Y-82818800D01*
X44467400Y-82818800D02*
X44467400Y-83198800D01*
X44467400Y-86118800D02*
X44467400Y-85738800D01*
X43707400Y-85738800D02*
X43707400Y-83198800D01*
X43707400Y-95818800D02*
X43707400Y-93278800D01*
X43707400Y-90818800D02*
X43707400Y-88278800D01*
X44467400Y-96208800D02*
X44467400Y-95818800D01*
X44467400Y-92898800D02*
X44467400Y-93278800D01*
X44467400Y-91198800D02*
X44467400Y-90818800D01*
X44467400Y-87898800D02*
X44467400Y-88278800D01*
X43707400Y-96588800D02*
X43707400Y-96208800D01*
X43707400Y-92518800D02*
X43707400Y-92898800D01*
X43707400Y-92898800D02*
X43707400Y-96208800D01*
X43707400Y-87518800D02*
X43707400Y-87898800D01*
X43707400Y-91578800D02*
X43707400Y-91198800D01*
X43707400Y-91198800D02*
X43707400Y-87898800D01*
%TO.C,J6*%
X124415200Y-65112800D02*
X124415200Y-68412800D01*
X124415200Y-64732800D02*
X124415200Y-65112800D01*
X124415200Y-68792800D02*
X124415200Y-68412800D01*
X123655200Y-68412800D02*
X123655200Y-68032800D01*
X123655200Y-65112800D02*
X123655200Y-65492800D01*
X124415200Y-65492800D02*
X124415200Y-68032800D01*
X124415200Y-55412800D02*
X124415200Y-57952800D01*
X124415200Y-60412800D02*
X124415200Y-62952800D01*
X123655200Y-55022800D02*
X123655200Y-55412800D01*
X123655200Y-58332800D02*
X123655200Y-57952800D01*
X123655200Y-60032800D02*
X123655200Y-60412800D01*
X123655200Y-63332800D02*
X123655200Y-62952800D01*
X124415200Y-54642800D02*
X124415200Y-55022800D01*
X124415200Y-58712800D02*
X124415200Y-58332800D01*
X124415200Y-58332800D02*
X124415200Y-55022800D01*
X124415200Y-63712800D02*
X124415200Y-63332800D01*
X124415200Y-59652800D02*
X124415200Y-60032800D01*
X124415200Y-60032800D02*
X124415200Y-63332800D01*
%TO.C,J7*%
X124542200Y-83146800D02*
X124542200Y-86446800D01*
X124542200Y-82766800D02*
X124542200Y-83146800D01*
X124542200Y-86826800D02*
X124542200Y-86446800D01*
X123782200Y-86446800D02*
X123782200Y-86066800D01*
X123782200Y-83146800D02*
X123782200Y-83526800D01*
X124542200Y-83526800D02*
X124542200Y-86066800D01*
X124542200Y-73446800D02*
X124542200Y-75986800D01*
X124542200Y-78446800D02*
X124542200Y-80986800D01*
X123782200Y-73056800D02*
X123782200Y-73446800D01*
X123782200Y-76366800D02*
X123782200Y-75986800D01*
X123782200Y-78066800D02*
X123782200Y-78446800D01*
X123782200Y-81366800D02*
X123782200Y-80986800D01*
X124542200Y-72676800D02*
X124542200Y-73056800D01*
X124542200Y-76746800D02*
X124542200Y-76366800D01*
X124542200Y-76366800D02*
X124542200Y-73056800D01*
X124542200Y-81746800D02*
X124542200Y-81366800D01*
X124542200Y-77686800D02*
X124542200Y-78066800D01*
X124542200Y-78066800D02*
X124542200Y-81366800D01*
%TO.C,A1*%
X91973400Y-35255200D02*
X91973400Y-78435200D01*
X75463400Y-35255200D02*
X91973400Y-35255200D01*
X74193400Y-36525200D02*
X75463400Y-35255200D01*
X74193400Y-78435200D02*
X74193400Y-36525200D01*
X91973400Y-78435200D02*
X74193400Y-78435200D01*
X79273400Y-80975200D02*
X79273400Y-70815200D01*
X86893400Y-80975200D02*
X79273400Y-80975200D01*
X86893400Y-70815200D02*
X86893400Y-80975200D01*
X79273400Y-70815200D02*
X86893400Y-70815200D01*
%TO.C,D1*%
X54100600Y-55526610D02*
X54100600Y-57858990D01*
X57100600Y-56692800D02*
G75*
G03*
X57100600Y-56692800I-1500000J0D01*
G01*
X54100045Y-57858276D02*
G75*
G03*
X54100600Y-55526610I1500555J1165476D01*
G01*
%TO.C,D2*%
X54227600Y-84050810D02*
X54227600Y-86383190D01*
X57227600Y-85217000D02*
G75*
G03*
X57227600Y-85217000I-1500000J0D01*
G01*
X54227045Y-86382476D02*
G75*
G03*
X54227600Y-84050810I1500555J1165476D01*
G01*
%TO.C,D3*%
X54913400Y-69141010D02*
X54913400Y-71473390D01*
X57913400Y-70307200D02*
G75*
G03*
X57913400Y-70307200I-1500000J0D01*
G01*
X54912845Y-71472676D02*
G75*
G03*
X54913400Y-69141010I1500555J1165476D01*
G01*
%TO.C,D4*%
X99010600Y-95298590D02*
X99010600Y-92966210D01*
X99010600Y-94132400D02*
G75*
G03*
X99010600Y-94132400I-1500000J0D01*
G01*
X99011155Y-92966924D02*
G75*
G03*
X99010600Y-95298590I-1500555J-1165476D01*
G01*
%TO.C,D5*%
X126696600Y-94130190D02*
X126696600Y-91797810D01*
X126696600Y-92964000D02*
G75*
G03*
X126696600Y-92964000I-1500000J0D01*
G01*
X126697155Y-91798524D02*
G75*
G03*
X126696600Y-94130190I-1500555J-1165476D01*
G01*
%TO.C,D6*%
X112955200Y-94206390D02*
X112955200Y-91874010D01*
X112955200Y-93040200D02*
G75*
G03*
X112955200Y-93040200I-1500000J0D01*
G01*
X112955755Y-91874724D02*
G75*
G03*
X112955200Y-94206390I-1500555J-1165476D01*
G01*
D11*
%TO.C,K1*%
X98679400Y-51010200D02*
X98679400Y-35510200D01*
X117779400Y-35510200D02*
X117679400Y-51010200D01*
X117679400Y-51010200D02*
X98679400Y-51010200D01*
X98729400Y-35510200D02*
X117729400Y-35510200D01*
%TO.C,K2*%
X98425400Y-70034800D02*
X98425400Y-54534800D01*
X117525400Y-54534800D02*
X117425400Y-70034800D01*
X117425400Y-70034800D02*
X98425400Y-70034800D01*
X98475400Y-54534800D02*
X117475400Y-54534800D01*
%TO.C,K3*%
X98146000Y-88018000D02*
X98146000Y-72518000D01*
X117246000Y-72518000D02*
X117146000Y-88018000D01*
X117146000Y-88018000D02*
X98146000Y-88018000D01*
X98196000Y-72518000D02*
X117196000Y-72518000D01*
D10*
%TO.C,C1*%
X57473600Y-36991800D02*
G75*
G03*
X57473600Y-36991800I-2000000J0D01*
G01*
X56341100Y-35289246D02*
X56341100Y-35689246D01*
X56541100Y-35489246D02*
X56141100Y-35489246D01*
%TO.C,C2*%
X57422800Y-43348400D02*
G75*
G03*
X57422800Y-43348400I-2000000J0D01*
G01*
X54555300Y-45050954D02*
X54555300Y-44650954D01*
X54355300Y-44850954D02*
X54755300Y-44850954D01*
%TO.C,D7*%
X96100800Y-41177400D02*
X94500800Y-41177400D01*
X94500800Y-41177400D02*
X94500800Y-44217400D01*
X94500800Y-44217400D02*
X96100800Y-44217400D01*
X96100800Y-44217400D02*
X96100800Y-41177400D01*
X95300800Y-37617400D02*
X95300800Y-41177400D01*
X95300800Y-47777400D02*
X95300800Y-44217400D01*
X96100800Y-41633400D02*
X94500800Y-41633400D01*
X96100800Y-41733400D02*
X94500800Y-41733400D01*
X96100800Y-41533400D02*
X94500800Y-41533400D01*
%TO.C,D8*%
X95796000Y-59846400D02*
X94196000Y-59846400D01*
X94196000Y-59846400D02*
X94196000Y-62886400D01*
X94196000Y-62886400D02*
X95796000Y-62886400D01*
X95796000Y-62886400D02*
X95796000Y-59846400D01*
X94996000Y-56286400D02*
X94996000Y-59846400D01*
X94996000Y-66446400D02*
X94996000Y-62886400D01*
X95796000Y-60302400D02*
X94196000Y-60302400D01*
X95796000Y-60402400D02*
X94196000Y-60402400D01*
X95796000Y-60202400D02*
X94196000Y-60202400D01*
%TO.C,D9*%
X95465800Y-77651800D02*
X93865800Y-77651800D01*
X93865800Y-77651800D02*
X93865800Y-80691800D01*
X93865800Y-80691800D02*
X95465800Y-80691800D01*
X95465800Y-80691800D02*
X95465800Y-77651800D01*
X94665800Y-74091800D02*
X94665800Y-77651800D01*
X94665800Y-84251800D02*
X94665800Y-80691800D01*
X95465800Y-78107800D02*
X93865800Y-78107800D01*
X95465800Y-78207800D02*
X93865800Y-78207800D01*
X95465800Y-78007800D02*
X93865800Y-78007800D01*
%TO.C,R1*%
X62484400Y-62413200D02*
X62484400Y-59913200D01*
X62484400Y-59913200D02*
X56184400Y-59913200D01*
X56184400Y-59913200D02*
X56184400Y-62413200D01*
X56184400Y-62413200D02*
X62484400Y-62413200D01*
X64414400Y-61163200D02*
X62484400Y-61163200D01*
X54254400Y-61163200D02*
X56184400Y-61163200D01*
%TO.C,R2*%
X62382800Y-92842400D02*
X62382800Y-90342400D01*
X62382800Y-90342400D02*
X56082800Y-90342400D01*
X56082800Y-90342400D02*
X56082800Y-92842400D01*
X56082800Y-92842400D02*
X62382800Y-92842400D01*
X64312800Y-91592400D02*
X62382800Y-91592400D01*
X54152800Y-91592400D02*
X56082800Y-91592400D01*
%TO.C,R3*%
X63221000Y-77450000D02*
X63221000Y-74950000D01*
X63221000Y-74950000D02*
X56921000Y-74950000D01*
X56921000Y-74950000D02*
X56921000Y-77450000D01*
X56921000Y-77450000D02*
X63221000Y-77450000D01*
X65151000Y-76200000D02*
X63221000Y-76200000D01*
X54991000Y-76200000D02*
X56921000Y-76200000D01*
%TO.C,R4*%
X69113800Y-50703800D02*
X69113800Y-48203800D01*
X69113800Y-48203800D02*
X62813800Y-48203800D01*
X62813800Y-48203800D02*
X62813800Y-50703800D01*
X62813800Y-50703800D02*
X69113800Y-50703800D01*
X71043800Y-49453800D02*
X69113800Y-49453800D01*
X60883800Y-49453800D02*
X62813800Y-49453800D01*
%TO.C,R5*%
X70028200Y-66324800D02*
X70028200Y-63824800D01*
X70028200Y-63824800D02*
X63728200Y-63824800D01*
X63728200Y-63824800D02*
X63728200Y-66324800D01*
X63728200Y-66324800D02*
X70028200Y-66324800D01*
X71958200Y-65074800D02*
X70028200Y-65074800D01*
X61798200Y-65074800D02*
X63728200Y-65074800D01*
%TO.C,R6*%
X70714000Y-81387000D02*
X70714000Y-78887000D01*
X70714000Y-78887000D02*
X64414000Y-78887000D01*
X64414000Y-78887000D02*
X64414000Y-81387000D01*
X64414000Y-81387000D02*
X70714000Y-81387000D01*
X72644000Y-80137000D02*
X70714000Y-80137000D01*
X62484000Y-80137000D02*
X64414000Y-80137000D01*
%TO.C,R7*%
X90423600Y-97403600D02*
X90423600Y-99903600D01*
X90423600Y-99903600D02*
X96723600Y-99903600D01*
X96723600Y-99903600D02*
X96723600Y-97403600D01*
X96723600Y-97403600D02*
X90423600Y-97403600D01*
X88493600Y-98653600D02*
X90423600Y-98653600D01*
X98653600Y-98653600D02*
X96723600Y-98653600D01*
%TO.C,R8*%
X104647600Y-97657600D02*
X104647600Y-100157600D01*
X104647600Y-100157600D02*
X110947600Y-100157600D01*
X110947600Y-100157600D02*
X110947600Y-97657600D01*
X110947600Y-97657600D02*
X104647600Y-97657600D01*
X102717600Y-98907600D02*
X104647600Y-98907600D01*
X112877600Y-98907600D02*
X110947600Y-98907600D01*
%TO.C,R9*%
X118363600Y-97733800D02*
X118363600Y-100233800D01*
X118363600Y-100233800D02*
X124663600Y-100233800D01*
X124663600Y-100233800D02*
X124663600Y-97733800D01*
X124663600Y-97733800D02*
X118363600Y-97733800D01*
X116433600Y-98983800D02*
X118363600Y-98983800D01*
X126593600Y-98983800D02*
X124663600Y-98983800D01*
%TO.C,RV1*%
X42558000Y-118306200D02*
G75*
G03*
X42558000Y-118306200I-1095000J0D01*
G01*
X49723000Y-121866200D02*
X49723000Y-117036200D01*
X49723000Y-117036200D02*
X40193000Y-117036200D01*
X40193000Y-117036200D02*
X40193000Y-121866200D01*
X40193000Y-121866200D02*
X49723000Y-121866200D01*
X41463000Y-117221200D02*
X41462000Y-119390200D01*
X41463000Y-117221200D02*
X41462000Y-119390200D01*
%TO.C,RV2*%
X42685000Y-108806600D02*
G75*
G03*
X42685000Y-108806600I-1095000J0D01*
G01*
X49850000Y-112366600D02*
X49850000Y-107536600D01*
X49850000Y-107536600D02*
X40320000Y-107536600D01*
X40320000Y-107536600D02*
X40320000Y-112366600D01*
X40320000Y-112366600D02*
X49850000Y-112366600D01*
X41590000Y-107721600D02*
X41589000Y-109890600D01*
X41590000Y-107721600D02*
X41589000Y-109890600D01*
%TO.C,RV3*%
X42939000Y-100627800D02*
G75*
G03*
X42939000Y-100627800I-1095000J0D01*
G01*
X50104000Y-104187800D02*
X50104000Y-99357800D01*
X50104000Y-99357800D02*
X40574000Y-99357800D01*
X40574000Y-99357800D02*
X40574000Y-104187800D01*
X40574000Y-104187800D02*
X50104000Y-104187800D01*
X41844000Y-99542800D02*
X41843000Y-101711800D01*
X41844000Y-99542800D02*
X41843000Y-101711800D01*
%TO.C,U1*%
X65151400Y-34725600D02*
X60751400Y-34725600D01*
X60751400Y-34725600D02*
X60751400Y-44725600D01*
X60751400Y-44725600D02*
X65151400Y-44725600D01*
X65151400Y-44725600D02*
X65151400Y-34725600D01*
X63881400Y-34725600D02*
X63881400Y-44725600D01*
X65151400Y-37875600D02*
X63881400Y-37875600D01*
X65151400Y-41575600D02*
X63881400Y-41575600D01*
%TO.C,U2*%
X61137800Y-53984400D02*
X62137800Y-52984400D01*
X61137800Y-58064400D02*
X61137800Y-53984400D01*
X67487800Y-58064400D02*
X61137800Y-58064400D01*
X67487800Y-52984400D02*
X67487800Y-58064400D01*
X62137800Y-52984400D02*
X67487800Y-52984400D01*
%TO.C,U3*%
X61925200Y-68818000D02*
X62925200Y-67818000D01*
X61925200Y-72898000D02*
X61925200Y-68818000D01*
X68275200Y-72898000D02*
X61925200Y-72898000D01*
X68275200Y-67818000D02*
X68275200Y-72898000D01*
X62925200Y-67818000D02*
X68275200Y-67818000D01*
%TO.C,U4*%
X61798200Y-83346800D02*
X62798200Y-82346800D01*
X61798200Y-87426800D02*
X61798200Y-83346800D01*
X68148200Y-87426800D02*
X61798200Y-87426800D01*
X68148200Y-82346800D02*
X68148200Y-87426800D01*
X62798200Y-82346800D02*
X68148200Y-82346800D01*
%TO.C,U6*%
X89128600Y-102803200D02*
X90128600Y-101803200D01*
X89128600Y-106883200D02*
X89128600Y-102803200D01*
X95478600Y-106883200D02*
X89128600Y-106883200D01*
X95478600Y-101803200D02*
X95478600Y-106883200D01*
X90128600Y-101803200D02*
X95478600Y-101803200D01*
%TO.C,U7*%
X104013000Y-103590600D02*
X105013000Y-102590600D01*
X104013000Y-107670600D02*
X104013000Y-103590600D01*
X110363000Y-107670600D02*
X104013000Y-107670600D01*
X110363000Y-102590600D02*
X110363000Y-107670600D01*
X105013000Y-102590600D02*
X110363000Y-102590600D01*
%TO.C,U8*%
X116941600Y-103920800D02*
X117941600Y-102920800D01*
X116941600Y-108000800D02*
X116941600Y-103920800D01*
X123291600Y-108000800D02*
X116941600Y-108000800D01*
X123291600Y-102920800D02*
X123291600Y-108000800D01*
X117941600Y-102920800D02*
X123291600Y-102920800D01*
%TD*%
%TO.C,REF\u002A\u002A*%
D12*
X131118028Y-35656780D02*
X131118028Y-34990114D01*
X131118028Y-35085352D02*
X131165647Y-35037733D01*
X131260885Y-34990114D01*
X131403742Y-34990114D01*
X131498980Y-35037733D01*
X131546600Y-35132971D01*
X131546600Y-35656780D01*
X131546600Y-35132971D02*
X131594219Y-35037733D01*
X131689457Y-34990114D01*
X131832314Y-34990114D01*
X131927552Y-35037733D01*
X131975171Y-35132971D01*
X131975171Y-35656780D01*
X128100266Y-33573980D02*
X127766933Y-33097790D01*
X127528838Y-33573980D02*
X127528838Y-32573980D01*
X127909790Y-32573980D01*
X128005028Y-32621600D01*
X128052647Y-32669219D01*
X128100266Y-32764457D01*
X128100266Y-32907314D01*
X128052647Y-33002552D01*
X128005028Y-33050171D01*
X127909790Y-33097790D01*
X127528838Y-33097790D01*
X128528838Y-33050171D02*
X128862171Y-33050171D01*
X129005028Y-33573980D02*
X128528838Y-33573980D01*
X128528838Y-32573980D01*
X129005028Y-32573980D01*
X129766933Y-33050171D02*
X129433600Y-33050171D01*
X129433600Y-33573980D02*
X129433600Y-32573980D01*
X129909790Y-32573980D01*
X130433600Y-32573980D02*
X130433600Y-32812076D01*
X130195504Y-32716838D02*
X130433600Y-32812076D01*
X130671695Y-32716838D01*
X130290742Y-33002552D02*
X130433600Y-32812076D01*
X130576457Y-33002552D01*
X131195504Y-32573980D02*
X131195504Y-32812076D01*
X130957409Y-32716838D02*
X131195504Y-32812076D01*
X131433600Y-32716838D01*
X131052647Y-33002552D02*
X131195504Y-32812076D01*
X131338361Y-33002552D01*
%TO.C,1*%
X39474828Y-126182380D02*
X39474828Y-125515714D01*
X39474828Y-125610952D02*
X39522447Y-125563333D01*
X39617685Y-125515714D01*
X39760542Y-125515714D01*
X39855780Y-125563333D01*
X39903400Y-125658571D01*
X39903400Y-126182380D01*
X39903400Y-125658571D02*
X39951019Y-125563333D01*
X40046257Y-125515714D01*
X40189114Y-125515714D01*
X40284352Y-125563333D01*
X40331971Y-125658571D01*
X40331971Y-126182380D01*
X37593514Y-124277380D02*
X37022085Y-124277380D01*
X37307800Y-124277380D02*
X37307800Y-123277380D01*
X37212561Y-123420238D01*
X37117323Y-123515476D01*
X37022085Y-123563095D01*
%TO.C,REF\u002A\u002A*%
X126952428Y-126308980D02*
X126952428Y-125642314D01*
X126952428Y-125737552D02*
X127000047Y-125689933D01*
X127095285Y-125642314D01*
X127238142Y-125642314D01*
X127333380Y-125689933D01*
X127381000Y-125785171D01*
X127381000Y-126308980D01*
X127381000Y-125785171D02*
X127428619Y-125689933D01*
X127523857Y-125642314D01*
X127666714Y-125642314D01*
X127761952Y-125689933D01*
X127809571Y-125785171D01*
X127809571Y-126308980D01*
X126347666Y-123108980D02*
X126014333Y-122632790D01*
X125776238Y-123108980D02*
X125776238Y-122108980D01*
X126157190Y-122108980D01*
X126252428Y-122156600D01*
X126300047Y-122204219D01*
X126347666Y-122299457D01*
X126347666Y-122442314D01*
X126300047Y-122537552D01*
X126252428Y-122585171D01*
X126157190Y-122632790D01*
X125776238Y-122632790D01*
X126776238Y-122585171D02*
X127109571Y-122585171D01*
X127252428Y-123108980D02*
X126776238Y-123108980D01*
X126776238Y-122108980D01*
X127252428Y-122108980D01*
X128014333Y-122585171D02*
X127681000Y-122585171D01*
X127681000Y-123108980D02*
X127681000Y-122108980D01*
X128157190Y-122108980D01*
X128681000Y-122108980D02*
X128681000Y-122347076D01*
X128442904Y-122251838D02*
X128681000Y-122347076D01*
X128919095Y-122251838D01*
X128538142Y-122537552D02*
X128681000Y-122347076D01*
X128823857Y-122537552D01*
X129442904Y-122108980D02*
X129442904Y-122347076D01*
X129204809Y-122251838D02*
X129442904Y-122347076D01*
X129681000Y-122251838D01*
X129300047Y-122537552D02*
X129442904Y-122347076D01*
X129585761Y-122537552D01*
%TO.C,J4*%
X51588761Y-47291895D02*
X51636380Y-47149038D01*
X51636380Y-46910942D01*
X51588761Y-46815704D01*
X51541142Y-46768085D01*
X51445904Y-46720466D01*
X51350666Y-46720466D01*
X51255428Y-46768085D01*
X51207809Y-46815704D01*
X51160190Y-46910942D01*
X51112571Y-47101419D01*
X51064952Y-47196657D01*
X51017333Y-47244276D01*
X50922095Y-47291895D01*
X50826857Y-47291895D01*
X50731619Y-47244276D01*
X50684000Y-47196657D01*
X50636380Y-47101419D01*
X50636380Y-46863323D01*
X50684000Y-46720466D01*
X51588761Y-45863323D02*
X51636380Y-45958561D01*
X51636380Y-46149038D01*
X51588761Y-46244276D01*
X51541142Y-46291895D01*
X51445904Y-46339514D01*
X51160190Y-46339514D01*
X51064952Y-46291895D01*
X51017333Y-46244276D01*
X50969714Y-46149038D01*
X50969714Y-45958561D01*
X51017333Y-45863323D01*
X51636380Y-45434752D02*
X50969714Y-45434752D01*
X51160190Y-45434752D02*
X51064952Y-45387133D01*
X51017333Y-45339514D01*
X50969714Y-45244276D01*
X50969714Y-45149038D01*
X51588761Y-44434752D02*
X51636380Y-44529990D01*
X51636380Y-44720466D01*
X51588761Y-44815704D01*
X51493523Y-44863323D01*
X51112571Y-44863323D01*
X51017333Y-44815704D01*
X50969714Y-44720466D01*
X50969714Y-44529990D01*
X51017333Y-44434752D01*
X51112571Y-44387133D01*
X51207809Y-44387133D01*
X51303047Y-44863323D01*
X50969714Y-44053800D02*
X51636380Y-43863323D01*
X51160190Y-43672847D01*
X51636380Y-43482371D01*
X50969714Y-43291895D01*
X51731619Y-43149038D02*
X51731619Y-42387133D01*
X50636380Y-42291895D02*
X50636380Y-41720466D01*
X51636380Y-42006180D02*
X50636380Y-42006180D01*
X51588761Y-41006180D02*
X51636380Y-41101419D01*
X51636380Y-41291895D01*
X51588761Y-41387133D01*
X51493523Y-41434752D01*
X51112571Y-41434752D01*
X51017333Y-41387133D01*
X50969714Y-41291895D01*
X50969714Y-41101419D01*
X51017333Y-41006180D01*
X51112571Y-40958561D01*
X51207809Y-40958561D01*
X51303047Y-41434752D01*
X51636380Y-40529990D02*
X50969714Y-40529990D01*
X51160190Y-40529990D02*
X51064952Y-40482371D01*
X51017333Y-40434752D01*
X50969714Y-40339514D01*
X50969714Y-40244276D01*
X51636380Y-39910942D02*
X50969714Y-39910942D01*
X51064952Y-39910942D02*
X51017333Y-39863323D01*
X50969714Y-39768085D01*
X50969714Y-39625228D01*
X51017333Y-39529990D01*
X51112571Y-39482371D01*
X51636380Y-39482371D01*
X51112571Y-39482371D02*
X51017333Y-39434752D01*
X50969714Y-39339514D01*
X50969714Y-39196657D01*
X51017333Y-39101419D01*
X51112571Y-39053800D01*
X51636380Y-39053800D01*
X51636380Y-38577609D02*
X50969714Y-38577609D01*
X50636380Y-38577609D02*
X50684000Y-38625228D01*
X50731619Y-38577609D01*
X50684000Y-38529990D01*
X50636380Y-38577609D01*
X50731619Y-38577609D01*
X50969714Y-38101419D02*
X51636380Y-38101419D01*
X51064952Y-38101419D02*
X51017333Y-38053800D01*
X50969714Y-37958561D01*
X50969714Y-37815704D01*
X51017333Y-37720466D01*
X51112571Y-37672847D01*
X51636380Y-37672847D01*
X51636380Y-36768085D02*
X51112571Y-36768085D01*
X51017333Y-36815704D01*
X50969714Y-36910942D01*
X50969714Y-37101419D01*
X51017333Y-37196657D01*
X51588761Y-36768085D02*
X51636380Y-36863323D01*
X51636380Y-37101419D01*
X51588761Y-37196657D01*
X51493523Y-37244276D01*
X51398285Y-37244276D01*
X51303047Y-37196657D01*
X51255428Y-37101419D01*
X51255428Y-36863323D01*
X51207809Y-36768085D01*
X51636380Y-36149038D02*
X51588761Y-36244276D01*
X51493523Y-36291895D01*
X50636380Y-36291895D01*
X51731619Y-36006180D02*
X51731619Y-35244276D01*
X50636380Y-34815704D02*
X50636380Y-34720466D01*
X50684000Y-34625228D01*
X50731619Y-34577609D01*
X50826857Y-34529990D01*
X51017333Y-34482371D01*
X51255428Y-34482371D01*
X51445904Y-34529990D01*
X51541142Y-34577609D01*
X51588761Y-34625228D01*
X51636380Y-34720466D01*
X51636380Y-34815704D01*
X51588761Y-34910942D01*
X51541142Y-34958561D01*
X51445904Y-35006180D01*
X51255428Y-35053800D01*
X51017333Y-35053800D01*
X50826857Y-35006180D01*
X50731619Y-34958561D01*
X50684000Y-34910942D01*
X50636380Y-34815704D01*
X51636380Y-33529990D02*
X51636380Y-34101419D01*
X51636380Y-33815704D02*
X50636380Y-33815704D01*
X50779238Y-33910942D01*
X50874476Y-34006180D01*
X50922095Y-34101419D01*
X51636380Y-33196657D02*
X50969714Y-32672847D01*
X50969714Y-33196657D02*
X51636380Y-32672847D01*
X50636380Y-32101419D02*
X50636380Y-32006180D01*
X50684000Y-31910942D01*
X50731619Y-31863323D01*
X50826857Y-31815704D01*
X51017333Y-31768085D01*
X51255428Y-31768085D01*
X51445904Y-31815704D01*
X51541142Y-31863323D01*
X51588761Y-31910942D01*
X51636380Y-32006180D01*
X51636380Y-32101419D01*
X51588761Y-32196657D01*
X51541142Y-32244276D01*
X51445904Y-32291895D01*
X51255428Y-32339514D01*
X51017333Y-32339514D01*
X50826857Y-32291895D01*
X50731619Y-32244276D01*
X50684000Y-32196657D01*
X50636380Y-32101419D01*
X50731619Y-31387133D02*
X50684000Y-31339514D01*
X50636380Y-31244276D01*
X50636380Y-31006180D01*
X50684000Y-30910942D01*
X50731619Y-30863323D01*
X50826857Y-30815704D01*
X50922095Y-30815704D01*
X51064952Y-30863323D01*
X51636380Y-31434752D01*
X51636380Y-30815704D01*
X40886380Y-39667133D02*
X41600666Y-39667133D01*
X41743523Y-39714752D01*
X41838761Y-39809990D01*
X41886380Y-39952847D01*
X41886380Y-40048085D01*
X41219714Y-38762371D02*
X41886380Y-38762371D01*
X40838761Y-39000466D02*
X41553047Y-39238561D01*
X41553047Y-38619514D01*
%TO.C,J5*%
X119432961Y-51262695D02*
X119480580Y-51119838D01*
X119480580Y-50881742D01*
X119432961Y-50786504D01*
X119385342Y-50738885D01*
X119290104Y-50691266D01*
X119194866Y-50691266D01*
X119099628Y-50738885D01*
X119052009Y-50786504D01*
X119004390Y-50881742D01*
X118956771Y-51072219D01*
X118909152Y-51167457D01*
X118861533Y-51215076D01*
X118766295Y-51262695D01*
X118671057Y-51262695D01*
X118575819Y-51215076D01*
X118528200Y-51167457D01*
X118480580Y-51072219D01*
X118480580Y-50834123D01*
X118528200Y-50691266D01*
X119432961Y-49834123D02*
X119480580Y-49929361D01*
X119480580Y-50119838D01*
X119432961Y-50215076D01*
X119385342Y-50262695D01*
X119290104Y-50310314D01*
X119004390Y-50310314D01*
X118909152Y-50262695D01*
X118861533Y-50215076D01*
X118813914Y-50119838D01*
X118813914Y-49929361D01*
X118861533Y-49834123D01*
X119480580Y-49405552D02*
X118813914Y-49405552D01*
X119004390Y-49405552D02*
X118909152Y-49357933D01*
X118861533Y-49310314D01*
X118813914Y-49215076D01*
X118813914Y-49119838D01*
X119432961Y-48405552D02*
X119480580Y-48500790D01*
X119480580Y-48691266D01*
X119432961Y-48786504D01*
X119337723Y-48834123D01*
X118956771Y-48834123D01*
X118861533Y-48786504D01*
X118813914Y-48691266D01*
X118813914Y-48500790D01*
X118861533Y-48405552D01*
X118956771Y-48357933D01*
X119052009Y-48357933D01*
X119147247Y-48834123D01*
X118813914Y-48024600D02*
X119480580Y-47834123D01*
X119004390Y-47643647D01*
X119480580Y-47453171D01*
X118813914Y-47262695D01*
X119575819Y-47119838D02*
X119575819Y-46357933D01*
X118480580Y-46262695D02*
X118480580Y-45691266D01*
X119480580Y-45976980D02*
X118480580Y-45976980D01*
X119432961Y-44976980D02*
X119480580Y-45072219D01*
X119480580Y-45262695D01*
X119432961Y-45357933D01*
X119337723Y-45405552D01*
X118956771Y-45405552D01*
X118861533Y-45357933D01*
X118813914Y-45262695D01*
X118813914Y-45072219D01*
X118861533Y-44976980D01*
X118956771Y-44929361D01*
X119052009Y-44929361D01*
X119147247Y-45405552D01*
X119480580Y-44500790D02*
X118813914Y-44500790D01*
X119004390Y-44500790D02*
X118909152Y-44453171D01*
X118861533Y-44405552D01*
X118813914Y-44310314D01*
X118813914Y-44215076D01*
X119480580Y-43881742D02*
X118813914Y-43881742D01*
X118909152Y-43881742D02*
X118861533Y-43834123D01*
X118813914Y-43738885D01*
X118813914Y-43596028D01*
X118861533Y-43500790D01*
X118956771Y-43453171D01*
X119480580Y-43453171D01*
X118956771Y-43453171D02*
X118861533Y-43405552D01*
X118813914Y-43310314D01*
X118813914Y-43167457D01*
X118861533Y-43072219D01*
X118956771Y-43024600D01*
X119480580Y-43024600D01*
X119480580Y-42548409D02*
X118813914Y-42548409D01*
X118480580Y-42548409D02*
X118528200Y-42596028D01*
X118575819Y-42548409D01*
X118528200Y-42500790D01*
X118480580Y-42548409D01*
X118575819Y-42548409D01*
X118813914Y-42072219D02*
X119480580Y-42072219D01*
X118909152Y-42072219D02*
X118861533Y-42024600D01*
X118813914Y-41929361D01*
X118813914Y-41786504D01*
X118861533Y-41691266D01*
X118956771Y-41643647D01*
X119480580Y-41643647D01*
X119480580Y-40738885D02*
X118956771Y-40738885D01*
X118861533Y-40786504D01*
X118813914Y-40881742D01*
X118813914Y-41072219D01*
X118861533Y-41167457D01*
X119432961Y-40738885D02*
X119480580Y-40834123D01*
X119480580Y-41072219D01*
X119432961Y-41167457D01*
X119337723Y-41215076D01*
X119242485Y-41215076D01*
X119147247Y-41167457D01*
X119099628Y-41072219D01*
X119099628Y-40834123D01*
X119052009Y-40738885D01*
X119480580Y-40119838D02*
X119432961Y-40215076D01*
X119337723Y-40262695D01*
X118480580Y-40262695D01*
X119575819Y-39976980D02*
X119575819Y-39215076D01*
X118480580Y-38786504D02*
X118480580Y-38691266D01*
X118528200Y-38596028D01*
X118575819Y-38548409D01*
X118671057Y-38500790D01*
X118861533Y-38453171D01*
X119099628Y-38453171D01*
X119290104Y-38500790D01*
X119385342Y-38548409D01*
X119432961Y-38596028D01*
X119480580Y-38691266D01*
X119480580Y-38786504D01*
X119432961Y-38881742D01*
X119385342Y-38929361D01*
X119290104Y-38976980D01*
X119099628Y-39024600D01*
X118861533Y-39024600D01*
X118671057Y-38976980D01*
X118575819Y-38929361D01*
X118528200Y-38881742D01*
X118480580Y-38786504D01*
X119480580Y-37500790D02*
X119480580Y-38072219D01*
X119480580Y-37786504D02*
X118480580Y-37786504D01*
X118623438Y-37881742D01*
X118718676Y-37976980D01*
X118766295Y-38072219D01*
X119480580Y-37167457D02*
X118813914Y-36643647D01*
X118813914Y-37167457D02*
X119480580Y-36643647D01*
X118480580Y-36072219D02*
X118480580Y-35976980D01*
X118528200Y-35881742D01*
X118575819Y-35834123D01*
X118671057Y-35786504D01*
X118861533Y-35738885D01*
X119099628Y-35738885D01*
X119290104Y-35786504D01*
X119385342Y-35834123D01*
X119432961Y-35881742D01*
X119480580Y-35976980D01*
X119480580Y-36072219D01*
X119432961Y-36167457D01*
X119385342Y-36215076D01*
X119290104Y-36262695D01*
X119099628Y-36310314D01*
X118861533Y-36310314D01*
X118671057Y-36262695D01*
X118575819Y-36215076D01*
X118528200Y-36167457D01*
X118480580Y-36072219D01*
X118480580Y-35405552D02*
X118480580Y-34786504D01*
X118861533Y-35119838D01*
X118861533Y-34976980D01*
X118909152Y-34881742D01*
X118956771Y-34834123D01*
X119052009Y-34786504D01*
X119290104Y-34786504D01*
X119385342Y-34834123D01*
X119432961Y-34881742D01*
X119480580Y-34976980D01*
X119480580Y-35262695D01*
X119432961Y-35357933D01*
X119385342Y-35405552D01*
X122616980Y-45418333D02*
X123331266Y-45418333D01*
X123474123Y-45465952D01*
X123569361Y-45561190D01*
X123616980Y-45704047D01*
X123616980Y-45799285D01*
X122616980Y-44465952D02*
X122616980Y-44942142D01*
X123093171Y-44989761D01*
X123045552Y-44942142D01*
X122997933Y-44846904D01*
X122997933Y-44608809D01*
X123045552Y-44513571D01*
X123093171Y-44465952D01*
X123188409Y-44418333D01*
X123426504Y-44418333D01*
X123521742Y-44465952D01*
X123569361Y-44513571D01*
X123616980Y-44608809D01*
X123616980Y-44846904D01*
X123569361Y-44942142D01*
X123521742Y-44989761D01*
%TO.C,J1*%
X49524561Y-62724095D02*
X49572180Y-62581238D01*
X49572180Y-62343142D01*
X49524561Y-62247904D01*
X49476942Y-62200285D01*
X49381704Y-62152666D01*
X49286466Y-62152666D01*
X49191228Y-62200285D01*
X49143609Y-62247904D01*
X49095990Y-62343142D01*
X49048371Y-62533619D01*
X49000752Y-62628857D01*
X48953133Y-62676476D01*
X48857895Y-62724095D01*
X48762657Y-62724095D01*
X48667419Y-62676476D01*
X48619800Y-62628857D01*
X48572180Y-62533619D01*
X48572180Y-62295523D01*
X48619800Y-62152666D01*
X49524561Y-61295523D02*
X49572180Y-61390761D01*
X49572180Y-61581238D01*
X49524561Y-61676476D01*
X49476942Y-61724095D01*
X49381704Y-61771714D01*
X49095990Y-61771714D01*
X49000752Y-61724095D01*
X48953133Y-61676476D01*
X48905514Y-61581238D01*
X48905514Y-61390761D01*
X48953133Y-61295523D01*
X49572180Y-60866952D02*
X48905514Y-60866952D01*
X49095990Y-60866952D02*
X49000752Y-60819333D01*
X48953133Y-60771714D01*
X48905514Y-60676476D01*
X48905514Y-60581238D01*
X49524561Y-59866952D02*
X49572180Y-59962190D01*
X49572180Y-60152666D01*
X49524561Y-60247904D01*
X49429323Y-60295523D01*
X49048371Y-60295523D01*
X48953133Y-60247904D01*
X48905514Y-60152666D01*
X48905514Y-59962190D01*
X48953133Y-59866952D01*
X49048371Y-59819333D01*
X49143609Y-59819333D01*
X49238847Y-60295523D01*
X48905514Y-59486000D02*
X49572180Y-59295523D01*
X49095990Y-59105047D01*
X49572180Y-58914571D01*
X48905514Y-58724095D01*
X49667419Y-58581238D02*
X49667419Y-57819333D01*
X48572180Y-57724095D02*
X48572180Y-57152666D01*
X49572180Y-57438380D02*
X48572180Y-57438380D01*
X49524561Y-56438380D02*
X49572180Y-56533619D01*
X49572180Y-56724095D01*
X49524561Y-56819333D01*
X49429323Y-56866952D01*
X49048371Y-56866952D01*
X48953133Y-56819333D01*
X48905514Y-56724095D01*
X48905514Y-56533619D01*
X48953133Y-56438380D01*
X49048371Y-56390761D01*
X49143609Y-56390761D01*
X49238847Y-56866952D01*
X49572180Y-55962190D02*
X48905514Y-55962190D01*
X49095990Y-55962190D02*
X49000752Y-55914571D01*
X48953133Y-55866952D01*
X48905514Y-55771714D01*
X48905514Y-55676476D01*
X49572180Y-55343142D02*
X48905514Y-55343142D01*
X49000752Y-55343142D02*
X48953133Y-55295523D01*
X48905514Y-55200285D01*
X48905514Y-55057428D01*
X48953133Y-54962190D01*
X49048371Y-54914571D01*
X49572180Y-54914571D01*
X49048371Y-54914571D02*
X48953133Y-54866952D01*
X48905514Y-54771714D01*
X48905514Y-54628857D01*
X48953133Y-54533619D01*
X49048371Y-54486000D01*
X49572180Y-54486000D01*
X49572180Y-54009809D02*
X48905514Y-54009809D01*
X48572180Y-54009809D02*
X48619800Y-54057428D01*
X48667419Y-54009809D01*
X48619800Y-53962190D01*
X48572180Y-54009809D01*
X48667419Y-54009809D01*
X48905514Y-53533619D02*
X49572180Y-53533619D01*
X49000752Y-53533619D02*
X48953133Y-53486000D01*
X48905514Y-53390761D01*
X48905514Y-53247904D01*
X48953133Y-53152666D01*
X49048371Y-53105047D01*
X49572180Y-53105047D01*
X49572180Y-52200285D02*
X49048371Y-52200285D01*
X48953133Y-52247904D01*
X48905514Y-52343142D01*
X48905514Y-52533619D01*
X48953133Y-52628857D01*
X49524561Y-52200285D02*
X49572180Y-52295523D01*
X49572180Y-52533619D01*
X49524561Y-52628857D01*
X49429323Y-52676476D01*
X49334085Y-52676476D01*
X49238847Y-52628857D01*
X49191228Y-52533619D01*
X49191228Y-52295523D01*
X49143609Y-52200285D01*
X49572180Y-51581238D02*
X49524561Y-51676476D01*
X49429323Y-51724095D01*
X48572180Y-51724095D01*
X49667419Y-51438380D02*
X49667419Y-50676476D01*
X48572180Y-50247904D02*
X48572180Y-50152666D01*
X48619800Y-50057428D01*
X48667419Y-50009809D01*
X48762657Y-49962190D01*
X48953133Y-49914571D01*
X49191228Y-49914571D01*
X49381704Y-49962190D01*
X49476942Y-50009809D01*
X49524561Y-50057428D01*
X49572180Y-50152666D01*
X49572180Y-50247904D01*
X49524561Y-50343142D01*
X49476942Y-50390761D01*
X49381704Y-50438380D01*
X49191228Y-50486000D01*
X48953133Y-50486000D01*
X48762657Y-50438380D01*
X48667419Y-50390761D01*
X48619800Y-50343142D01*
X48572180Y-50247904D01*
X49572180Y-48962190D02*
X49572180Y-49533619D01*
X49572180Y-49247904D02*
X48572180Y-49247904D01*
X48715038Y-49343142D01*
X48810276Y-49438380D01*
X48857895Y-49533619D01*
X49572180Y-48628857D02*
X48905514Y-48105047D01*
X48905514Y-48628857D02*
X49572180Y-48105047D01*
X48572180Y-47533619D02*
X48572180Y-47438380D01*
X48619800Y-47343142D01*
X48667419Y-47295523D01*
X48762657Y-47247904D01*
X48953133Y-47200285D01*
X49191228Y-47200285D01*
X49381704Y-47247904D01*
X49476942Y-47295523D01*
X49524561Y-47343142D01*
X49572180Y-47438380D01*
X49572180Y-47533619D01*
X49524561Y-47628857D01*
X49476942Y-47676476D01*
X49381704Y-47724095D01*
X49191228Y-47771714D01*
X48953133Y-47771714D01*
X48762657Y-47724095D01*
X48667419Y-47676476D01*
X48619800Y-47628857D01*
X48572180Y-47533619D01*
X48572180Y-46866952D02*
X48572180Y-46247904D01*
X48953133Y-46581238D01*
X48953133Y-46438380D01*
X49000752Y-46343142D01*
X49048371Y-46295523D01*
X49143609Y-46247904D01*
X49381704Y-46247904D01*
X49476942Y-46295523D01*
X49524561Y-46343142D01*
X49572180Y-46438380D01*
X49572180Y-46724095D01*
X49524561Y-46819333D01*
X49476942Y-46866952D01*
X41572180Y-63769333D02*
X42286466Y-63769333D01*
X42429323Y-63816952D01*
X42524561Y-63912190D01*
X42572180Y-64055047D01*
X42572180Y-64150285D01*
X42572180Y-62769333D02*
X42572180Y-63340761D01*
X42572180Y-63055047D02*
X41572180Y-63055047D01*
X41715038Y-63150285D01*
X41810276Y-63245523D01*
X41857895Y-63340761D01*
%TO.C,J2*%
X51418161Y-80046895D02*
X51465780Y-79904038D01*
X51465780Y-79665942D01*
X51418161Y-79570704D01*
X51370542Y-79523085D01*
X51275304Y-79475466D01*
X51180066Y-79475466D01*
X51084828Y-79523085D01*
X51037209Y-79570704D01*
X50989590Y-79665942D01*
X50941971Y-79856419D01*
X50894352Y-79951657D01*
X50846733Y-79999276D01*
X50751495Y-80046895D01*
X50656257Y-80046895D01*
X50561019Y-79999276D01*
X50513400Y-79951657D01*
X50465780Y-79856419D01*
X50465780Y-79618323D01*
X50513400Y-79475466D01*
X51418161Y-78618323D02*
X51465780Y-78713561D01*
X51465780Y-78904038D01*
X51418161Y-78999276D01*
X51370542Y-79046895D01*
X51275304Y-79094514D01*
X50989590Y-79094514D01*
X50894352Y-79046895D01*
X50846733Y-78999276D01*
X50799114Y-78904038D01*
X50799114Y-78713561D01*
X50846733Y-78618323D01*
X51465780Y-78189752D02*
X50799114Y-78189752D01*
X50989590Y-78189752D02*
X50894352Y-78142133D01*
X50846733Y-78094514D01*
X50799114Y-77999276D01*
X50799114Y-77904038D01*
X51418161Y-77189752D02*
X51465780Y-77284990D01*
X51465780Y-77475466D01*
X51418161Y-77570704D01*
X51322923Y-77618323D01*
X50941971Y-77618323D01*
X50846733Y-77570704D01*
X50799114Y-77475466D01*
X50799114Y-77284990D01*
X50846733Y-77189752D01*
X50941971Y-77142133D01*
X51037209Y-77142133D01*
X51132447Y-77618323D01*
X50799114Y-76808800D02*
X51465780Y-76618323D01*
X50989590Y-76427847D01*
X51465780Y-76237371D01*
X50799114Y-76046895D01*
X51561019Y-75904038D02*
X51561019Y-75142133D01*
X50465780Y-75046895D02*
X50465780Y-74475466D01*
X51465780Y-74761180D02*
X50465780Y-74761180D01*
X51418161Y-73761180D02*
X51465780Y-73856419D01*
X51465780Y-74046895D01*
X51418161Y-74142133D01*
X51322923Y-74189752D01*
X50941971Y-74189752D01*
X50846733Y-74142133D01*
X50799114Y-74046895D01*
X50799114Y-73856419D01*
X50846733Y-73761180D01*
X50941971Y-73713561D01*
X51037209Y-73713561D01*
X51132447Y-74189752D01*
X51465780Y-73284990D02*
X50799114Y-73284990D01*
X50989590Y-73284990D02*
X50894352Y-73237371D01*
X50846733Y-73189752D01*
X50799114Y-73094514D01*
X50799114Y-72999276D01*
X51465780Y-72665942D02*
X50799114Y-72665942D01*
X50894352Y-72665942D02*
X50846733Y-72618323D01*
X50799114Y-72523085D01*
X50799114Y-72380228D01*
X50846733Y-72284990D01*
X50941971Y-72237371D01*
X51465780Y-72237371D01*
X50941971Y-72237371D02*
X50846733Y-72189752D01*
X50799114Y-72094514D01*
X50799114Y-71951657D01*
X50846733Y-71856419D01*
X50941971Y-71808800D01*
X51465780Y-71808800D01*
X51465780Y-71332609D02*
X50799114Y-71332609D01*
X50465780Y-71332609D02*
X50513400Y-71380228D01*
X50561019Y-71332609D01*
X50513400Y-71284990D01*
X50465780Y-71332609D01*
X50561019Y-71332609D01*
X50799114Y-70856419D02*
X51465780Y-70856419D01*
X50894352Y-70856419D02*
X50846733Y-70808800D01*
X50799114Y-70713561D01*
X50799114Y-70570704D01*
X50846733Y-70475466D01*
X50941971Y-70427847D01*
X51465780Y-70427847D01*
X51465780Y-69523085D02*
X50941971Y-69523085D01*
X50846733Y-69570704D01*
X50799114Y-69665942D01*
X50799114Y-69856419D01*
X50846733Y-69951657D01*
X51418161Y-69523085D02*
X51465780Y-69618323D01*
X51465780Y-69856419D01*
X51418161Y-69951657D01*
X51322923Y-69999276D01*
X51227685Y-69999276D01*
X51132447Y-69951657D01*
X51084828Y-69856419D01*
X51084828Y-69618323D01*
X51037209Y-69523085D01*
X51465780Y-68904038D02*
X51418161Y-68999276D01*
X51322923Y-69046895D01*
X50465780Y-69046895D01*
X51561019Y-68761180D02*
X51561019Y-67999276D01*
X50465780Y-67570704D02*
X50465780Y-67475466D01*
X50513400Y-67380228D01*
X50561019Y-67332609D01*
X50656257Y-67284990D01*
X50846733Y-67237371D01*
X51084828Y-67237371D01*
X51275304Y-67284990D01*
X51370542Y-67332609D01*
X51418161Y-67380228D01*
X51465780Y-67475466D01*
X51465780Y-67570704D01*
X51418161Y-67665942D01*
X51370542Y-67713561D01*
X51275304Y-67761180D01*
X51084828Y-67808800D01*
X50846733Y-67808800D01*
X50656257Y-67761180D01*
X50561019Y-67713561D01*
X50513400Y-67665942D01*
X50465780Y-67570704D01*
X51465780Y-66284990D02*
X51465780Y-66856419D01*
X51465780Y-66570704D02*
X50465780Y-66570704D01*
X50608638Y-66665942D01*
X50703876Y-66761180D01*
X50751495Y-66856419D01*
X51465780Y-65951657D02*
X50799114Y-65427847D01*
X50799114Y-65951657D02*
X51465780Y-65427847D01*
X50465780Y-64856419D02*
X50465780Y-64761180D01*
X50513400Y-64665942D01*
X50561019Y-64618323D01*
X50656257Y-64570704D01*
X50846733Y-64523085D01*
X51084828Y-64523085D01*
X51275304Y-64570704D01*
X51370542Y-64618323D01*
X51418161Y-64665942D01*
X51465780Y-64761180D01*
X51465780Y-64856419D01*
X51418161Y-64951657D01*
X51370542Y-64999276D01*
X51275304Y-65046895D01*
X51084828Y-65094514D01*
X50846733Y-65094514D01*
X50656257Y-65046895D01*
X50561019Y-64999276D01*
X50513400Y-64951657D01*
X50465780Y-64856419D01*
X50465780Y-64189752D02*
X50465780Y-63570704D01*
X50846733Y-63904038D01*
X50846733Y-63761180D01*
X50894352Y-63665942D01*
X50941971Y-63618323D01*
X51037209Y-63570704D01*
X51275304Y-63570704D01*
X51370542Y-63618323D01*
X51418161Y-63665942D01*
X51465780Y-63761180D01*
X51465780Y-64046895D01*
X51418161Y-64142133D01*
X51370542Y-64189752D01*
X41165780Y-72092133D02*
X41880066Y-72092133D01*
X42022923Y-72139752D01*
X42118161Y-72234990D01*
X42165780Y-72377847D01*
X42165780Y-72473085D01*
X41261019Y-71663561D02*
X41213400Y-71615942D01*
X41165780Y-71520704D01*
X41165780Y-71282609D01*
X41213400Y-71187371D01*
X41261019Y-71139752D01*
X41356257Y-71092133D01*
X41451495Y-71092133D01*
X41594352Y-71139752D01*
X42165780Y-71711180D01*
X42165780Y-71092133D01*
%TO.C,J3*%
X51672161Y-97826895D02*
X51719780Y-97684038D01*
X51719780Y-97445942D01*
X51672161Y-97350704D01*
X51624542Y-97303085D01*
X51529304Y-97255466D01*
X51434066Y-97255466D01*
X51338828Y-97303085D01*
X51291209Y-97350704D01*
X51243590Y-97445942D01*
X51195971Y-97636419D01*
X51148352Y-97731657D01*
X51100733Y-97779276D01*
X51005495Y-97826895D01*
X50910257Y-97826895D01*
X50815019Y-97779276D01*
X50767400Y-97731657D01*
X50719780Y-97636419D01*
X50719780Y-97398323D01*
X50767400Y-97255466D01*
X51672161Y-96398323D02*
X51719780Y-96493561D01*
X51719780Y-96684038D01*
X51672161Y-96779276D01*
X51624542Y-96826895D01*
X51529304Y-96874514D01*
X51243590Y-96874514D01*
X51148352Y-96826895D01*
X51100733Y-96779276D01*
X51053114Y-96684038D01*
X51053114Y-96493561D01*
X51100733Y-96398323D01*
X51719780Y-95969752D02*
X51053114Y-95969752D01*
X51243590Y-95969752D02*
X51148352Y-95922133D01*
X51100733Y-95874514D01*
X51053114Y-95779276D01*
X51053114Y-95684038D01*
X51672161Y-94969752D02*
X51719780Y-95064990D01*
X51719780Y-95255466D01*
X51672161Y-95350704D01*
X51576923Y-95398323D01*
X51195971Y-95398323D01*
X51100733Y-95350704D01*
X51053114Y-95255466D01*
X51053114Y-95064990D01*
X51100733Y-94969752D01*
X51195971Y-94922133D01*
X51291209Y-94922133D01*
X51386447Y-95398323D01*
X51053114Y-94588800D02*
X51719780Y-94398323D01*
X51243590Y-94207847D01*
X51719780Y-94017371D01*
X51053114Y-93826895D01*
X51815019Y-93684038D02*
X51815019Y-92922133D01*
X50719780Y-92826895D02*
X50719780Y-92255466D01*
X51719780Y-92541180D02*
X50719780Y-92541180D01*
X51672161Y-91541180D02*
X51719780Y-91636419D01*
X51719780Y-91826895D01*
X51672161Y-91922133D01*
X51576923Y-91969752D01*
X51195971Y-91969752D01*
X51100733Y-91922133D01*
X51053114Y-91826895D01*
X51053114Y-91636419D01*
X51100733Y-91541180D01*
X51195971Y-91493561D01*
X51291209Y-91493561D01*
X51386447Y-91969752D01*
X51719780Y-91064990D02*
X51053114Y-91064990D01*
X51243590Y-91064990D02*
X51148352Y-91017371D01*
X51100733Y-90969752D01*
X51053114Y-90874514D01*
X51053114Y-90779276D01*
X51719780Y-90445942D02*
X51053114Y-90445942D01*
X51148352Y-90445942D02*
X51100733Y-90398323D01*
X51053114Y-90303085D01*
X51053114Y-90160228D01*
X51100733Y-90064990D01*
X51195971Y-90017371D01*
X51719780Y-90017371D01*
X51195971Y-90017371D02*
X51100733Y-89969752D01*
X51053114Y-89874514D01*
X51053114Y-89731657D01*
X51100733Y-89636419D01*
X51195971Y-89588800D01*
X51719780Y-89588800D01*
X51719780Y-89112609D02*
X51053114Y-89112609D01*
X50719780Y-89112609D02*
X50767400Y-89160228D01*
X50815019Y-89112609D01*
X50767400Y-89064990D01*
X50719780Y-89112609D01*
X50815019Y-89112609D01*
X51053114Y-88636419D02*
X51719780Y-88636419D01*
X51148352Y-88636419D02*
X51100733Y-88588800D01*
X51053114Y-88493561D01*
X51053114Y-88350704D01*
X51100733Y-88255466D01*
X51195971Y-88207847D01*
X51719780Y-88207847D01*
X51719780Y-87303085D02*
X51195971Y-87303085D01*
X51100733Y-87350704D01*
X51053114Y-87445942D01*
X51053114Y-87636419D01*
X51100733Y-87731657D01*
X51672161Y-87303085D02*
X51719780Y-87398323D01*
X51719780Y-87636419D01*
X51672161Y-87731657D01*
X51576923Y-87779276D01*
X51481685Y-87779276D01*
X51386447Y-87731657D01*
X51338828Y-87636419D01*
X51338828Y-87398323D01*
X51291209Y-87303085D01*
X51719780Y-86684038D02*
X51672161Y-86779276D01*
X51576923Y-86826895D01*
X50719780Y-86826895D01*
X51815019Y-86541180D02*
X51815019Y-85779276D01*
X50719780Y-85350704D02*
X50719780Y-85255466D01*
X50767400Y-85160228D01*
X50815019Y-85112609D01*
X50910257Y-85064990D01*
X51100733Y-85017371D01*
X51338828Y-85017371D01*
X51529304Y-85064990D01*
X51624542Y-85112609D01*
X51672161Y-85160228D01*
X51719780Y-85255466D01*
X51719780Y-85350704D01*
X51672161Y-85445942D01*
X51624542Y-85493561D01*
X51529304Y-85541180D01*
X51338828Y-85588800D01*
X51100733Y-85588800D01*
X50910257Y-85541180D01*
X50815019Y-85493561D01*
X50767400Y-85445942D01*
X50719780Y-85350704D01*
X51719780Y-84064990D02*
X51719780Y-84636419D01*
X51719780Y-84350704D02*
X50719780Y-84350704D01*
X50862638Y-84445942D01*
X50957876Y-84541180D01*
X51005495Y-84636419D01*
X51719780Y-83731657D02*
X51053114Y-83207847D01*
X51053114Y-83731657D02*
X51719780Y-83207847D01*
X50719780Y-82636419D02*
X50719780Y-82541180D01*
X50767400Y-82445942D01*
X50815019Y-82398323D01*
X50910257Y-82350704D01*
X51100733Y-82303085D01*
X51338828Y-82303085D01*
X51529304Y-82350704D01*
X51624542Y-82398323D01*
X51672161Y-82445942D01*
X51719780Y-82541180D01*
X51719780Y-82636419D01*
X51672161Y-82731657D01*
X51624542Y-82779276D01*
X51529304Y-82826895D01*
X51338828Y-82874514D01*
X51100733Y-82874514D01*
X50910257Y-82826895D01*
X50815019Y-82779276D01*
X50767400Y-82731657D01*
X50719780Y-82636419D01*
X50719780Y-81969752D02*
X50719780Y-81350704D01*
X51100733Y-81684038D01*
X51100733Y-81541180D01*
X51148352Y-81445942D01*
X51195971Y-81398323D01*
X51291209Y-81350704D01*
X51529304Y-81350704D01*
X51624542Y-81398323D01*
X51672161Y-81445942D01*
X51719780Y-81541180D01*
X51719780Y-81826895D01*
X51672161Y-81922133D01*
X51624542Y-81969752D01*
X41419780Y-89872133D02*
X42134066Y-89872133D01*
X42276923Y-89919752D01*
X42372161Y-90014990D01*
X42419780Y-90157847D01*
X42419780Y-90253085D01*
X41419780Y-89491180D02*
X41419780Y-88872133D01*
X41800733Y-89205466D01*
X41800733Y-89062609D01*
X41848352Y-88967371D01*
X41895971Y-88919752D01*
X41991209Y-88872133D01*
X42229304Y-88872133D01*
X42324542Y-88919752D01*
X42372161Y-88967371D01*
X42419780Y-89062609D01*
X42419780Y-89348323D01*
X42372161Y-89443561D01*
X42324542Y-89491180D01*
%TO.C,J6*%
X117259961Y-69880895D02*
X117307580Y-69738038D01*
X117307580Y-69499942D01*
X117259961Y-69404704D01*
X117212342Y-69357085D01*
X117117104Y-69309466D01*
X117021866Y-69309466D01*
X116926628Y-69357085D01*
X116879009Y-69404704D01*
X116831390Y-69499942D01*
X116783771Y-69690419D01*
X116736152Y-69785657D01*
X116688533Y-69833276D01*
X116593295Y-69880895D01*
X116498057Y-69880895D01*
X116402819Y-69833276D01*
X116355200Y-69785657D01*
X116307580Y-69690419D01*
X116307580Y-69452323D01*
X116355200Y-69309466D01*
X117259961Y-68452323D02*
X117307580Y-68547561D01*
X117307580Y-68738038D01*
X117259961Y-68833276D01*
X117212342Y-68880895D01*
X117117104Y-68928514D01*
X116831390Y-68928514D01*
X116736152Y-68880895D01*
X116688533Y-68833276D01*
X116640914Y-68738038D01*
X116640914Y-68547561D01*
X116688533Y-68452323D01*
X117307580Y-68023752D02*
X116640914Y-68023752D01*
X116831390Y-68023752D02*
X116736152Y-67976133D01*
X116688533Y-67928514D01*
X116640914Y-67833276D01*
X116640914Y-67738038D01*
X117259961Y-67023752D02*
X117307580Y-67118990D01*
X117307580Y-67309466D01*
X117259961Y-67404704D01*
X117164723Y-67452323D01*
X116783771Y-67452323D01*
X116688533Y-67404704D01*
X116640914Y-67309466D01*
X116640914Y-67118990D01*
X116688533Y-67023752D01*
X116783771Y-66976133D01*
X116879009Y-66976133D01*
X116974247Y-67452323D01*
X116640914Y-66642800D02*
X117307580Y-66452323D01*
X116831390Y-66261847D01*
X117307580Y-66071371D01*
X116640914Y-65880895D01*
X117402819Y-65738038D02*
X117402819Y-64976133D01*
X116307580Y-64880895D02*
X116307580Y-64309466D01*
X117307580Y-64595180D02*
X116307580Y-64595180D01*
X117259961Y-63595180D02*
X117307580Y-63690419D01*
X117307580Y-63880895D01*
X117259961Y-63976133D01*
X117164723Y-64023752D01*
X116783771Y-64023752D01*
X116688533Y-63976133D01*
X116640914Y-63880895D01*
X116640914Y-63690419D01*
X116688533Y-63595180D01*
X116783771Y-63547561D01*
X116879009Y-63547561D01*
X116974247Y-64023752D01*
X117307580Y-63118990D02*
X116640914Y-63118990D01*
X116831390Y-63118990D02*
X116736152Y-63071371D01*
X116688533Y-63023752D01*
X116640914Y-62928514D01*
X116640914Y-62833276D01*
X117307580Y-62499942D02*
X116640914Y-62499942D01*
X116736152Y-62499942D02*
X116688533Y-62452323D01*
X116640914Y-62357085D01*
X116640914Y-62214228D01*
X116688533Y-62118990D01*
X116783771Y-62071371D01*
X117307580Y-62071371D01*
X116783771Y-62071371D02*
X116688533Y-62023752D01*
X116640914Y-61928514D01*
X116640914Y-61785657D01*
X116688533Y-61690419D01*
X116783771Y-61642800D01*
X117307580Y-61642800D01*
X117307580Y-61166609D02*
X116640914Y-61166609D01*
X116307580Y-61166609D02*
X116355200Y-61214228D01*
X116402819Y-61166609D01*
X116355200Y-61118990D01*
X116307580Y-61166609D01*
X116402819Y-61166609D01*
X116640914Y-60690419D02*
X117307580Y-60690419D01*
X116736152Y-60690419D02*
X116688533Y-60642800D01*
X116640914Y-60547561D01*
X116640914Y-60404704D01*
X116688533Y-60309466D01*
X116783771Y-60261847D01*
X117307580Y-60261847D01*
X117307580Y-59357085D02*
X116783771Y-59357085D01*
X116688533Y-59404704D01*
X116640914Y-59499942D01*
X116640914Y-59690419D01*
X116688533Y-59785657D01*
X117259961Y-59357085D02*
X117307580Y-59452323D01*
X117307580Y-59690419D01*
X117259961Y-59785657D01*
X117164723Y-59833276D01*
X117069485Y-59833276D01*
X116974247Y-59785657D01*
X116926628Y-59690419D01*
X116926628Y-59452323D01*
X116879009Y-59357085D01*
X117307580Y-58738038D02*
X117259961Y-58833276D01*
X117164723Y-58880895D01*
X116307580Y-58880895D01*
X117402819Y-58595180D02*
X117402819Y-57833276D01*
X116307580Y-57404704D02*
X116307580Y-57309466D01*
X116355200Y-57214228D01*
X116402819Y-57166609D01*
X116498057Y-57118990D01*
X116688533Y-57071371D01*
X116926628Y-57071371D01*
X117117104Y-57118990D01*
X117212342Y-57166609D01*
X117259961Y-57214228D01*
X117307580Y-57309466D01*
X117307580Y-57404704D01*
X117259961Y-57499942D01*
X117212342Y-57547561D01*
X117117104Y-57595180D01*
X116926628Y-57642800D01*
X116688533Y-57642800D01*
X116498057Y-57595180D01*
X116402819Y-57547561D01*
X116355200Y-57499942D01*
X116307580Y-57404704D01*
X117307580Y-56118990D02*
X117307580Y-56690419D01*
X117307580Y-56404704D02*
X116307580Y-56404704D01*
X116450438Y-56499942D01*
X116545676Y-56595180D01*
X116593295Y-56690419D01*
X117307580Y-55785657D02*
X116640914Y-55261847D01*
X116640914Y-55785657D02*
X117307580Y-55261847D01*
X116307580Y-54690419D02*
X116307580Y-54595180D01*
X116355200Y-54499942D01*
X116402819Y-54452323D01*
X116498057Y-54404704D01*
X116688533Y-54357085D01*
X116926628Y-54357085D01*
X117117104Y-54404704D01*
X117212342Y-54452323D01*
X117259961Y-54499942D01*
X117307580Y-54595180D01*
X117307580Y-54690419D01*
X117259961Y-54785657D01*
X117212342Y-54833276D01*
X117117104Y-54880895D01*
X116926628Y-54928514D01*
X116688533Y-54928514D01*
X116498057Y-54880895D01*
X116402819Y-54833276D01*
X116355200Y-54785657D01*
X116307580Y-54690419D01*
X116307580Y-54023752D02*
X116307580Y-53404704D01*
X116688533Y-53738038D01*
X116688533Y-53595180D01*
X116736152Y-53499942D01*
X116783771Y-53452323D01*
X116879009Y-53404704D01*
X117117104Y-53404704D01*
X117212342Y-53452323D01*
X117259961Y-53499942D01*
X117307580Y-53595180D01*
X117307580Y-53880895D01*
X117259961Y-53976133D01*
X117212342Y-54023752D01*
X122642380Y-64442933D02*
X123356666Y-64442933D01*
X123499523Y-64490552D01*
X123594761Y-64585790D01*
X123642380Y-64728647D01*
X123642380Y-64823885D01*
X122642380Y-63538171D02*
X122642380Y-63728647D01*
X122690000Y-63823885D01*
X122737619Y-63871504D01*
X122880476Y-63966742D01*
X123070952Y-64014361D01*
X123451904Y-64014361D01*
X123547142Y-63966742D01*
X123594761Y-63919123D01*
X123642380Y-63823885D01*
X123642380Y-63633409D01*
X123594761Y-63538171D01*
X123547142Y-63490552D01*
X123451904Y-63442933D01*
X123213809Y-63442933D01*
X123118571Y-63490552D01*
X123070952Y-63538171D01*
X123023333Y-63633409D01*
X123023333Y-63823885D01*
X123070952Y-63919123D01*
X123118571Y-63966742D01*
X123213809Y-64014361D01*
%TO.C,J7*%
X117386961Y-87914895D02*
X117434580Y-87772038D01*
X117434580Y-87533942D01*
X117386961Y-87438704D01*
X117339342Y-87391085D01*
X117244104Y-87343466D01*
X117148866Y-87343466D01*
X117053628Y-87391085D01*
X117006009Y-87438704D01*
X116958390Y-87533942D01*
X116910771Y-87724419D01*
X116863152Y-87819657D01*
X116815533Y-87867276D01*
X116720295Y-87914895D01*
X116625057Y-87914895D01*
X116529819Y-87867276D01*
X116482200Y-87819657D01*
X116434580Y-87724419D01*
X116434580Y-87486323D01*
X116482200Y-87343466D01*
X117386961Y-86486323D02*
X117434580Y-86581561D01*
X117434580Y-86772038D01*
X117386961Y-86867276D01*
X117339342Y-86914895D01*
X117244104Y-86962514D01*
X116958390Y-86962514D01*
X116863152Y-86914895D01*
X116815533Y-86867276D01*
X116767914Y-86772038D01*
X116767914Y-86581561D01*
X116815533Y-86486323D01*
X117434580Y-86057752D02*
X116767914Y-86057752D01*
X116958390Y-86057752D02*
X116863152Y-86010133D01*
X116815533Y-85962514D01*
X116767914Y-85867276D01*
X116767914Y-85772038D01*
X117386961Y-85057752D02*
X117434580Y-85152990D01*
X117434580Y-85343466D01*
X117386961Y-85438704D01*
X117291723Y-85486323D01*
X116910771Y-85486323D01*
X116815533Y-85438704D01*
X116767914Y-85343466D01*
X116767914Y-85152990D01*
X116815533Y-85057752D01*
X116910771Y-85010133D01*
X117006009Y-85010133D01*
X117101247Y-85486323D01*
X116767914Y-84676800D02*
X117434580Y-84486323D01*
X116958390Y-84295847D01*
X117434580Y-84105371D01*
X116767914Y-83914895D01*
X117529819Y-83772038D02*
X117529819Y-83010133D01*
X116434580Y-82914895D02*
X116434580Y-82343466D01*
X117434580Y-82629180D02*
X116434580Y-82629180D01*
X117386961Y-81629180D02*
X117434580Y-81724419D01*
X117434580Y-81914895D01*
X117386961Y-82010133D01*
X117291723Y-82057752D01*
X116910771Y-82057752D01*
X116815533Y-82010133D01*
X116767914Y-81914895D01*
X116767914Y-81724419D01*
X116815533Y-81629180D01*
X116910771Y-81581561D01*
X117006009Y-81581561D01*
X117101247Y-82057752D01*
X117434580Y-81152990D02*
X116767914Y-81152990D01*
X116958390Y-81152990D02*
X116863152Y-81105371D01*
X116815533Y-81057752D01*
X116767914Y-80962514D01*
X116767914Y-80867276D01*
X117434580Y-80533942D02*
X116767914Y-80533942D01*
X116863152Y-80533942D02*
X116815533Y-80486323D01*
X116767914Y-80391085D01*
X116767914Y-80248228D01*
X116815533Y-80152990D01*
X116910771Y-80105371D01*
X117434580Y-80105371D01*
X116910771Y-80105371D02*
X116815533Y-80057752D01*
X116767914Y-79962514D01*
X116767914Y-79819657D01*
X116815533Y-79724419D01*
X116910771Y-79676800D01*
X117434580Y-79676800D01*
X117434580Y-79200609D02*
X116767914Y-79200609D01*
X116434580Y-79200609D02*
X116482200Y-79248228D01*
X116529819Y-79200609D01*
X116482200Y-79152990D01*
X116434580Y-79200609D01*
X116529819Y-79200609D01*
X116767914Y-78724419D02*
X117434580Y-78724419D01*
X116863152Y-78724419D02*
X116815533Y-78676800D01*
X116767914Y-78581561D01*
X116767914Y-78438704D01*
X116815533Y-78343466D01*
X116910771Y-78295847D01*
X117434580Y-78295847D01*
X117434580Y-77391085D02*
X116910771Y-77391085D01*
X116815533Y-77438704D01*
X116767914Y-77533942D01*
X116767914Y-77724419D01*
X116815533Y-77819657D01*
X117386961Y-77391085D02*
X117434580Y-77486323D01*
X117434580Y-77724419D01*
X117386961Y-77819657D01*
X117291723Y-77867276D01*
X117196485Y-77867276D01*
X117101247Y-77819657D01*
X117053628Y-77724419D01*
X117053628Y-77486323D01*
X117006009Y-77391085D01*
X117434580Y-76772038D02*
X117386961Y-76867276D01*
X117291723Y-76914895D01*
X116434580Y-76914895D01*
X117529819Y-76629180D02*
X117529819Y-75867276D01*
X116434580Y-75438704D02*
X116434580Y-75343466D01*
X116482200Y-75248228D01*
X116529819Y-75200609D01*
X116625057Y-75152990D01*
X116815533Y-75105371D01*
X117053628Y-75105371D01*
X117244104Y-75152990D01*
X117339342Y-75200609D01*
X117386961Y-75248228D01*
X117434580Y-75343466D01*
X117434580Y-75438704D01*
X117386961Y-75533942D01*
X117339342Y-75581561D01*
X117244104Y-75629180D01*
X117053628Y-75676800D01*
X116815533Y-75676800D01*
X116625057Y-75629180D01*
X116529819Y-75581561D01*
X116482200Y-75533942D01*
X116434580Y-75438704D01*
X117434580Y-74152990D02*
X117434580Y-74724419D01*
X117434580Y-74438704D02*
X116434580Y-74438704D01*
X116577438Y-74533942D01*
X116672676Y-74629180D01*
X116720295Y-74724419D01*
X117434580Y-73819657D02*
X116767914Y-73295847D01*
X116767914Y-73819657D02*
X117434580Y-73295847D01*
X116434580Y-72724419D02*
X116434580Y-72629180D01*
X116482200Y-72533942D01*
X116529819Y-72486323D01*
X116625057Y-72438704D01*
X116815533Y-72391085D01*
X117053628Y-72391085D01*
X117244104Y-72438704D01*
X117339342Y-72486323D01*
X117386961Y-72533942D01*
X117434580Y-72629180D01*
X117434580Y-72724419D01*
X117386961Y-72819657D01*
X117339342Y-72867276D01*
X117244104Y-72914895D01*
X117053628Y-72962514D01*
X116815533Y-72962514D01*
X116625057Y-72914895D01*
X116529819Y-72867276D01*
X116482200Y-72819657D01*
X116434580Y-72724419D01*
X116434580Y-72057752D02*
X116434580Y-71438704D01*
X116815533Y-71772038D01*
X116815533Y-71629180D01*
X116863152Y-71533942D01*
X116910771Y-71486323D01*
X117006009Y-71438704D01*
X117244104Y-71438704D01*
X117339342Y-71486323D01*
X117386961Y-71533942D01*
X117434580Y-71629180D01*
X117434580Y-71914895D01*
X117386961Y-72010133D01*
X117339342Y-72057752D01*
X121829580Y-78920933D02*
X122543866Y-78920933D01*
X122686723Y-78968552D01*
X122781961Y-79063790D01*
X122829580Y-79206647D01*
X122829580Y-79301885D01*
X121829580Y-78539980D02*
X121829580Y-77873314D01*
X122829580Y-78301885D01*
%TO.C,U5*%
X59684495Y-94843961D02*
X59779733Y-94891580D01*
X59970209Y-94891580D01*
X60065447Y-94843961D01*
X60113066Y-94748723D01*
X60113066Y-94701104D01*
X60065447Y-94605866D01*
X59970209Y-94558247D01*
X59827352Y-94558247D01*
X59732114Y-94510628D01*
X59684495Y-94415390D01*
X59684495Y-94367771D01*
X59732114Y-94272533D01*
X59827352Y-94224914D01*
X59970209Y-94224914D01*
X60065447Y-94272533D01*
X60494019Y-94843961D02*
X60589257Y-94891580D01*
X60779733Y-94891580D01*
X60874971Y-94843961D01*
X60922590Y-94748723D01*
X60922590Y-94701104D01*
X60874971Y-94605866D01*
X60779733Y-94558247D01*
X60636876Y-94558247D01*
X60541638Y-94510628D01*
X60494019Y-94415390D01*
X60494019Y-94367771D01*
X60541638Y-94272533D01*
X60636876Y-94224914D01*
X60779733Y-94224914D01*
X60874971Y-94272533D01*
X61779733Y-94891580D02*
X61779733Y-93891580D01*
X61779733Y-94843961D02*
X61684495Y-94891580D01*
X61494019Y-94891580D01*
X61398780Y-94843961D01*
X61351161Y-94796342D01*
X61303542Y-94701104D01*
X61303542Y-94415390D01*
X61351161Y-94320152D01*
X61398780Y-94272533D01*
X61494019Y-94224914D01*
X61684495Y-94224914D01*
X61779733Y-94272533D01*
X62779733Y-94891580D02*
X62208304Y-94891580D01*
X62494019Y-94891580D02*
X62494019Y-93891580D01*
X62398780Y-94034438D01*
X62303542Y-94129676D01*
X62208304Y-94177295D01*
X63113066Y-93891580D02*
X63732114Y-93891580D01*
X63398780Y-94272533D01*
X63541638Y-94272533D01*
X63636876Y-94320152D01*
X63684495Y-94367771D01*
X63732114Y-94463009D01*
X63732114Y-94701104D01*
X63684495Y-94796342D01*
X63636876Y-94843961D01*
X63541638Y-94891580D01*
X63255923Y-94891580D01*
X63160685Y-94843961D01*
X63113066Y-94796342D01*
X64351161Y-93891580D02*
X64446400Y-93891580D01*
X64541638Y-93939200D01*
X64589257Y-93986819D01*
X64636876Y-94082057D01*
X64684495Y-94272533D01*
X64684495Y-94510628D01*
X64636876Y-94701104D01*
X64589257Y-94796342D01*
X64541638Y-94843961D01*
X64446400Y-94891580D01*
X64351161Y-94891580D01*
X64255923Y-94843961D01*
X64208304Y-94796342D01*
X64160685Y-94701104D01*
X64113066Y-94510628D01*
X64113066Y-94272533D01*
X64160685Y-94082057D01*
X64208304Y-93986819D01*
X64255923Y-93939200D01*
X64351161Y-93891580D01*
X65541638Y-93891580D02*
X65351161Y-93891580D01*
X65255923Y-93939200D01*
X65208304Y-93986819D01*
X65113066Y-94129676D01*
X65065447Y-94320152D01*
X65065447Y-94701104D01*
X65113066Y-94796342D01*
X65160685Y-94843961D01*
X65255923Y-94891580D01*
X65446400Y-94891580D01*
X65541638Y-94843961D01*
X65589257Y-94796342D01*
X65636876Y-94701104D01*
X65636876Y-94463009D01*
X65589257Y-94367771D01*
X65541638Y-94320152D01*
X65446400Y-94272533D01*
X65255923Y-94272533D01*
X65160685Y-94320152D01*
X65113066Y-94367771D01*
X65065447Y-94463009D01*
X66589257Y-94891580D02*
X66017828Y-94891580D01*
X66303542Y-94891580D02*
X66303542Y-93891580D01*
X66208304Y-94034438D01*
X66113066Y-94129676D01*
X66017828Y-94177295D01*
X66970209Y-93986819D02*
X67017828Y-93939200D01*
X67113066Y-93891580D01*
X67351161Y-93891580D01*
X67446400Y-93939200D01*
X67494019Y-93986819D01*
X67541638Y-94082057D01*
X67541638Y-94177295D01*
X67494019Y-94320152D01*
X66922590Y-94891580D01*
X67541638Y-94891580D01*
X68113066Y-94320152D02*
X68017828Y-94272533D01*
X67970209Y-94224914D01*
X67922590Y-94129676D01*
X67922590Y-94082057D01*
X67970209Y-93986819D01*
X68017828Y-93939200D01*
X68113066Y-93891580D01*
X68303542Y-93891580D01*
X68398780Y-93939200D01*
X68446400Y-93986819D01*
X68494019Y-94082057D01*
X68494019Y-94129676D01*
X68446400Y-94224914D01*
X68398780Y-94272533D01*
X68303542Y-94320152D01*
X68113066Y-94320152D01*
X68017828Y-94367771D01*
X67970209Y-94415390D01*
X67922590Y-94510628D01*
X67922590Y-94701104D01*
X67970209Y-94796342D01*
X68017828Y-94843961D01*
X68113066Y-94891580D01*
X68303542Y-94891580D01*
X68398780Y-94843961D01*
X68446400Y-94796342D01*
X68494019Y-94701104D01*
X68494019Y-94510628D01*
X68446400Y-94415390D01*
X68398780Y-94367771D01*
X68303542Y-94320152D01*
X68827352Y-94891580D02*
X69351161Y-94224914D01*
X68827352Y-94224914D02*
X69351161Y-94891580D01*
X70160685Y-93891580D02*
X69970209Y-93891580D01*
X69874971Y-93939200D01*
X69827352Y-93986819D01*
X69732114Y-94129676D01*
X69684495Y-94320152D01*
X69684495Y-94701104D01*
X69732114Y-94796342D01*
X69779733Y-94843961D01*
X69874971Y-94891580D01*
X70065447Y-94891580D01*
X70160685Y-94843961D01*
X70208304Y-94796342D01*
X70255923Y-94701104D01*
X70255923Y-94463009D01*
X70208304Y-94367771D01*
X70160685Y-94320152D01*
X70065447Y-94272533D01*
X69874971Y-94272533D01*
X69779733Y-94320152D01*
X69732114Y-94367771D01*
X69684495Y-94463009D01*
X71113066Y-94224914D02*
X71113066Y-94891580D01*
X70874971Y-93843961D02*
X70636876Y-94558247D01*
X71255923Y-94558247D01*
%TO.C,A1*%
X84520066Y-64853295D02*
X84520066Y-64377104D01*
X84805780Y-64948533D02*
X83805780Y-64615200D01*
X84805780Y-64281866D01*
X84805780Y-63948533D02*
X84139114Y-63948533D01*
X84329590Y-63948533D02*
X84234352Y-63900914D01*
X84186733Y-63853295D01*
X84139114Y-63758057D01*
X84139114Y-63662819D01*
X84805780Y-62900914D02*
X83805780Y-62900914D01*
X84758161Y-62900914D02*
X84805780Y-62996152D01*
X84805780Y-63186628D01*
X84758161Y-63281866D01*
X84710542Y-63329485D01*
X84615304Y-63377104D01*
X84329590Y-63377104D01*
X84234352Y-63329485D01*
X84186733Y-63281866D01*
X84139114Y-63186628D01*
X84139114Y-62996152D01*
X84186733Y-62900914D01*
X84139114Y-61996152D02*
X84805780Y-61996152D01*
X84139114Y-62424723D02*
X84662923Y-62424723D01*
X84758161Y-62377104D01*
X84805780Y-62281866D01*
X84805780Y-62139009D01*
X84758161Y-62043771D01*
X84710542Y-61996152D01*
X84805780Y-61519961D02*
X84139114Y-61519961D01*
X83805780Y-61519961D02*
X83853400Y-61567580D01*
X83901019Y-61519961D01*
X83853400Y-61472342D01*
X83805780Y-61519961D01*
X83901019Y-61519961D01*
X84139114Y-61043771D02*
X84805780Y-61043771D01*
X84234352Y-61043771D02*
X84186733Y-60996152D01*
X84139114Y-60900914D01*
X84139114Y-60758057D01*
X84186733Y-60662819D01*
X84281971Y-60615200D01*
X84805780Y-60615200D01*
X84805780Y-59996152D02*
X84758161Y-60091390D01*
X84710542Y-60139009D01*
X84615304Y-60186628D01*
X84329590Y-60186628D01*
X84234352Y-60139009D01*
X84186733Y-60091390D01*
X84139114Y-59996152D01*
X84139114Y-59853295D01*
X84186733Y-59758057D01*
X84234352Y-59710438D01*
X84329590Y-59662819D01*
X84615304Y-59662819D01*
X84710542Y-59710438D01*
X84758161Y-59758057D01*
X84805780Y-59853295D01*
X84805780Y-59996152D01*
X84901019Y-59472342D02*
X84901019Y-58710438D01*
X84805780Y-58472342D02*
X83805780Y-58472342D01*
X84805780Y-57900914D01*
X83805780Y-57900914D01*
X84805780Y-56996152D02*
X84281971Y-56996152D01*
X84186733Y-57043771D01*
X84139114Y-57139009D01*
X84139114Y-57329485D01*
X84186733Y-57424723D01*
X84758161Y-56996152D02*
X84805780Y-57091390D01*
X84805780Y-57329485D01*
X84758161Y-57424723D01*
X84662923Y-57472342D01*
X84567685Y-57472342D01*
X84472447Y-57424723D01*
X84424828Y-57329485D01*
X84424828Y-57091390D01*
X84377209Y-56996152D01*
X84139114Y-56519961D02*
X84805780Y-56519961D01*
X84234352Y-56519961D02*
X84186733Y-56472342D01*
X84139114Y-56377104D01*
X84139114Y-56234247D01*
X84186733Y-56139009D01*
X84281971Y-56091390D01*
X84805780Y-56091390D01*
X84805780Y-55472342D02*
X84758161Y-55567580D01*
X84710542Y-55615200D01*
X84615304Y-55662819D01*
X84329590Y-55662819D01*
X84234352Y-55615200D01*
X84186733Y-55567580D01*
X84139114Y-55472342D01*
X84139114Y-55329485D01*
X84186733Y-55234247D01*
X84234352Y-55186628D01*
X84329590Y-55139009D01*
X84615304Y-55139009D01*
X84710542Y-55186628D01*
X84758161Y-55234247D01*
X84805780Y-55329485D01*
X84805780Y-55472342D01*
X84901019Y-54948533D02*
X84901019Y-54186628D01*
X84139114Y-54043771D02*
X84805780Y-53805676D01*
X84139114Y-53567580D01*
X83805780Y-53281866D02*
X83805780Y-52662819D01*
X84186733Y-52996152D01*
X84186733Y-52853295D01*
X84234352Y-52758057D01*
X84281971Y-52710438D01*
X84377209Y-52662819D01*
X84615304Y-52662819D01*
X84710542Y-52710438D01*
X84758161Y-52758057D01*
X84805780Y-52853295D01*
X84805780Y-53139009D01*
X84758161Y-53234247D01*
X84710542Y-53281866D01*
X84710542Y-52234247D02*
X84758161Y-52186628D01*
X84805780Y-52234247D01*
X84758161Y-52281866D01*
X84710542Y-52234247D01*
X84805780Y-52234247D01*
X84805780Y-51853295D02*
X84139114Y-51329485D01*
X84139114Y-51853295D02*
X84805780Y-51329485D01*
X81980066Y-58829485D02*
X81980066Y-58353295D01*
X82265780Y-58924723D02*
X81265780Y-58591390D01*
X82265780Y-58258057D01*
X82265780Y-57400914D02*
X82265780Y-57972342D01*
X82265780Y-57686628D02*
X81265780Y-57686628D01*
X81408638Y-57781866D01*
X81503876Y-57877104D01*
X81551495Y-57972342D01*
%TO.C,D1*%
X54957742Y-60105180D02*
X54481552Y-60105180D01*
X54481552Y-59105180D01*
X55291076Y-59581371D02*
X55624409Y-59581371D01*
X55767266Y-60105180D02*
X55291076Y-60105180D01*
X55291076Y-59105180D01*
X55767266Y-59105180D01*
X56195838Y-60105180D02*
X56195838Y-59105180D01*
X56433933Y-59105180D01*
X56576790Y-59152800D01*
X56672028Y-59248038D01*
X56719647Y-59343276D01*
X56767266Y-59533752D01*
X56767266Y-59676609D01*
X56719647Y-59867085D01*
X56672028Y-59962323D01*
X56576790Y-60057561D01*
X56433933Y-60105180D01*
X56195838Y-60105180D01*
%TO.C,D2*%
X55084742Y-88629380D02*
X54608552Y-88629380D01*
X54608552Y-87629380D01*
X55418076Y-88105571D02*
X55751409Y-88105571D01*
X55894266Y-88629380D02*
X55418076Y-88629380D01*
X55418076Y-87629380D01*
X55894266Y-87629380D01*
X56322838Y-88629380D02*
X56322838Y-87629380D01*
X56560933Y-87629380D01*
X56703790Y-87677000D01*
X56799028Y-87772238D01*
X56846647Y-87867476D01*
X56894266Y-88057952D01*
X56894266Y-88200809D01*
X56846647Y-88391285D01*
X56799028Y-88486523D01*
X56703790Y-88581761D01*
X56560933Y-88629380D01*
X56322838Y-88629380D01*
%TO.C,D3*%
X55770542Y-73719580D02*
X55294352Y-73719580D01*
X55294352Y-72719580D01*
X56103876Y-73195771D02*
X56437209Y-73195771D01*
X56580066Y-73719580D02*
X56103876Y-73719580D01*
X56103876Y-72719580D01*
X56580066Y-72719580D01*
X57008638Y-73719580D02*
X57008638Y-72719580D01*
X57246733Y-72719580D01*
X57389590Y-72767200D01*
X57484828Y-72862438D01*
X57532447Y-72957676D01*
X57580066Y-73148152D01*
X57580066Y-73291009D01*
X57532447Y-73481485D01*
X57484828Y-73576723D01*
X57389590Y-73671961D01*
X57246733Y-73719580D01*
X57008638Y-73719580D01*
%TO.C,D4*%
X96867742Y-91624780D02*
X96391552Y-91624780D01*
X96391552Y-90624780D01*
X97201076Y-91100971D02*
X97534409Y-91100971D01*
X97677266Y-91624780D02*
X97201076Y-91624780D01*
X97201076Y-90624780D01*
X97677266Y-90624780D01*
X98105838Y-91624780D02*
X98105838Y-90624780D01*
X98343933Y-90624780D01*
X98486790Y-90672400D01*
X98582028Y-90767638D01*
X98629647Y-90862876D01*
X98677266Y-91053352D01*
X98677266Y-91196209D01*
X98629647Y-91386685D01*
X98582028Y-91481923D01*
X98486790Y-91577161D01*
X98343933Y-91624780D01*
X98105838Y-91624780D01*
%TO.C,D5*%
X124553742Y-90456380D02*
X124077552Y-90456380D01*
X124077552Y-89456380D01*
X124887076Y-89932571D02*
X125220409Y-89932571D01*
X125363266Y-90456380D02*
X124887076Y-90456380D01*
X124887076Y-89456380D01*
X125363266Y-89456380D01*
X125791838Y-90456380D02*
X125791838Y-89456380D01*
X126029933Y-89456380D01*
X126172790Y-89504000D01*
X126268028Y-89599238D01*
X126315647Y-89694476D01*
X126363266Y-89884952D01*
X126363266Y-90027809D01*
X126315647Y-90218285D01*
X126268028Y-90313523D01*
X126172790Y-90408761D01*
X126029933Y-90456380D01*
X125791838Y-90456380D01*
%TO.C,D6*%
X110812342Y-90532580D02*
X110336152Y-90532580D01*
X110336152Y-89532580D01*
X111145676Y-90008771D02*
X111479009Y-90008771D01*
X111621866Y-90532580D02*
X111145676Y-90532580D01*
X111145676Y-89532580D01*
X111621866Y-89532580D01*
X112050438Y-90532580D02*
X112050438Y-89532580D01*
X112288533Y-89532580D01*
X112431390Y-89580200D01*
X112526628Y-89675438D01*
X112574247Y-89770676D01*
X112621866Y-89961152D01*
X112621866Y-90104009D01*
X112574247Y-90294485D01*
X112526628Y-90389723D01*
X112431390Y-90484961D01*
X112288533Y-90532580D01*
X112050438Y-90532580D01*
%TO.C,K1*%
D13*
X111300828Y-33914961D02*
X111396066Y-33962580D01*
X111586542Y-33962580D01*
X111681780Y-33914961D01*
X111729400Y-33819723D01*
X111729400Y-33772104D01*
X111681780Y-33676866D01*
X111586542Y-33629247D01*
X111443685Y-33629247D01*
X111348447Y-33581628D01*
X111300828Y-33486390D01*
X111300828Y-33438771D01*
X111348447Y-33343533D01*
X111443685Y-33295914D01*
X111586542Y-33295914D01*
X111681780Y-33343533D01*
X112157971Y-33962580D02*
X112157971Y-33295914D01*
X112157971Y-33486390D02*
X112205590Y-33391152D01*
X112253209Y-33343533D01*
X112348447Y-33295914D01*
X112443685Y-33295914D01*
X113205590Y-33962580D02*
X113205590Y-32962580D01*
X113205590Y-33914961D02*
X113110352Y-33962580D01*
X112919876Y-33962580D01*
X112824638Y-33914961D01*
X112777019Y-33867342D01*
X112729400Y-33772104D01*
X112729400Y-33486390D01*
X112777019Y-33391152D01*
X112824638Y-33343533D01*
X112919876Y-33295914D01*
X113110352Y-33295914D01*
X113205590Y-33343533D01*
X113634161Y-33057819D02*
X113681780Y-33010200D01*
X113777019Y-32962580D01*
X114015114Y-32962580D01*
X114110352Y-33010200D01*
X114157971Y-33057819D01*
X114205590Y-33153057D01*
X114205590Y-33248295D01*
X114157971Y-33391152D01*
X113586542Y-33962580D01*
X114205590Y-33962580D01*
X115062733Y-33295914D02*
X115062733Y-33962580D01*
X114824638Y-32914961D02*
X114586542Y-33629247D01*
X115205590Y-33629247D01*
%TO.C,K2*%
X111046828Y-52939561D02*
X111142066Y-52987180D01*
X111332542Y-52987180D01*
X111427780Y-52939561D01*
X111475400Y-52844323D01*
X111475400Y-52796704D01*
X111427780Y-52701466D01*
X111332542Y-52653847D01*
X111189685Y-52653847D01*
X111094447Y-52606228D01*
X111046828Y-52510990D01*
X111046828Y-52463371D01*
X111094447Y-52368133D01*
X111189685Y-52320514D01*
X111332542Y-52320514D01*
X111427780Y-52368133D01*
X111903971Y-52987180D02*
X111903971Y-52320514D01*
X111903971Y-52510990D02*
X111951590Y-52415752D01*
X111999209Y-52368133D01*
X112094447Y-52320514D01*
X112189685Y-52320514D01*
X112951590Y-52987180D02*
X112951590Y-51987180D01*
X112951590Y-52939561D02*
X112856352Y-52987180D01*
X112665876Y-52987180D01*
X112570638Y-52939561D01*
X112523019Y-52891942D01*
X112475400Y-52796704D01*
X112475400Y-52510990D01*
X112523019Y-52415752D01*
X112570638Y-52368133D01*
X112665876Y-52320514D01*
X112856352Y-52320514D01*
X112951590Y-52368133D01*
X113380161Y-52082419D02*
X113427780Y-52034800D01*
X113523019Y-51987180D01*
X113761114Y-51987180D01*
X113856352Y-52034800D01*
X113903971Y-52082419D01*
X113951590Y-52177657D01*
X113951590Y-52272895D01*
X113903971Y-52415752D01*
X113332542Y-52987180D01*
X113951590Y-52987180D01*
X114808733Y-52320514D02*
X114808733Y-52987180D01*
X114570638Y-51939561D02*
X114332542Y-52653847D01*
X114951590Y-52653847D01*
%TO.C,K3*%
X110767428Y-70922761D02*
X110862666Y-70970380D01*
X111053142Y-70970380D01*
X111148380Y-70922761D01*
X111196000Y-70827523D01*
X111196000Y-70779904D01*
X111148380Y-70684666D01*
X111053142Y-70637047D01*
X110910285Y-70637047D01*
X110815047Y-70589428D01*
X110767428Y-70494190D01*
X110767428Y-70446571D01*
X110815047Y-70351333D01*
X110910285Y-70303714D01*
X111053142Y-70303714D01*
X111148380Y-70351333D01*
X111624571Y-70970380D02*
X111624571Y-70303714D01*
X111624571Y-70494190D02*
X111672190Y-70398952D01*
X111719809Y-70351333D01*
X111815047Y-70303714D01*
X111910285Y-70303714D01*
X112672190Y-70970380D02*
X112672190Y-69970380D01*
X112672190Y-70922761D02*
X112576952Y-70970380D01*
X112386476Y-70970380D01*
X112291238Y-70922761D01*
X112243619Y-70875142D01*
X112196000Y-70779904D01*
X112196000Y-70494190D01*
X112243619Y-70398952D01*
X112291238Y-70351333D01*
X112386476Y-70303714D01*
X112576952Y-70303714D01*
X112672190Y-70351333D01*
X113100761Y-70065619D02*
X113148380Y-70018000D01*
X113243619Y-69970380D01*
X113481714Y-69970380D01*
X113576952Y-70018000D01*
X113624571Y-70065619D01*
X113672190Y-70160857D01*
X113672190Y-70256095D01*
X113624571Y-70398952D01*
X113053142Y-70970380D01*
X113672190Y-70970380D01*
X114529333Y-70303714D02*
X114529333Y-70970380D01*
X114291238Y-69922761D02*
X114053142Y-70637047D01*
X114672190Y-70637047D01*
%TO.C,C1*%
D12*
X52580742Y-37182276D02*
X52628361Y-37229895D01*
X52675980Y-37372752D01*
X52675980Y-37467990D01*
X52628361Y-37610847D01*
X52533123Y-37706085D01*
X52437885Y-37753704D01*
X52247409Y-37801323D01*
X52104552Y-37801323D01*
X51914076Y-37753704D01*
X51818838Y-37706085D01*
X51723600Y-37610847D01*
X51675980Y-37467990D01*
X51675980Y-37372752D01*
X51723600Y-37229895D01*
X51771219Y-37182276D01*
X52675980Y-36753704D02*
X51675980Y-36753704D01*
X51675980Y-36372752D01*
X51723600Y-36277514D01*
X51771219Y-36229895D01*
X51866457Y-36182276D01*
X52009314Y-36182276D01*
X52104552Y-36229895D01*
X52152171Y-36277514D01*
X52199790Y-36372752D01*
X52199790Y-36753704D01*
D11*
X55759314Y-37125133D02*
X55797409Y-37163228D01*
X55835504Y-37277514D01*
X55835504Y-37353704D01*
X55797409Y-37467990D01*
X55721219Y-37544180D01*
X55645028Y-37582276D01*
X55492647Y-37620371D01*
X55378361Y-37620371D01*
X55225980Y-37582276D01*
X55149790Y-37544180D01*
X55073600Y-37467990D01*
X55035504Y-37353704D01*
X55035504Y-37277514D01*
X55073600Y-37163228D01*
X55111695Y-37125133D01*
X55835504Y-36363228D02*
X55835504Y-36820371D01*
X55835504Y-36591800D02*
X55035504Y-36591800D01*
X55149790Y-36667990D01*
X55225980Y-36744180D01*
X55264076Y-36820371D01*
%TO.C,C2*%
D12*
X59029942Y-43538876D02*
X59077561Y-43586495D01*
X59125180Y-43729352D01*
X59125180Y-43824590D01*
X59077561Y-43967447D01*
X58982323Y-44062685D01*
X58887085Y-44110304D01*
X58696609Y-44157923D01*
X58553752Y-44157923D01*
X58363276Y-44110304D01*
X58268038Y-44062685D01*
X58172800Y-43967447D01*
X58125180Y-43824590D01*
X58125180Y-43729352D01*
X58172800Y-43586495D01*
X58220419Y-43538876D01*
X59125180Y-43110304D02*
X58125180Y-43110304D01*
X58125180Y-42729352D01*
X58172800Y-42634114D01*
X58220419Y-42586495D01*
X58315657Y-42538876D01*
X58458514Y-42538876D01*
X58553752Y-42586495D01*
X58601371Y-42634114D01*
X58648990Y-42729352D01*
X58648990Y-43110304D01*
D11*
X55708514Y-43481733D02*
X55746609Y-43519828D01*
X55784704Y-43634114D01*
X55784704Y-43710304D01*
X55746609Y-43824590D01*
X55670419Y-43900780D01*
X55594228Y-43938876D01*
X55441847Y-43976971D01*
X55327561Y-43976971D01*
X55175180Y-43938876D01*
X55098990Y-43900780D01*
X55022800Y-43824590D01*
X54984704Y-43710304D01*
X54984704Y-43634114D01*
X55022800Y-43519828D01*
X55060895Y-43481733D01*
X55060895Y-43176971D02*
X55022800Y-43138876D01*
X54984704Y-43062685D01*
X54984704Y-42872209D01*
X55022800Y-42796019D01*
X55060895Y-42757923D01*
X55137085Y-42719828D01*
X55213276Y-42719828D01*
X55327561Y-42757923D01*
X55784704Y-43215066D01*
X55784704Y-42719828D01*
%TO.C,D7*%
D12*
X93833180Y-42959304D02*
X92833180Y-42959304D01*
X92833180Y-42721209D01*
X92880800Y-42578352D01*
X92976038Y-42483114D01*
X93071276Y-42435495D01*
X93261752Y-42387876D01*
X93404609Y-42387876D01*
X93595085Y-42435495D01*
X93690323Y-42483114D01*
X93785561Y-42578352D01*
X93833180Y-42721209D01*
X93833180Y-42959304D01*
X97503180Y-37879304D02*
X96503180Y-37879304D01*
X97503180Y-37307876D02*
X96931752Y-37736447D01*
X96503180Y-37307876D02*
X97074609Y-37879304D01*
X97503180Y-37879304D02*
X96503180Y-37879304D01*
X97503180Y-37307876D02*
X96931752Y-37736447D01*
X96503180Y-37307876D02*
X97074609Y-37879304D01*
D14*
X95575847Y-43374161D02*
X94967847Y-43374161D01*
X94967847Y-43229400D01*
X94996800Y-43142542D01*
X95054704Y-43084638D01*
X95112609Y-43055685D01*
X95228419Y-43026733D01*
X95315276Y-43026733D01*
X95431085Y-43055685D01*
X95488990Y-43084638D01*
X95546895Y-43142542D01*
X95575847Y-43229400D01*
X95575847Y-43374161D01*
X94967847Y-42824066D02*
X94967847Y-42418733D01*
X95575847Y-42679304D01*
%TO.C,D8*%
D12*
X93528380Y-61628304D02*
X92528380Y-61628304D01*
X92528380Y-61390209D01*
X92576000Y-61247352D01*
X92671238Y-61152114D01*
X92766476Y-61104495D01*
X92956952Y-61056876D01*
X93099809Y-61056876D01*
X93290285Y-61104495D01*
X93385523Y-61152114D01*
X93480761Y-61247352D01*
X93528380Y-61390209D01*
X93528380Y-61628304D01*
X97198380Y-56548304D02*
X96198380Y-56548304D01*
X97198380Y-55976876D02*
X96626952Y-56405447D01*
X96198380Y-55976876D02*
X96769809Y-56548304D01*
X97198380Y-56548304D02*
X96198380Y-56548304D01*
X97198380Y-55976876D02*
X96626952Y-56405447D01*
X96198380Y-55976876D02*
X96769809Y-56548304D01*
D14*
X95372647Y-61764361D02*
X94764647Y-61764361D01*
X94764647Y-61619600D01*
X94793600Y-61532742D01*
X94851504Y-61474838D01*
X94909409Y-61445885D01*
X95025219Y-61416933D01*
X95112076Y-61416933D01*
X95227885Y-61445885D01*
X95285790Y-61474838D01*
X95343695Y-61532742D01*
X95372647Y-61619600D01*
X95372647Y-61764361D01*
X95025219Y-61069504D02*
X94996266Y-61127409D01*
X94967314Y-61156361D01*
X94909409Y-61185314D01*
X94880457Y-61185314D01*
X94822552Y-61156361D01*
X94793600Y-61127409D01*
X94764647Y-61069504D01*
X94764647Y-60953695D01*
X94793600Y-60895790D01*
X94822552Y-60866838D01*
X94880457Y-60837885D01*
X94909409Y-60837885D01*
X94967314Y-60866838D01*
X94996266Y-60895790D01*
X95025219Y-60953695D01*
X95025219Y-61069504D01*
X95054171Y-61127409D01*
X95083123Y-61156361D01*
X95141028Y-61185314D01*
X95256838Y-61185314D01*
X95314742Y-61156361D01*
X95343695Y-61127409D01*
X95372647Y-61069504D01*
X95372647Y-60953695D01*
X95343695Y-60895790D01*
X95314742Y-60866838D01*
X95256838Y-60837885D01*
X95141028Y-60837885D01*
X95083123Y-60866838D01*
X95054171Y-60895790D01*
X95025219Y-60953695D01*
%TO.C,D9*%
D12*
X93198180Y-79433704D02*
X92198180Y-79433704D01*
X92198180Y-79195609D01*
X92245800Y-79052752D01*
X92341038Y-78957514D01*
X92436276Y-78909895D01*
X92626752Y-78862276D01*
X92769609Y-78862276D01*
X92960085Y-78909895D01*
X93055323Y-78957514D01*
X93150561Y-79052752D01*
X93198180Y-79195609D01*
X93198180Y-79433704D01*
X96868180Y-74353704D02*
X95868180Y-74353704D01*
X96868180Y-73782276D02*
X96296752Y-74210847D01*
X95868180Y-73782276D02*
X96439609Y-74353704D01*
X96868180Y-74353704D02*
X95868180Y-74353704D01*
X96868180Y-73782276D02*
X96296752Y-74210847D01*
X95868180Y-73782276D02*
X96439609Y-74353704D01*
D14*
X94940847Y-79848561D02*
X94332847Y-79848561D01*
X94332847Y-79703800D01*
X94361800Y-79616942D01*
X94419704Y-79559038D01*
X94477609Y-79530085D01*
X94593419Y-79501133D01*
X94680276Y-79501133D01*
X94796085Y-79530085D01*
X94853990Y-79559038D01*
X94911895Y-79616942D01*
X94940847Y-79703800D01*
X94940847Y-79848561D01*
X94940847Y-79211609D02*
X94940847Y-79095800D01*
X94911895Y-79037895D01*
X94882942Y-79008942D01*
X94796085Y-78951038D01*
X94680276Y-78922085D01*
X94448657Y-78922085D01*
X94390752Y-78951038D01*
X94361800Y-78979990D01*
X94332847Y-79037895D01*
X94332847Y-79153704D01*
X94361800Y-79211609D01*
X94390752Y-79240561D01*
X94448657Y-79269514D01*
X94593419Y-79269514D01*
X94651323Y-79240561D01*
X94680276Y-79211609D01*
X94709228Y-79153704D01*
X94709228Y-79037895D01*
X94680276Y-78979990D01*
X94651323Y-78951038D01*
X94593419Y-78922085D01*
%TO.C,R1*%
D12*
X58739161Y-59245580D02*
X58167733Y-59245580D01*
X58453447Y-59245580D02*
X58453447Y-58245580D01*
X58358209Y-58388438D01*
X58262971Y-58483676D01*
X58167733Y-58531295D01*
X59358209Y-58245580D02*
X59453447Y-58245580D01*
X59548685Y-58293200D01*
X59596304Y-58340819D01*
X59643923Y-58436057D01*
X59691542Y-58626533D01*
X59691542Y-58864628D01*
X59643923Y-59055104D01*
X59596304Y-59150342D01*
X59548685Y-59197961D01*
X59453447Y-59245580D01*
X59358209Y-59245580D01*
X59262971Y-59197961D01*
X59215352Y-59150342D01*
X59167733Y-59055104D01*
X59120114Y-58864628D01*
X59120114Y-58626533D01*
X59167733Y-58436057D01*
X59215352Y-58340819D01*
X59262971Y-58293200D01*
X59358209Y-58245580D01*
X60120114Y-59245580D02*
X60120114Y-58245580D01*
X60215352Y-58864628D02*
X60501066Y-59245580D01*
X60501066Y-58578914D02*
X60120114Y-58959866D01*
X59167733Y-61615580D02*
X58834400Y-61139390D01*
X58596304Y-61615580D02*
X58596304Y-60615580D01*
X58977257Y-60615580D01*
X59072495Y-60663200D01*
X59120114Y-60710819D01*
X59167733Y-60806057D01*
X59167733Y-60948914D01*
X59120114Y-61044152D01*
X59072495Y-61091771D01*
X58977257Y-61139390D01*
X58596304Y-61139390D01*
X60120114Y-61615580D02*
X59548685Y-61615580D01*
X59834400Y-61615580D02*
X59834400Y-60615580D01*
X59739161Y-60758438D01*
X59643923Y-60853676D01*
X59548685Y-60901295D01*
%TO.C,R2*%
X58637561Y-89674780D02*
X58066133Y-89674780D01*
X58351847Y-89674780D02*
X58351847Y-88674780D01*
X58256609Y-88817638D01*
X58161371Y-88912876D01*
X58066133Y-88960495D01*
X59256609Y-88674780D02*
X59351847Y-88674780D01*
X59447085Y-88722400D01*
X59494704Y-88770019D01*
X59542323Y-88865257D01*
X59589942Y-89055733D01*
X59589942Y-89293828D01*
X59542323Y-89484304D01*
X59494704Y-89579542D01*
X59447085Y-89627161D01*
X59351847Y-89674780D01*
X59256609Y-89674780D01*
X59161371Y-89627161D01*
X59113752Y-89579542D01*
X59066133Y-89484304D01*
X59018514Y-89293828D01*
X59018514Y-89055733D01*
X59066133Y-88865257D01*
X59113752Y-88770019D01*
X59161371Y-88722400D01*
X59256609Y-88674780D01*
X60018514Y-89674780D02*
X60018514Y-88674780D01*
X60113752Y-89293828D02*
X60399466Y-89674780D01*
X60399466Y-89008114D02*
X60018514Y-89389066D01*
X59066133Y-92044780D02*
X58732800Y-91568590D01*
X58494704Y-92044780D02*
X58494704Y-91044780D01*
X58875657Y-91044780D01*
X58970895Y-91092400D01*
X59018514Y-91140019D01*
X59066133Y-91235257D01*
X59066133Y-91378114D01*
X59018514Y-91473352D01*
X58970895Y-91520971D01*
X58875657Y-91568590D01*
X58494704Y-91568590D01*
X59447085Y-91140019D02*
X59494704Y-91092400D01*
X59589942Y-91044780D01*
X59828038Y-91044780D01*
X59923276Y-91092400D01*
X59970895Y-91140019D01*
X60018514Y-91235257D01*
X60018514Y-91330495D01*
X59970895Y-91473352D01*
X59399466Y-92044780D01*
X60018514Y-92044780D01*
%TO.C,R3*%
X59475761Y-74282380D02*
X58904333Y-74282380D01*
X59190047Y-74282380D02*
X59190047Y-73282380D01*
X59094809Y-73425238D01*
X58999571Y-73520476D01*
X58904333Y-73568095D01*
X60094809Y-73282380D02*
X60190047Y-73282380D01*
X60285285Y-73330000D01*
X60332904Y-73377619D01*
X60380523Y-73472857D01*
X60428142Y-73663333D01*
X60428142Y-73901428D01*
X60380523Y-74091904D01*
X60332904Y-74187142D01*
X60285285Y-74234761D01*
X60190047Y-74282380D01*
X60094809Y-74282380D01*
X59999571Y-74234761D01*
X59951952Y-74187142D01*
X59904333Y-74091904D01*
X59856714Y-73901428D01*
X59856714Y-73663333D01*
X59904333Y-73472857D01*
X59951952Y-73377619D01*
X59999571Y-73330000D01*
X60094809Y-73282380D01*
X60856714Y-74282380D02*
X60856714Y-73282380D01*
X60951952Y-73901428D02*
X61237666Y-74282380D01*
X61237666Y-73615714D02*
X60856714Y-73996666D01*
X59904333Y-76652380D02*
X59571000Y-76176190D01*
X59332904Y-76652380D02*
X59332904Y-75652380D01*
X59713857Y-75652380D01*
X59809095Y-75700000D01*
X59856714Y-75747619D01*
X59904333Y-75842857D01*
X59904333Y-75985714D01*
X59856714Y-76080952D01*
X59809095Y-76128571D01*
X59713857Y-76176190D01*
X59332904Y-76176190D01*
X60237666Y-75652380D02*
X60856714Y-75652380D01*
X60523380Y-76033333D01*
X60666238Y-76033333D01*
X60761476Y-76080952D01*
X60809095Y-76128571D01*
X60856714Y-76223809D01*
X60856714Y-76461904D01*
X60809095Y-76557142D01*
X60761476Y-76604761D01*
X60666238Y-76652380D01*
X60380523Y-76652380D01*
X60285285Y-76604761D01*
X60237666Y-76557142D01*
%TO.C,R4*%
X65844752Y-47536180D02*
X65273323Y-47536180D01*
X65559038Y-47536180D02*
X65559038Y-46536180D01*
X65463800Y-46679038D01*
X65368561Y-46774276D01*
X65273323Y-46821895D01*
X66273323Y-47536180D02*
X66273323Y-46536180D01*
X66368561Y-47155228D02*
X66654276Y-47536180D01*
X66654276Y-46869514D02*
X66273323Y-47250466D01*
X65797133Y-49906180D02*
X65463800Y-49429990D01*
X65225704Y-49906180D02*
X65225704Y-48906180D01*
X65606657Y-48906180D01*
X65701895Y-48953800D01*
X65749514Y-49001419D01*
X65797133Y-49096657D01*
X65797133Y-49239514D01*
X65749514Y-49334752D01*
X65701895Y-49382371D01*
X65606657Y-49429990D01*
X65225704Y-49429990D01*
X66654276Y-49239514D02*
X66654276Y-49906180D01*
X66416180Y-48858561D02*
X66178085Y-49572847D01*
X66797133Y-49572847D01*
%TO.C,R5*%
X66759152Y-63157180D02*
X66187723Y-63157180D01*
X66473438Y-63157180D02*
X66473438Y-62157180D01*
X66378200Y-62300038D01*
X66282961Y-62395276D01*
X66187723Y-62442895D01*
X67187723Y-63157180D02*
X67187723Y-62157180D01*
X67282961Y-62776228D02*
X67568676Y-63157180D01*
X67568676Y-62490514D02*
X67187723Y-62871466D01*
X66711533Y-65527180D02*
X66378200Y-65050990D01*
X66140104Y-65527180D02*
X66140104Y-64527180D01*
X66521057Y-64527180D01*
X66616295Y-64574800D01*
X66663914Y-64622419D01*
X66711533Y-64717657D01*
X66711533Y-64860514D01*
X66663914Y-64955752D01*
X66616295Y-65003371D01*
X66521057Y-65050990D01*
X66140104Y-65050990D01*
X67616295Y-64527180D02*
X67140104Y-64527180D01*
X67092485Y-65003371D01*
X67140104Y-64955752D01*
X67235342Y-64908133D01*
X67473438Y-64908133D01*
X67568676Y-64955752D01*
X67616295Y-65003371D01*
X67663914Y-65098609D01*
X67663914Y-65336704D01*
X67616295Y-65431942D01*
X67568676Y-65479561D01*
X67473438Y-65527180D01*
X67235342Y-65527180D01*
X67140104Y-65479561D01*
X67092485Y-65431942D01*
%TO.C,R6*%
X67444952Y-78219380D02*
X66873523Y-78219380D01*
X67159238Y-78219380D02*
X67159238Y-77219380D01*
X67064000Y-77362238D01*
X66968761Y-77457476D01*
X66873523Y-77505095D01*
X67873523Y-78219380D02*
X67873523Y-77219380D01*
X67968761Y-77838428D02*
X68254476Y-78219380D01*
X68254476Y-77552714D02*
X67873523Y-77933666D01*
X67397333Y-80589380D02*
X67064000Y-80113190D01*
X66825904Y-80589380D02*
X66825904Y-79589380D01*
X67206857Y-79589380D01*
X67302095Y-79637000D01*
X67349714Y-79684619D01*
X67397333Y-79779857D01*
X67397333Y-79922714D01*
X67349714Y-80017952D01*
X67302095Y-80065571D01*
X67206857Y-80113190D01*
X66825904Y-80113190D01*
X68254476Y-79589380D02*
X68064000Y-79589380D01*
X67968761Y-79637000D01*
X67921142Y-79684619D01*
X67825904Y-79827476D01*
X67778285Y-80017952D01*
X67778285Y-80398904D01*
X67825904Y-80494142D01*
X67873523Y-80541761D01*
X67968761Y-80589380D01*
X68159238Y-80589380D01*
X68254476Y-80541761D01*
X68302095Y-80494142D01*
X68349714Y-80398904D01*
X68349714Y-80160809D01*
X68302095Y-80065571D01*
X68254476Y-80017952D01*
X68159238Y-79970333D01*
X67968761Y-79970333D01*
X67873523Y-80017952D01*
X67825904Y-80065571D01*
X67778285Y-80160809D01*
%TO.C,R7*%
X92978361Y-101475980D02*
X92406933Y-101475980D01*
X92692647Y-101475980D02*
X92692647Y-100475980D01*
X92597409Y-100618838D01*
X92502171Y-100714076D01*
X92406933Y-100761695D01*
X93597409Y-100475980D02*
X93692647Y-100475980D01*
X93787885Y-100523600D01*
X93835504Y-100571219D01*
X93883123Y-100666457D01*
X93930742Y-100856933D01*
X93930742Y-101095028D01*
X93883123Y-101285504D01*
X93835504Y-101380742D01*
X93787885Y-101428361D01*
X93692647Y-101475980D01*
X93597409Y-101475980D01*
X93502171Y-101428361D01*
X93454552Y-101380742D01*
X93406933Y-101285504D01*
X93359314Y-101095028D01*
X93359314Y-100856933D01*
X93406933Y-100666457D01*
X93454552Y-100571219D01*
X93502171Y-100523600D01*
X93597409Y-100475980D01*
X94359314Y-101475980D02*
X94359314Y-100475980D01*
X94454552Y-101095028D02*
X94740266Y-101475980D01*
X94740266Y-100809314D02*
X94359314Y-101190266D01*
X93406933Y-99105980D02*
X93073600Y-98629790D01*
X92835504Y-99105980D02*
X92835504Y-98105980D01*
X93216457Y-98105980D01*
X93311695Y-98153600D01*
X93359314Y-98201219D01*
X93406933Y-98296457D01*
X93406933Y-98439314D01*
X93359314Y-98534552D01*
X93311695Y-98582171D01*
X93216457Y-98629790D01*
X92835504Y-98629790D01*
X93740266Y-98105980D02*
X94406933Y-98105980D01*
X93978361Y-99105980D01*
%TO.C,R8*%
X107202361Y-101729980D02*
X106630933Y-101729980D01*
X106916647Y-101729980D02*
X106916647Y-100729980D01*
X106821409Y-100872838D01*
X106726171Y-100968076D01*
X106630933Y-101015695D01*
X107821409Y-100729980D02*
X107916647Y-100729980D01*
X108011885Y-100777600D01*
X108059504Y-100825219D01*
X108107123Y-100920457D01*
X108154742Y-101110933D01*
X108154742Y-101349028D01*
X108107123Y-101539504D01*
X108059504Y-101634742D01*
X108011885Y-101682361D01*
X107916647Y-101729980D01*
X107821409Y-101729980D01*
X107726171Y-101682361D01*
X107678552Y-101634742D01*
X107630933Y-101539504D01*
X107583314Y-101349028D01*
X107583314Y-101110933D01*
X107630933Y-100920457D01*
X107678552Y-100825219D01*
X107726171Y-100777600D01*
X107821409Y-100729980D01*
X108583314Y-101729980D02*
X108583314Y-100729980D01*
X108678552Y-101349028D02*
X108964266Y-101729980D01*
X108964266Y-101063314D02*
X108583314Y-101444266D01*
X107630933Y-99359980D02*
X107297600Y-98883790D01*
X107059504Y-99359980D02*
X107059504Y-98359980D01*
X107440457Y-98359980D01*
X107535695Y-98407600D01*
X107583314Y-98455219D01*
X107630933Y-98550457D01*
X107630933Y-98693314D01*
X107583314Y-98788552D01*
X107535695Y-98836171D01*
X107440457Y-98883790D01*
X107059504Y-98883790D01*
X108202361Y-98788552D02*
X108107123Y-98740933D01*
X108059504Y-98693314D01*
X108011885Y-98598076D01*
X108011885Y-98550457D01*
X108059504Y-98455219D01*
X108107123Y-98407600D01*
X108202361Y-98359980D01*
X108392838Y-98359980D01*
X108488076Y-98407600D01*
X108535695Y-98455219D01*
X108583314Y-98550457D01*
X108583314Y-98598076D01*
X108535695Y-98693314D01*
X108488076Y-98740933D01*
X108392838Y-98788552D01*
X108202361Y-98788552D01*
X108107123Y-98836171D01*
X108059504Y-98883790D01*
X108011885Y-98979028D01*
X108011885Y-99169504D01*
X108059504Y-99264742D01*
X108107123Y-99312361D01*
X108202361Y-99359980D01*
X108392838Y-99359980D01*
X108488076Y-99312361D01*
X108535695Y-99264742D01*
X108583314Y-99169504D01*
X108583314Y-98979028D01*
X108535695Y-98883790D01*
X108488076Y-98836171D01*
X108392838Y-98788552D01*
%TO.C,R9*%
X120918361Y-101806180D02*
X120346933Y-101806180D01*
X120632647Y-101806180D02*
X120632647Y-100806180D01*
X120537409Y-100949038D01*
X120442171Y-101044276D01*
X120346933Y-101091895D01*
X121537409Y-100806180D02*
X121632647Y-100806180D01*
X121727885Y-100853800D01*
X121775504Y-100901419D01*
X121823123Y-100996657D01*
X121870742Y-101187133D01*
X121870742Y-101425228D01*
X121823123Y-101615704D01*
X121775504Y-101710942D01*
X121727885Y-101758561D01*
X121632647Y-101806180D01*
X121537409Y-101806180D01*
X121442171Y-101758561D01*
X121394552Y-101710942D01*
X121346933Y-101615704D01*
X121299314Y-101425228D01*
X121299314Y-101187133D01*
X121346933Y-100996657D01*
X121394552Y-100901419D01*
X121442171Y-100853800D01*
X121537409Y-100806180D01*
X122299314Y-101806180D02*
X122299314Y-100806180D01*
X122394552Y-101425228D02*
X122680266Y-101806180D01*
X122680266Y-101139514D02*
X122299314Y-101520466D01*
X121346933Y-99436180D02*
X121013600Y-98959990D01*
X120775504Y-99436180D02*
X120775504Y-98436180D01*
X121156457Y-98436180D01*
X121251695Y-98483800D01*
X121299314Y-98531419D01*
X121346933Y-98626657D01*
X121346933Y-98769514D01*
X121299314Y-98864752D01*
X121251695Y-98912371D01*
X121156457Y-98959990D01*
X120775504Y-98959990D01*
X121823123Y-99436180D02*
X122013600Y-99436180D01*
X122108838Y-99388561D01*
X122156457Y-99340942D01*
X122251695Y-99198085D01*
X122299314Y-99007609D01*
X122299314Y-98626657D01*
X122251695Y-98531419D01*
X122204076Y-98483800D01*
X122108838Y-98436180D01*
X121918361Y-98436180D01*
X121823123Y-98483800D01*
X121775504Y-98531419D01*
X121727885Y-98626657D01*
X121727885Y-98864752D01*
X121775504Y-98959990D01*
X121823123Y-99007609D01*
X121918361Y-99055228D01*
X122108838Y-99055228D01*
X122204076Y-99007609D01*
X122251695Y-98959990D01*
X122299314Y-98864752D01*
%TO.C,RV1*%
X44838952Y-116238580D02*
X44267523Y-116238580D01*
X44553238Y-116238580D02*
X44553238Y-115238580D01*
X44458000Y-115381438D01*
X44362761Y-115476676D01*
X44267523Y-115524295D01*
X45267523Y-116238580D02*
X45267523Y-115238580D01*
X45362761Y-115857628D02*
X45648476Y-116238580D01*
X45648476Y-115571914D02*
X45267523Y-115952866D01*
X44997761Y-119903580D02*
X44664428Y-119427390D01*
X44426333Y-119903580D02*
X44426333Y-118903580D01*
X44807285Y-118903580D01*
X44902523Y-118951200D01*
X44950142Y-118998819D01*
X44997761Y-119094057D01*
X44997761Y-119236914D01*
X44950142Y-119332152D01*
X44902523Y-119379771D01*
X44807285Y-119427390D01*
X44426333Y-119427390D01*
X45283476Y-118903580D02*
X45616809Y-119903580D01*
X45950142Y-118903580D01*
X46807285Y-119903580D02*
X46235857Y-119903580D01*
X46521571Y-119903580D02*
X46521571Y-118903580D01*
X46426333Y-119046438D01*
X46331095Y-119141676D01*
X46235857Y-119189295D01*
%TO.C,RV2*%
X44965952Y-106738980D02*
X44394523Y-106738980D01*
X44680238Y-106738980D02*
X44680238Y-105738980D01*
X44585000Y-105881838D01*
X44489761Y-105977076D01*
X44394523Y-106024695D01*
X45394523Y-106738980D02*
X45394523Y-105738980D01*
X45489761Y-106358028D02*
X45775476Y-106738980D01*
X45775476Y-106072314D02*
X45394523Y-106453266D01*
X45124761Y-110403980D02*
X44791428Y-109927790D01*
X44553333Y-110403980D02*
X44553333Y-109403980D01*
X44934285Y-109403980D01*
X45029523Y-109451600D01*
X45077142Y-109499219D01*
X45124761Y-109594457D01*
X45124761Y-109737314D01*
X45077142Y-109832552D01*
X45029523Y-109880171D01*
X44934285Y-109927790D01*
X44553333Y-109927790D01*
X45410476Y-109403980D02*
X45743809Y-110403980D01*
X46077142Y-109403980D01*
X46362857Y-109499219D02*
X46410476Y-109451600D01*
X46505714Y-109403980D01*
X46743809Y-109403980D01*
X46839047Y-109451600D01*
X46886666Y-109499219D01*
X46934285Y-109594457D01*
X46934285Y-109689695D01*
X46886666Y-109832552D01*
X46315238Y-110403980D01*
X46934285Y-110403980D01*
%TO.C,RV3*%
X45219952Y-98560180D02*
X44648523Y-98560180D01*
X44934238Y-98560180D02*
X44934238Y-97560180D01*
X44839000Y-97703038D01*
X44743761Y-97798276D01*
X44648523Y-97845895D01*
X45648523Y-98560180D02*
X45648523Y-97560180D01*
X45743761Y-98179228D02*
X46029476Y-98560180D01*
X46029476Y-97893514D02*
X45648523Y-98274466D01*
X45378761Y-102225180D02*
X45045428Y-101748990D01*
X44807333Y-102225180D02*
X44807333Y-101225180D01*
X45188285Y-101225180D01*
X45283523Y-101272800D01*
X45331142Y-101320419D01*
X45378761Y-101415657D01*
X45378761Y-101558514D01*
X45331142Y-101653752D01*
X45283523Y-101701371D01*
X45188285Y-101748990D01*
X44807333Y-101748990D01*
X45664476Y-101225180D02*
X45997809Y-102225180D01*
X46331142Y-101225180D01*
X46569238Y-101225180D02*
X47188285Y-101225180D01*
X46854952Y-101606133D01*
X46997809Y-101606133D01*
X47093047Y-101653752D01*
X47140666Y-101701371D01*
X47188285Y-101796609D01*
X47188285Y-102034704D01*
X47140666Y-102129942D01*
X47093047Y-102177561D01*
X46997809Y-102225180D01*
X46712095Y-102225180D01*
X46616857Y-102177561D01*
X46569238Y-102129942D01*
%TO.C,U1*%
X59953780Y-41320838D02*
X59953780Y-41797028D01*
X58953780Y-41797028D01*
X58953780Y-41082742D02*
X58953780Y-40416076D01*
X59953780Y-40844647D01*
X59382352Y-39892266D02*
X59334733Y-39987504D01*
X59287114Y-40035123D01*
X59191876Y-40082742D01*
X59144257Y-40082742D01*
X59049019Y-40035123D01*
X59001400Y-39987504D01*
X58953780Y-39892266D01*
X58953780Y-39701790D01*
X59001400Y-39606552D01*
X59049019Y-39558933D01*
X59144257Y-39511314D01*
X59191876Y-39511314D01*
X59287114Y-39558933D01*
X59334733Y-39606552D01*
X59382352Y-39701790D01*
X59382352Y-39892266D01*
X59429971Y-39987504D01*
X59477590Y-40035123D01*
X59572828Y-40082742D01*
X59763304Y-40082742D01*
X59858542Y-40035123D01*
X59906161Y-39987504D01*
X59953780Y-39892266D01*
X59953780Y-39701790D01*
X59906161Y-39606552D01*
X59858542Y-39558933D01*
X59763304Y-39511314D01*
X59572828Y-39511314D01*
X59477590Y-39558933D01*
X59429971Y-39606552D01*
X59382352Y-39701790D01*
X58953780Y-38892266D02*
X58953780Y-38797028D01*
X59001400Y-38701790D01*
X59049019Y-38654171D01*
X59144257Y-38606552D01*
X59334733Y-38558933D01*
X59572828Y-38558933D01*
X59763304Y-38606552D01*
X59858542Y-38654171D01*
X59906161Y-38701790D01*
X59953780Y-38797028D01*
X59953780Y-38892266D01*
X59906161Y-38987504D01*
X59858542Y-39035123D01*
X59763304Y-39082742D01*
X59572828Y-39130361D01*
X59334733Y-39130361D01*
X59144257Y-39082742D01*
X59049019Y-39035123D01*
X59001400Y-38987504D01*
X58953780Y-38892266D01*
X58953780Y-37654171D02*
X58953780Y-38130361D01*
X59429971Y-38177980D01*
X59382352Y-38130361D01*
X59334733Y-38035123D01*
X59334733Y-37797028D01*
X59382352Y-37701790D01*
X59429971Y-37654171D01*
X59525209Y-37606552D01*
X59763304Y-37606552D01*
X59858542Y-37654171D01*
X59906161Y-37701790D01*
X59953780Y-37797028D01*
X59953780Y-38035123D01*
X59906161Y-38130361D01*
X59858542Y-38177980D01*
X65723780Y-40487504D02*
X66533304Y-40487504D01*
X66628542Y-40439885D01*
X66676161Y-40392266D01*
X66723780Y-40297028D01*
X66723780Y-40106552D01*
X66676161Y-40011314D01*
X66628542Y-39963695D01*
X66533304Y-39916076D01*
X65723780Y-39916076D01*
X66723780Y-38916076D02*
X66723780Y-39487504D01*
X66723780Y-39201790D02*
X65723780Y-39201790D01*
X65866638Y-39297028D01*
X65961876Y-39392266D01*
X66009495Y-39487504D01*
%TO.C,U2*%
X62265180Y-59052971D02*
X62598514Y-59052971D01*
X62741371Y-59576780D02*
X62265180Y-59576780D01*
X62265180Y-58576780D01*
X62741371Y-58576780D01*
X63646133Y-59576780D02*
X63169942Y-59576780D01*
X63169942Y-58576780D01*
X64122323Y-59005352D02*
X64027085Y-58957733D01*
X63979466Y-58910114D01*
X63931847Y-58814876D01*
X63931847Y-58767257D01*
X63979466Y-58672019D01*
X64027085Y-58624400D01*
X64122323Y-58576780D01*
X64312800Y-58576780D01*
X64408038Y-58624400D01*
X64455657Y-58672019D01*
X64503276Y-58767257D01*
X64503276Y-58814876D01*
X64455657Y-58910114D01*
X64408038Y-58957733D01*
X64312800Y-59005352D01*
X64122323Y-59005352D01*
X64027085Y-59052971D01*
X63979466Y-59100590D01*
X63931847Y-59195828D01*
X63931847Y-59386304D01*
X63979466Y-59481542D01*
X64027085Y-59529161D01*
X64122323Y-59576780D01*
X64312800Y-59576780D01*
X64408038Y-59529161D01*
X64455657Y-59481542D01*
X64503276Y-59386304D01*
X64503276Y-59195828D01*
X64455657Y-59100590D01*
X64408038Y-59052971D01*
X64312800Y-59005352D01*
X65455657Y-59576780D02*
X64884228Y-59576780D01*
X65169942Y-59576780D02*
X65169942Y-58576780D01*
X65074704Y-58719638D01*
X64979466Y-58814876D01*
X64884228Y-58862495D01*
X65788990Y-58576780D02*
X66455657Y-58576780D01*
X66027085Y-59576780D01*
X63550895Y-54976780D02*
X63550895Y-55786304D01*
X63598514Y-55881542D01*
X63646133Y-55929161D01*
X63741371Y-55976780D01*
X63931847Y-55976780D01*
X64027085Y-55929161D01*
X64074704Y-55881542D01*
X64122323Y-55786304D01*
X64122323Y-54976780D01*
X64550895Y-55072019D02*
X64598514Y-55024400D01*
X64693752Y-54976780D01*
X64931847Y-54976780D01*
X65027085Y-55024400D01*
X65074704Y-55072019D01*
X65122323Y-55167257D01*
X65122323Y-55262495D01*
X65074704Y-55405352D01*
X64503276Y-55976780D01*
X65122323Y-55976780D01*
%TO.C,U3*%
X63052580Y-73886571D02*
X63385914Y-73886571D01*
X63528771Y-74410380D02*
X63052580Y-74410380D01*
X63052580Y-73410380D01*
X63528771Y-73410380D01*
X64433533Y-74410380D02*
X63957342Y-74410380D01*
X63957342Y-73410380D01*
X64909723Y-73838952D02*
X64814485Y-73791333D01*
X64766866Y-73743714D01*
X64719247Y-73648476D01*
X64719247Y-73600857D01*
X64766866Y-73505619D01*
X64814485Y-73458000D01*
X64909723Y-73410380D01*
X65100200Y-73410380D01*
X65195438Y-73458000D01*
X65243057Y-73505619D01*
X65290676Y-73600857D01*
X65290676Y-73648476D01*
X65243057Y-73743714D01*
X65195438Y-73791333D01*
X65100200Y-73838952D01*
X64909723Y-73838952D01*
X64814485Y-73886571D01*
X64766866Y-73934190D01*
X64719247Y-74029428D01*
X64719247Y-74219904D01*
X64766866Y-74315142D01*
X64814485Y-74362761D01*
X64909723Y-74410380D01*
X65100200Y-74410380D01*
X65195438Y-74362761D01*
X65243057Y-74315142D01*
X65290676Y-74219904D01*
X65290676Y-74029428D01*
X65243057Y-73934190D01*
X65195438Y-73886571D01*
X65100200Y-73838952D01*
X66243057Y-74410380D02*
X65671628Y-74410380D01*
X65957342Y-74410380D02*
X65957342Y-73410380D01*
X65862104Y-73553238D01*
X65766866Y-73648476D01*
X65671628Y-73696095D01*
X66576390Y-73410380D02*
X67243057Y-73410380D01*
X66814485Y-74410380D01*
X64338295Y-69810380D02*
X64338295Y-70619904D01*
X64385914Y-70715142D01*
X64433533Y-70762761D01*
X64528771Y-70810380D01*
X64719247Y-70810380D01*
X64814485Y-70762761D01*
X64862104Y-70715142D01*
X64909723Y-70619904D01*
X64909723Y-69810380D01*
X65290676Y-69810380D02*
X65909723Y-69810380D01*
X65576390Y-70191333D01*
X65719247Y-70191333D01*
X65814485Y-70238952D01*
X65862104Y-70286571D01*
X65909723Y-70381809D01*
X65909723Y-70619904D01*
X65862104Y-70715142D01*
X65814485Y-70762761D01*
X65719247Y-70810380D01*
X65433533Y-70810380D01*
X65338295Y-70762761D01*
X65290676Y-70715142D01*
%TO.C,U4*%
X62925580Y-88415371D02*
X63258914Y-88415371D01*
X63401771Y-88939180D02*
X62925580Y-88939180D01*
X62925580Y-87939180D01*
X63401771Y-87939180D01*
X64306533Y-88939180D02*
X63830342Y-88939180D01*
X63830342Y-87939180D01*
X64782723Y-88367752D02*
X64687485Y-88320133D01*
X64639866Y-88272514D01*
X64592247Y-88177276D01*
X64592247Y-88129657D01*
X64639866Y-88034419D01*
X64687485Y-87986800D01*
X64782723Y-87939180D01*
X64973200Y-87939180D01*
X65068438Y-87986800D01*
X65116057Y-88034419D01*
X65163676Y-88129657D01*
X65163676Y-88177276D01*
X65116057Y-88272514D01*
X65068438Y-88320133D01*
X64973200Y-88367752D01*
X64782723Y-88367752D01*
X64687485Y-88415371D01*
X64639866Y-88462990D01*
X64592247Y-88558228D01*
X64592247Y-88748704D01*
X64639866Y-88843942D01*
X64687485Y-88891561D01*
X64782723Y-88939180D01*
X64973200Y-88939180D01*
X65068438Y-88891561D01*
X65116057Y-88843942D01*
X65163676Y-88748704D01*
X65163676Y-88558228D01*
X65116057Y-88462990D01*
X65068438Y-88415371D01*
X64973200Y-88367752D01*
X66116057Y-88939180D02*
X65544628Y-88939180D01*
X65830342Y-88939180D02*
X65830342Y-87939180D01*
X65735104Y-88082038D01*
X65639866Y-88177276D01*
X65544628Y-88224895D01*
X66449390Y-87939180D02*
X67116057Y-87939180D01*
X66687485Y-88939180D01*
X63044694Y-83241979D02*
X63044694Y-84051503D01*
X63092313Y-84146741D01*
X63139932Y-84194360D01*
X63235170Y-84241979D01*
X63425646Y-84241979D01*
X63520884Y-84194360D01*
X63568503Y-84146741D01*
X63616122Y-84051503D01*
X63616122Y-83241979D01*
X64520884Y-83575313D02*
X64520884Y-84241979D01*
X64282789Y-83194360D02*
X64044694Y-83908646D01*
X64663741Y-83908646D01*
%TO.C,U6*%
X90255980Y-107871771D02*
X90589314Y-107871771D01*
X90732171Y-108395580D02*
X90255980Y-108395580D01*
X90255980Y-107395580D01*
X90732171Y-107395580D01*
X91636933Y-108395580D02*
X91160742Y-108395580D01*
X91160742Y-107395580D01*
X92113123Y-107824152D02*
X92017885Y-107776533D01*
X91970266Y-107728914D01*
X91922647Y-107633676D01*
X91922647Y-107586057D01*
X91970266Y-107490819D01*
X92017885Y-107443200D01*
X92113123Y-107395580D01*
X92303600Y-107395580D01*
X92398838Y-107443200D01*
X92446457Y-107490819D01*
X92494076Y-107586057D01*
X92494076Y-107633676D01*
X92446457Y-107728914D01*
X92398838Y-107776533D01*
X92303600Y-107824152D01*
X92113123Y-107824152D01*
X92017885Y-107871771D01*
X91970266Y-107919390D01*
X91922647Y-108014628D01*
X91922647Y-108205104D01*
X91970266Y-108300342D01*
X92017885Y-108347961D01*
X92113123Y-108395580D01*
X92303600Y-108395580D01*
X92398838Y-108347961D01*
X92446457Y-108300342D01*
X92494076Y-108205104D01*
X92494076Y-108014628D01*
X92446457Y-107919390D01*
X92398838Y-107871771D01*
X92303600Y-107824152D01*
X93446457Y-108395580D02*
X92875028Y-108395580D01*
X93160742Y-108395580D02*
X93160742Y-107395580D01*
X93065504Y-107538438D01*
X92970266Y-107633676D01*
X92875028Y-107681295D01*
X93779790Y-107395580D02*
X94446457Y-107395580D01*
X94017885Y-108395580D01*
X90119295Y-103338380D02*
X90119295Y-104147904D01*
X90166914Y-104243142D01*
X90214533Y-104290761D01*
X90309771Y-104338380D01*
X90500247Y-104338380D01*
X90595485Y-104290761D01*
X90643104Y-104243142D01*
X90690723Y-104147904D01*
X90690723Y-103338380D01*
X91595485Y-103338380D02*
X91405009Y-103338380D01*
X91309771Y-103386000D01*
X91262152Y-103433619D01*
X91166914Y-103576476D01*
X91119295Y-103766952D01*
X91119295Y-104147904D01*
X91166914Y-104243142D01*
X91214533Y-104290761D01*
X91309771Y-104338380D01*
X91500247Y-104338380D01*
X91595485Y-104290761D01*
X91643104Y-104243142D01*
X91690723Y-104147904D01*
X91690723Y-103909809D01*
X91643104Y-103814571D01*
X91595485Y-103766952D01*
X91500247Y-103719333D01*
X91309771Y-103719333D01*
X91214533Y-103766952D01*
X91166914Y-103814571D01*
X91119295Y-103909809D01*
%TO.C,U7*%
X105140380Y-108659171D02*
X105473714Y-108659171D01*
X105616571Y-109182980D02*
X105140380Y-109182980D01*
X105140380Y-108182980D01*
X105616571Y-108182980D01*
X106521333Y-109182980D02*
X106045142Y-109182980D01*
X106045142Y-108182980D01*
X106997523Y-108611552D02*
X106902285Y-108563933D01*
X106854666Y-108516314D01*
X106807047Y-108421076D01*
X106807047Y-108373457D01*
X106854666Y-108278219D01*
X106902285Y-108230600D01*
X106997523Y-108182980D01*
X107188000Y-108182980D01*
X107283238Y-108230600D01*
X107330857Y-108278219D01*
X107378476Y-108373457D01*
X107378476Y-108421076D01*
X107330857Y-108516314D01*
X107283238Y-108563933D01*
X107188000Y-108611552D01*
X106997523Y-108611552D01*
X106902285Y-108659171D01*
X106854666Y-108706790D01*
X106807047Y-108802028D01*
X106807047Y-108992504D01*
X106854666Y-109087742D01*
X106902285Y-109135361D01*
X106997523Y-109182980D01*
X107188000Y-109182980D01*
X107283238Y-109135361D01*
X107330857Y-109087742D01*
X107378476Y-108992504D01*
X107378476Y-108802028D01*
X107330857Y-108706790D01*
X107283238Y-108659171D01*
X107188000Y-108611552D01*
X108330857Y-109182980D02*
X107759428Y-109182980D01*
X108045142Y-109182980D02*
X108045142Y-108182980D01*
X107949904Y-108325838D01*
X107854666Y-108421076D01*
X107759428Y-108468695D01*
X108664190Y-108182980D02*
X109330857Y-108182980D01*
X108902285Y-109182980D01*
X107086495Y-104684580D02*
X107086495Y-105494104D01*
X107134114Y-105589342D01*
X107181733Y-105636961D01*
X107276971Y-105684580D01*
X107467447Y-105684580D01*
X107562685Y-105636961D01*
X107610304Y-105589342D01*
X107657923Y-105494104D01*
X107657923Y-104684580D01*
X108038876Y-104684580D02*
X108705542Y-104684580D01*
X108276971Y-105684580D01*
%TO.C,U8*%
X118068980Y-108989371D02*
X118402314Y-108989371D01*
X118545171Y-109513180D02*
X118068980Y-109513180D01*
X118068980Y-108513180D01*
X118545171Y-108513180D01*
X119449933Y-109513180D02*
X118973742Y-109513180D01*
X118973742Y-108513180D01*
X119926123Y-108941752D02*
X119830885Y-108894133D01*
X119783266Y-108846514D01*
X119735647Y-108751276D01*
X119735647Y-108703657D01*
X119783266Y-108608419D01*
X119830885Y-108560800D01*
X119926123Y-108513180D01*
X120116600Y-108513180D01*
X120211838Y-108560800D01*
X120259457Y-108608419D01*
X120307076Y-108703657D01*
X120307076Y-108751276D01*
X120259457Y-108846514D01*
X120211838Y-108894133D01*
X120116600Y-108941752D01*
X119926123Y-108941752D01*
X119830885Y-108989371D01*
X119783266Y-109036990D01*
X119735647Y-109132228D01*
X119735647Y-109322704D01*
X119783266Y-109417942D01*
X119830885Y-109465561D01*
X119926123Y-109513180D01*
X120116600Y-109513180D01*
X120211838Y-109465561D01*
X120259457Y-109417942D01*
X120307076Y-109322704D01*
X120307076Y-109132228D01*
X120259457Y-109036990D01*
X120211838Y-108989371D01*
X120116600Y-108941752D01*
X121259457Y-109513180D02*
X120688028Y-109513180D01*
X120973742Y-109513180D02*
X120973742Y-108513180D01*
X120878504Y-108656038D01*
X120783266Y-108751276D01*
X120688028Y-108798895D01*
X121592790Y-108513180D02*
X122259457Y-108513180D01*
X121830885Y-109513180D01*
X118414895Y-105090980D02*
X118414895Y-105900504D01*
X118462514Y-105995742D01*
X118510133Y-106043361D01*
X118605371Y-106090980D01*
X118795847Y-106090980D01*
X118891085Y-106043361D01*
X118938704Y-105995742D01*
X118986323Y-105900504D01*
X118986323Y-105090980D01*
X119605371Y-105519552D02*
X119510133Y-105471933D01*
X119462514Y-105424314D01*
X119414895Y-105329076D01*
X119414895Y-105281457D01*
X119462514Y-105186219D01*
X119510133Y-105138600D01*
X119605371Y-105090980D01*
X119795847Y-105090980D01*
X119891085Y-105138600D01*
X119938704Y-105186219D01*
X119986323Y-105281457D01*
X119986323Y-105329076D01*
X119938704Y-105424314D01*
X119891085Y-105471933D01*
X119795847Y-105519552D01*
X119605371Y-105519552D01*
X119510133Y-105567171D01*
X119462514Y-105614790D01*
X119414895Y-105710028D01*
X119414895Y-105900504D01*
X119462514Y-105995742D01*
X119510133Y-106043361D01*
X119605371Y-106090980D01*
X119795847Y-106090980D01*
X119891085Y-106043361D01*
X119938704Y-105995742D01*
X119986323Y-105900504D01*
X119986323Y-105710028D01*
X119938704Y-105614790D01*
X119891085Y-105567171D01*
X119795847Y-105519552D01*
%TD*%
M02*
