M48
; DRILL file {KiCad (5.1.5)-3} date 12/22/2019 1:18:17 PM
; FORMAT={-:-/ absolute / metric / decimal}
; #@! TF.CreationDate,2019-12-22T13:18:17-05:00
; #@! TF.GenerationSoftware,Kicad,Pcbnew,(5.1.5)-3
; #@! TF.FileFunction,Plated,1,2,PTH
FMAT,2
METRIC
T1C0.600
T2C0.735
T3C0.750
T4C0.800
T5C0.900
T6C1.170
T7C1.500
%
G90
G05
T1
X61.0Y-35.0
X62.5Y-35.0
X67.0Y-35.0
X68.5Y-35.0
T2
X60.888Y-44.266
X60.888Y-46.705
X60.888Y-49.143
X60.888Y-51.607
X68.0Y-44.165
X68.0Y-44.165
X68.0Y-46.603
X68.0Y-46.603
X68.0Y-49.067
X68.0Y-49.067
X68.0Y-51.607
X68.0Y-51.607
T3
X56.0Y-26.46
X56.0Y-27.73
X56.0Y-29.0
T4
X72.68Y-52.0
X93.0Y-52.0
X73.0Y-41.0
X93.32Y-41.0
X43.0Y-35.68
X43.0Y-56.0
X73.0Y-36.0
X93.32Y-36.0
X72.68Y-46.0
X93.0Y-46.0
X55.0Y-35.68
X55.0Y-56.0
X49.0Y-35.68
X49.0Y-56.0
T5
X82.0Y-26.0
X82.0Y-28.54
X20.0Y-57.0
X22.5Y-57.0
X25.0Y-57.0
X93.0Y-26.0
X93.0Y-28.54
T6
X28.0Y-29.0
T7
X28.0Y-49.0
T0
M30
