G04 #@! TF.GenerationSoftware,KiCad,Pcbnew,(5.1.5)-3*
G04 #@! TF.CreationDate,2019-12-22T13:16:54-05:00*
G04 #@! TF.ProjectId,557_circuit,3535375f-6369-4726-9375-69742e6b6963,rev?*
G04 #@! TF.SameCoordinates,Original*
G04 #@! TF.FileFunction,Soldermask,Bot*
G04 #@! TF.FilePolarity,Negative*
%FSLAX46Y46*%
G04 Gerber Fmt 4.6, Leading zero omitted, Abs format (unit mm)*
G04 Created by KiCad (PCBNEW (5.1.5)-3) date 2019-12-22 13:16:54*
%MOMM*%
%LPD*%
G04 APERTURE LIST*
%ADD10C,0.100000*%
G04 APERTURE END LIST*
D10*
G36*
X26001000Y-58001000D02*
G01*
X23999000Y-58001000D01*
X23999000Y-55999000D01*
X26001000Y-55999000D01*
X26001000Y-58001000D01*
G37*
G36*
X22695285Y-56018234D02*
G01*
X22791981Y-56037468D01*
X22974151Y-56112926D01*
X23138100Y-56222473D01*
X23277527Y-56361900D01*
X23387074Y-56525849D01*
X23462532Y-56708019D01*
X23501000Y-56901410D01*
X23501000Y-57098590D01*
X23462532Y-57291981D01*
X23387074Y-57474151D01*
X23277527Y-57638100D01*
X23138100Y-57777527D01*
X22974151Y-57887074D01*
X22791981Y-57962532D01*
X22695285Y-57981766D01*
X22598591Y-58001000D01*
X22401409Y-58001000D01*
X22304715Y-57981766D01*
X22208019Y-57962532D01*
X22025849Y-57887074D01*
X21861900Y-57777527D01*
X21722473Y-57638100D01*
X21612926Y-57474151D01*
X21537468Y-57291981D01*
X21499000Y-57098590D01*
X21499000Y-56901410D01*
X21537468Y-56708019D01*
X21612926Y-56525849D01*
X21722473Y-56361900D01*
X21861900Y-56222473D01*
X22025849Y-56112926D01*
X22208019Y-56037468D01*
X22304715Y-56018234D01*
X22401409Y-55999000D01*
X22598591Y-55999000D01*
X22695285Y-56018234D01*
G37*
G36*
X20195285Y-56018234D02*
G01*
X20291981Y-56037468D01*
X20474151Y-56112926D01*
X20638100Y-56222473D01*
X20777527Y-56361900D01*
X20887074Y-56525849D01*
X20962532Y-56708019D01*
X21001000Y-56901410D01*
X21001000Y-57098590D01*
X20962532Y-57291981D01*
X20887074Y-57474151D01*
X20777527Y-57638100D01*
X20638100Y-57777527D01*
X20474151Y-57887074D01*
X20291981Y-57962532D01*
X20195285Y-57981766D01*
X20098591Y-58001000D01*
X19901409Y-58001000D01*
X19804715Y-57981766D01*
X19708019Y-57962532D01*
X19525849Y-57887074D01*
X19361900Y-57777527D01*
X19222473Y-57638100D01*
X19112926Y-57474151D01*
X19037468Y-57291981D01*
X18999000Y-57098590D01*
X18999000Y-56901410D01*
X19037468Y-56708019D01*
X19112926Y-56525849D01*
X19222473Y-56361900D01*
X19361900Y-56222473D01*
X19525849Y-56112926D01*
X19708019Y-56037468D01*
X19804715Y-56018234D01*
X19901409Y-55999000D01*
X20098591Y-55999000D01*
X20195285Y-56018234D01*
G37*
G36*
X43248228Y-55181703D02*
G01*
X43403100Y-55245853D01*
X43542481Y-55338985D01*
X43661015Y-55457519D01*
X43754147Y-55596900D01*
X43818297Y-55751772D01*
X43851000Y-55916184D01*
X43851000Y-56083816D01*
X43818297Y-56248228D01*
X43754147Y-56403100D01*
X43661015Y-56542481D01*
X43542481Y-56661015D01*
X43403100Y-56754147D01*
X43248228Y-56818297D01*
X43083816Y-56851000D01*
X42916184Y-56851000D01*
X42751772Y-56818297D01*
X42596900Y-56754147D01*
X42457519Y-56661015D01*
X42338985Y-56542481D01*
X42245853Y-56403100D01*
X42181703Y-56248228D01*
X42149000Y-56083816D01*
X42149000Y-55916184D01*
X42181703Y-55751772D01*
X42245853Y-55596900D01*
X42338985Y-55457519D01*
X42457519Y-55338985D01*
X42596900Y-55245853D01*
X42751772Y-55181703D01*
X42916184Y-55149000D01*
X43083816Y-55149000D01*
X43248228Y-55181703D01*
G37*
G36*
X49248228Y-55181703D02*
G01*
X49403100Y-55245853D01*
X49542481Y-55338985D01*
X49661015Y-55457519D01*
X49754147Y-55596900D01*
X49818297Y-55751772D01*
X49851000Y-55916184D01*
X49851000Y-56083816D01*
X49818297Y-56248228D01*
X49754147Y-56403100D01*
X49661015Y-56542481D01*
X49542481Y-56661015D01*
X49403100Y-56754147D01*
X49248228Y-56818297D01*
X49083816Y-56851000D01*
X48916184Y-56851000D01*
X48751772Y-56818297D01*
X48596900Y-56754147D01*
X48457519Y-56661015D01*
X48338985Y-56542481D01*
X48245853Y-56403100D01*
X48181703Y-56248228D01*
X48149000Y-56083816D01*
X48149000Y-55916184D01*
X48181703Y-55751772D01*
X48245853Y-55596900D01*
X48338985Y-55457519D01*
X48457519Y-55338985D01*
X48596900Y-55245853D01*
X48751772Y-55181703D01*
X48916184Y-55149000D01*
X49083816Y-55149000D01*
X49248228Y-55181703D01*
G37*
G36*
X55248228Y-55181703D02*
G01*
X55403100Y-55245853D01*
X55542481Y-55338985D01*
X55661015Y-55457519D01*
X55754147Y-55596900D01*
X55818297Y-55751772D01*
X55851000Y-55916184D01*
X55851000Y-56083816D01*
X55818297Y-56248228D01*
X55754147Y-56403100D01*
X55661015Y-56542481D01*
X55542481Y-56661015D01*
X55403100Y-56754147D01*
X55248228Y-56818297D01*
X55083816Y-56851000D01*
X54916184Y-56851000D01*
X54751772Y-56818297D01*
X54596900Y-56754147D01*
X54457519Y-56661015D01*
X54338985Y-56542481D01*
X54245853Y-56403100D01*
X54181703Y-56248228D01*
X54149000Y-56083816D01*
X54149000Y-55916184D01*
X54181703Y-55751772D01*
X54245853Y-55596900D01*
X54338985Y-55457519D01*
X54457519Y-55338985D01*
X54596900Y-55245853D01*
X54751772Y-55181703D01*
X54916184Y-55149000D01*
X55083816Y-55149000D01*
X55248228Y-55181703D01*
G37*
G36*
X93248228Y-51181703D02*
G01*
X93403100Y-51245853D01*
X93542481Y-51338985D01*
X93661015Y-51457519D01*
X93754147Y-51596900D01*
X93818297Y-51751772D01*
X93851000Y-51916184D01*
X93851000Y-52083816D01*
X93818297Y-52248228D01*
X93754147Y-52403100D01*
X93661015Y-52542481D01*
X93542481Y-52661015D01*
X93403100Y-52754147D01*
X93248228Y-52818297D01*
X93083816Y-52851000D01*
X92916184Y-52851000D01*
X92751772Y-52818297D01*
X92596900Y-52754147D01*
X92457519Y-52661015D01*
X92338985Y-52542481D01*
X92245853Y-52403100D01*
X92181703Y-52248228D01*
X92149000Y-52083816D01*
X92149000Y-51916184D01*
X92181703Y-51751772D01*
X92245853Y-51596900D01*
X92338985Y-51457519D01*
X92457519Y-51338985D01*
X92596900Y-51245853D01*
X92751772Y-51181703D01*
X92916184Y-51149000D01*
X93083816Y-51149000D01*
X93248228Y-51181703D01*
G37*
G36*
X72928228Y-51181703D02*
G01*
X73083100Y-51245853D01*
X73222481Y-51338985D01*
X73341015Y-51457519D01*
X73434147Y-51596900D01*
X73498297Y-51751772D01*
X73531000Y-51916184D01*
X73531000Y-52083816D01*
X73498297Y-52248228D01*
X73434147Y-52403100D01*
X73341015Y-52542481D01*
X73222481Y-52661015D01*
X73083100Y-52754147D01*
X72928228Y-52818297D01*
X72763816Y-52851000D01*
X72596184Y-52851000D01*
X72431772Y-52818297D01*
X72276900Y-52754147D01*
X72137519Y-52661015D01*
X72018985Y-52542481D01*
X71925853Y-52403100D01*
X71861703Y-52248228D01*
X71829000Y-52083816D01*
X71829000Y-51916184D01*
X71861703Y-51751772D01*
X71925853Y-51596900D01*
X72018985Y-51457519D01*
X72137519Y-51338985D01*
X72276900Y-51245853D01*
X72431772Y-51181703D01*
X72596184Y-51149000D01*
X72763816Y-51149000D01*
X72928228Y-51181703D01*
G37*
G36*
X68237142Y-50825042D02*
G01*
X68385101Y-50886329D01*
X68518255Y-50975299D01*
X68631501Y-51088545D01*
X68720471Y-51221699D01*
X68781758Y-51369658D01*
X68813000Y-51526725D01*
X68813000Y-51686875D01*
X68781758Y-51843942D01*
X68720471Y-51991901D01*
X68631501Y-52125055D01*
X68518255Y-52238301D01*
X68385101Y-52327271D01*
X68237142Y-52388558D01*
X68080075Y-52419800D01*
X67919925Y-52419800D01*
X67762858Y-52388558D01*
X67614899Y-52327271D01*
X67481745Y-52238301D01*
X67368499Y-52125055D01*
X67279529Y-51991901D01*
X67218242Y-51843942D01*
X67187000Y-51686875D01*
X67187000Y-51526725D01*
X67218242Y-51369658D01*
X67279529Y-51221699D01*
X67368499Y-51088545D01*
X67481745Y-50975299D01*
X67614899Y-50886329D01*
X67762858Y-50825042D01*
X67919925Y-50793800D01*
X68080075Y-50793800D01*
X68237142Y-50825042D01*
G37*
G36*
X61125142Y-50825042D02*
G01*
X61273101Y-50886329D01*
X61406255Y-50975299D01*
X61519501Y-51088545D01*
X61608471Y-51221699D01*
X61669758Y-51369658D01*
X61701000Y-51526725D01*
X61701000Y-51686875D01*
X61669758Y-51843942D01*
X61608471Y-51991901D01*
X61519501Y-52125055D01*
X61406255Y-52238301D01*
X61273101Y-52327271D01*
X61125142Y-52388558D01*
X60968075Y-52419800D01*
X60807925Y-52419800D01*
X60650858Y-52388558D01*
X60502899Y-52327271D01*
X60369745Y-52238301D01*
X60256499Y-52125055D01*
X60167529Y-51991901D01*
X60106242Y-51843942D01*
X60075000Y-51686875D01*
X60075000Y-51526725D01*
X60106242Y-51369658D01*
X60167529Y-51221699D01*
X60256499Y-51088545D01*
X60369745Y-50975299D01*
X60502899Y-50886329D01*
X60650858Y-50825042D01*
X60807925Y-50793800D01*
X60968075Y-50793800D01*
X61125142Y-50825042D01*
G37*
G36*
X28379487Y-47748996D02*
G01*
X28616253Y-47847068D01*
X28616255Y-47847069D01*
X28829339Y-47989447D01*
X29010553Y-48170661D01*
X29137896Y-48361243D01*
X29152932Y-48383747D01*
X29251004Y-48620513D01*
X29301000Y-48871861D01*
X29301000Y-49128139D01*
X29251004Y-49379487D01*
X29165854Y-49585057D01*
X29152931Y-49616255D01*
X29010553Y-49829339D01*
X28829339Y-50010553D01*
X28616255Y-50152931D01*
X28616254Y-50152932D01*
X28616253Y-50152932D01*
X28379487Y-50251004D01*
X28128139Y-50301000D01*
X27871861Y-50301000D01*
X27620513Y-50251004D01*
X27383747Y-50152932D01*
X27383746Y-50152932D01*
X27383745Y-50152931D01*
X27170661Y-50010553D01*
X26989447Y-49829339D01*
X26847069Y-49616255D01*
X26834146Y-49585057D01*
X26748996Y-49379487D01*
X26699000Y-49128139D01*
X26699000Y-48871861D01*
X26748996Y-48620513D01*
X26847068Y-48383747D01*
X26862105Y-48361243D01*
X26989447Y-48170661D01*
X27170661Y-47989447D01*
X27383745Y-47847069D01*
X27383747Y-47847068D01*
X27620513Y-47748996D01*
X27871861Y-47699000D01*
X28128139Y-47699000D01*
X28379487Y-47748996D01*
G37*
G36*
X61125142Y-48361242D02*
G01*
X61273101Y-48422529D01*
X61406255Y-48511499D01*
X61519501Y-48624745D01*
X61608471Y-48757899D01*
X61669758Y-48905858D01*
X61701000Y-49062925D01*
X61701000Y-49223075D01*
X61669758Y-49380142D01*
X61608471Y-49528101D01*
X61519501Y-49661255D01*
X61406255Y-49774501D01*
X61273101Y-49863471D01*
X61125142Y-49924758D01*
X60968075Y-49956000D01*
X60807925Y-49956000D01*
X60650858Y-49924758D01*
X60502899Y-49863471D01*
X60369745Y-49774501D01*
X60256499Y-49661255D01*
X60167529Y-49528101D01*
X60106242Y-49380142D01*
X60075000Y-49223075D01*
X60075000Y-49062925D01*
X60106242Y-48905858D01*
X60167529Y-48757899D01*
X60256499Y-48624745D01*
X60369745Y-48511499D01*
X60502899Y-48422529D01*
X60650858Y-48361242D01*
X60807925Y-48330000D01*
X60968075Y-48330000D01*
X61125142Y-48361242D01*
G37*
G36*
X68237142Y-48285042D02*
G01*
X68385101Y-48346329D01*
X68518255Y-48435299D01*
X68631501Y-48548545D01*
X68720471Y-48681699D01*
X68781758Y-48829658D01*
X68813000Y-48986725D01*
X68813000Y-49146875D01*
X68781758Y-49303942D01*
X68720471Y-49451901D01*
X68631501Y-49585055D01*
X68518255Y-49698301D01*
X68385101Y-49787271D01*
X68237142Y-49848558D01*
X68080075Y-49879800D01*
X67919925Y-49879800D01*
X67762858Y-49848558D01*
X67614899Y-49787271D01*
X67481745Y-49698301D01*
X67368499Y-49585055D01*
X67279529Y-49451901D01*
X67218242Y-49303942D01*
X67187000Y-49146875D01*
X67187000Y-48986725D01*
X67218242Y-48829658D01*
X67279529Y-48681699D01*
X67368499Y-48548545D01*
X67481745Y-48435299D01*
X67614899Y-48346329D01*
X67762858Y-48285042D01*
X67919925Y-48253800D01*
X68080075Y-48253800D01*
X68237142Y-48285042D01*
G37*
G36*
X61125142Y-45922842D02*
G01*
X61273101Y-45984129D01*
X61406255Y-46073099D01*
X61519501Y-46186345D01*
X61608471Y-46319499D01*
X61669758Y-46467458D01*
X61701000Y-46624525D01*
X61701000Y-46784675D01*
X61669758Y-46941742D01*
X61608471Y-47089701D01*
X61519501Y-47222855D01*
X61406255Y-47336101D01*
X61273101Y-47425071D01*
X61125142Y-47486358D01*
X60968075Y-47517600D01*
X60807925Y-47517600D01*
X60650858Y-47486358D01*
X60502899Y-47425071D01*
X60369745Y-47336101D01*
X60256499Y-47222855D01*
X60167529Y-47089701D01*
X60106242Y-46941742D01*
X60075000Y-46784675D01*
X60075000Y-46624525D01*
X60106242Y-46467458D01*
X60167529Y-46319499D01*
X60256499Y-46186345D01*
X60369745Y-46073099D01*
X60502899Y-45984129D01*
X60650858Y-45922842D01*
X60807925Y-45891600D01*
X60968075Y-45891600D01*
X61125142Y-45922842D01*
G37*
G36*
X68237142Y-45821242D02*
G01*
X68385101Y-45882529D01*
X68518255Y-45971499D01*
X68631501Y-46084745D01*
X68720471Y-46217899D01*
X68781758Y-46365858D01*
X68813000Y-46522925D01*
X68813000Y-46683075D01*
X68781758Y-46840142D01*
X68720471Y-46988101D01*
X68631501Y-47121255D01*
X68518255Y-47234501D01*
X68385101Y-47323471D01*
X68237142Y-47384758D01*
X68080075Y-47416000D01*
X67919925Y-47416000D01*
X67762858Y-47384758D01*
X67614899Y-47323471D01*
X67481745Y-47234501D01*
X67368499Y-47121255D01*
X67279529Y-46988101D01*
X67218242Y-46840142D01*
X67187000Y-46683075D01*
X67187000Y-46522925D01*
X67218242Y-46365858D01*
X67279529Y-46217899D01*
X67368499Y-46084745D01*
X67481745Y-45971499D01*
X67614899Y-45882529D01*
X67762858Y-45821242D01*
X67919925Y-45790000D01*
X68080075Y-45790000D01*
X68237142Y-45821242D01*
G37*
G36*
X93248228Y-45181703D02*
G01*
X93403100Y-45245853D01*
X93542481Y-45338985D01*
X93661015Y-45457519D01*
X93754147Y-45596900D01*
X93818297Y-45751772D01*
X93851000Y-45916184D01*
X93851000Y-46083816D01*
X93818297Y-46248228D01*
X93754147Y-46403100D01*
X93661015Y-46542481D01*
X93542481Y-46661015D01*
X93403100Y-46754147D01*
X93248228Y-46818297D01*
X93083816Y-46851000D01*
X92916184Y-46851000D01*
X92751772Y-46818297D01*
X92596900Y-46754147D01*
X92457519Y-46661015D01*
X92338985Y-46542481D01*
X92245853Y-46403100D01*
X92181703Y-46248228D01*
X92149000Y-46083816D01*
X92149000Y-45916184D01*
X92181703Y-45751772D01*
X92245853Y-45596900D01*
X92338985Y-45457519D01*
X92457519Y-45338985D01*
X92596900Y-45245853D01*
X92751772Y-45181703D01*
X92916184Y-45149000D01*
X93083816Y-45149000D01*
X93248228Y-45181703D01*
G37*
G36*
X72928228Y-45181703D02*
G01*
X73083100Y-45245853D01*
X73222481Y-45338985D01*
X73341015Y-45457519D01*
X73434147Y-45596900D01*
X73498297Y-45751772D01*
X73531000Y-45916184D01*
X73531000Y-46083816D01*
X73498297Y-46248228D01*
X73434147Y-46403100D01*
X73341015Y-46542481D01*
X73222481Y-46661015D01*
X73083100Y-46754147D01*
X72928228Y-46818297D01*
X72763816Y-46851000D01*
X72596184Y-46851000D01*
X72431772Y-46818297D01*
X72276900Y-46754147D01*
X72137519Y-46661015D01*
X72018985Y-46542481D01*
X71925853Y-46403100D01*
X71861703Y-46248228D01*
X71829000Y-46083816D01*
X71829000Y-45916184D01*
X71861703Y-45751772D01*
X71925853Y-45596900D01*
X72018985Y-45457519D01*
X72137519Y-45338985D01*
X72276900Y-45245853D01*
X72431772Y-45181703D01*
X72596184Y-45149000D01*
X72763816Y-45149000D01*
X72928228Y-45181703D01*
G37*
G36*
X61125142Y-43484442D02*
G01*
X61273101Y-43545729D01*
X61406255Y-43634699D01*
X61519501Y-43747945D01*
X61608471Y-43881099D01*
X61669758Y-44029058D01*
X61701000Y-44186125D01*
X61701000Y-44346275D01*
X61669758Y-44503342D01*
X61608471Y-44651301D01*
X61519501Y-44784455D01*
X61406255Y-44897701D01*
X61273101Y-44986671D01*
X61125142Y-45047958D01*
X60968075Y-45079200D01*
X60807925Y-45079200D01*
X60650858Y-45047958D01*
X60502899Y-44986671D01*
X60369745Y-44897701D01*
X60256499Y-44784455D01*
X60167529Y-44651301D01*
X60106242Y-44503342D01*
X60075000Y-44346275D01*
X60075000Y-44186125D01*
X60106242Y-44029058D01*
X60167529Y-43881099D01*
X60256499Y-43747945D01*
X60369745Y-43634699D01*
X60502899Y-43545729D01*
X60650858Y-43484442D01*
X60807925Y-43453200D01*
X60968075Y-43453200D01*
X61125142Y-43484442D01*
G37*
G36*
X68237142Y-43382842D02*
G01*
X68385101Y-43444129D01*
X68518255Y-43533099D01*
X68631501Y-43646345D01*
X68720471Y-43779499D01*
X68781758Y-43927458D01*
X68813000Y-44084525D01*
X68813000Y-44244675D01*
X68781758Y-44401742D01*
X68720471Y-44549701D01*
X68631501Y-44682855D01*
X68518255Y-44796101D01*
X68385101Y-44885071D01*
X68237142Y-44946358D01*
X68080075Y-44977600D01*
X67919925Y-44977600D01*
X67762858Y-44946358D01*
X67614899Y-44885071D01*
X67481745Y-44796101D01*
X67368499Y-44682855D01*
X67279529Y-44549701D01*
X67218242Y-44401742D01*
X67187000Y-44244675D01*
X67187000Y-44084525D01*
X67218242Y-43927458D01*
X67279529Y-43779499D01*
X67368499Y-43646345D01*
X67481745Y-43533099D01*
X67614899Y-43444129D01*
X67762858Y-43382842D01*
X67919925Y-43351600D01*
X68080075Y-43351600D01*
X68237142Y-43382842D01*
G37*
G36*
X93568228Y-40181703D02*
G01*
X93723100Y-40245853D01*
X93862481Y-40338985D01*
X93981015Y-40457519D01*
X94074147Y-40596900D01*
X94138297Y-40751772D01*
X94171000Y-40916184D01*
X94171000Y-41083816D01*
X94138297Y-41248228D01*
X94074147Y-41403100D01*
X93981015Y-41542481D01*
X93862481Y-41661015D01*
X93723100Y-41754147D01*
X93568228Y-41818297D01*
X93403816Y-41851000D01*
X93236184Y-41851000D01*
X93071772Y-41818297D01*
X92916900Y-41754147D01*
X92777519Y-41661015D01*
X92658985Y-41542481D01*
X92565853Y-41403100D01*
X92501703Y-41248228D01*
X92469000Y-41083816D01*
X92469000Y-40916184D01*
X92501703Y-40751772D01*
X92565853Y-40596900D01*
X92658985Y-40457519D01*
X92777519Y-40338985D01*
X92916900Y-40245853D01*
X93071772Y-40181703D01*
X93236184Y-40149000D01*
X93403816Y-40149000D01*
X93568228Y-40181703D01*
G37*
G36*
X73248228Y-40181703D02*
G01*
X73403100Y-40245853D01*
X73542481Y-40338985D01*
X73661015Y-40457519D01*
X73754147Y-40596900D01*
X73818297Y-40751772D01*
X73851000Y-40916184D01*
X73851000Y-41083816D01*
X73818297Y-41248228D01*
X73754147Y-41403100D01*
X73661015Y-41542481D01*
X73542481Y-41661015D01*
X73403100Y-41754147D01*
X73248228Y-41818297D01*
X73083816Y-41851000D01*
X72916184Y-41851000D01*
X72751772Y-41818297D01*
X72596900Y-41754147D01*
X72457519Y-41661015D01*
X72338985Y-41542481D01*
X72245853Y-41403100D01*
X72181703Y-41248228D01*
X72149000Y-41083816D01*
X72149000Y-40916184D01*
X72181703Y-40751772D01*
X72245853Y-40596900D01*
X72338985Y-40457519D01*
X72457519Y-40338985D01*
X72596900Y-40245853D01*
X72751772Y-40181703D01*
X72916184Y-40149000D01*
X73083816Y-40149000D01*
X73248228Y-40181703D01*
G37*
G36*
X93568228Y-35181703D02*
G01*
X93723100Y-35245853D01*
X93862481Y-35338985D01*
X93981015Y-35457519D01*
X94074147Y-35596900D01*
X94138297Y-35751772D01*
X94171000Y-35916184D01*
X94171000Y-36083816D01*
X94138297Y-36248228D01*
X94074147Y-36403100D01*
X93981015Y-36542481D01*
X93862481Y-36661015D01*
X93723100Y-36754147D01*
X93568228Y-36818297D01*
X93403816Y-36851000D01*
X93236184Y-36851000D01*
X93071772Y-36818297D01*
X92916900Y-36754147D01*
X92777519Y-36661015D01*
X92658985Y-36542481D01*
X92565853Y-36403100D01*
X92501703Y-36248228D01*
X92469000Y-36083816D01*
X92469000Y-35916184D01*
X92501703Y-35751772D01*
X92565853Y-35596900D01*
X92658985Y-35457519D01*
X92777519Y-35338985D01*
X92916900Y-35245853D01*
X93071772Y-35181703D01*
X93236184Y-35149000D01*
X93403816Y-35149000D01*
X93568228Y-35181703D01*
G37*
G36*
X73248228Y-35181703D02*
G01*
X73403100Y-35245853D01*
X73542481Y-35338985D01*
X73661015Y-35457519D01*
X73754147Y-35596900D01*
X73818297Y-35751772D01*
X73851000Y-35916184D01*
X73851000Y-36083816D01*
X73818297Y-36248228D01*
X73754147Y-36403100D01*
X73661015Y-36542481D01*
X73542481Y-36661015D01*
X73403100Y-36754147D01*
X73248228Y-36818297D01*
X73083816Y-36851000D01*
X72916184Y-36851000D01*
X72751772Y-36818297D01*
X72596900Y-36754147D01*
X72457519Y-36661015D01*
X72338985Y-36542481D01*
X72245853Y-36403100D01*
X72181703Y-36248228D01*
X72149000Y-36083816D01*
X72149000Y-35916184D01*
X72181703Y-35751772D01*
X72245853Y-35596900D01*
X72338985Y-35457519D01*
X72457519Y-35338985D01*
X72596900Y-35245853D01*
X72751772Y-35181703D01*
X72916184Y-35149000D01*
X73083816Y-35149000D01*
X73248228Y-35181703D01*
G37*
G36*
X55248228Y-34861703D02*
G01*
X55403100Y-34925853D01*
X55542481Y-35018985D01*
X55661015Y-35137519D01*
X55754147Y-35276900D01*
X55818297Y-35431772D01*
X55851000Y-35596184D01*
X55851000Y-35763816D01*
X55818297Y-35928228D01*
X55754147Y-36083100D01*
X55661015Y-36222481D01*
X55542481Y-36341015D01*
X55403100Y-36434147D01*
X55248228Y-36498297D01*
X55083816Y-36531000D01*
X54916184Y-36531000D01*
X54751772Y-36498297D01*
X54596900Y-36434147D01*
X54457519Y-36341015D01*
X54338985Y-36222481D01*
X54245853Y-36083100D01*
X54181703Y-35928228D01*
X54149000Y-35763816D01*
X54149000Y-35596184D01*
X54181703Y-35431772D01*
X54245853Y-35276900D01*
X54338985Y-35137519D01*
X54457519Y-35018985D01*
X54596900Y-34925853D01*
X54751772Y-34861703D01*
X54916184Y-34829000D01*
X55083816Y-34829000D01*
X55248228Y-34861703D01*
G37*
G36*
X49248228Y-34861703D02*
G01*
X49403100Y-34925853D01*
X49542481Y-35018985D01*
X49661015Y-35137519D01*
X49754147Y-35276900D01*
X49818297Y-35431772D01*
X49851000Y-35596184D01*
X49851000Y-35763816D01*
X49818297Y-35928228D01*
X49754147Y-36083100D01*
X49661015Y-36222481D01*
X49542481Y-36341015D01*
X49403100Y-36434147D01*
X49248228Y-36498297D01*
X49083816Y-36531000D01*
X48916184Y-36531000D01*
X48751772Y-36498297D01*
X48596900Y-36434147D01*
X48457519Y-36341015D01*
X48338985Y-36222481D01*
X48245853Y-36083100D01*
X48181703Y-35928228D01*
X48149000Y-35763816D01*
X48149000Y-35596184D01*
X48181703Y-35431772D01*
X48245853Y-35276900D01*
X48338985Y-35137519D01*
X48457519Y-35018985D01*
X48596900Y-34925853D01*
X48751772Y-34861703D01*
X48916184Y-34829000D01*
X49083816Y-34829000D01*
X49248228Y-34861703D01*
G37*
G36*
X43248228Y-34861703D02*
G01*
X43403100Y-34925853D01*
X43542481Y-35018985D01*
X43661015Y-35137519D01*
X43754147Y-35276900D01*
X43818297Y-35431772D01*
X43851000Y-35596184D01*
X43851000Y-35763816D01*
X43818297Y-35928228D01*
X43754147Y-36083100D01*
X43661015Y-36222481D01*
X43542481Y-36341015D01*
X43403100Y-36434147D01*
X43248228Y-36498297D01*
X43083816Y-36531000D01*
X42916184Y-36531000D01*
X42751772Y-36498297D01*
X42596900Y-36434147D01*
X42457519Y-36341015D01*
X42338985Y-36222481D01*
X42245853Y-36083100D01*
X42181703Y-35928228D01*
X42149000Y-35763816D01*
X42149000Y-35596184D01*
X42181703Y-35431772D01*
X42245853Y-35276900D01*
X42338985Y-35137519D01*
X42457519Y-35018985D01*
X42596900Y-34925853D01*
X42751772Y-34861703D01*
X42916184Y-34829000D01*
X43083816Y-34829000D01*
X43248228Y-34861703D01*
G37*
G36*
X61651000Y-34720109D02*
G01*
X61653402Y-34744495D01*
X61660515Y-34767944D01*
X61672066Y-34789555D01*
X61687611Y-34808497D01*
X61706553Y-34824042D01*
X61728164Y-34835593D01*
X61751613Y-34842706D01*
X61775999Y-34845108D01*
X61800385Y-34842706D01*
X61823834Y-34835593D01*
X61845445Y-34824042D01*
X61864387Y-34808497D01*
X61879932Y-34789555D01*
X61891483Y-34767944D01*
X61923090Y-34691638D01*
X61994335Y-34585012D01*
X62085012Y-34494335D01*
X62191636Y-34423091D01*
X62310110Y-34374017D01*
X62435881Y-34349000D01*
X62564119Y-34349000D01*
X62689890Y-34374017D01*
X62808364Y-34423091D01*
X62914988Y-34494335D01*
X63005665Y-34585012D01*
X63076909Y-34691636D01*
X63125983Y-34810110D01*
X63151000Y-34935882D01*
X63151000Y-35064118D01*
X63125983Y-35189890D01*
X63076909Y-35308364D01*
X63005665Y-35414988D01*
X62914988Y-35505665D01*
X62808364Y-35576909D01*
X62808363Y-35576910D01*
X62808362Y-35576910D01*
X62689890Y-35625983D01*
X62564119Y-35651000D01*
X62435881Y-35651000D01*
X62310110Y-35625983D01*
X62191638Y-35576910D01*
X62191637Y-35576910D01*
X62191636Y-35576909D01*
X62085012Y-35505665D01*
X61994335Y-35414988D01*
X61923091Y-35308364D01*
X61891483Y-35232055D01*
X61879932Y-35210445D01*
X61864387Y-35191503D01*
X61845445Y-35175958D01*
X61823834Y-35164407D01*
X61800385Y-35157294D01*
X61775999Y-35154892D01*
X61751613Y-35157294D01*
X61728164Y-35164407D01*
X61706553Y-35175958D01*
X61687611Y-35191503D01*
X61672066Y-35210445D01*
X61660515Y-35232056D01*
X61653402Y-35255505D01*
X61651000Y-35279891D01*
X61651000Y-35651000D01*
X60349000Y-35651000D01*
X60349000Y-34349000D01*
X61651000Y-34349000D01*
X61651000Y-34720109D01*
G37*
G36*
X67651000Y-34720109D02*
G01*
X67653402Y-34744495D01*
X67660515Y-34767944D01*
X67672066Y-34789555D01*
X67687611Y-34808497D01*
X67706553Y-34824042D01*
X67728164Y-34835593D01*
X67751613Y-34842706D01*
X67775999Y-34845108D01*
X67800385Y-34842706D01*
X67823834Y-34835593D01*
X67845445Y-34824042D01*
X67864387Y-34808497D01*
X67879932Y-34789555D01*
X67891483Y-34767944D01*
X67923090Y-34691638D01*
X67994335Y-34585012D01*
X68085012Y-34494335D01*
X68191636Y-34423091D01*
X68310110Y-34374017D01*
X68435881Y-34349000D01*
X68564119Y-34349000D01*
X68689890Y-34374017D01*
X68808364Y-34423091D01*
X68914988Y-34494335D01*
X69005665Y-34585012D01*
X69076909Y-34691636D01*
X69125983Y-34810110D01*
X69151000Y-34935882D01*
X69151000Y-35064118D01*
X69125983Y-35189890D01*
X69076909Y-35308364D01*
X69005665Y-35414988D01*
X68914988Y-35505665D01*
X68808364Y-35576909D01*
X68808363Y-35576910D01*
X68808362Y-35576910D01*
X68689890Y-35625983D01*
X68564119Y-35651000D01*
X68435881Y-35651000D01*
X68310110Y-35625983D01*
X68191638Y-35576910D01*
X68191637Y-35576910D01*
X68191636Y-35576909D01*
X68085012Y-35505665D01*
X67994335Y-35414988D01*
X67923091Y-35308364D01*
X67891483Y-35232055D01*
X67879932Y-35210445D01*
X67864387Y-35191503D01*
X67845445Y-35175958D01*
X67823834Y-35164407D01*
X67800385Y-35157294D01*
X67775999Y-35154892D01*
X67751613Y-35157294D01*
X67728164Y-35164407D01*
X67706553Y-35175958D01*
X67687611Y-35191503D01*
X67672066Y-35210445D01*
X67660515Y-35232056D01*
X67653402Y-35255505D01*
X67651000Y-35279891D01*
X67651000Y-35651000D01*
X66349000Y-35651000D01*
X66349000Y-34349000D01*
X67651000Y-34349000D01*
X67651000Y-34720109D01*
G37*
G36*
X29136000Y-30136000D02*
G01*
X26864000Y-30136000D01*
X26864000Y-27864000D01*
X29136000Y-27864000D01*
X29136000Y-30136000D01*
G37*
G36*
X56337916Y-25892334D02*
G01*
X56446492Y-25925271D01*
X56446495Y-25925272D01*
X56482601Y-25944571D01*
X56546557Y-25978756D01*
X56634264Y-26050736D01*
X56706244Y-26138443D01*
X56740429Y-26202399D01*
X56759728Y-26238505D01*
X56759729Y-26238508D01*
X56792666Y-26347084D01*
X56803787Y-26460000D01*
X56792666Y-26572916D01*
X56759729Y-26681492D01*
X56759728Y-26681495D01*
X56740429Y-26717601D01*
X56706244Y-26781557D01*
X56634264Y-26869264D01*
X56546557Y-26941244D01*
X56465141Y-26984761D01*
X56444766Y-26998375D01*
X56427439Y-27015702D01*
X56413826Y-27036076D01*
X56404448Y-27058715D01*
X56399668Y-27082748D01*
X56399668Y-27107252D01*
X56404448Y-27131285D01*
X56413826Y-27153924D01*
X56427440Y-27174299D01*
X56444767Y-27191626D01*
X56465141Y-27205239D01*
X56546557Y-27248756D01*
X56634264Y-27320736D01*
X56706244Y-27408443D01*
X56740429Y-27472399D01*
X56759728Y-27508505D01*
X56759729Y-27508508D01*
X56792666Y-27617084D01*
X56803787Y-27730000D01*
X56792666Y-27842916D01*
X56759729Y-27951492D01*
X56759728Y-27951495D01*
X56740429Y-27987601D01*
X56706244Y-28051557D01*
X56634264Y-28139264D01*
X56557354Y-28202383D01*
X56540035Y-28219702D01*
X56526421Y-28240077D01*
X56517043Y-28262716D01*
X56512263Y-28286749D01*
X56512263Y-28311253D01*
X56517043Y-28335286D01*
X56526421Y-28357925D01*
X56540034Y-28378299D01*
X56557361Y-28395626D01*
X56577736Y-28409240D01*
X56600375Y-28418618D01*
X56624408Y-28423398D01*
X56636660Y-28424000D01*
X56801000Y-28424000D01*
X56801000Y-29576000D01*
X55199000Y-29576000D01*
X55199000Y-28424000D01*
X55363340Y-28424000D01*
X55387726Y-28421598D01*
X55411175Y-28414485D01*
X55432786Y-28402934D01*
X55451728Y-28387389D01*
X55467273Y-28368447D01*
X55478824Y-28346836D01*
X55485937Y-28323387D01*
X55488339Y-28299001D01*
X55485937Y-28274615D01*
X55478824Y-28251166D01*
X55467273Y-28229555D01*
X55451728Y-28210613D01*
X55442655Y-28202391D01*
X55365736Y-28139264D01*
X55293756Y-28051557D01*
X55259571Y-27987601D01*
X55240272Y-27951495D01*
X55240271Y-27951492D01*
X55207334Y-27842916D01*
X55196213Y-27730000D01*
X55207334Y-27617084D01*
X55240271Y-27508508D01*
X55240272Y-27508505D01*
X55259571Y-27472399D01*
X55293756Y-27408443D01*
X55365736Y-27320736D01*
X55453443Y-27248756D01*
X55534859Y-27205239D01*
X55555234Y-27191625D01*
X55572561Y-27174298D01*
X55586174Y-27153924D01*
X55595552Y-27131285D01*
X55600332Y-27107252D01*
X55600332Y-27082748D01*
X55595552Y-27058715D01*
X55586174Y-27036076D01*
X55572560Y-27015701D01*
X55555233Y-26998374D01*
X55534859Y-26984761D01*
X55453443Y-26941244D01*
X55365736Y-26869264D01*
X55293756Y-26781557D01*
X55259571Y-26717601D01*
X55240272Y-26681495D01*
X55240271Y-26681492D01*
X55207334Y-26572916D01*
X55196213Y-26460000D01*
X55207334Y-26347084D01*
X55240271Y-26238508D01*
X55240272Y-26238505D01*
X55259571Y-26202399D01*
X55293756Y-26138443D01*
X55365736Y-26050736D01*
X55453443Y-25978756D01*
X55517399Y-25944571D01*
X55553505Y-25925272D01*
X55553508Y-25925271D01*
X55662084Y-25892334D01*
X55746702Y-25884000D01*
X56253298Y-25884000D01*
X56337916Y-25892334D01*
G37*
G36*
X82277395Y-27625546D02*
G01*
X82450466Y-27697234D01*
X82450467Y-27697235D01*
X82606227Y-27801310D01*
X82738690Y-27933773D01*
X82738691Y-27933775D01*
X82842766Y-28089534D01*
X82914454Y-28262605D01*
X82951000Y-28446333D01*
X82951000Y-28633667D01*
X82914454Y-28817395D01*
X82842766Y-28990466D01*
X82842765Y-28990467D01*
X82738690Y-29146227D01*
X82606227Y-29278690D01*
X82527818Y-29331081D01*
X82450466Y-29382766D01*
X82277395Y-29454454D01*
X82093667Y-29491000D01*
X81906333Y-29491000D01*
X81722605Y-29454454D01*
X81549534Y-29382766D01*
X81472182Y-29331081D01*
X81393773Y-29278690D01*
X81261310Y-29146227D01*
X81157235Y-28990467D01*
X81157234Y-28990466D01*
X81085546Y-28817395D01*
X81049000Y-28633667D01*
X81049000Y-28446333D01*
X81085546Y-28262605D01*
X81157234Y-28089534D01*
X81261309Y-27933775D01*
X81261310Y-27933773D01*
X81393773Y-27801310D01*
X81549533Y-27697235D01*
X81549534Y-27697234D01*
X81722605Y-27625546D01*
X81906333Y-27589000D01*
X82093667Y-27589000D01*
X82277395Y-27625546D01*
G37*
G36*
X93277395Y-27625546D02*
G01*
X93450466Y-27697234D01*
X93450467Y-27697235D01*
X93606227Y-27801310D01*
X93738690Y-27933773D01*
X93738691Y-27933775D01*
X93842766Y-28089534D01*
X93914454Y-28262605D01*
X93951000Y-28446333D01*
X93951000Y-28633667D01*
X93914454Y-28817395D01*
X93842766Y-28990466D01*
X93842765Y-28990467D01*
X93738690Y-29146227D01*
X93606227Y-29278690D01*
X93527818Y-29331081D01*
X93450466Y-29382766D01*
X93277395Y-29454454D01*
X93093667Y-29491000D01*
X92906333Y-29491000D01*
X92722605Y-29454454D01*
X92549534Y-29382766D01*
X92472182Y-29331081D01*
X92393773Y-29278690D01*
X92261310Y-29146227D01*
X92157235Y-28990467D01*
X92157234Y-28990466D01*
X92085546Y-28817395D01*
X92049000Y-28633667D01*
X92049000Y-28446333D01*
X92085546Y-28262605D01*
X92157234Y-28089534D01*
X92261309Y-27933775D01*
X92261310Y-27933773D01*
X92393773Y-27801310D01*
X92549533Y-27697235D01*
X92549534Y-27697234D01*
X92722605Y-27625546D01*
X92906333Y-27589000D01*
X93093667Y-27589000D01*
X93277395Y-27625546D01*
G37*
G36*
X93951000Y-26951000D02*
G01*
X92049000Y-26951000D01*
X92049000Y-25049000D01*
X93951000Y-25049000D01*
X93951000Y-26951000D01*
G37*
G36*
X82951000Y-26951000D02*
G01*
X81049000Y-26951000D01*
X81049000Y-25049000D01*
X82951000Y-25049000D01*
X82951000Y-26951000D01*
G37*
M02*
