G04 #@! TF.GenerationSoftware,KiCad,Pcbnew,(5.1.5)-3*
G04 #@! TF.CreationDate,2019-12-22T13:16:54-05:00*
G04 #@! TF.ProjectId,557_circuit,3535375f-6369-4726-9375-69742e6b6963,rev?*
G04 #@! TF.SameCoordinates,Original*
G04 #@! TF.FileFunction,Copper,L1,Top*
G04 #@! TF.FilePolarity,Positive*
%FSLAX46Y46*%
G04 Gerber Fmt 4.6, Leading zero omitted, Abs format (unit mm)*
G04 Created by KiCad (PCBNEW (5.1.5)-3) date 2019-12-22 13:16:54*
%MOMM*%
%LPD*%
G04 APERTURE LIST*
%ADD10C,1.900000*%
%ADD11R,1.900000X1.900000*%
%ADD12C,2.500000*%
%ADD13R,2.170000X2.170000*%
%ADD14C,1.524000*%
%ADD15R,1.200000X1.200000*%
%ADD16C,1.200000*%
%ADD17R,1.800000X1.800000*%
%ADD18C,1.800000*%
%ADD19O,1.500000X1.050000*%
%ADD20R,1.500000X1.050000*%
%ADD21O,1.600000X1.600000*%
%ADD22C,1.600000*%
G04 APERTURE END LIST*
D10*
X20000000Y-57000000D03*
X22500000Y-57000000D03*
D11*
X25000000Y-57000000D03*
D12*
X28000000Y-49000000D03*
D13*
X28000000Y-29000000D03*
D14*
X68000000Y-44164600D03*
X68000000Y-46603000D03*
X68000000Y-49066800D03*
X68000000Y-51606800D03*
X68000000Y-51606800D03*
X68000000Y-49066800D03*
X68000000Y-46603000D03*
X68000000Y-44164600D03*
X60888000Y-51606800D03*
X60888000Y-49143000D03*
X60888000Y-46704600D03*
X60888000Y-44266200D03*
D15*
X61000000Y-35000000D03*
D16*
X62500000Y-35000000D03*
X68500000Y-35000000D03*
D15*
X67000000Y-35000000D03*
D17*
X93000000Y-26000000D03*
D18*
X93000000Y-28540000D03*
X82000000Y-28540000D03*
D17*
X82000000Y-26000000D03*
D19*
X56000000Y-27730000D03*
X56000000Y-26460000D03*
D20*
X56000000Y-29000000D03*
D21*
X55000000Y-35680000D03*
D22*
X55000000Y-56000000D03*
X73000000Y-41000000D03*
D21*
X93320000Y-41000000D03*
X72680000Y-46000000D03*
D22*
X93000000Y-46000000D03*
X93000000Y-52000000D03*
D21*
X72680000Y-52000000D03*
D22*
X73000000Y-36000000D03*
D21*
X93320000Y-36000000D03*
X49000000Y-35680000D03*
D22*
X49000000Y-56000000D03*
X43000000Y-56000000D03*
D21*
X43000000Y-35680000D03*
M02*
