G04 #@! TF.GenerationSoftware,KiCad,Pcbnew,(5.1.5)-3*
G04 #@! TF.CreationDate,2019-12-22T13:16:54-05:00*
G04 #@! TF.ProjectId,557_circuit,3535375f-6369-4726-9375-69742e6b6963,rev?*
G04 #@! TF.SameCoordinates,Original*
G04 #@! TF.FileFunction,Copper,L2,Bot*
G04 #@! TF.FilePolarity,Positive*
%FSLAX46Y46*%
G04 Gerber Fmt 4.6, Leading zero omitted, Abs format (unit mm)*
G04 Created by KiCad (PCBNEW (5.1.5)-3) date 2019-12-22 13:16:54*
%MOMM*%
%LPD*%
G04 APERTURE LIST*
%ADD10C,1.900000*%
%ADD11R,1.900000X1.900000*%
%ADD12C,2.500000*%
%ADD13R,2.170000X2.170000*%
%ADD14C,1.524000*%
%ADD15R,1.200000X1.200000*%
%ADD16C,1.200000*%
%ADD17R,1.800000X1.800000*%
%ADD18C,1.800000*%
%ADD19O,1.500000X1.050000*%
%ADD20R,1.500000X1.050000*%
%ADD21O,1.600000X1.600000*%
%ADD22C,1.600000*%
%ADD23C,0.600000*%
%ADD24C,0.500000*%
%ADD25C,0.400000*%
%ADD26C,0.700000*%
%ADD27C,1.000000*%
%ADD28C,0.254000*%
G04 APERTURE END LIST*
D10*
X20000000Y-57000000D03*
X22500000Y-57000000D03*
D11*
X25000000Y-57000000D03*
D12*
X28000000Y-49000000D03*
D13*
X28000000Y-29000000D03*
D14*
X68000000Y-44164600D03*
X68000000Y-46603000D03*
X68000000Y-49066800D03*
X68000000Y-51606800D03*
X68000000Y-51606800D03*
X68000000Y-49066800D03*
X68000000Y-46603000D03*
X68000000Y-44164600D03*
X60888000Y-51606800D03*
X60888000Y-49143000D03*
X60888000Y-46704600D03*
X60888000Y-44266200D03*
D15*
X61000000Y-35000000D03*
D16*
X62500000Y-35000000D03*
X68500000Y-35000000D03*
D15*
X67000000Y-35000000D03*
D17*
X93000000Y-26000000D03*
D18*
X93000000Y-28540000D03*
X82000000Y-28540000D03*
D17*
X82000000Y-26000000D03*
D19*
X56000000Y-27730000D03*
X56000000Y-26460000D03*
D20*
X56000000Y-29000000D03*
D21*
X55000000Y-35680000D03*
D22*
X55000000Y-56000000D03*
X73000000Y-41000000D03*
D21*
X93320000Y-41000000D03*
X72680000Y-46000000D03*
D22*
X93000000Y-46000000D03*
X93000000Y-52000000D03*
D21*
X72680000Y-52000000D03*
D22*
X73000000Y-36000000D03*
D21*
X93320000Y-36000000D03*
X49000000Y-35680000D03*
D22*
X49000000Y-56000000D03*
X43000000Y-56000000D03*
D21*
X43000000Y-35680000D03*
D23*
X68000000Y-49066800D02*
X77000000Y-49066800D01*
X77000000Y-49066800D02*
X85253200Y-49066800D01*
X85253200Y-49066800D02*
X93320000Y-41000000D01*
D24*
X60888000Y-46704600D02*
X57704600Y-46704600D01*
X57000000Y-39000000D02*
X61000000Y-35000000D01*
X57000000Y-46000000D02*
X57000000Y-39000000D01*
X57704600Y-46704600D02*
X57000000Y-46000000D01*
D25*
X60888000Y-46704600D02*
X62295400Y-46704600D01*
X77000000Y-40000000D02*
X77000000Y-49066800D01*
X76000000Y-39000000D02*
X77000000Y-40000000D01*
X65000000Y-39000000D02*
X76000000Y-39000000D01*
X64000000Y-40000000D02*
X65000000Y-39000000D01*
X64000000Y-45000000D02*
X64000000Y-40000000D01*
X62295400Y-46704600D02*
X64000000Y-45000000D01*
X77000000Y-49066800D02*
X77000000Y-49000000D01*
X77000000Y-49000000D02*
X77000000Y-49066800D01*
D23*
X93320000Y-36000000D02*
X96000000Y-36000000D01*
X96000000Y-52000000D02*
X93000000Y-52000000D01*
X96000000Y-36000000D02*
X96000000Y-46000000D01*
X96000000Y-46000000D02*
X96000000Y-52000000D01*
X93000000Y-46000000D02*
X96000000Y-46000000D01*
D25*
X67000000Y-35000000D02*
X67000000Y-37000000D01*
X91320000Y-38000000D02*
X93320000Y-36000000D01*
X68000000Y-38000000D02*
X91320000Y-38000000D01*
X67000000Y-37000000D02*
X68000000Y-38000000D01*
D23*
X56000000Y-26460000D02*
X81540000Y-26460000D01*
X81540000Y-26460000D02*
X82000000Y-26000000D01*
X82000000Y-26000000D02*
X93000000Y-26000000D01*
D25*
X49000000Y-35680000D02*
X49000000Y-33000000D01*
X90540000Y-31000000D02*
X93000000Y-28540000D01*
X71000000Y-31000000D02*
X90540000Y-31000000D01*
X70000000Y-32000000D02*
X71000000Y-31000000D01*
X50000000Y-32000000D02*
X70000000Y-32000000D01*
X49000000Y-33000000D02*
X50000000Y-32000000D01*
X43000000Y-35680000D02*
X43000000Y-31000000D01*
X66460000Y-28540000D02*
X82000000Y-28540000D01*
X66000000Y-29000000D02*
X66460000Y-28540000D01*
X66000000Y-31000000D02*
X66000000Y-29000000D01*
X43000000Y-31000000D02*
X66000000Y-31000000D01*
X73000000Y-36000000D02*
X73000000Y-33000000D01*
X51730000Y-27730000D02*
X56000000Y-27730000D01*
X51000000Y-27000000D02*
X51730000Y-27730000D01*
X51000000Y-24000000D02*
X51000000Y-27000000D01*
X96000000Y-24000000D02*
X51000000Y-24000000D01*
X96000000Y-31000000D02*
X96000000Y-24000000D01*
X94000000Y-33000000D02*
X96000000Y-31000000D01*
X73000000Y-33000000D02*
X94000000Y-33000000D01*
D24*
X60888000Y-49143000D02*
X55143000Y-49143000D01*
X55000000Y-49000000D02*
X55000000Y-35680000D01*
X55143000Y-49143000D02*
X55000000Y-49000000D01*
D25*
X60888000Y-49143000D02*
X63857000Y-49143000D01*
X65000000Y-42000000D02*
X66000000Y-41000000D01*
X65000000Y-48000000D02*
X65000000Y-42000000D01*
X63857000Y-49143000D02*
X65000000Y-48000000D01*
D26*
X73000000Y-41000000D02*
X66000000Y-41000000D01*
D23*
X22500000Y-57000000D02*
X22500000Y-60500000D01*
X55000000Y-59000000D02*
X55000000Y-56000000D01*
X54000000Y-60000000D02*
X55000000Y-59000000D01*
X23000000Y-60000000D02*
X43000000Y-60000000D01*
X43000000Y-60000000D02*
X49000000Y-60000000D01*
X49000000Y-60000000D02*
X54000000Y-60000000D01*
X22500000Y-60500000D02*
X23000000Y-60000000D01*
X49000000Y-56000000D02*
X49000000Y-60000000D01*
X43000000Y-56000000D02*
X43000000Y-60000000D01*
X60888000Y-51606800D02*
X60888000Y-55112000D01*
X60000000Y-56000000D02*
X55000000Y-56000000D01*
X60888000Y-55112000D02*
X60000000Y-56000000D01*
D25*
X60888000Y-51606800D02*
X64393200Y-51606800D01*
X66000000Y-44000000D02*
X66164600Y-44164600D01*
X66000000Y-50000000D02*
X66000000Y-44000000D01*
X64393200Y-51606800D02*
X66000000Y-50000000D01*
X66164600Y-44164600D02*
X68000000Y-44164600D01*
D23*
X68000000Y-46603000D02*
X72077000Y-46603000D01*
X72077000Y-46603000D02*
X72680000Y-46000000D01*
D27*
X20000000Y-57000000D02*
X20000000Y-50000000D01*
X21000000Y-49000000D02*
X28000000Y-49000000D01*
X20000000Y-50000000D02*
X21000000Y-49000000D01*
D28*
G36*
X97340001Y-60347811D02*
G01*
X54375851Y-60859289D01*
X54521972Y-60781186D01*
X54664344Y-60664344D01*
X54693630Y-60628659D01*
X55628660Y-59693629D01*
X55664344Y-59664344D01*
X55781186Y-59521972D01*
X55861703Y-59371334D01*
X55868007Y-59359541D01*
X55921472Y-59183292D01*
X55939524Y-59000000D01*
X55935000Y-58954065D01*
X55935000Y-57094396D01*
X56094396Y-56935000D01*
X59954068Y-56935000D01*
X60000000Y-56939524D01*
X60045932Y-56935000D01*
X60183292Y-56921471D01*
X60359540Y-56868007D01*
X60521972Y-56781186D01*
X60664344Y-56664344D01*
X60693630Y-56628659D01*
X61516659Y-55805630D01*
X61552344Y-55776344D01*
X61669186Y-55633972D01*
X61752539Y-55478029D01*
X61756007Y-55471541D01*
X61809472Y-55295292D01*
X61827524Y-55112000D01*
X61823000Y-55066065D01*
X61823000Y-52647455D01*
X61898090Y-52572365D01*
X67214040Y-52572365D01*
X67281020Y-52812456D01*
X67530048Y-52929556D01*
X67797135Y-52995823D01*
X68072017Y-53008710D01*
X68344133Y-52967722D01*
X68603023Y-52874436D01*
X68718980Y-52812456D01*
X68785960Y-52572365D01*
X68000000Y-51786405D01*
X67214040Y-52572365D01*
X61898090Y-52572365D01*
X61973120Y-52497335D01*
X62010227Y-52441800D01*
X64352182Y-52441800D01*
X64393200Y-52445840D01*
X64434218Y-52441800D01*
X64434219Y-52441800D01*
X64556889Y-52429718D01*
X64714287Y-52381972D01*
X64859346Y-52304436D01*
X64986491Y-52200091D01*
X65012646Y-52168221D01*
X65502050Y-51678817D01*
X66598090Y-51678817D01*
X66639078Y-51950933D01*
X66732364Y-52209823D01*
X66794344Y-52325780D01*
X67034435Y-52392760D01*
X67820395Y-51606800D01*
X68179605Y-51606800D01*
X68965565Y-52392760D01*
X69122283Y-52349039D01*
X71288096Y-52349039D01*
X71328754Y-52483087D01*
X71448963Y-52737420D01*
X71616481Y-52963414D01*
X71824869Y-53152385D01*
X72066119Y-53297070D01*
X72330960Y-53391909D01*
X72553000Y-53270624D01*
X72553000Y-52127000D01*
X72807000Y-52127000D01*
X72807000Y-53270624D01*
X73029040Y-53391909D01*
X73293881Y-53297070D01*
X73535131Y-53152385D01*
X73743519Y-52963414D01*
X73911037Y-52737420D01*
X74031246Y-52483087D01*
X74071904Y-52349039D01*
X73949915Y-52127000D01*
X72807000Y-52127000D01*
X72553000Y-52127000D01*
X71410085Y-52127000D01*
X71288096Y-52349039D01*
X69122283Y-52349039D01*
X69205656Y-52325780D01*
X69322756Y-52076752D01*
X69389023Y-51809665D01*
X69396463Y-51650961D01*
X71288096Y-51650961D01*
X71410085Y-51873000D01*
X72553000Y-51873000D01*
X72553000Y-50729376D01*
X72807000Y-50729376D01*
X72807000Y-51873000D01*
X73949915Y-51873000D01*
X74071904Y-51650961D01*
X74031246Y-51516913D01*
X73911037Y-51262580D01*
X73743519Y-51036586D01*
X73535131Y-50847615D01*
X73293881Y-50702930D01*
X73029040Y-50608091D01*
X72807000Y-50729376D01*
X72553000Y-50729376D01*
X72330960Y-50608091D01*
X72066119Y-50702930D01*
X71824869Y-50847615D01*
X71616481Y-51036586D01*
X71448963Y-51262580D01*
X71328754Y-51516913D01*
X71288096Y-51650961D01*
X69396463Y-51650961D01*
X69401910Y-51534783D01*
X69360922Y-51262667D01*
X69267636Y-51003777D01*
X69205656Y-50887820D01*
X68965565Y-50820840D01*
X68179605Y-51606800D01*
X67820395Y-51606800D01*
X67034435Y-50820840D01*
X66794344Y-50887820D01*
X66677244Y-51136848D01*
X66610977Y-51403935D01*
X66598090Y-51678817D01*
X65502050Y-51678817D01*
X66561428Y-50619440D01*
X66593291Y-50593291D01*
X66697636Y-50466146D01*
X66775172Y-50321087D01*
X66822918Y-50163689D01*
X66835000Y-50041019D01*
X66835000Y-50041009D01*
X66839039Y-50000001D01*
X66835000Y-49958993D01*
X66835000Y-49837786D01*
X66914880Y-49957335D01*
X67109465Y-50151920D01*
X67338273Y-50304805D01*
X67409943Y-50334492D01*
X67396977Y-50339164D01*
X67281020Y-50401144D01*
X67214040Y-50641235D01*
X68000000Y-51427195D01*
X68785960Y-50641235D01*
X68718980Y-50401144D01*
X68583240Y-50337315D01*
X68661727Y-50304805D01*
X68890535Y-50151920D01*
X69040655Y-50001800D01*
X85207268Y-50001800D01*
X85253200Y-50006324D01*
X85299132Y-50001800D01*
X85436492Y-49988271D01*
X85612740Y-49934807D01*
X85775172Y-49847986D01*
X85917544Y-49731144D01*
X85946830Y-49695459D01*
X93207289Y-42435000D01*
X93461335Y-42435000D01*
X93738574Y-42379853D01*
X93999727Y-42271680D01*
X94234759Y-42114637D01*
X94434637Y-41914759D01*
X94591680Y-41679727D01*
X94699853Y-41418574D01*
X94755000Y-41141335D01*
X94755000Y-40858665D01*
X94699853Y-40581426D01*
X94591680Y-40320273D01*
X94434637Y-40085241D01*
X94234759Y-39885363D01*
X93999727Y-39728320D01*
X93738574Y-39620147D01*
X93461335Y-39565000D01*
X93178665Y-39565000D01*
X92901426Y-39620147D01*
X92640273Y-39728320D01*
X92405241Y-39885363D01*
X92205363Y-40085241D01*
X92048320Y-40320273D01*
X91940147Y-40581426D01*
X91885000Y-40858665D01*
X91885000Y-41112711D01*
X84865911Y-48131800D01*
X77835000Y-48131800D01*
X77835000Y-40041018D01*
X77839040Y-40000000D01*
X77822918Y-39836312D01*
X77793524Y-39739410D01*
X77775172Y-39678913D01*
X77697636Y-39533854D01*
X77642069Y-39466145D01*
X77619439Y-39438570D01*
X77619437Y-39438568D01*
X77593291Y-39406709D01*
X77561433Y-39380564D01*
X77015868Y-38835000D01*
X91278982Y-38835000D01*
X91320000Y-38839040D01*
X91361018Y-38835000D01*
X91361019Y-38835000D01*
X91483689Y-38822918D01*
X91641087Y-38775172D01*
X91786146Y-38697636D01*
X91913291Y-38593291D01*
X91939446Y-38561421D01*
X93084582Y-37416285D01*
X93178665Y-37435000D01*
X93461335Y-37435000D01*
X93738574Y-37379853D01*
X93999727Y-37271680D01*
X94234759Y-37114637D01*
X94414396Y-36935000D01*
X95065000Y-36935000D01*
X95065001Y-45065000D01*
X94094396Y-45065000D01*
X93914759Y-44885363D01*
X93679727Y-44728320D01*
X93418574Y-44620147D01*
X93141335Y-44565000D01*
X92858665Y-44565000D01*
X92581426Y-44620147D01*
X92320273Y-44728320D01*
X92085241Y-44885363D01*
X91885363Y-45085241D01*
X91728320Y-45320273D01*
X91620147Y-45581426D01*
X91565000Y-45858665D01*
X91565000Y-46141335D01*
X91620147Y-46418574D01*
X91728320Y-46679727D01*
X91885363Y-46914759D01*
X92085241Y-47114637D01*
X92320273Y-47271680D01*
X92581426Y-47379853D01*
X92858665Y-47435000D01*
X93141335Y-47435000D01*
X93418574Y-47379853D01*
X93679727Y-47271680D01*
X93914759Y-47114637D01*
X94094396Y-46935000D01*
X95065000Y-46935000D01*
X95065001Y-51065000D01*
X94094396Y-51065000D01*
X93914759Y-50885363D01*
X93679727Y-50728320D01*
X93418574Y-50620147D01*
X93141335Y-50565000D01*
X92858665Y-50565000D01*
X92581426Y-50620147D01*
X92320273Y-50728320D01*
X92085241Y-50885363D01*
X91885363Y-51085241D01*
X91728320Y-51320273D01*
X91620147Y-51581426D01*
X91565000Y-51858665D01*
X91565000Y-52141335D01*
X91620147Y-52418574D01*
X91728320Y-52679727D01*
X91885363Y-52914759D01*
X92085241Y-53114637D01*
X92320273Y-53271680D01*
X92581426Y-53379853D01*
X92858665Y-53435000D01*
X93141335Y-53435000D01*
X93418574Y-53379853D01*
X93679727Y-53271680D01*
X93914759Y-53114637D01*
X94094396Y-52935000D01*
X95954068Y-52935000D01*
X96000000Y-52939524D01*
X96045932Y-52935000D01*
X96183292Y-52921471D01*
X96359540Y-52868007D01*
X96521972Y-52781186D01*
X96664344Y-52664344D01*
X96781186Y-52521972D01*
X96868007Y-52359540D01*
X96921471Y-52183292D01*
X96939524Y-52000000D01*
X96935000Y-51954068D01*
X96935000Y-46045932D01*
X96939524Y-46000000D01*
X96935000Y-45954068D01*
X96935000Y-36045932D01*
X96939524Y-36000000D01*
X96921471Y-35816708D01*
X96868007Y-35640460D01*
X96781186Y-35478028D01*
X96664344Y-35335656D01*
X96521972Y-35218814D01*
X96359540Y-35131993D01*
X96183292Y-35078529D01*
X96045932Y-35065000D01*
X96000000Y-35060476D01*
X95954068Y-35065000D01*
X94414396Y-35065000D01*
X94234759Y-34885363D01*
X93999727Y-34728320D01*
X93738574Y-34620147D01*
X93461335Y-34565000D01*
X93178665Y-34565000D01*
X92901426Y-34620147D01*
X92640273Y-34728320D01*
X92405241Y-34885363D01*
X92205363Y-35085241D01*
X92048320Y-35320273D01*
X91940147Y-35581426D01*
X91885000Y-35858665D01*
X91885000Y-36141335D01*
X91903715Y-36235418D01*
X90974133Y-37165000D01*
X73839385Y-37165000D01*
X73914759Y-37114637D01*
X74114637Y-36914759D01*
X74271680Y-36679727D01*
X74379853Y-36418574D01*
X74435000Y-36141335D01*
X74435000Y-35858665D01*
X74379853Y-35581426D01*
X74271680Y-35320273D01*
X74114637Y-35085241D01*
X73914759Y-34885363D01*
X73835000Y-34832070D01*
X73835000Y-33835000D01*
X93958982Y-33835000D01*
X94000000Y-33839040D01*
X94041018Y-33835000D01*
X94041019Y-33835000D01*
X94163689Y-33822918D01*
X94321087Y-33775172D01*
X94466146Y-33697636D01*
X94593291Y-33593291D01*
X94619446Y-33561421D01*
X96561430Y-31619438D01*
X96593291Y-31593291D01*
X96697636Y-31466146D01*
X96775172Y-31321087D01*
X96822918Y-31163689D01*
X96835000Y-31041019D01*
X96835000Y-31041018D01*
X96839040Y-31000001D01*
X96835000Y-30958981D01*
X96835000Y-24041019D01*
X96839040Y-24000000D01*
X96822918Y-23836311D01*
X96775172Y-23678913D01*
X96697636Y-23533854D01*
X96593291Y-23406709D01*
X96466146Y-23302364D01*
X96321087Y-23224828D01*
X96163689Y-23177082D01*
X96041019Y-23165000D01*
X96000000Y-23160960D01*
X95958982Y-23165000D01*
X51041018Y-23165000D01*
X51000000Y-23160960D01*
X50958981Y-23165000D01*
X50836311Y-23177082D01*
X50678913Y-23224828D01*
X50533854Y-23302364D01*
X50406709Y-23406709D01*
X50302364Y-23533854D01*
X50224828Y-23678913D01*
X50177082Y-23836311D01*
X50160960Y-24000000D01*
X50165000Y-24041019D01*
X50165001Y-26958972D01*
X50160960Y-27000000D01*
X50177082Y-27163688D01*
X50224828Y-27321086D01*
X50287721Y-27438750D01*
X50302365Y-27466146D01*
X50406710Y-27593291D01*
X50438574Y-27619441D01*
X51110563Y-28291431D01*
X51136709Y-28323291D01*
X51168568Y-28349437D01*
X51168570Y-28349439D01*
X51263854Y-28427636D01*
X51408913Y-28505172D01*
X51566311Y-28552918D01*
X51730000Y-28569040D01*
X51771018Y-28565000D01*
X54613084Y-28565000D01*
X54615000Y-28714250D01*
X54773750Y-28873000D01*
X55546891Y-28873000D01*
X55547600Y-28873215D01*
X55718021Y-28890000D01*
X56281979Y-28890000D01*
X56452400Y-28873215D01*
X56453109Y-28873000D01*
X57226250Y-28873000D01*
X57385000Y-28714250D01*
X57388072Y-28475000D01*
X57375812Y-28350518D01*
X57339502Y-28230820D01*
X57304907Y-28166098D01*
X57368215Y-27957400D01*
X57390612Y-27730000D01*
X57368215Y-27502600D01*
X57335575Y-27395000D01*
X80702204Y-27395000D01*
X80745506Y-27430537D01*
X80855820Y-27489502D01*
X80874127Y-27495056D01*
X80807688Y-27561495D01*
X80711801Y-27705000D01*
X66501015Y-27705000D01*
X66459999Y-27700960D01*
X66418983Y-27705000D01*
X66418981Y-27705000D01*
X66296311Y-27717082D01*
X66138913Y-27764828D01*
X65993854Y-27842364D01*
X65866709Y-27946709D01*
X65840554Y-27978579D01*
X65438574Y-28380559D01*
X65406710Y-28406709D01*
X65380562Y-28438571D01*
X65302364Y-28533855D01*
X65224828Y-28678914D01*
X65177082Y-28836312D01*
X65160960Y-29000000D01*
X65165001Y-29041028D01*
X65165000Y-30165000D01*
X43041019Y-30165000D01*
X43000000Y-30160960D01*
X42958982Y-30165000D01*
X42958981Y-30165000D01*
X42836311Y-30177082D01*
X42678913Y-30224828D01*
X42533854Y-30302364D01*
X42406709Y-30406709D01*
X42302364Y-30533854D01*
X42224828Y-30678913D01*
X42177082Y-30836311D01*
X42160960Y-31000000D01*
X42165001Y-31041029D01*
X42165000Y-34512070D01*
X42085241Y-34565363D01*
X41885363Y-34765241D01*
X41728320Y-35000273D01*
X41620147Y-35261426D01*
X41565000Y-35538665D01*
X41565000Y-35821335D01*
X41620147Y-36098574D01*
X41728320Y-36359727D01*
X41885363Y-36594759D01*
X42085241Y-36794637D01*
X42320273Y-36951680D01*
X42581426Y-37059853D01*
X42858665Y-37115000D01*
X43141335Y-37115000D01*
X43418574Y-37059853D01*
X43679727Y-36951680D01*
X43914759Y-36794637D01*
X44114637Y-36594759D01*
X44271680Y-36359727D01*
X44379853Y-36098574D01*
X44435000Y-35821335D01*
X44435000Y-35538665D01*
X44379853Y-35261426D01*
X44271680Y-35000273D01*
X44114637Y-34765241D01*
X43914759Y-34565363D01*
X43835000Y-34512070D01*
X43835000Y-31835000D01*
X48984132Y-31835000D01*
X48438574Y-32380559D01*
X48406710Y-32406709D01*
X48325907Y-32505168D01*
X48302364Y-32533855D01*
X48224828Y-32678914D01*
X48177082Y-32836312D01*
X48160960Y-33000000D01*
X48165001Y-33041028D01*
X48165000Y-34512070D01*
X48085241Y-34565363D01*
X47885363Y-34765241D01*
X47728320Y-35000273D01*
X47620147Y-35261426D01*
X47565000Y-35538665D01*
X47565000Y-35821335D01*
X47620147Y-36098574D01*
X47728320Y-36359727D01*
X47885363Y-36594759D01*
X48085241Y-36794637D01*
X48320273Y-36951680D01*
X48581426Y-37059853D01*
X48858665Y-37115000D01*
X49141335Y-37115000D01*
X49418574Y-37059853D01*
X49679727Y-36951680D01*
X49914759Y-36794637D01*
X50114637Y-36594759D01*
X50271680Y-36359727D01*
X50379853Y-36098574D01*
X50435000Y-35821335D01*
X50435000Y-35538665D01*
X50379853Y-35261426D01*
X50271680Y-35000273D01*
X50114637Y-34765241D01*
X49914759Y-34565363D01*
X49835000Y-34512070D01*
X49835000Y-33345868D01*
X50345868Y-32835000D01*
X69958982Y-32835000D01*
X70000000Y-32839040D01*
X70041018Y-32835000D01*
X70041019Y-32835000D01*
X70163689Y-32822918D01*
X70321087Y-32775172D01*
X70466146Y-32697636D01*
X70593291Y-32593291D01*
X70619445Y-32561422D01*
X71345868Y-31835000D01*
X90498982Y-31835000D01*
X90540000Y-31839040D01*
X90581018Y-31835000D01*
X90581019Y-31835000D01*
X90703689Y-31822918D01*
X90861087Y-31775172D01*
X91006146Y-31697636D01*
X91133291Y-31593291D01*
X91159446Y-31561421D01*
X92679539Y-30041329D01*
X92848816Y-30075000D01*
X93151184Y-30075000D01*
X93447743Y-30016011D01*
X93727095Y-29900299D01*
X93978505Y-29732312D01*
X94192312Y-29518505D01*
X94360299Y-29267095D01*
X94476011Y-28987743D01*
X94535000Y-28691184D01*
X94535000Y-28388816D01*
X94476011Y-28092257D01*
X94360299Y-27812905D01*
X94192312Y-27561495D01*
X94125873Y-27495056D01*
X94144180Y-27489502D01*
X94254494Y-27430537D01*
X94351185Y-27351185D01*
X94430537Y-27254494D01*
X94489502Y-27144180D01*
X94525812Y-27024482D01*
X94538072Y-26900000D01*
X94538072Y-25100000D01*
X94525812Y-24975518D01*
X94489502Y-24855820D01*
X94478373Y-24835000D01*
X95165001Y-24835000D01*
X95165000Y-30654132D01*
X93654133Y-32165000D01*
X73041019Y-32165000D01*
X73000000Y-32160960D01*
X72958982Y-32165000D01*
X72958981Y-32165000D01*
X72836311Y-32177082D01*
X72678913Y-32224828D01*
X72533854Y-32302364D01*
X72406709Y-32406709D01*
X72302364Y-32533854D01*
X72224828Y-32678913D01*
X72177082Y-32836311D01*
X72160960Y-33000000D01*
X72165001Y-33041029D01*
X72165000Y-34832070D01*
X72085241Y-34885363D01*
X71885363Y-35085241D01*
X71728320Y-35320273D01*
X71620147Y-35581426D01*
X71565000Y-35858665D01*
X71565000Y-36141335D01*
X71620147Y-36418574D01*
X71728320Y-36679727D01*
X71885363Y-36914759D01*
X72085241Y-37114637D01*
X72160615Y-37165000D01*
X68345868Y-37165000D01*
X67835000Y-36654132D01*
X67835000Y-36192287D01*
X67844180Y-36189502D01*
X67954494Y-36130537D01*
X67971681Y-36116432D01*
X68098516Y-36174237D01*
X68335313Y-36230000D01*
X68578438Y-36238495D01*
X68818549Y-36199395D01*
X69046418Y-36114202D01*
X69122852Y-36073348D01*
X69170159Y-35849764D01*
X68500000Y-35179605D01*
X68485858Y-35193748D01*
X68306253Y-35014143D01*
X68320395Y-35000000D01*
X68679605Y-35000000D01*
X69349764Y-35670159D01*
X69573348Y-35622852D01*
X69674237Y-35401484D01*
X69730000Y-35164687D01*
X69738495Y-34921562D01*
X69699395Y-34681451D01*
X69614202Y-34453582D01*
X69573348Y-34377148D01*
X69349764Y-34329841D01*
X68679605Y-35000000D01*
X68320395Y-35000000D01*
X68306253Y-34985858D01*
X68485858Y-34806253D01*
X68500000Y-34820395D01*
X69170159Y-34150236D01*
X69122852Y-33926652D01*
X68901484Y-33825763D01*
X68664687Y-33770000D01*
X68421562Y-33761505D01*
X68181451Y-33800605D01*
X67967883Y-33880451D01*
X67954494Y-33869463D01*
X67844180Y-33810498D01*
X67724482Y-33774188D01*
X67600000Y-33761928D01*
X66400000Y-33761928D01*
X66275518Y-33774188D01*
X66155820Y-33810498D01*
X66045506Y-33869463D01*
X65948815Y-33948815D01*
X65869463Y-34045506D01*
X65810498Y-34155820D01*
X65774188Y-34275518D01*
X65761928Y-34400000D01*
X65761928Y-35600000D01*
X65774188Y-35724482D01*
X65810498Y-35844180D01*
X65869463Y-35954494D01*
X65948815Y-36051185D01*
X66045506Y-36130537D01*
X66155820Y-36189502D01*
X66165001Y-36192287D01*
X66165001Y-36958972D01*
X66160960Y-37000000D01*
X66177082Y-37163688D01*
X66224828Y-37321086D01*
X66302364Y-37466145D01*
X66302365Y-37466146D01*
X66406710Y-37593291D01*
X66438574Y-37619441D01*
X66984132Y-38165000D01*
X65041018Y-38165000D01*
X65000000Y-38160960D01*
X64958982Y-38165000D01*
X64958981Y-38165000D01*
X64836311Y-38177082D01*
X64678913Y-38224828D01*
X64533854Y-38302364D01*
X64470023Y-38354749D01*
X64449998Y-38371183D01*
X64406709Y-38406709D01*
X64380563Y-38438568D01*
X63438574Y-39380559D01*
X63406710Y-39406709D01*
X63335024Y-39494059D01*
X63302364Y-39533855D01*
X63224828Y-39678914D01*
X63177082Y-39836312D01*
X63160960Y-40000000D01*
X63165001Y-40041028D01*
X63165000Y-44654132D01*
X61985917Y-45833216D01*
X61973120Y-45814065D01*
X61778535Y-45619480D01*
X61577871Y-45485400D01*
X61778535Y-45351320D01*
X61973120Y-45156735D01*
X62126005Y-44927927D01*
X62231314Y-44673690D01*
X62285000Y-44403792D01*
X62285000Y-44128608D01*
X62231314Y-43858710D01*
X62126005Y-43604473D01*
X61973120Y-43375665D01*
X61778535Y-43181080D01*
X61549727Y-43028195D01*
X61295490Y-42922886D01*
X61025592Y-42869200D01*
X60750408Y-42869200D01*
X60480510Y-42922886D01*
X60226273Y-43028195D01*
X59997465Y-43181080D01*
X59802880Y-43375665D01*
X59649995Y-43604473D01*
X59544686Y-43858710D01*
X59491000Y-44128608D01*
X59491000Y-44403792D01*
X59544686Y-44673690D01*
X59649995Y-44927927D01*
X59802880Y-45156735D01*
X59997465Y-45351320D01*
X60198129Y-45485400D01*
X59997465Y-45619480D01*
X59802880Y-45814065D01*
X59799182Y-45819600D01*
X58071179Y-45819600D01*
X57885000Y-45633422D01*
X57885000Y-39366578D01*
X61013507Y-36238072D01*
X61600000Y-36238072D01*
X61724482Y-36225812D01*
X61844180Y-36189502D01*
X61954494Y-36130537D01*
X61971681Y-36116432D01*
X62098516Y-36174237D01*
X62335313Y-36230000D01*
X62578438Y-36238495D01*
X62818549Y-36199395D01*
X63046418Y-36114202D01*
X63122852Y-36073348D01*
X63170159Y-35849764D01*
X62500000Y-35179605D01*
X62485858Y-35193748D01*
X62306253Y-35014143D01*
X62320395Y-35000000D01*
X62679605Y-35000000D01*
X63349764Y-35670159D01*
X63573348Y-35622852D01*
X63674237Y-35401484D01*
X63730000Y-35164687D01*
X63738495Y-34921562D01*
X63699395Y-34681451D01*
X63614202Y-34453582D01*
X63573348Y-34377148D01*
X63349764Y-34329841D01*
X62679605Y-35000000D01*
X62320395Y-35000000D01*
X62306253Y-34985858D01*
X62485858Y-34806253D01*
X62500000Y-34820395D01*
X63170159Y-34150236D01*
X63122852Y-33926652D01*
X62901484Y-33825763D01*
X62664687Y-33770000D01*
X62421562Y-33761505D01*
X62181451Y-33800605D01*
X61967883Y-33880451D01*
X61954494Y-33869463D01*
X61844180Y-33810498D01*
X61724482Y-33774188D01*
X61600000Y-33761928D01*
X60400000Y-33761928D01*
X60275518Y-33774188D01*
X60155820Y-33810498D01*
X60045506Y-33869463D01*
X59948815Y-33948815D01*
X59869463Y-34045506D01*
X59810498Y-34155820D01*
X59774188Y-34275518D01*
X59761928Y-34400000D01*
X59761928Y-34986493D01*
X56404951Y-38343470D01*
X56371184Y-38371183D01*
X56343471Y-38404951D01*
X56343468Y-38404954D01*
X56260590Y-38505941D01*
X56178412Y-38659687D01*
X56127805Y-38826510D01*
X56110719Y-39000000D01*
X56115001Y-39043479D01*
X56115000Y-45956531D01*
X56110719Y-46000000D01*
X56115000Y-46043469D01*
X56115000Y-46043476D01*
X56127805Y-46173489D01*
X56178411Y-46340312D01*
X56260589Y-46494058D01*
X56371183Y-46628817D01*
X56404956Y-46656534D01*
X57048070Y-47299649D01*
X57075783Y-47333417D01*
X57109551Y-47361130D01*
X57109553Y-47361132D01*
X57159638Y-47402236D01*
X57210541Y-47444011D01*
X57364287Y-47526189D01*
X57531110Y-47576795D01*
X57661123Y-47589600D01*
X57661131Y-47589600D01*
X57704600Y-47593881D01*
X57748069Y-47589600D01*
X59799182Y-47589600D01*
X59802880Y-47595135D01*
X59997465Y-47789720D01*
X60198129Y-47923800D01*
X59997465Y-48057880D01*
X59802880Y-48252465D01*
X59799182Y-48258000D01*
X55885000Y-48258000D01*
X55885000Y-36814521D01*
X55914759Y-36794637D01*
X56114637Y-36594759D01*
X56271680Y-36359727D01*
X56379853Y-36098574D01*
X56435000Y-35821335D01*
X56435000Y-35538665D01*
X56379853Y-35261426D01*
X56271680Y-35000273D01*
X56114637Y-34765241D01*
X55914759Y-34565363D01*
X55679727Y-34408320D01*
X55418574Y-34300147D01*
X55141335Y-34245000D01*
X54858665Y-34245000D01*
X54581426Y-34300147D01*
X54320273Y-34408320D01*
X54085241Y-34565363D01*
X53885363Y-34765241D01*
X53728320Y-35000273D01*
X53620147Y-35261426D01*
X53565000Y-35538665D01*
X53565000Y-35821335D01*
X53620147Y-36098574D01*
X53728320Y-36359727D01*
X53885363Y-36594759D01*
X54085241Y-36794637D01*
X54115001Y-36814522D01*
X54115000Y-48956531D01*
X54110719Y-49000000D01*
X54115000Y-49043469D01*
X54115000Y-49043476D01*
X54127805Y-49173489D01*
X54178411Y-49340312D01*
X54260589Y-49494058D01*
X54371183Y-49628817D01*
X54404956Y-49656534D01*
X54486466Y-49738044D01*
X54514183Y-49771817D01*
X54648941Y-49882411D01*
X54802687Y-49964589D01*
X54969510Y-50015195D01*
X55099523Y-50028000D01*
X55099531Y-50028000D01*
X55143000Y-50032281D01*
X55186469Y-50028000D01*
X59799182Y-50028000D01*
X59802880Y-50033535D01*
X59997465Y-50228120D01*
X60217136Y-50374900D01*
X59997465Y-50521680D01*
X59802880Y-50716265D01*
X59649995Y-50945073D01*
X59544686Y-51199310D01*
X59491000Y-51469208D01*
X59491000Y-51744392D01*
X59544686Y-52014290D01*
X59649995Y-52268527D01*
X59802880Y-52497335D01*
X59953000Y-52647455D01*
X59953001Y-54724710D01*
X59612711Y-55065000D01*
X56094396Y-55065000D01*
X55914759Y-54885363D01*
X55679727Y-54728320D01*
X55418574Y-54620147D01*
X55141335Y-54565000D01*
X54858665Y-54565000D01*
X54581426Y-54620147D01*
X54320273Y-54728320D01*
X54085241Y-54885363D01*
X53885363Y-55085241D01*
X53728320Y-55320273D01*
X53620147Y-55581426D01*
X53565000Y-55858665D01*
X53565000Y-56141335D01*
X53620147Y-56418574D01*
X53728320Y-56679727D01*
X53885363Y-56914759D01*
X54065001Y-57094397D01*
X54065000Y-58612711D01*
X53612711Y-59065000D01*
X49935000Y-59065000D01*
X49935000Y-57094396D01*
X50114637Y-56914759D01*
X50271680Y-56679727D01*
X50379853Y-56418574D01*
X50435000Y-56141335D01*
X50435000Y-55858665D01*
X50379853Y-55581426D01*
X50271680Y-55320273D01*
X50114637Y-55085241D01*
X49914759Y-54885363D01*
X49679727Y-54728320D01*
X49418574Y-54620147D01*
X49141335Y-54565000D01*
X48858665Y-54565000D01*
X48581426Y-54620147D01*
X48320273Y-54728320D01*
X48085241Y-54885363D01*
X47885363Y-55085241D01*
X47728320Y-55320273D01*
X47620147Y-55581426D01*
X47565000Y-55858665D01*
X47565000Y-56141335D01*
X47620147Y-56418574D01*
X47728320Y-56679727D01*
X47885363Y-56914759D01*
X48065000Y-57094396D01*
X48065001Y-59065000D01*
X43935000Y-59065000D01*
X43935000Y-57094396D01*
X44114637Y-56914759D01*
X44271680Y-56679727D01*
X44379853Y-56418574D01*
X44435000Y-56141335D01*
X44435000Y-55858665D01*
X44379853Y-55581426D01*
X44271680Y-55320273D01*
X44114637Y-55085241D01*
X43914759Y-54885363D01*
X43679727Y-54728320D01*
X43418574Y-54620147D01*
X43141335Y-54565000D01*
X42858665Y-54565000D01*
X42581426Y-54620147D01*
X42320273Y-54728320D01*
X42085241Y-54885363D01*
X41885363Y-55085241D01*
X41728320Y-55320273D01*
X41620147Y-55581426D01*
X41565000Y-55858665D01*
X41565000Y-56141335D01*
X41620147Y-56418574D01*
X41728320Y-56679727D01*
X41885363Y-56914759D01*
X42065000Y-57094396D01*
X42065001Y-59065000D01*
X23435000Y-59065000D01*
X23435000Y-58281517D01*
X23488186Y-58245979D01*
X23519463Y-58304494D01*
X23598815Y-58401185D01*
X23695506Y-58480537D01*
X23805820Y-58539502D01*
X23925518Y-58575812D01*
X24050000Y-58588072D01*
X25950000Y-58588072D01*
X26074482Y-58575812D01*
X26194180Y-58539502D01*
X26304494Y-58480537D01*
X26401185Y-58401185D01*
X26480537Y-58304494D01*
X26539502Y-58194180D01*
X26575812Y-58074482D01*
X26588072Y-57950000D01*
X26588072Y-56050000D01*
X26575812Y-55925518D01*
X26539502Y-55805820D01*
X26480537Y-55695506D01*
X26401185Y-55598815D01*
X26304494Y-55519463D01*
X26194180Y-55460498D01*
X26074482Y-55424188D01*
X25950000Y-55411928D01*
X24050000Y-55411928D01*
X23925518Y-55424188D01*
X23805820Y-55460498D01*
X23695506Y-55519463D01*
X23598815Y-55598815D01*
X23519463Y-55695506D01*
X23488186Y-55754021D01*
X23250779Y-55595391D01*
X22962327Y-55475911D01*
X22656109Y-55415000D01*
X22343891Y-55415000D01*
X22037673Y-55475911D01*
X21749221Y-55595391D01*
X21489621Y-55768850D01*
X21268850Y-55989621D01*
X21250000Y-56017832D01*
X21231150Y-55989621D01*
X21135000Y-55893471D01*
X21135000Y-50470132D01*
X21470132Y-50135000D01*
X26491312Y-50135000D01*
X26535825Y-50201618D01*
X26798382Y-50464175D01*
X27107118Y-50670466D01*
X27450166Y-50812561D01*
X27814344Y-50885000D01*
X28185656Y-50885000D01*
X28549834Y-50812561D01*
X28892882Y-50670466D01*
X29201618Y-50464175D01*
X29464175Y-50201618D01*
X29670466Y-49892882D01*
X29812561Y-49549834D01*
X29885000Y-49185656D01*
X29885000Y-48814344D01*
X29812561Y-48450166D01*
X29670466Y-48107118D01*
X29464175Y-47798382D01*
X29201618Y-47535825D01*
X28892882Y-47329534D01*
X28549834Y-47187439D01*
X28185656Y-47115000D01*
X27814344Y-47115000D01*
X27450166Y-47187439D01*
X27107118Y-47329534D01*
X26798382Y-47535825D01*
X26535825Y-47798382D01*
X26491312Y-47865000D01*
X21055752Y-47865000D01*
X21000000Y-47859509D01*
X20777501Y-47881423D01*
X20563553Y-47946324D01*
X20366377Y-48051716D01*
X20236856Y-48158011D01*
X20236854Y-48158013D01*
X20193551Y-48193551D01*
X20158013Y-48236855D01*
X19236859Y-49158009D01*
X19193552Y-49193551D01*
X19051717Y-49366377D01*
X19014264Y-49436447D01*
X18946324Y-49563554D01*
X18881423Y-49777502D01*
X18859509Y-50000000D01*
X18865001Y-50055761D01*
X18865000Y-55893471D01*
X18768850Y-55989621D01*
X18595391Y-56249221D01*
X18475911Y-56537673D01*
X18415000Y-56843891D01*
X18415000Y-57156109D01*
X18475911Y-57462327D01*
X18595391Y-57750779D01*
X18768850Y-58010379D01*
X18989621Y-58231150D01*
X19249221Y-58404609D01*
X19537673Y-58524089D01*
X19843891Y-58585000D01*
X20156109Y-58585000D01*
X20462327Y-58524089D01*
X20750779Y-58404609D01*
X21010379Y-58231150D01*
X21231150Y-58010379D01*
X21250000Y-57982168D01*
X21268850Y-58010379D01*
X21489621Y-58231150D01*
X21565000Y-58281517D01*
X21565001Y-60454058D01*
X21560476Y-60500000D01*
X21578529Y-60683291D01*
X21631994Y-60859540D01*
X21718815Y-61021972D01*
X21835657Y-61164344D01*
X21934539Y-61245495D01*
X14660000Y-61332096D01*
X14660000Y-30085000D01*
X26276928Y-30085000D01*
X26289188Y-30209482D01*
X26325498Y-30329180D01*
X26384463Y-30439494D01*
X26463815Y-30536185D01*
X26560506Y-30615537D01*
X26670820Y-30674502D01*
X26790518Y-30710812D01*
X26915000Y-30723072D01*
X27714250Y-30720000D01*
X27873000Y-30561250D01*
X27873000Y-29127000D01*
X28127000Y-29127000D01*
X28127000Y-30561250D01*
X28285750Y-30720000D01*
X29085000Y-30723072D01*
X29209482Y-30710812D01*
X29329180Y-30674502D01*
X29439494Y-30615537D01*
X29536185Y-30536185D01*
X29615537Y-30439494D01*
X29674502Y-30329180D01*
X29710812Y-30209482D01*
X29723072Y-30085000D01*
X29720920Y-29525000D01*
X54611928Y-29525000D01*
X54624188Y-29649482D01*
X54660498Y-29769180D01*
X54719463Y-29879494D01*
X54798815Y-29976185D01*
X54895506Y-30055537D01*
X55005820Y-30114502D01*
X55125518Y-30150812D01*
X55250000Y-30163072D01*
X55714250Y-30160000D01*
X55873000Y-30001250D01*
X55873000Y-29127000D01*
X56127000Y-29127000D01*
X56127000Y-30001250D01*
X56285750Y-30160000D01*
X56750000Y-30163072D01*
X56874482Y-30150812D01*
X56994180Y-30114502D01*
X57104494Y-30055537D01*
X57201185Y-29976185D01*
X57280537Y-29879494D01*
X57339502Y-29769180D01*
X57375812Y-29649482D01*
X57388072Y-29525000D01*
X57385000Y-29285750D01*
X57226250Y-29127000D01*
X56127000Y-29127000D01*
X55873000Y-29127000D01*
X54773750Y-29127000D01*
X54615000Y-29285750D01*
X54611928Y-29525000D01*
X29720920Y-29525000D01*
X29720000Y-29285750D01*
X29561250Y-29127000D01*
X28127000Y-29127000D01*
X27873000Y-29127000D01*
X26438750Y-29127000D01*
X26280000Y-29285750D01*
X26276928Y-30085000D01*
X14660000Y-30085000D01*
X14660000Y-27915000D01*
X26276928Y-27915000D01*
X26280000Y-28714250D01*
X26438750Y-28873000D01*
X27873000Y-28873000D01*
X27873000Y-27438750D01*
X28127000Y-27438750D01*
X28127000Y-28873000D01*
X29561250Y-28873000D01*
X29720000Y-28714250D01*
X29723072Y-27915000D01*
X29710812Y-27790518D01*
X29674502Y-27670820D01*
X29615537Y-27560506D01*
X29536185Y-27463815D01*
X29439494Y-27384463D01*
X29329180Y-27325498D01*
X29209482Y-27289188D01*
X29085000Y-27276928D01*
X28285750Y-27280000D01*
X28127000Y-27438750D01*
X27873000Y-27438750D01*
X27714250Y-27280000D01*
X26915000Y-27276928D01*
X26790518Y-27289188D01*
X26670820Y-27325498D01*
X26560506Y-27384463D01*
X26463815Y-27463815D01*
X26384463Y-27560506D01*
X26325498Y-27670820D01*
X26289188Y-27790518D01*
X26276928Y-27915000D01*
X14660000Y-27915000D01*
X14660000Y-22660000D01*
X97340000Y-22660000D01*
X97340001Y-60347811D01*
G37*
X97340001Y-60347811D02*
X54375851Y-60859289D01*
X54521972Y-60781186D01*
X54664344Y-60664344D01*
X54693630Y-60628659D01*
X55628660Y-59693629D01*
X55664344Y-59664344D01*
X55781186Y-59521972D01*
X55861703Y-59371334D01*
X55868007Y-59359541D01*
X55921472Y-59183292D01*
X55939524Y-59000000D01*
X55935000Y-58954065D01*
X55935000Y-57094396D01*
X56094396Y-56935000D01*
X59954068Y-56935000D01*
X60000000Y-56939524D01*
X60045932Y-56935000D01*
X60183292Y-56921471D01*
X60359540Y-56868007D01*
X60521972Y-56781186D01*
X60664344Y-56664344D01*
X60693630Y-56628659D01*
X61516659Y-55805630D01*
X61552344Y-55776344D01*
X61669186Y-55633972D01*
X61752539Y-55478029D01*
X61756007Y-55471541D01*
X61809472Y-55295292D01*
X61827524Y-55112000D01*
X61823000Y-55066065D01*
X61823000Y-52647455D01*
X61898090Y-52572365D01*
X67214040Y-52572365D01*
X67281020Y-52812456D01*
X67530048Y-52929556D01*
X67797135Y-52995823D01*
X68072017Y-53008710D01*
X68344133Y-52967722D01*
X68603023Y-52874436D01*
X68718980Y-52812456D01*
X68785960Y-52572365D01*
X68000000Y-51786405D01*
X67214040Y-52572365D01*
X61898090Y-52572365D01*
X61973120Y-52497335D01*
X62010227Y-52441800D01*
X64352182Y-52441800D01*
X64393200Y-52445840D01*
X64434218Y-52441800D01*
X64434219Y-52441800D01*
X64556889Y-52429718D01*
X64714287Y-52381972D01*
X64859346Y-52304436D01*
X64986491Y-52200091D01*
X65012646Y-52168221D01*
X65502050Y-51678817D01*
X66598090Y-51678817D01*
X66639078Y-51950933D01*
X66732364Y-52209823D01*
X66794344Y-52325780D01*
X67034435Y-52392760D01*
X67820395Y-51606800D01*
X68179605Y-51606800D01*
X68965565Y-52392760D01*
X69122283Y-52349039D01*
X71288096Y-52349039D01*
X71328754Y-52483087D01*
X71448963Y-52737420D01*
X71616481Y-52963414D01*
X71824869Y-53152385D01*
X72066119Y-53297070D01*
X72330960Y-53391909D01*
X72553000Y-53270624D01*
X72553000Y-52127000D01*
X72807000Y-52127000D01*
X72807000Y-53270624D01*
X73029040Y-53391909D01*
X73293881Y-53297070D01*
X73535131Y-53152385D01*
X73743519Y-52963414D01*
X73911037Y-52737420D01*
X74031246Y-52483087D01*
X74071904Y-52349039D01*
X73949915Y-52127000D01*
X72807000Y-52127000D01*
X72553000Y-52127000D01*
X71410085Y-52127000D01*
X71288096Y-52349039D01*
X69122283Y-52349039D01*
X69205656Y-52325780D01*
X69322756Y-52076752D01*
X69389023Y-51809665D01*
X69396463Y-51650961D01*
X71288096Y-51650961D01*
X71410085Y-51873000D01*
X72553000Y-51873000D01*
X72553000Y-50729376D01*
X72807000Y-50729376D01*
X72807000Y-51873000D01*
X73949915Y-51873000D01*
X74071904Y-51650961D01*
X74031246Y-51516913D01*
X73911037Y-51262580D01*
X73743519Y-51036586D01*
X73535131Y-50847615D01*
X73293881Y-50702930D01*
X73029040Y-50608091D01*
X72807000Y-50729376D01*
X72553000Y-50729376D01*
X72330960Y-50608091D01*
X72066119Y-50702930D01*
X71824869Y-50847615D01*
X71616481Y-51036586D01*
X71448963Y-51262580D01*
X71328754Y-51516913D01*
X71288096Y-51650961D01*
X69396463Y-51650961D01*
X69401910Y-51534783D01*
X69360922Y-51262667D01*
X69267636Y-51003777D01*
X69205656Y-50887820D01*
X68965565Y-50820840D01*
X68179605Y-51606800D01*
X67820395Y-51606800D01*
X67034435Y-50820840D01*
X66794344Y-50887820D01*
X66677244Y-51136848D01*
X66610977Y-51403935D01*
X66598090Y-51678817D01*
X65502050Y-51678817D01*
X66561428Y-50619440D01*
X66593291Y-50593291D01*
X66697636Y-50466146D01*
X66775172Y-50321087D01*
X66822918Y-50163689D01*
X66835000Y-50041019D01*
X66835000Y-50041009D01*
X66839039Y-50000001D01*
X66835000Y-49958993D01*
X66835000Y-49837786D01*
X66914880Y-49957335D01*
X67109465Y-50151920D01*
X67338273Y-50304805D01*
X67409943Y-50334492D01*
X67396977Y-50339164D01*
X67281020Y-50401144D01*
X67214040Y-50641235D01*
X68000000Y-51427195D01*
X68785960Y-50641235D01*
X68718980Y-50401144D01*
X68583240Y-50337315D01*
X68661727Y-50304805D01*
X68890535Y-50151920D01*
X69040655Y-50001800D01*
X85207268Y-50001800D01*
X85253200Y-50006324D01*
X85299132Y-50001800D01*
X85436492Y-49988271D01*
X85612740Y-49934807D01*
X85775172Y-49847986D01*
X85917544Y-49731144D01*
X85946830Y-49695459D01*
X93207289Y-42435000D01*
X93461335Y-42435000D01*
X93738574Y-42379853D01*
X93999727Y-42271680D01*
X94234759Y-42114637D01*
X94434637Y-41914759D01*
X94591680Y-41679727D01*
X94699853Y-41418574D01*
X94755000Y-41141335D01*
X94755000Y-40858665D01*
X94699853Y-40581426D01*
X94591680Y-40320273D01*
X94434637Y-40085241D01*
X94234759Y-39885363D01*
X93999727Y-39728320D01*
X93738574Y-39620147D01*
X93461335Y-39565000D01*
X93178665Y-39565000D01*
X92901426Y-39620147D01*
X92640273Y-39728320D01*
X92405241Y-39885363D01*
X92205363Y-40085241D01*
X92048320Y-40320273D01*
X91940147Y-40581426D01*
X91885000Y-40858665D01*
X91885000Y-41112711D01*
X84865911Y-48131800D01*
X77835000Y-48131800D01*
X77835000Y-40041018D01*
X77839040Y-40000000D01*
X77822918Y-39836312D01*
X77793524Y-39739410D01*
X77775172Y-39678913D01*
X77697636Y-39533854D01*
X77642069Y-39466145D01*
X77619439Y-39438570D01*
X77619437Y-39438568D01*
X77593291Y-39406709D01*
X77561433Y-39380564D01*
X77015868Y-38835000D01*
X91278982Y-38835000D01*
X91320000Y-38839040D01*
X91361018Y-38835000D01*
X91361019Y-38835000D01*
X91483689Y-38822918D01*
X91641087Y-38775172D01*
X91786146Y-38697636D01*
X91913291Y-38593291D01*
X91939446Y-38561421D01*
X93084582Y-37416285D01*
X93178665Y-37435000D01*
X93461335Y-37435000D01*
X93738574Y-37379853D01*
X93999727Y-37271680D01*
X94234759Y-37114637D01*
X94414396Y-36935000D01*
X95065000Y-36935000D01*
X95065001Y-45065000D01*
X94094396Y-45065000D01*
X93914759Y-44885363D01*
X93679727Y-44728320D01*
X93418574Y-44620147D01*
X93141335Y-44565000D01*
X92858665Y-44565000D01*
X92581426Y-44620147D01*
X92320273Y-44728320D01*
X92085241Y-44885363D01*
X91885363Y-45085241D01*
X91728320Y-45320273D01*
X91620147Y-45581426D01*
X91565000Y-45858665D01*
X91565000Y-46141335D01*
X91620147Y-46418574D01*
X91728320Y-46679727D01*
X91885363Y-46914759D01*
X92085241Y-47114637D01*
X92320273Y-47271680D01*
X92581426Y-47379853D01*
X92858665Y-47435000D01*
X93141335Y-47435000D01*
X93418574Y-47379853D01*
X93679727Y-47271680D01*
X93914759Y-47114637D01*
X94094396Y-46935000D01*
X95065000Y-46935000D01*
X95065001Y-51065000D01*
X94094396Y-51065000D01*
X93914759Y-50885363D01*
X93679727Y-50728320D01*
X93418574Y-50620147D01*
X93141335Y-50565000D01*
X92858665Y-50565000D01*
X92581426Y-50620147D01*
X92320273Y-50728320D01*
X92085241Y-50885363D01*
X91885363Y-51085241D01*
X91728320Y-51320273D01*
X91620147Y-51581426D01*
X91565000Y-51858665D01*
X91565000Y-52141335D01*
X91620147Y-52418574D01*
X91728320Y-52679727D01*
X91885363Y-52914759D01*
X92085241Y-53114637D01*
X92320273Y-53271680D01*
X92581426Y-53379853D01*
X92858665Y-53435000D01*
X93141335Y-53435000D01*
X93418574Y-53379853D01*
X93679727Y-53271680D01*
X93914759Y-53114637D01*
X94094396Y-52935000D01*
X95954068Y-52935000D01*
X96000000Y-52939524D01*
X96045932Y-52935000D01*
X96183292Y-52921471D01*
X96359540Y-52868007D01*
X96521972Y-52781186D01*
X96664344Y-52664344D01*
X96781186Y-52521972D01*
X96868007Y-52359540D01*
X96921471Y-52183292D01*
X96939524Y-52000000D01*
X96935000Y-51954068D01*
X96935000Y-46045932D01*
X96939524Y-46000000D01*
X96935000Y-45954068D01*
X96935000Y-36045932D01*
X96939524Y-36000000D01*
X96921471Y-35816708D01*
X96868007Y-35640460D01*
X96781186Y-35478028D01*
X96664344Y-35335656D01*
X96521972Y-35218814D01*
X96359540Y-35131993D01*
X96183292Y-35078529D01*
X96045932Y-35065000D01*
X96000000Y-35060476D01*
X95954068Y-35065000D01*
X94414396Y-35065000D01*
X94234759Y-34885363D01*
X93999727Y-34728320D01*
X93738574Y-34620147D01*
X93461335Y-34565000D01*
X93178665Y-34565000D01*
X92901426Y-34620147D01*
X92640273Y-34728320D01*
X92405241Y-34885363D01*
X92205363Y-35085241D01*
X92048320Y-35320273D01*
X91940147Y-35581426D01*
X91885000Y-35858665D01*
X91885000Y-36141335D01*
X91903715Y-36235418D01*
X90974133Y-37165000D01*
X73839385Y-37165000D01*
X73914759Y-37114637D01*
X74114637Y-36914759D01*
X74271680Y-36679727D01*
X74379853Y-36418574D01*
X74435000Y-36141335D01*
X74435000Y-35858665D01*
X74379853Y-35581426D01*
X74271680Y-35320273D01*
X74114637Y-35085241D01*
X73914759Y-34885363D01*
X73835000Y-34832070D01*
X73835000Y-33835000D01*
X93958982Y-33835000D01*
X94000000Y-33839040D01*
X94041018Y-33835000D01*
X94041019Y-33835000D01*
X94163689Y-33822918D01*
X94321087Y-33775172D01*
X94466146Y-33697636D01*
X94593291Y-33593291D01*
X94619446Y-33561421D01*
X96561430Y-31619438D01*
X96593291Y-31593291D01*
X96697636Y-31466146D01*
X96775172Y-31321087D01*
X96822918Y-31163689D01*
X96835000Y-31041019D01*
X96835000Y-31041018D01*
X96839040Y-31000001D01*
X96835000Y-30958981D01*
X96835000Y-24041019D01*
X96839040Y-24000000D01*
X96822918Y-23836311D01*
X96775172Y-23678913D01*
X96697636Y-23533854D01*
X96593291Y-23406709D01*
X96466146Y-23302364D01*
X96321087Y-23224828D01*
X96163689Y-23177082D01*
X96041019Y-23165000D01*
X96000000Y-23160960D01*
X95958982Y-23165000D01*
X51041018Y-23165000D01*
X51000000Y-23160960D01*
X50958981Y-23165000D01*
X50836311Y-23177082D01*
X50678913Y-23224828D01*
X50533854Y-23302364D01*
X50406709Y-23406709D01*
X50302364Y-23533854D01*
X50224828Y-23678913D01*
X50177082Y-23836311D01*
X50160960Y-24000000D01*
X50165000Y-24041019D01*
X50165001Y-26958972D01*
X50160960Y-27000000D01*
X50177082Y-27163688D01*
X50224828Y-27321086D01*
X50287721Y-27438750D01*
X50302365Y-27466146D01*
X50406710Y-27593291D01*
X50438574Y-27619441D01*
X51110563Y-28291431D01*
X51136709Y-28323291D01*
X51168568Y-28349437D01*
X51168570Y-28349439D01*
X51263854Y-28427636D01*
X51408913Y-28505172D01*
X51566311Y-28552918D01*
X51730000Y-28569040D01*
X51771018Y-28565000D01*
X54613084Y-28565000D01*
X54615000Y-28714250D01*
X54773750Y-28873000D01*
X55546891Y-28873000D01*
X55547600Y-28873215D01*
X55718021Y-28890000D01*
X56281979Y-28890000D01*
X56452400Y-28873215D01*
X56453109Y-28873000D01*
X57226250Y-28873000D01*
X57385000Y-28714250D01*
X57388072Y-28475000D01*
X57375812Y-28350518D01*
X57339502Y-28230820D01*
X57304907Y-28166098D01*
X57368215Y-27957400D01*
X57390612Y-27730000D01*
X57368215Y-27502600D01*
X57335575Y-27395000D01*
X80702204Y-27395000D01*
X80745506Y-27430537D01*
X80855820Y-27489502D01*
X80874127Y-27495056D01*
X80807688Y-27561495D01*
X80711801Y-27705000D01*
X66501015Y-27705000D01*
X66459999Y-27700960D01*
X66418983Y-27705000D01*
X66418981Y-27705000D01*
X66296311Y-27717082D01*
X66138913Y-27764828D01*
X65993854Y-27842364D01*
X65866709Y-27946709D01*
X65840554Y-27978579D01*
X65438574Y-28380559D01*
X65406710Y-28406709D01*
X65380562Y-28438571D01*
X65302364Y-28533855D01*
X65224828Y-28678914D01*
X65177082Y-28836312D01*
X65160960Y-29000000D01*
X65165001Y-29041028D01*
X65165000Y-30165000D01*
X43041019Y-30165000D01*
X43000000Y-30160960D01*
X42958982Y-30165000D01*
X42958981Y-30165000D01*
X42836311Y-30177082D01*
X42678913Y-30224828D01*
X42533854Y-30302364D01*
X42406709Y-30406709D01*
X42302364Y-30533854D01*
X42224828Y-30678913D01*
X42177082Y-30836311D01*
X42160960Y-31000000D01*
X42165001Y-31041029D01*
X42165000Y-34512070D01*
X42085241Y-34565363D01*
X41885363Y-34765241D01*
X41728320Y-35000273D01*
X41620147Y-35261426D01*
X41565000Y-35538665D01*
X41565000Y-35821335D01*
X41620147Y-36098574D01*
X41728320Y-36359727D01*
X41885363Y-36594759D01*
X42085241Y-36794637D01*
X42320273Y-36951680D01*
X42581426Y-37059853D01*
X42858665Y-37115000D01*
X43141335Y-37115000D01*
X43418574Y-37059853D01*
X43679727Y-36951680D01*
X43914759Y-36794637D01*
X44114637Y-36594759D01*
X44271680Y-36359727D01*
X44379853Y-36098574D01*
X44435000Y-35821335D01*
X44435000Y-35538665D01*
X44379853Y-35261426D01*
X44271680Y-35000273D01*
X44114637Y-34765241D01*
X43914759Y-34565363D01*
X43835000Y-34512070D01*
X43835000Y-31835000D01*
X48984132Y-31835000D01*
X48438574Y-32380559D01*
X48406710Y-32406709D01*
X48325907Y-32505168D01*
X48302364Y-32533855D01*
X48224828Y-32678914D01*
X48177082Y-32836312D01*
X48160960Y-33000000D01*
X48165001Y-33041028D01*
X48165000Y-34512070D01*
X48085241Y-34565363D01*
X47885363Y-34765241D01*
X47728320Y-35000273D01*
X47620147Y-35261426D01*
X47565000Y-35538665D01*
X47565000Y-35821335D01*
X47620147Y-36098574D01*
X47728320Y-36359727D01*
X47885363Y-36594759D01*
X48085241Y-36794637D01*
X48320273Y-36951680D01*
X48581426Y-37059853D01*
X48858665Y-37115000D01*
X49141335Y-37115000D01*
X49418574Y-37059853D01*
X49679727Y-36951680D01*
X49914759Y-36794637D01*
X50114637Y-36594759D01*
X50271680Y-36359727D01*
X50379853Y-36098574D01*
X50435000Y-35821335D01*
X50435000Y-35538665D01*
X50379853Y-35261426D01*
X50271680Y-35000273D01*
X50114637Y-34765241D01*
X49914759Y-34565363D01*
X49835000Y-34512070D01*
X49835000Y-33345868D01*
X50345868Y-32835000D01*
X69958982Y-32835000D01*
X70000000Y-32839040D01*
X70041018Y-32835000D01*
X70041019Y-32835000D01*
X70163689Y-32822918D01*
X70321087Y-32775172D01*
X70466146Y-32697636D01*
X70593291Y-32593291D01*
X70619445Y-32561422D01*
X71345868Y-31835000D01*
X90498982Y-31835000D01*
X90540000Y-31839040D01*
X90581018Y-31835000D01*
X90581019Y-31835000D01*
X90703689Y-31822918D01*
X90861087Y-31775172D01*
X91006146Y-31697636D01*
X91133291Y-31593291D01*
X91159446Y-31561421D01*
X92679539Y-30041329D01*
X92848816Y-30075000D01*
X93151184Y-30075000D01*
X93447743Y-30016011D01*
X93727095Y-29900299D01*
X93978505Y-29732312D01*
X94192312Y-29518505D01*
X94360299Y-29267095D01*
X94476011Y-28987743D01*
X94535000Y-28691184D01*
X94535000Y-28388816D01*
X94476011Y-28092257D01*
X94360299Y-27812905D01*
X94192312Y-27561495D01*
X94125873Y-27495056D01*
X94144180Y-27489502D01*
X94254494Y-27430537D01*
X94351185Y-27351185D01*
X94430537Y-27254494D01*
X94489502Y-27144180D01*
X94525812Y-27024482D01*
X94538072Y-26900000D01*
X94538072Y-25100000D01*
X94525812Y-24975518D01*
X94489502Y-24855820D01*
X94478373Y-24835000D01*
X95165001Y-24835000D01*
X95165000Y-30654132D01*
X93654133Y-32165000D01*
X73041019Y-32165000D01*
X73000000Y-32160960D01*
X72958982Y-32165000D01*
X72958981Y-32165000D01*
X72836311Y-32177082D01*
X72678913Y-32224828D01*
X72533854Y-32302364D01*
X72406709Y-32406709D01*
X72302364Y-32533854D01*
X72224828Y-32678913D01*
X72177082Y-32836311D01*
X72160960Y-33000000D01*
X72165001Y-33041029D01*
X72165000Y-34832070D01*
X72085241Y-34885363D01*
X71885363Y-35085241D01*
X71728320Y-35320273D01*
X71620147Y-35581426D01*
X71565000Y-35858665D01*
X71565000Y-36141335D01*
X71620147Y-36418574D01*
X71728320Y-36679727D01*
X71885363Y-36914759D01*
X72085241Y-37114637D01*
X72160615Y-37165000D01*
X68345868Y-37165000D01*
X67835000Y-36654132D01*
X67835000Y-36192287D01*
X67844180Y-36189502D01*
X67954494Y-36130537D01*
X67971681Y-36116432D01*
X68098516Y-36174237D01*
X68335313Y-36230000D01*
X68578438Y-36238495D01*
X68818549Y-36199395D01*
X69046418Y-36114202D01*
X69122852Y-36073348D01*
X69170159Y-35849764D01*
X68500000Y-35179605D01*
X68485858Y-35193748D01*
X68306253Y-35014143D01*
X68320395Y-35000000D01*
X68679605Y-35000000D01*
X69349764Y-35670159D01*
X69573348Y-35622852D01*
X69674237Y-35401484D01*
X69730000Y-35164687D01*
X69738495Y-34921562D01*
X69699395Y-34681451D01*
X69614202Y-34453582D01*
X69573348Y-34377148D01*
X69349764Y-34329841D01*
X68679605Y-35000000D01*
X68320395Y-35000000D01*
X68306253Y-34985858D01*
X68485858Y-34806253D01*
X68500000Y-34820395D01*
X69170159Y-34150236D01*
X69122852Y-33926652D01*
X68901484Y-33825763D01*
X68664687Y-33770000D01*
X68421562Y-33761505D01*
X68181451Y-33800605D01*
X67967883Y-33880451D01*
X67954494Y-33869463D01*
X67844180Y-33810498D01*
X67724482Y-33774188D01*
X67600000Y-33761928D01*
X66400000Y-33761928D01*
X66275518Y-33774188D01*
X66155820Y-33810498D01*
X66045506Y-33869463D01*
X65948815Y-33948815D01*
X65869463Y-34045506D01*
X65810498Y-34155820D01*
X65774188Y-34275518D01*
X65761928Y-34400000D01*
X65761928Y-35600000D01*
X65774188Y-35724482D01*
X65810498Y-35844180D01*
X65869463Y-35954494D01*
X65948815Y-36051185D01*
X66045506Y-36130537D01*
X66155820Y-36189502D01*
X66165001Y-36192287D01*
X66165001Y-36958972D01*
X66160960Y-37000000D01*
X66177082Y-37163688D01*
X66224828Y-37321086D01*
X66302364Y-37466145D01*
X66302365Y-37466146D01*
X66406710Y-37593291D01*
X66438574Y-37619441D01*
X66984132Y-38165000D01*
X65041018Y-38165000D01*
X65000000Y-38160960D01*
X64958982Y-38165000D01*
X64958981Y-38165000D01*
X64836311Y-38177082D01*
X64678913Y-38224828D01*
X64533854Y-38302364D01*
X64470023Y-38354749D01*
X64449998Y-38371183D01*
X64406709Y-38406709D01*
X64380563Y-38438568D01*
X63438574Y-39380559D01*
X63406710Y-39406709D01*
X63335024Y-39494059D01*
X63302364Y-39533855D01*
X63224828Y-39678914D01*
X63177082Y-39836312D01*
X63160960Y-40000000D01*
X63165001Y-40041028D01*
X63165000Y-44654132D01*
X61985917Y-45833216D01*
X61973120Y-45814065D01*
X61778535Y-45619480D01*
X61577871Y-45485400D01*
X61778535Y-45351320D01*
X61973120Y-45156735D01*
X62126005Y-44927927D01*
X62231314Y-44673690D01*
X62285000Y-44403792D01*
X62285000Y-44128608D01*
X62231314Y-43858710D01*
X62126005Y-43604473D01*
X61973120Y-43375665D01*
X61778535Y-43181080D01*
X61549727Y-43028195D01*
X61295490Y-42922886D01*
X61025592Y-42869200D01*
X60750408Y-42869200D01*
X60480510Y-42922886D01*
X60226273Y-43028195D01*
X59997465Y-43181080D01*
X59802880Y-43375665D01*
X59649995Y-43604473D01*
X59544686Y-43858710D01*
X59491000Y-44128608D01*
X59491000Y-44403792D01*
X59544686Y-44673690D01*
X59649995Y-44927927D01*
X59802880Y-45156735D01*
X59997465Y-45351320D01*
X60198129Y-45485400D01*
X59997465Y-45619480D01*
X59802880Y-45814065D01*
X59799182Y-45819600D01*
X58071179Y-45819600D01*
X57885000Y-45633422D01*
X57885000Y-39366578D01*
X61013507Y-36238072D01*
X61600000Y-36238072D01*
X61724482Y-36225812D01*
X61844180Y-36189502D01*
X61954494Y-36130537D01*
X61971681Y-36116432D01*
X62098516Y-36174237D01*
X62335313Y-36230000D01*
X62578438Y-36238495D01*
X62818549Y-36199395D01*
X63046418Y-36114202D01*
X63122852Y-36073348D01*
X63170159Y-35849764D01*
X62500000Y-35179605D01*
X62485858Y-35193748D01*
X62306253Y-35014143D01*
X62320395Y-35000000D01*
X62679605Y-35000000D01*
X63349764Y-35670159D01*
X63573348Y-35622852D01*
X63674237Y-35401484D01*
X63730000Y-35164687D01*
X63738495Y-34921562D01*
X63699395Y-34681451D01*
X63614202Y-34453582D01*
X63573348Y-34377148D01*
X63349764Y-34329841D01*
X62679605Y-35000000D01*
X62320395Y-35000000D01*
X62306253Y-34985858D01*
X62485858Y-34806253D01*
X62500000Y-34820395D01*
X63170159Y-34150236D01*
X63122852Y-33926652D01*
X62901484Y-33825763D01*
X62664687Y-33770000D01*
X62421562Y-33761505D01*
X62181451Y-33800605D01*
X61967883Y-33880451D01*
X61954494Y-33869463D01*
X61844180Y-33810498D01*
X61724482Y-33774188D01*
X61600000Y-33761928D01*
X60400000Y-33761928D01*
X60275518Y-33774188D01*
X60155820Y-33810498D01*
X60045506Y-33869463D01*
X59948815Y-33948815D01*
X59869463Y-34045506D01*
X59810498Y-34155820D01*
X59774188Y-34275518D01*
X59761928Y-34400000D01*
X59761928Y-34986493D01*
X56404951Y-38343470D01*
X56371184Y-38371183D01*
X56343471Y-38404951D01*
X56343468Y-38404954D01*
X56260590Y-38505941D01*
X56178412Y-38659687D01*
X56127805Y-38826510D01*
X56110719Y-39000000D01*
X56115001Y-39043479D01*
X56115000Y-45956531D01*
X56110719Y-46000000D01*
X56115000Y-46043469D01*
X56115000Y-46043476D01*
X56127805Y-46173489D01*
X56178411Y-46340312D01*
X56260589Y-46494058D01*
X56371183Y-46628817D01*
X56404956Y-46656534D01*
X57048070Y-47299649D01*
X57075783Y-47333417D01*
X57109551Y-47361130D01*
X57109553Y-47361132D01*
X57159638Y-47402236D01*
X57210541Y-47444011D01*
X57364287Y-47526189D01*
X57531110Y-47576795D01*
X57661123Y-47589600D01*
X57661131Y-47589600D01*
X57704600Y-47593881D01*
X57748069Y-47589600D01*
X59799182Y-47589600D01*
X59802880Y-47595135D01*
X59997465Y-47789720D01*
X60198129Y-47923800D01*
X59997465Y-48057880D01*
X59802880Y-48252465D01*
X59799182Y-48258000D01*
X55885000Y-48258000D01*
X55885000Y-36814521D01*
X55914759Y-36794637D01*
X56114637Y-36594759D01*
X56271680Y-36359727D01*
X56379853Y-36098574D01*
X56435000Y-35821335D01*
X56435000Y-35538665D01*
X56379853Y-35261426D01*
X56271680Y-35000273D01*
X56114637Y-34765241D01*
X55914759Y-34565363D01*
X55679727Y-34408320D01*
X55418574Y-34300147D01*
X55141335Y-34245000D01*
X54858665Y-34245000D01*
X54581426Y-34300147D01*
X54320273Y-34408320D01*
X54085241Y-34565363D01*
X53885363Y-34765241D01*
X53728320Y-35000273D01*
X53620147Y-35261426D01*
X53565000Y-35538665D01*
X53565000Y-35821335D01*
X53620147Y-36098574D01*
X53728320Y-36359727D01*
X53885363Y-36594759D01*
X54085241Y-36794637D01*
X54115001Y-36814522D01*
X54115000Y-48956531D01*
X54110719Y-49000000D01*
X54115000Y-49043469D01*
X54115000Y-49043476D01*
X54127805Y-49173489D01*
X54178411Y-49340312D01*
X54260589Y-49494058D01*
X54371183Y-49628817D01*
X54404956Y-49656534D01*
X54486466Y-49738044D01*
X54514183Y-49771817D01*
X54648941Y-49882411D01*
X54802687Y-49964589D01*
X54969510Y-50015195D01*
X55099523Y-50028000D01*
X55099531Y-50028000D01*
X55143000Y-50032281D01*
X55186469Y-50028000D01*
X59799182Y-50028000D01*
X59802880Y-50033535D01*
X59997465Y-50228120D01*
X60217136Y-50374900D01*
X59997465Y-50521680D01*
X59802880Y-50716265D01*
X59649995Y-50945073D01*
X59544686Y-51199310D01*
X59491000Y-51469208D01*
X59491000Y-51744392D01*
X59544686Y-52014290D01*
X59649995Y-52268527D01*
X59802880Y-52497335D01*
X59953000Y-52647455D01*
X59953001Y-54724710D01*
X59612711Y-55065000D01*
X56094396Y-55065000D01*
X55914759Y-54885363D01*
X55679727Y-54728320D01*
X55418574Y-54620147D01*
X55141335Y-54565000D01*
X54858665Y-54565000D01*
X54581426Y-54620147D01*
X54320273Y-54728320D01*
X54085241Y-54885363D01*
X53885363Y-55085241D01*
X53728320Y-55320273D01*
X53620147Y-55581426D01*
X53565000Y-55858665D01*
X53565000Y-56141335D01*
X53620147Y-56418574D01*
X53728320Y-56679727D01*
X53885363Y-56914759D01*
X54065001Y-57094397D01*
X54065000Y-58612711D01*
X53612711Y-59065000D01*
X49935000Y-59065000D01*
X49935000Y-57094396D01*
X50114637Y-56914759D01*
X50271680Y-56679727D01*
X50379853Y-56418574D01*
X50435000Y-56141335D01*
X50435000Y-55858665D01*
X50379853Y-55581426D01*
X50271680Y-55320273D01*
X50114637Y-55085241D01*
X49914759Y-54885363D01*
X49679727Y-54728320D01*
X49418574Y-54620147D01*
X49141335Y-54565000D01*
X48858665Y-54565000D01*
X48581426Y-54620147D01*
X48320273Y-54728320D01*
X48085241Y-54885363D01*
X47885363Y-55085241D01*
X47728320Y-55320273D01*
X47620147Y-55581426D01*
X47565000Y-55858665D01*
X47565000Y-56141335D01*
X47620147Y-56418574D01*
X47728320Y-56679727D01*
X47885363Y-56914759D01*
X48065000Y-57094396D01*
X48065001Y-59065000D01*
X43935000Y-59065000D01*
X43935000Y-57094396D01*
X44114637Y-56914759D01*
X44271680Y-56679727D01*
X44379853Y-56418574D01*
X44435000Y-56141335D01*
X44435000Y-55858665D01*
X44379853Y-55581426D01*
X44271680Y-55320273D01*
X44114637Y-55085241D01*
X43914759Y-54885363D01*
X43679727Y-54728320D01*
X43418574Y-54620147D01*
X43141335Y-54565000D01*
X42858665Y-54565000D01*
X42581426Y-54620147D01*
X42320273Y-54728320D01*
X42085241Y-54885363D01*
X41885363Y-55085241D01*
X41728320Y-55320273D01*
X41620147Y-55581426D01*
X41565000Y-55858665D01*
X41565000Y-56141335D01*
X41620147Y-56418574D01*
X41728320Y-56679727D01*
X41885363Y-56914759D01*
X42065000Y-57094396D01*
X42065001Y-59065000D01*
X23435000Y-59065000D01*
X23435000Y-58281517D01*
X23488186Y-58245979D01*
X23519463Y-58304494D01*
X23598815Y-58401185D01*
X23695506Y-58480537D01*
X23805820Y-58539502D01*
X23925518Y-58575812D01*
X24050000Y-58588072D01*
X25950000Y-58588072D01*
X26074482Y-58575812D01*
X26194180Y-58539502D01*
X26304494Y-58480537D01*
X26401185Y-58401185D01*
X26480537Y-58304494D01*
X26539502Y-58194180D01*
X26575812Y-58074482D01*
X26588072Y-57950000D01*
X26588072Y-56050000D01*
X26575812Y-55925518D01*
X26539502Y-55805820D01*
X26480537Y-55695506D01*
X26401185Y-55598815D01*
X26304494Y-55519463D01*
X26194180Y-55460498D01*
X26074482Y-55424188D01*
X25950000Y-55411928D01*
X24050000Y-55411928D01*
X23925518Y-55424188D01*
X23805820Y-55460498D01*
X23695506Y-55519463D01*
X23598815Y-55598815D01*
X23519463Y-55695506D01*
X23488186Y-55754021D01*
X23250779Y-55595391D01*
X22962327Y-55475911D01*
X22656109Y-55415000D01*
X22343891Y-55415000D01*
X22037673Y-55475911D01*
X21749221Y-55595391D01*
X21489621Y-55768850D01*
X21268850Y-55989621D01*
X21250000Y-56017832D01*
X21231150Y-55989621D01*
X21135000Y-55893471D01*
X21135000Y-50470132D01*
X21470132Y-50135000D01*
X26491312Y-50135000D01*
X26535825Y-50201618D01*
X26798382Y-50464175D01*
X27107118Y-50670466D01*
X27450166Y-50812561D01*
X27814344Y-50885000D01*
X28185656Y-50885000D01*
X28549834Y-50812561D01*
X28892882Y-50670466D01*
X29201618Y-50464175D01*
X29464175Y-50201618D01*
X29670466Y-49892882D01*
X29812561Y-49549834D01*
X29885000Y-49185656D01*
X29885000Y-48814344D01*
X29812561Y-48450166D01*
X29670466Y-48107118D01*
X29464175Y-47798382D01*
X29201618Y-47535825D01*
X28892882Y-47329534D01*
X28549834Y-47187439D01*
X28185656Y-47115000D01*
X27814344Y-47115000D01*
X27450166Y-47187439D01*
X27107118Y-47329534D01*
X26798382Y-47535825D01*
X26535825Y-47798382D01*
X26491312Y-47865000D01*
X21055752Y-47865000D01*
X21000000Y-47859509D01*
X20777501Y-47881423D01*
X20563553Y-47946324D01*
X20366377Y-48051716D01*
X20236856Y-48158011D01*
X20236854Y-48158013D01*
X20193551Y-48193551D01*
X20158013Y-48236855D01*
X19236859Y-49158009D01*
X19193552Y-49193551D01*
X19051717Y-49366377D01*
X19014264Y-49436447D01*
X18946324Y-49563554D01*
X18881423Y-49777502D01*
X18859509Y-50000000D01*
X18865001Y-50055761D01*
X18865000Y-55893471D01*
X18768850Y-55989621D01*
X18595391Y-56249221D01*
X18475911Y-56537673D01*
X18415000Y-56843891D01*
X18415000Y-57156109D01*
X18475911Y-57462327D01*
X18595391Y-57750779D01*
X18768850Y-58010379D01*
X18989621Y-58231150D01*
X19249221Y-58404609D01*
X19537673Y-58524089D01*
X19843891Y-58585000D01*
X20156109Y-58585000D01*
X20462327Y-58524089D01*
X20750779Y-58404609D01*
X21010379Y-58231150D01*
X21231150Y-58010379D01*
X21250000Y-57982168D01*
X21268850Y-58010379D01*
X21489621Y-58231150D01*
X21565000Y-58281517D01*
X21565001Y-60454058D01*
X21560476Y-60500000D01*
X21578529Y-60683291D01*
X21631994Y-60859540D01*
X21718815Y-61021972D01*
X21835657Y-61164344D01*
X21934539Y-61245495D01*
X14660000Y-61332096D01*
X14660000Y-30085000D01*
X26276928Y-30085000D01*
X26289188Y-30209482D01*
X26325498Y-30329180D01*
X26384463Y-30439494D01*
X26463815Y-30536185D01*
X26560506Y-30615537D01*
X26670820Y-30674502D01*
X26790518Y-30710812D01*
X26915000Y-30723072D01*
X27714250Y-30720000D01*
X27873000Y-30561250D01*
X27873000Y-29127000D01*
X28127000Y-29127000D01*
X28127000Y-30561250D01*
X28285750Y-30720000D01*
X29085000Y-30723072D01*
X29209482Y-30710812D01*
X29329180Y-30674502D01*
X29439494Y-30615537D01*
X29536185Y-30536185D01*
X29615537Y-30439494D01*
X29674502Y-30329180D01*
X29710812Y-30209482D01*
X29723072Y-30085000D01*
X29720920Y-29525000D01*
X54611928Y-29525000D01*
X54624188Y-29649482D01*
X54660498Y-29769180D01*
X54719463Y-29879494D01*
X54798815Y-29976185D01*
X54895506Y-30055537D01*
X55005820Y-30114502D01*
X55125518Y-30150812D01*
X55250000Y-30163072D01*
X55714250Y-30160000D01*
X55873000Y-30001250D01*
X55873000Y-29127000D01*
X56127000Y-29127000D01*
X56127000Y-30001250D01*
X56285750Y-30160000D01*
X56750000Y-30163072D01*
X56874482Y-30150812D01*
X56994180Y-30114502D01*
X57104494Y-30055537D01*
X57201185Y-29976185D01*
X57280537Y-29879494D01*
X57339502Y-29769180D01*
X57375812Y-29649482D01*
X57388072Y-29525000D01*
X57385000Y-29285750D01*
X57226250Y-29127000D01*
X56127000Y-29127000D01*
X55873000Y-29127000D01*
X54773750Y-29127000D01*
X54615000Y-29285750D01*
X54611928Y-29525000D01*
X29720920Y-29525000D01*
X29720000Y-29285750D01*
X29561250Y-29127000D01*
X28127000Y-29127000D01*
X27873000Y-29127000D01*
X26438750Y-29127000D01*
X26280000Y-29285750D01*
X26276928Y-30085000D01*
X14660000Y-30085000D01*
X14660000Y-27915000D01*
X26276928Y-27915000D01*
X26280000Y-28714250D01*
X26438750Y-28873000D01*
X27873000Y-28873000D01*
X27873000Y-27438750D01*
X28127000Y-27438750D01*
X28127000Y-28873000D01*
X29561250Y-28873000D01*
X29720000Y-28714250D01*
X29723072Y-27915000D01*
X29710812Y-27790518D01*
X29674502Y-27670820D01*
X29615537Y-27560506D01*
X29536185Y-27463815D01*
X29439494Y-27384463D01*
X29329180Y-27325498D01*
X29209482Y-27289188D01*
X29085000Y-27276928D01*
X28285750Y-27280000D01*
X28127000Y-27438750D01*
X27873000Y-27438750D01*
X27714250Y-27280000D01*
X26915000Y-27276928D01*
X26790518Y-27289188D01*
X26670820Y-27325498D01*
X26560506Y-27384463D01*
X26463815Y-27463815D01*
X26384463Y-27560506D01*
X26325498Y-27670820D01*
X26289188Y-27790518D01*
X26276928Y-27915000D01*
X14660000Y-27915000D01*
X14660000Y-22660000D01*
X97340000Y-22660000D01*
X97340001Y-60347811D01*
M02*
