M48
; DRILL file {KiCad (5.1.5)-3} date 12/23/2019 7:31:20 PM
; FORMAT={-:-/ absolute / metric / decimal}
; #@! TF.CreationDate,2019-12-23T19:31:20-05:00
; #@! TF.GenerationSoftware,Kicad,Pcbnew,(5.1.5)-3
; #@! TF.FileFunction,Plated,1,2,PTH
FMAT,2
METRIC
T1C0.400
T2C0.762
T3C0.800
T4C0.900
T5C1.520
%
G90
G05
T1
X20.0Y-70.0
X25.0Y-111.0
X28.0Y-63.0
X54.0Y-104.0
X58.0Y-83.0
X61.0Y-93.0
X62.0Y-107.0
X64.0Y-100.0
X67.0Y-77.0
X70.0Y-104.0
T2
X28.003Y-112.897
X28.003Y-115.45
X28.003Y-118.714
X20.829Y-38.569
X20.854Y-50.291
X27.28Y-52.272
X32.602Y-38.569
X32.614Y-50.291
X71.829Y-38.569
X71.854Y-50.291
X78.28Y-52.272
X83.602Y-38.569
X83.614Y-50.291
X75.362Y-137.244
X77.851Y-137.244
X80.353Y-137.244
X39.829Y-38.569
X39.854Y-50.291
X46.28Y-52.272
X51.602Y-38.569
X51.614Y-50.291
T3
X72.0Y-89.0
X84.7Y-89.0
X47.0Y-87.0
X47.0Y-89.54
X57.16Y-87.0
X57.16Y-89.54
X33.0Y-58.3
X33.0Y-71.0
X41.0Y-61.84
X41.0Y-72.0
X43.54Y-61.84
X43.54Y-72.0
X29.0Y-124.0
X29.0Y-126.5
X47.0Y-78.0
X47.0Y-80.54
X54.62Y-78.0
X54.62Y-80.54
X72.0Y-97.0
X84.7Y-97.0
X76.0Y-61.3
X76.0Y-74.0
X47.44Y-112.0
X47.44Y-127.24
X49.98Y-112.0
X49.98Y-127.24
X52.52Y-112.0
X52.52Y-127.24
X55.06Y-112.0
X55.06Y-127.24
X57.6Y-112.0
X57.6Y-127.24
X60.14Y-112.0
X60.14Y-127.24
X62.68Y-112.0
X62.68Y-127.24
X65.22Y-112.0
X65.22Y-127.24
X67.76Y-112.0
X67.76Y-127.24
X70.3Y-112.0
X70.3Y-127.24
X72.84Y-112.0
X72.84Y-127.24
X75.38Y-112.0
X75.38Y-127.24
X77.92Y-112.0
X77.92Y-127.24
X80.46Y-112.0
X80.46Y-127.24
X83.0Y-112.0
X83.0Y-127.24
X72.0Y-80.0
X84.7Y-80.0
X28.3Y-89.0
X41.0Y-89.0
X28.3Y-78.0
X41.0Y-78.0
X57.0Y-59.0
X57.0Y-71.7
X47.0Y-96.0
X47.0Y-98.54
X57.16Y-96.0
X57.16Y-98.54
X83.0Y-61.84
X83.0Y-72.0
X85.54Y-61.84
X85.54Y-72.0
X28.3Y-98.0
X41.0Y-98.0
X66.0Y-61.84
X66.0Y-72.0
X68.54Y-61.84
X68.54Y-72.0
X37.0Y-112.0
X37.0Y-114.5
T4
X73.0Y-57.0
X80.62Y-57.0
X39.0Y-58.0
X46.62Y-58.0
X20.0Y-57.0
X27.62Y-57.0
T5
X24.0Y-23.0
X29.08Y-23.0
X34.16Y-23.0
X39.24Y-23.0
X44.32Y-23.0
X49.4Y-23.0
X20.0Y-76.84
X20.0Y-81.92
X20.0Y-87.0
X20.0Y-125.0
X20.0Y-130.08
X20.0Y-135.16
X20.0Y-93.0
X20.0Y-98.08
X20.0Y-103.16
X20.0Y-108.24
X20.0Y-113.32
X20.0Y-118.4
X71.84Y-24.0
X76.92Y-24.0
X82.0Y-24.0
X36.0Y-136.0
X41.08Y-136.0
X46.16Y-136.0
T0
M30
