G04 #@! TF.GenerationSoftware,KiCad,Pcbnew,(5.1.5)-3*
G04 #@! TF.CreationDate,2019-12-23T19:31:05-05:00*
G04 #@! TF.ProjectId,control_digital,636f6e74-726f-46c5-9f64-69676974616c,rev?*
G04 #@! TF.SameCoordinates,Original*
G04 #@! TF.FileFunction,Legend,Top*
G04 #@! TF.FilePolarity,Positive*
%FSLAX46Y46*%
G04 Gerber Fmt 4.6, Leading zero omitted, Abs format (unit mm)*
G04 Created by KiCad (PCBNEW (5.1.5)-3) date 2019-12-23 19:31:05*
%MOMM*%
%LPD*%
G04 APERTURE LIST*
%ADD10C,0.150000*%
%ADD11C,0.120000*%
G04 APERTURE END LIST*
D10*
X34238095Y-140500000D02*
X34142857Y-140452380D01*
X34000000Y-140452380D01*
X33857142Y-140500000D01*
X33761904Y-140595238D01*
X33714285Y-140690476D01*
X33666666Y-140880952D01*
X33666666Y-141023809D01*
X33714285Y-141214285D01*
X33761904Y-141309523D01*
X33857142Y-141404761D01*
X34000000Y-141452380D01*
X34095238Y-141452380D01*
X34238095Y-141404761D01*
X34285714Y-141357142D01*
X34285714Y-141023809D01*
X34095238Y-141023809D01*
X34714285Y-141452380D02*
X34714285Y-140452380D01*
X35285714Y-141452380D01*
X35285714Y-140452380D01*
X35761904Y-141452380D02*
X35761904Y-140452380D01*
X36000000Y-140452380D01*
X36142857Y-140500000D01*
X36238095Y-140595238D01*
X36285714Y-140690476D01*
X36333333Y-140880952D01*
X36333333Y-141023809D01*
X36285714Y-141214285D01*
X36238095Y-141309523D01*
X36142857Y-141404761D01*
X36000000Y-141452380D01*
X35761904Y-141452380D01*
X40238095Y-140500000D02*
X40142857Y-140452380D01*
X40000000Y-140452380D01*
X39857142Y-140500000D01*
X39761904Y-140595238D01*
X39714285Y-140690476D01*
X39666666Y-140880952D01*
X39666666Y-141023809D01*
X39714285Y-141214285D01*
X39761904Y-141309523D01*
X39857142Y-141404761D01*
X40000000Y-141452380D01*
X40095238Y-141452380D01*
X40238095Y-141404761D01*
X40285714Y-141357142D01*
X40285714Y-141023809D01*
X40095238Y-141023809D01*
X40714285Y-141452380D02*
X40714285Y-140452380D01*
X41285714Y-141452380D01*
X41285714Y-140452380D01*
X41761904Y-141452380D02*
X41761904Y-140452380D01*
X42000000Y-140452380D01*
X42142857Y-140500000D01*
X42238095Y-140595238D01*
X42285714Y-140690476D01*
X42333333Y-140880952D01*
X42333333Y-141023809D01*
X42285714Y-141214285D01*
X42238095Y-141309523D01*
X42142857Y-141404761D01*
X42000000Y-141452380D01*
X41761904Y-141452380D01*
X45285714Y-141071428D02*
X46047619Y-141071428D01*
X45666666Y-141452380D02*
X45666666Y-140690476D01*
X46476190Y-140547619D02*
X46523809Y-140500000D01*
X46619047Y-140452380D01*
X46857142Y-140452380D01*
X46952380Y-140500000D01*
X47000000Y-140547619D01*
X47047619Y-140642857D01*
X47047619Y-140738095D01*
X47000000Y-140880952D01*
X46428571Y-141452380D01*
X47047619Y-141452380D01*
X47904761Y-140785714D02*
X47904761Y-141452380D01*
X47666666Y-140404761D02*
X47428571Y-141119047D01*
X48047619Y-141119047D01*
X48333333Y-140785714D02*
X48571428Y-141452380D01*
X48809523Y-140785714D01*
X51095238Y-135532142D02*
X51047619Y-135579761D01*
X50904761Y-135627380D01*
X50809523Y-135627380D01*
X50666666Y-135579761D01*
X50571428Y-135484523D01*
X50523809Y-135389285D01*
X50476190Y-135198809D01*
X50476190Y-135055952D01*
X50523809Y-134865476D01*
X50571428Y-134770238D01*
X50666666Y-134675000D01*
X50809523Y-134627380D01*
X50904761Y-134627380D01*
X51047619Y-134675000D01*
X51095238Y-134722619D01*
X51666666Y-135627380D02*
X51571428Y-135579761D01*
X51523809Y-135532142D01*
X51476190Y-135436904D01*
X51476190Y-135151190D01*
X51523809Y-135055952D01*
X51571428Y-135008333D01*
X51666666Y-134960714D01*
X51809523Y-134960714D01*
X51904761Y-135008333D01*
X51952380Y-135055952D01*
X52000000Y-135151190D01*
X52000000Y-135436904D01*
X51952380Y-135532142D01*
X51904761Y-135579761D01*
X51809523Y-135627380D01*
X51666666Y-135627380D01*
X52428571Y-134960714D02*
X52428571Y-135627380D01*
X52428571Y-135055952D02*
X52476190Y-135008333D01*
X52571428Y-134960714D01*
X52714285Y-134960714D01*
X52809523Y-135008333D01*
X52857142Y-135103571D01*
X52857142Y-135627380D01*
X53190476Y-134960714D02*
X53571428Y-134960714D01*
X53333333Y-134627380D02*
X53333333Y-135484523D01*
X53380952Y-135579761D01*
X53476190Y-135627380D01*
X53571428Y-135627380D01*
X53904761Y-135627380D02*
X53904761Y-134960714D01*
X53904761Y-135151190D02*
X53952380Y-135055952D01*
X54000000Y-135008333D01*
X54095238Y-134960714D01*
X54190476Y-134960714D01*
X54666666Y-135627380D02*
X54571428Y-135579761D01*
X54523809Y-135532142D01*
X54476190Y-135436904D01*
X54476190Y-135151190D01*
X54523809Y-135055952D01*
X54571428Y-135008333D01*
X54666666Y-134960714D01*
X54809523Y-134960714D01*
X54904761Y-135008333D01*
X54952380Y-135055952D01*
X55000000Y-135151190D01*
X55000000Y-135436904D01*
X54952380Y-135532142D01*
X54904761Y-135579761D01*
X54809523Y-135627380D01*
X54666666Y-135627380D01*
X55571428Y-135627380D02*
X55476190Y-135579761D01*
X55428571Y-135484523D01*
X55428571Y-134627380D01*
X50333333Y-136277380D02*
X50666666Y-137277380D01*
X51000000Y-136277380D01*
X51476190Y-137277380D02*
X51380952Y-137229761D01*
X51333333Y-137182142D01*
X51285714Y-137086904D01*
X51285714Y-136801190D01*
X51333333Y-136705952D01*
X51380952Y-136658333D01*
X51476190Y-136610714D01*
X51619047Y-136610714D01*
X51714285Y-136658333D01*
X51761904Y-136705952D01*
X51809523Y-136801190D01*
X51809523Y-137086904D01*
X51761904Y-137182142D01*
X51714285Y-137229761D01*
X51619047Y-137277380D01*
X51476190Y-137277380D01*
X52380952Y-137277380D02*
X52285714Y-137229761D01*
X52238095Y-137134523D01*
X52238095Y-136277380D01*
X52619047Y-136610714D02*
X53000000Y-136610714D01*
X52761904Y-136277380D02*
X52761904Y-137134523D01*
X52809523Y-137229761D01*
X52904761Y-137277380D01*
X53000000Y-137277380D01*
X53761904Y-137277380D02*
X53761904Y-136753571D01*
X53714285Y-136658333D01*
X53619047Y-136610714D01*
X53428571Y-136610714D01*
X53333333Y-136658333D01*
X53761904Y-137229761D02*
X53666666Y-137277380D01*
X53428571Y-137277380D01*
X53333333Y-137229761D01*
X53285714Y-137134523D01*
X53285714Y-137039285D01*
X53333333Y-136944047D01*
X53428571Y-136896428D01*
X53666666Y-136896428D01*
X53761904Y-136848809D01*
X54666666Y-136610714D02*
X54666666Y-137420238D01*
X54619047Y-137515476D01*
X54571428Y-137563095D01*
X54476190Y-137610714D01*
X54333333Y-137610714D01*
X54238095Y-137563095D01*
X54666666Y-137229761D02*
X54571428Y-137277380D01*
X54380952Y-137277380D01*
X54285714Y-137229761D01*
X54238095Y-137182142D01*
X54190476Y-137086904D01*
X54190476Y-136801190D01*
X54238095Y-136705952D01*
X54285714Y-136658333D01*
X54380952Y-136610714D01*
X54571428Y-136610714D01*
X54666666Y-136658333D01*
X55523809Y-137229761D02*
X55428571Y-137277380D01*
X55238095Y-137277380D01*
X55142857Y-137229761D01*
X55095238Y-137134523D01*
X55095238Y-136753571D01*
X55142857Y-136658333D01*
X55238095Y-136610714D01*
X55428571Y-136610714D01*
X55523809Y-136658333D01*
X55571428Y-136753571D01*
X55571428Y-136848809D01*
X55095238Y-136944047D01*
D11*
X45300000Y-94000000D02*
G75*
G03X45300000Y-94000000I-300000J0D01*
G01*
X45300000Y-86000000D02*
G75*
G03X45300000Y-86000000I-300000J0D01*
G01*
X48300000Y-75000000D02*
G75*
G03X48300000Y-75000000I-300000J0D01*
G01*
X39300000Y-70000000D02*
G75*
G03X39300000Y-70000000I-300000J0D01*
G01*
X64300000Y-70000000D02*
G75*
G03X64300000Y-70000000I-300000J0D01*
G01*
X82300000Y-74000000D02*
G75*
G03X82300000Y-74000000I-300000J0D01*
G01*
X25000000Y-122000000D02*
X14000000Y-122000000D01*
X24000000Y-90000000D02*
X14000000Y-90000000D01*
D10*
X14190476Y-86452380D02*
X14523809Y-87452380D01*
X14857142Y-86452380D01*
X15761904Y-87357142D02*
X15714285Y-87404761D01*
X15571428Y-87452380D01*
X15476190Y-87452380D01*
X15333333Y-87404761D01*
X15238095Y-87309523D01*
X15190476Y-87214285D01*
X15142857Y-87023809D01*
X15142857Y-86880952D01*
X15190476Y-86690476D01*
X15238095Y-86595238D01*
X15333333Y-86500000D01*
X15476190Y-86452380D01*
X15571428Y-86452380D01*
X15714285Y-86500000D01*
X15761904Y-86547619D01*
X16761904Y-87357142D02*
X16714285Y-87404761D01*
X16571428Y-87452380D01*
X16476190Y-87452380D01*
X16333333Y-87404761D01*
X16238095Y-87309523D01*
X16190476Y-87214285D01*
X16142857Y-87023809D01*
X16142857Y-86880952D01*
X16190476Y-86690476D01*
X16238095Y-86595238D01*
X16333333Y-86500000D01*
X16476190Y-86452380D01*
X16571428Y-86452380D01*
X16714285Y-86500000D01*
X16761904Y-86547619D01*
X17142857Y-87404761D02*
X17285714Y-87452380D01*
X17523809Y-87452380D01*
X17619047Y-87404761D01*
X17666666Y-87357142D01*
X17714285Y-87261904D01*
X17714285Y-87166666D01*
X17666666Y-87071428D01*
X17619047Y-87023809D01*
X17523809Y-86976190D01*
X17333333Y-86928571D01*
X17238095Y-86880952D01*
X17190476Y-86833333D01*
X17142857Y-86738095D01*
X17142857Y-86642857D01*
X17190476Y-86547619D01*
X17238095Y-86500000D01*
X17333333Y-86452380D01*
X17571428Y-86452380D01*
X17714285Y-86500000D01*
X14190476Y-102452380D02*
X14523809Y-103452380D01*
X14857142Y-102452380D01*
X15761904Y-103357142D02*
X15714285Y-103404761D01*
X15571428Y-103452380D01*
X15476190Y-103452380D01*
X15333333Y-103404761D01*
X15238095Y-103309523D01*
X15190476Y-103214285D01*
X15142857Y-103023809D01*
X15142857Y-102880952D01*
X15190476Y-102690476D01*
X15238095Y-102595238D01*
X15333333Y-102500000D01*
X15476190Y-102452380D01*
X15571428Y-102452380D01*
X15714285Y-102500000D01*
X15761904Y-102547619D01*
X16761904Y-103357142D02*
X16714285Y-103404761D01*
X16571428Y-103452380D01*
X16476190Y-103452380D01*
X16333333Y-103404761D01*
X16238095Y-103309523D01*
X16190476Y-103214285D01*
X16142857Y-103023809D01*
X16142857Y-102880952D01*
X16190476Y-102690476D01*
X16238095Y-102595238D01*
X16333333Y-102500000D01*
X16476190Y-102452380D01*
X16571428Y-102452380D01*
X16714285Y-102500000D01*
X16761904Y-102547619D01*
X17142857Y-103404761D02*
X17285714Y-103452380D01*
X17523809Y-103452380D01*
X17619047Y-103404761D01*
X17666666Y-103357142D01*
X17714285Y-103261904D01*
X17714285Y-103166666D01*
X17666666Y-103071428D01*
X17619047Y-103023809D01*
X17523809Y-102976190D01*
X17333333Y-102928571D01*
X17238095Y-102880952D01*
X17190476Y-102833333D01*
X17142857Y-102738095D01*
X17142857Y-102642857D01*
X17190476Y-102547619D01*
X17238095Y-102500000D01*
X17333333Y-102452380D01*
X17571428Y-102452380D01*
X17714285Y-102500000D01*
X14190476Y-117452380D02*
X14523809Y-118452380D01*
X14857142Y-117452380D01*
X15761904Y-118357142D02*
X15714285Y-118404761D01*
X15571428Y-118452380D01*
X15476190Y-118452380D01*
X15333333Y-118404761D01*
X15238095Y-118309523D01*
X15190476Y-118214285D01*
X15142857Y-118023809D01*
X15142857Y-117880952D01*
X15190476Y-117690476D01*
X15238095Y-117595238D01*
X15333333Y-117500000D01*
X15476190Y-117452380D01*
X15571428Y-117452380D01*
X15714285Y-117500000D01*
X15761904Y-117547619D01*
X16761904Y-118357142D02*
X16714285Y-118404761D01*
X16571428Y-118452380D01*
X16476190Y-118452380D01*
X16333333Y-118404761D01*
X16238095Y-118309523D01*
X16190476Y-118214285D01*
X16142857Y-118023809D01*
X16142857Y-117880952D01*
X16190476Y-117690476D01*
X16238095Y-117595238D01*
X16333333Y-117500000D01*
X16476190Y-117452380D01*
X16571428Y-117452380D01*
X16714285Y-117500000D01*
X16761904Y-117547619D01*
X17142857Y-118404761D02*
X17285714Y-118452380D01*
X17523809Y-118452380D01*
X17619047Y-118404761D01*
X17666666Y-118357142D01*
X17714285Y-118261904D01*
X17714285Y-118166666D01*
X17666666Y-118071428D01*
X17619047Y-118023809D01*
X17523809Y-117976190D01*
X17333333Y-117928571D01*
X17238095Y-117880952D01*
X17190476Y-117833333D01*
X17142857Y-117738095D01*
X17142857Y-117642857D01*
X17190476Y-117547619D01*
X17238095Y-117500000D01*
X17333333Y-117452380D01*
X17571428Y-117452380D01*
X17714285Y-117500000D01*
X14761904Y-81500000D02*
X14666666Y-81452380D01*
X14523809Y-81452380D01*
X14380952Y-81500000D01*
X14285714Y-81595238D01*
X14238095Y-81690476D01*
X14190476Y-81880952D01*
X14190476Y-82023809D01*
X14238095Y-82214285D01*
X14285714Y-82309523D01*
X14380952Y-82404761D01*
X14523809Y-82452380D01*
X14619047Y-82452380D01*
X14761904Y-82404761D01*
X14809523Y-82357142D01*
X14809523Y-82023809D01*
X14619047Y-82023809D01*
X15238095Y-82452380D02*
X15238095Y-81452380D01*
X15809523Y-82452380D01*
X15809523Y-81452380D01*
X16285714Y-82452380D02*
X16285714Y-81452380D01*
X16523809Y-81452380D01*
X16666666Y-81500000D01*
X16761904Y-81595238D01*
X16809523Y-81690476D01*
X16857142Y-81880952D01*
X16857142Y-82023809D01*
X16809523Y-82214285D01*
X16761904Y-82309523D01*
X16666666Y-82404761D01*
X16523809Y-82452380D01*
X16285714Y-82452380D01*
X17238095Y-82404761D02*
X17380952Y-82452380D01*
X17619047Y-82452380D01*
X17714285Y-82404761D01*
X17761904Y-82357142D01*
X17809523Y-82261904D01*
X17809523Y-82166666D01*
X17761904Y-82071428D01*
X17714285Y-82023809D01*
X17619047Y-81976190D01*
X17428571Y-81928571D01*
X17333333Y-81880952D01*
X17285714Y-81833333D01*
X17238095Y-81738095D01*
X17238095Y-81642857D01*
X17285714Y-81547619D01*
X17333333Y-81500000D01*
X17428571Y-81452380D01*
X17666666Y-81452380D01*
X17809523Y-81500000D01*
X14761904Y-97500000D02*
X14666666Y-97452380D01*
X14523809Y-97452380D01*
X14380952Y-97500000D01*
X14285714Y-97595238D01*
X14238095Y-97690476D01*
X14190476Y-97880952D01*
X14190476Y-98023809D01*
X14238095Y-98214285D01*
X14285714Y-98309523D01*
X14380952Y-98404761D01*
X14523809Y-98452380D01*
X14619047Y-98452380D01*
X14761904Y-98404761D01*
X14809523Y-98357142D01*
X14809523Y-98023809D01*
X14619047Y-98023809D01*
X15238095Y-98452380D02*
X15238095Y-97452380D01*
X15809523Y-98452380D01*
X15809523Y-97452380D01*
X16285714Y-98452380D02*
X16285714Y-97452380D01*
X16523809Y-97452380D01*
X16666666Y-97500000D01*
X16761904Y-97595238D01*
X16809523Y-97690476D01*
X16857142Y-97880952D01*
X16857142Y-98023809D01*
X16809523Y-98214285D01*
X16761904Y-98309523D01*
X16666666Y-98404761D01*
X16523809Y-98452380D01*
X16285714Y-98452380D01*
X17238095Y-98404761D02*
X17380952Y-98452380D01*
X17619047Y-98452380D01*
X17714285Y-98404761D01*
X17761904Y-98357142D01*
X17809523Y-98261904D01*
X17809523Y-98166666D01*
X17761904Y-98071428D01*
X17714285Y-98023809D01*
X17619047Y-97976190D01*
X17428571Y-97928571D01*
X17333333Y-97880952D01*
X17285714Y-97833333D01*
X17238095Y-97738095D01*
X17238095Y-97642857D01*
X17285714Y-97547619D01*
X17333333Y-97500000D01*
X17428571Y-97452380D01*
X17666666Y-97452380D01*
X17809523Y-97500000D01*
X14761904Y-112500000D02*
X14666666Y-112452380D01*
X14523809Y-112452380D01*
X14380952Y-112500000D01*
X14285714Y-112595238D01*
X14238095Y-112690476D01*
X14190476Y-112880952D01*
X14190476Y-113023809D01*
X14238095Y-113214285D01*
X14285714Y-113309523D01*
X14380952Y-113404761D01*
X14523809Y-113452380D01*
X14619047Y-113452380D01*
X14761904Y-113404761D01*
X14809523Y-113357142D01*
X14809523Y-113023809D01*
X14619047Y-113023809D01*
X15238095Y-113452380D02*
X15238095Y-112452380D01*
X15809523Y-113452380D01*
X15809523Y-112452380D01*
X16285714Y-113452380D02*
X16285714Y-112452380D01*
X16523809Y-112452380D01*
X16666666Y-112500000D01*
X16761904Y-112595238D01*
X16809523Y-112690476D01*
X16857142Y-112880952D01*
X16857142Y-113023809D01*
X16809523Y-113214285D01*
X16761904Y-113309523D01*
X16666666Y-113404761D01*
X16523809Y-113452380D01*
X16285714Y-113452380D01*
X17238095Y-113404761D02*
X17380952Y-113452380D01*
X17619047Y-113452380D01*
X17714285Y-113404761D01*
X17761904Y-113357142D01*
X17809523Y-113261904D01*
X17809523Y-113166666D01*
X17761904Y-113071428D01*
X17714285Y-113023809D01*
X17619047Y-112976190D01*
X17428571Y-112928571D01*
X17333333Y-112880952D01*
X17285714Y-112833333D01*
X17238095Y-112738095D01*
X17238095Y-112642857D01*
X17285714Y-112547619D01*
X17333333Y-112500000D01*
X17428571Y-112452380D01*
X17666666Y-112452380D01*
X17809523Y-112500000D01*
D11*
X15000000Y-106000000D02*
X23000000Y-106000000D01*
X67000000Y-30000000D02*
X67000000Y-28000000D01*
X89000000Y-30000000D02*
X67000000Y-30000000D01*
X89000000Y-16000000D02*
X89000000Y-30000000D01*
X67000000Y-16000000D02*
X89000000Y-16000000D01*
X67000000Y-29000000D02*
X67000000Y-16000000D01*
X37000000Y-16000000D02*
X37000000Y-27000000D01*
X52000000Y-27000000D02*
X52000000Y-16000000D01*
X21000000Y-27000000D02*
X52000000Y-27000000D01*
X21000000Y-16000000D02*
X21000000Y-27000000D01*
X52000000Y-16000000D02*
X21000000Y-16000000D01*
X52000000Y-27000000D02*
X52000000Y-16000000D01*
D10*
X87452380Y-25380952D02*
X86452380Y-25380952D01*
X86452380Y-25142857D01*
X86500000Y-25000000D01*
X86595238Y-24904761D01*
X86690476Y-24857142D01*
X86880952Y-24809523D01*
X87023809Y-24809523D01*
X87214285Y-24857142D01*
X87309523Y-24904761D01*
X87404761Y-25000000D01*
X87452380Y-25142857D01*
X87452380Y-25380952D01*
X87452380Y-23809523D02*
X86976190Y-24142857D01*
X87452380Y-24380952D02*
X86452380Y-24380952D01*
X86452380Y-24000000D01*
X86500000Y-23904761D01*
X86547619Y-23857142D01*
X86642857Y-23809523D01*
X86785714Y-23809523D01*
X86880952Y-23857142D01*
X86928571Y-23904761D01*
X86976190Y-24000000D01*
X86976190Y-24380952D01*
X87452380Y-23380952D02*
X86452380Y-23380952D01*
X86452380Y-23047619D02*
X87452380Y-22714285D01*
X86452380Y-22380952D01*
X86928571Y-22047619D02*
X86928571Y-21714285D01*
X87452380Y-21571428D02*
X87452380Y-22047619D01*
X86452380Y-22047619D01*
X86452380Y-21571428D01*
X87452380Y-20571428D02*
X86976190Y-20904761D01*
X87452380Y-21142857D02*
X86452380Y-21142857D01*
X86452380Y-20761904D01*
X86500000Y-20666666D01*
X86547619Y-20619047D01*
X86642857Y-20571428D01*
X86785714Y-20571428D01*
X86880952Y-20619047D01*
X86928571Y-20666666D01*
X86976190Y-20761904D01*
X86976190Y-21142857D01*
X15000000Y-76500000D02*
X14904761Y-76452380D01*
X14761904Y-76452380D01*
X14619047Y-76500000D01*
X14523809Y-76595238D01*
X14476190Y-76690476D01*
X14428571Y-76880952D01*
X14428571Y-77023809D01*
X14476190Y-77214285D01*
X14523809Y-77309523D01*
X14619047Y-77404761D01*
X14761904Y-77452380D01*
X14857142Y-77452380D01*
X15000000Y-77404761D01*
X15047619Y-77357142D01*
X15047619Y-77023809D01*
X14857142Y-77023809D01*
X15428571Y-77166666D02*
X15904761Y-77166666D01*
X15333333Y-77452380D02*
X15666666Y-76452380D01*
X16000000Y-77452380D01*
X16190476Y-76452380D02*
X16761904Y-76452380D01*
X16476190Y-77452380D02*
X16476190Y-76452380D01*
X17095238Y-76928571D02*
X17428571Y-76928571D01*
X17571428Y-77452380D02*
X17095238Y-77452380D01*
X17095238Y-76452380D01*
X17571428Y-76452380D01*
X15214285Y-93452380D02*
X14738095Y-93452380D01*
X14738095Y-92452380D01*
X15738095Y-92452380D02*
X15928571Y-92452380D01*
X16023809Y-92500000D01*
X16119047Y-92595238D01*
X16166666Y-92785714D01*
X16166666Y-93119047D01*
X16119047Y-93309523D01*
X16023809Y-93404761D01*
X15928571Y-93452380D01*
X15738095Y-93452380D01*
X15642857Y-93404761D01*
X15547619Y-93309523D01*
X15500000Y-93119047D01*
X15500000Y-92785714D01*
X15547619Y-92595238D01*
X15642857Y-92500000D01*
X15738095Y-92452380D01*
X16500000Y-92452380D02*
X16738095Y-93452380D01*
X16928571Y-92738095D01*
X17119047Y-93452380D01*
X17357142Y-92452380D01*
X14761904Y-108452380D02*
X14761904Y-107452380D01*
X15095238Y-108166666D01*
X15428571Y-107452380D01*
X15428571Y-108452380D01*
X15857142Y-108166666D02*
X16333333Y-108166666D01*
X15761904Y-108452380D02*
X16095238Y-107452380D01*
X16428571Y-108452380D01*
X16666666Y-107452380D02*
X17333333Y-108452380D01*
X17333333Y-107452380D02*
X16666666Y-108452380D01*
X16238095Y-124500000D02*
X16142857Y-124452380D01*
X16000000Y-124452380D01*
X15857142Y-124500000D01*
X15761904Y-124595238D01*
X15714285Y-124690476D01*
X15666666Y-124880952D01*
X15666666Y-125023809D01*
X15714285Y-125214285D01*
X15761904Y-125309523D01*
X15857142Y-125404761D01*
X16000000Y-125452380D01*
X16095238Y-125452380D01*
X16238095Y-125404761D01*
X16285714Y-125357142D01*
X16285714Y-125023809D01*
X16095238Y-125023809D01*
X16714285Y-125452380D02*
X16714285Y-124452380D01*
X17285714Y-125452380D01*
X17285714Y-124452380D01*
X17761904Y-125452380D02*
X17761904Y-124452380D01*
X18000000Y-124452380D01*
X18142857Y-124500000D01*
X18238095Y-124595238D01*
X18285714Y-124690476D01*
X18333333Y-124880952D01*
X18333333Y-125023809D01*
X18285714Y-125214285D01*
X18238095Y-125309523D01*
X18142857Y-125404761D01*
X18000000Y-125452380D01*
X17761904Y-125452380D01*
X15238095Y-129500000D02*
X15142857Y-129452380D01*
X15000000Y-129452380D01*
X14857142Y-129500000D01*
X14761904Y-129595238D01*
X14714285Y-129690476D01*
X14666666Y-129880952D01*
X14666666Y-130023809D01*
X14714285Y-130214285D01*
X14761904Y-130309523D01*
X14857142Y-130404761D01*
X15000000Y-130452380D01*
X15095238Y-130452380D01*
X15238095Y-130404761D01*
X15285714Y-130357142D01*
X15285714Y-130023809D01*
X15095238Y-130023809D01*
X15714285Y-130452380D02*
X15714285Y-129452380D01*
X16285714Y-130452380D01*
X16285714Y-129452380D01*
X16761904Y-130452380D02*
X16761904Y-129452380D01*
X17000000Y-129452380D01*
X17142857Y-129500000D01*
X17238095Y-129595238D01*
X17285714Y-129690476D01*
X17333333Y-129880952D01*
X17333333Y-130023809D01*
X17285714Y-130214285D01*
X17238095Y-130309523D01*
X17142857Y-130404761D01*
X17000000Y-130452380D01*
X16761904Y-130452380D01*
X14809523Y-135547619D02*
X14857142Y-135500000D01*
X14952380Y-135452380D01*
X15190476Y-135452380D01*
X15285714Y-135500000D01*
X15333333Y-135547619D01*
X15380952Y-135642857D01*
X15380952Y-135738095D01*
X15333333Y-135880952D01*
X14761904Y-136452380D01*
X15380952Y-136452380D01*
X16238095Y-135785714D02*
X16238095Y-136452380D01*
X16000000Y-135404761D02*
X15761904Y-136119047D01*
X16380952Y-136119047D01*
X16619047Y-135452380D02*
X16952380Y-136452380D01*
X17285714Y-135452380D01*
X18166666Y-24142857D02*
X18166666Y-23666666D01*
X18452380Y-24238095D02*
X17452380Y-23904761D01*
X18452380Y-23571428D01*
X18452380Y-22761904D02*
X18452380Y-23238095D01*
X17452380Y-23238095D01*
X18166666Y-22476190D02*
X18166666Y-22000000D01*
X18452380Y-22571428D02*
X17452380Y-22238095D01*
X18452380Y-21904761D01*
X18452380Y-21000000D02*
X17976190Y-21333333D01*
X18452380Y-21571428D02*
X17452380Y-21571428D01*
X17452380Y-21190476D01*
X17500000Y-21095238D01*
X17547619Y-21047619D01*
X17642857Y-21000000D01*
X17785714Y-21000000D01*
X17880952Y-21047619D01*
X17928571Y-21095238D01*
X17976190Y-21190476D01*
X17976190Y-21571428D01*
X18452380Y-20571428D02*
X17452380Y-20571428D01*
X18166666Y-20238095D01*
X17452380Y-19904761D01*
X18452380Y-19904761D01*
X53452380Y-25404761D02*
X54452380Y-25071428D01*
X53452380Y-24738095D01*
X54452380Y-24404761D02*
X53452380Y-24404761D01*
X53928571Y-23595238D02*
X53976190Y-23452380D01*
X54023809Y-23404761D01*
X54119047Y-23357142D01*
X54261904Y-23357142D01*
X54357142Y-23404761D01*
X54404761Y-23452380D01*
X54452380Y-23547619D01*
X54452380Y-23928571D01*
X53452380Y-23928571D01*
X53452380Y-23595238D01*
X53500000Y-23500000D01*
X53547619Y-23452380D01*
X53642857Y-23404761D01*
X53738095Y-23404761D01*
X53833333Y-23452380D01*
X53880952Y-23500000D01*
X53928571Y-23595238D01*
X53928571Y-23928571D01*
X54452380Y-22357142D02*
X53976190Y-22690476D01*
X54452380Y-22928571D02*
X53452380Y-22928571D01*
X53452380Y-22547619D01*
X53500000Y-22452380D01*
X53547619Y-22404761D01*
X53642857Y-22357142D01*
X53785714Y-22357142D01*
X53880952Y-22404761D01*
X53928571Y-22452380D01*
X53976190Y-22547619D01*
X53976190Y-22928571D01*
X54166666Y-21976190D02*
X54166666Y-21500000D01*
X54452380Y-22071428D02*
X53452380Y-21738095D01*
X54452380Y-21404761D01*
X53452380Y-21214285D02*
X53452380Y-20642857D01*
X54452380Y-20928571D02*
X53452380Y-20928571D01*
X53452380Y-20119047D02*
X53452380Y-19928571D01*
X53500000Y-19833333D01*
X53595238Y-19738095D01*
X53785714Y-19690476D01*
X54119047Y-19690476D01*
X54309523Y-19738095D01*
X54404761Y-19833333D01*
X54452380Y-19928571D01*
X54452380Y-20119047D01*
X54404761Y-20214285D01*
X54309523Y-20309523D01*
X54119047Y-20357142D01*
X53785714Y-20357142D01*
X53595238Y-20309523D01*
X53500000Y-20214285D01*
X53452380Y-20119047D01*
X54452380Y-18690476D02*
X53976190Y-19023809D01*
X54452380Y-19261904D02*
X53452380Y-19261904D01*
X53452380Y-18880952D01*
X53500000Y-18785714D01*
X53547619Y-18738095D01*
X53642857Y-18690476D01*
X53785714Y-18690476D01*
X53880952Y-18738095D01*
X53928571Y-18785714D01*
X53976190Y-18880952D01*
X53976190Y-19261904D01*
D11*
X37000000Y-16000000D02*
X37000000Y-17000000D01*
X52000000Y-16000000D02*
X37000000Y-16000000D01*
X52000000Y-19000000D02*
X52000000Y-16000000D01*
X37000000Y-19000000D02*
X52000000Y-19000000D01*
X37000000Y-17000000D02*
X37000000Y-19000000D01*
D10*
X32214285Y-17452380D02*
X32214285Y-16452380D01*
X32785714Y-17452380D01*
X32785714Y-16452380D01*
X33833333Y-17357142D02*
X33785714Y-17404761D01*
X33642857Y-17452380D01*
X33547619Y-17452380D01*
X33404761Y-17404761D01*
X33309523Y-17309523D01*
X33261904Y-17214285D01*
X33214285Y-17023809D01*
X33214285Y-16880952D01*
X33261904Y-16690476D01*
X33309523Y-16595238D01*
X33404761Y-16500000D01*
X33547619Y-16452380D01*
X33642857Y-16452380D01*
X33785714Y-16500000D01*
X33833333Y-16547619D01*
X28190476Y-17452380D02*
X28190476Y-16452380D01*
X28761904Y-17452380D01*
X28761904Y-16452380D01*
X29428571Y-16452380D02*
X29619047Y-16452380D01*
X29714285Y-16500000D01*
X29809523Y-16595238D01*
X29857142Y-16785714D01*
X29857142Y-17119047D01*
X29809523Y-17309523D01*
X29714285Y-17404761D01*
X29619047Y-17452380D01*
X29428571Y-17452380D01*
X29333333Y-17404761D01*
X29238095Y-17309523D01*
X29190476Y-17119047D01*
X29190476Y-16785714D01*
X29238095Y-16595238D01*
X29333333Y-16500000D01*
X29428571Y-16452380D01*
X23214285Y-17357142D02*
X23166666Y-17404761D01*
X23023809Y-17452380D01*
X22928571Y-17452380D01*
X22785714Y-17404761D01*
X22690476Y-17309523D01*
X22642857Y-17214285D01*
X22595238Y-17023809D01*
X22595238Y-16880952D01*
X22642857Y-16690476D01*
X22690476Y-16595238D01*
X22785714Y-16500000D01*
X22928571Y-16452380D01*
X23023809Y-16452380D01*
X23166666Y-16500000D01*
X23214285Y-16547619D01*
X23833333Y-16452380D02*
X24023809Y-16452380D01*
X24119047Y-16500000D01*
X24214285Y-16595238D01*
X24261904Y-16785714D01*
X24261904Y-17119047D01*
X24214285Y-17309523D01*
X24119047Y-17404761D01*
X24023809Y-17452380D01*
X23833333Y-17452380D01*
X23738095Y-17404761D01*
X23642857Y-17309523D01*
X23595238Y-17119047D01*
X23595238Y-16785714D01*
X23642857Y-16595238D01*
X23738095Y-16500000D01*
X23833333Y-16452380D01*
X24690476Y-17452380D02*
X24690476Y-16452380D01*
X25023809Y-17166666D01*
X25357142Y-16452380D01*
X25357142Y-17452380D01*
X49214285Y-17452380D02*
X49214285Y-16452380D01*
X49785714Y-17452380D01*
X49785714Y-16452380D01*
X50833333Y-17357142D02*
X50785714Y-17404761D01*
X50642857Y-17452380D01*
X50547619Y-17452380D01*
X50404761Y-17404761D01*
X50309523Y-17309523D01*
X50261904Y-17214285D01*
X50214285Y-17023809D01*
X50214285Y-16880952D01*
X50261904Y-16690476D01*
X50309523Y-16595238D01*
X50404761Y-16500000D01*
X50547619Y-16452380D01*
X50642857Y-16452380D01*
X50785714Y-16500000D01*
X50833333Y-16547619D01*
X43190476Y-17452380D02*
X43190476Y-16452380D01*
X43761904Y-17452380D01*
X43761904Y-16452380D01*
X44428571Y-16452380D02*
X44619047Y-16452380D01*
X44714285Y-16500000D01*
X44809523Y-16595238D01*
X44857142Y-16785714D01*
X44857142Y-17119047D01*
X44809523Y-17309523D01*
X44714285Y-17404761D01*
X44619047Y-17452380D01*
X44428571Y-17452380D01*
X44333333Y-17404761D01*
X44238095Y-17309523D01*
X44190476Y-17119047D01*
X44190476Y-16785714D01*
X44238095Y-16595238D01*
X44333333Y-16500000D01*
X44428571Y-16452380D01*
X38214285Y-17357142D02*
X38166666Y-17404761D01*
X38023809Y-17452380D01*
X37928571Y-17452380D01*
X37785714Y-17404761D01*
X37690476Y-17309523D01*
X37642857Y-17214285D01*
X37595238Y-17023809D01*
X37595238Y-16880952D01*
X37642857Y-16690476D01*
X37690476Y-16595238D01*
X37785714Y-16500000D01*
X37928571Y-16452380D01*
X38023809Y-16452380D01*
X38166666Y-16500000D01*
X38214285Y-16547619D01*
X38833333Y-16452380D02*
X39023809Y-16452380D01*
X39119047Y-16500000D01*
X39214285Y-16595238D01*
X39261904Y-16785714D01*
X39261904Y-17119047D01*
X39214285Y-17309523D01*
X39119047Y-17404761D01*
X39023809Y-17452380D01*
X38833333Y-17452380D01*
X38738095Y-17404761D01*
X38642857Y-17309523D01*
X38595238Y-17119047D01*
X38595238Y-16785714D01*
X38642857Y-16595238D01*
X38738095Y-16500000D01*
X38833333Y-16452380D01*
X39690476Y-17452380D02*
X39690476Y-16452380D01*
X40023809Y-17166666D01*
X40357142Y-16452380D01*
X40357142Y-17452380D01*
X70214285Y-18357142D02*
X70166666Y-18404761D01*
X70023809Y-18452380D01*
X69928571Y-18452380D01*
X69785714Y-18404761D01*
X69690476Y-18309523D01*
X69642857Y-18214285D01*
X69595238Y-18023809D01*
X69595238Y-17880952D01*
X69642857Y-17690476D01*
X69690476Y-17595238D01*
X69785714Y-17500000D01*
X69928571Y-17452380D01*
X70023809Y-17452380D01*
X70166666Y-17500000D01*
X70214285Y-17547619D01*
X70833333Y-17452380D02*
X71023809Y-17452380D01*
X71119047Y-17500000D01*
X71214285Y-17595238D01*
X71261904Y-17785714D01*
X71261904Y-18119047D01*
X71214285Y-18309523D01*
X71119047Y-18404761D01*
X71023809Y-18452380D01*
X70833333Y-18452380D01*
X70738095Y-18404761D01*
X70642857Y-18309523D01*
X70595238Y-18119047D01*
X70595238Y-17785714D01*
X70642857Y-17595238D01*
X70738095Y-17500000D01*
X70833333Y-17452380D01*
X71690476Y-18452380D02*
X71690476Y-17452380D01*
X72023809Y-18166666D01*
X72357142Y-17452380D01*
X72357142Y-18452380D01*
X81214285Y-18452380D02*
X81214285Y-17452380D01*
X81785714Y-18452380D01*
X81785714Y-17452380D01*
X82833333Y-18357142D02*
X82785714Y-18404761D01*
X82642857Y-18452380D01*
X82547619Y-18452380D01*
X82404761Y-18404761D01*
X82309523Y-18309523D01*
X82261904Y-18214285D01*
X82214285Y-18023809D01*
X82214285Y-17880952D01*
X82261904Y-17690476D01*
X82309523Y-17595238D01*
X82404761Y-17500000D01*
X82547619Y-17452380D01*
X82642857Y-17452380D01*
X82785714Y-17500000D01*
X82833333Y-17547619D01*
X75190476Y-18452380D02*
X75190476Y-17452380D01*
X75761904Y-18452380D01*
X75761904Y-17452380D01*
X76428571Y-17452380D02*
X76619047Y-17452380D01*
X76714285Y-17500000D01*
X76809523Y-17595238D01*
X76857142Y-17785714D01*
X76857142Y-18119047D01*
X76809523Y-18309523D01*
X76714285Y-18404761D01*
X76619047Y-18452380D01*
X76428571Y-18452380D01*
X76333333Y-18404761D01*
X76238095Y-18309523D01*
X76190476Y-18119047D01*
X76190476Y-17785714D01*
X76238095Y-17595238D01*
X76333333Y-17500000D01*
X76428571Y-17452380D01*
D11*
X84000000Y-108000000D02*
G75*
G03X84000000Y-108000000I-1000000J0D01*
G01*
D10*
X15714285Y-138547619D02*
X15761904Y-138500000D01*
X15857142Y-138452380D01*
X16095238Y-138452380D01*
X16190476Y-138500000D01*
X16238095Y-138547619D01*
X16285714Y-138642857D01*
X16285714Y-138738095D01*
X16238095Y-138880952D01*
X15666666Y-139452380D01*
X16285714Y-139452380D01*
X17142857Y-138785714D02*
X17142857Y-139452380D01*
X16904761Y-138404761D02*
X16666666Y-139119047D01*
X17285714Y-139119047D01*
X18333333Y-138785714D02*
X18571428Y-139452380D01*
X18809523Y-138785714D01*
X20380952Y-139452380D02*
X20380952Y-138452380D01*
X20380952Y-139404761D02*
X20285714Y-139452380D01*
X20095238Y-139452380D01*
X20000000Y-139404761D01*
X19952380Y-139357142D01*
X19904761Y-139261904D01*
X19904761Y-138976190D01*
X19952380Y-138880952D01*
X20000000Y-138833333D01*
X20095238Y-138785714D01*
X20285714Y-138785714D01*
X20380952Y-138833333D01*
X21285714Y-139404761D02*
X21190476Y-139452380D01*
X21000000Y-139452380D01*
X20904761Y-139404761D01*
X20857142Y-139357142D01*
X20809523Y-139261904D01*
X20809523Y-138976190D01*
X20857142Y-138880952D01*
X20904761Y-138833333D01*
X21000000Y-138785714D01*
X21190476Y-138785714D01*
X21285714Y-138833333D01*
X22857142Y-139404761D02*
X22761904Y-139452380D01*
X22571428Y-139452380D01*
X22476190Y-139404761D01*
X22428571Y-139309523D01*
X22428571Y-138928571D01*
X22476190Y-138833333D01*
X22571428Y-138785714D01*
X22761904Y-138785714D01*
X22857142Y-138833333D01*
X22904761Y-138928571D01*
X22904761Y-139023809D01*
X22428571Y-139119047D01*
X23238095Y-139452380D02*
X23761904Y-138785714D01*
X23238095Y-138785714D02*
X23761904Y-139452380D01*
X24000000Y-138785714D02*
X24380952Y-138785714D01*
X24142857Y-138452380D02*
X24142857Y-139309523D01*
X24190476Y-139404761D01*
X24285714Y-139452380D01*
X24380952Y-139452380D01*
X15261904Y-72404761D02*
X15404761Y-72452380D01*
X15642857Y-72452380D01*
X15738095Y-72404761D01*
X15785714Y-72357142D01*
X15833333Y-72261904D01*
X15833333Y-72166666D01*
X15785714Y-72071428D01*
X15738095Y-72023809D01*
X15642857Y-71976190D01*
X15452380Y-71928571D01*
X15357142Y-71880952D01*
X15309523Y-71833333D01*
X15261904Y-71738095D01*
X15261904Y-71642857D01*
X15309523Y-71547619D01*
X15357142Y-71500000D01*
X15452380Y-71452380D01*
X15690476Y-71452380D01*
X15833333Y-71500000D01*
X16642857Y-72404761D02*
X16547619Y-72452380D01*
X16357142Y-72452380D01*
X16261904Y-72404761D01*
X16214285Y-72309523D01*
X16214285Y-71928571D01*
X16261904Y-71833333D01*
X16357142Y-71785714D01*
X16547619Y-71785714D01*
X16642857Y-71833333D01*
X16690476Y-71928571D01*
X16690476Y-72023809D01*
X16214285Y-72119047D01*
X17119047Y-71785714D02*
X17119047Y-72452380D01*
X17119047Y-71880952D02*
X17166666Y-71833333D01*
X17261904Y-71785714D01*
X17404761Y-71785714D01*
X17500000Y-71833333D01*
X17547619Y-71928571D01*
X17547619Y-72452380D01*
X17976190Y-72404761D02*
X18071428Y-72452380D01*
X18261904Y-72452380D01*
X18357142Y-72404761D01*
X18404761Y-72309523D01*
X18404761Y-72261904D01*
X18357142Y-72166666D01*
X18261904Y-72119047D01*
X18119047Y-72119047D01*
X18023809Y-72071428D01*
X17976190Y-71976190D01*
X17976190Y-71928571D01*
X18023809Y-71833333D01*
X18119047Y-71785714D01*
X18261904Y-71785714D01*
X18357142Y-71833333D01*
X18976190Y-72452380D02*
X18880952Y-72404761D01*
X18833333Y-72357142D01*
X18785714Y-72261904D01*
X18785714Y-71976190D01*
X18833333Y-71880952D01*
X18880952Y-71833333D01*
X18976190Y-71785714D01*
X19119047Y-71785714D01*
X19214285Y-71833333D01*
X19261904Y-71880952D01*
X19309523Y-71976190D01*
X19309523Y-72261904D01*
X19261904Y-72357142D01*
X19214285Y-72404761D01*
X19119047Y-72452380D01*
X18976190Y-72452380D01*
X19738095Y-72452380D02*
X19738095Y-71785714D01*
X19738095Y-71976190D02*
X19785714Y-71880952D01*
X19833333Y-71833333D01*
X19928571Y-71785714D01*
X20023809Y-71785714D01*
X20309523Y-72404761D02*
X20404761Y-72452380D01*
X20595238Y-72452380D01*
X20690476Y-72404761D01*
X20738095Y-72309523D01*
X20738095Y-72261904D01*
X20690476Y-72166666D01*
X20595238Y-72119047D01*
X20452380Y-72119047D01*
X20357142Y-72071428D01*
X20309523Y-71976190D01*
X20309523Y-71928571D01*
X20357142Y-71833333D01*
X20452380Y-71785714D01*
X20595238Y-71785714D01*
X20690476Y-71833333D01*
D11*
X23810000Y-90460000D02*
X16190000Y-90460000D01*
X16190000Y-120940000D02*
X23810000Y-120940000D01*
X17460000Y-90460000D02*
X17460000Y-120940000D01*
X23810000Y-90460000D02*
X23810000Y-120940000D01*
X16190000Y-90460000D02*
X16190000Y-120940000D01*
X39154000Y-110064759D02*
X38524000Y-110064759D01*
X38839000Y-109749759D02*
X38839000Y-110379759D01*
X37402000Y-116491000D02*
X36598000Y-116491000D01*
X37633000Y-116451000D02*
X36367000Y-116451000D01*
X37802000Y-116411000D02*
X36198000Y-116411000D01*
X37940000Y-116371000D02*
X36060000Y-116371000D01*
X38059000Y-116331000D02*
X35941000Y-116331000D01*
X38165000Y-116291000D02*
X35835000Y-116291000D01*
X38262000Y-116251000D02*
X35738000Y-116251000D01*
X38350000Y-116211000D02*
X35650000Y-116211000D01*
X38432000Y-116171000D02*
X35568000Y-116171000D01*
X38509000Y-116131000D02*
X35491000Y-116131000D01*
X38581000Y-116091000D02*
X35419000Y-116091000D01*
X38650000Y-116051000D02*
X35350000Y-116051000D01*
X38714000Y-116011000D02*
X35286000Y-116011000D01*
X38776000Y-115971000D02*
X35224000Y-115971000D01*
X38834000Y-115931000D02*
X35166000Y-115931000D01*
X38890000Y-115891000D02*
X35110000Y-115891000D01*
X38944000Y-115851000D02*
X35056000Y-115851000D01*
X38995000Y-115811000D02*
X35005000Y-115811000D01*
X39044000Y-115771000D02*
X34956000Y-115771000D01*
X39092000Y-115731000D02*
X34908000Y-115731000D01*
X39137000Y-115691000D02*
X34863000Y-115691000D01*
X39182000Y-115651000D02*
X34818000Y-115651000D01*
X39224000Y-115611000D02*
X34776000Y-115611000D01*
X39265000Y-115571000D02*
X34735000Y-115571000D01*
X35960000Y-115531000D02*
X34695000Y-115531000D01*
X39305000Y-115531000D02*
X38040000Y-115531000D01*
X35960000Y-115491000D02*
X34657000Y-115491000D01*
X39343000Y-115491000D02*
X38040000Y-115491000D01*
X35960000Y-115451000D02*
X34620000Y-115451000D01*
X39380000Y-115451000D02*
X38040000Y-115451000D01*
X35960000Y-115411000D02*
X34584000Y-115411000D01*
X39416000Y-115411000D02*
X38040000Y-115411000D01*
X35960000Y-115371000D02*
X34550000Y-115371000D01*
X39450000Y-115371000D02*
X38040000Y-115371000D01*
X35960000Y-115331000D02*
X34516000Y-115331000D01*
X39484000Y-115331000D02*
X38040000Y-115331000D01*
X35960000Y-115291000D02*
X34484000Y-115291000D01*
X39516000Y-115291000D02*
X38040000Y-115291000D01*
X35960000Y-115251000D02*
X34452000Y-115251000D01*
X39548000Y-115251000D02*
X38040000Y-115251000D01*
X35960000Y-115211000D02*
X34422000Y-115211000D01*
X39578000Y-115211000D02*
X38040000Y-115211000D01*
X35960000Y-115171000D02*
X34393000Y-115171000D01*
X39607000Y-115171000D02*
X38040000Y-115171000D01*
X35960000Y-115131000D02*
X34364000Y-115131000D01*
X39636000Y-115131000D02*
X38040000Y-115131000D01*
X35960000Y-115091000D02*
X34336000Y-115091000D01*
X39664000Y-115091000D02*
X38040000Y-115091000D01*
X35960000Y-115051000D02*
X34310000Y-115051000D01*
X39690000Y-115051000D02*
X38040000Y-115051000D01*
X35960000Y-115011000D02*
X34284000Y-115011000D01*
X39716000Y-115011000D02*
X38040000Y-115011000D01*
X35960000Y-114971000D02*
X34258000Y-114971000D01*
X39742000Y-114971000D02*
X38040000Y-114971000D01*
X35960000Y-114931000D02*
X34234000Y-114931000D01*
X39766000Y-114931000D02*
X38040000Y-114931000D01*
X35960000Y-114891000D02*
X34210000Y-114891000D01*
X39790000Y-114891000D02*
X38040000Y-114891000D01*
X35960000Y-114851000D02*
X34188000Y-114851000D01*
X39812000Y-114851000D02*
X38040000Y-114851000D01*
X35960000Y-114811000D02*
X34166000Y-114811000D01*
X39834000Y-114811000D02*
X38040000Y-114811000D01*
X35960000Y-114771000D02*
X34144000Y-114771000D01*
X39856000Y-114771000D02*
X38040000Y-114771000D01*
X35960000Y-114731000D02*
X34124000Y-114731000D01*
X39876000Y-114731000D02*
X38040000Y-114731000D01*
X35960000Y-114691000D02*
X34104000Y-114691000D01*
X39896000Y-114691000D02*
X38040000Y-114691000D01*
X35960000Y-114651000D02*
X34084000Y-114651000D01*
X39916000Y-114651000D02*
X38040000Y-114651000D01*
X35960000Y-114611000D02*
X34066000Y-114611000D01*
X39934000Y-114611000D02*
X38040000Y-114611000D01*
X35960000Y-114571000D02*
X34048000Y-114571000D01*
X39952000Y-114571000D02*
X38040000Y-114571000D01*
X35960000Y-114531000D02*
X34030000Y-114531000D01*
X39970000Y-114531000D02*
X38040000Y-114531000D01*
X35960000Y-114491000D02*
X34014000Y-114491000D01*
X39986000Y-114491000D02*
X38040000Y-114491000D01*
X35960000Y-114451000D02*
X33998000Y-114451000D01*
X40002000Y-114451000D02*
X38040000Y-114451000D01*
X35960000Y-114411000D02*
X33982000Y-114411000D01*
X40018000Y-114411000D02*
X38040000Y-114411000D01*
X35960000Y-114371000D02*
X33967000Y-114371000D01*
X40033000Y-114371000D02*
X38040000Y-114371000D01*
X35960000Y-114331000D02*
X33953000Y-114331000D01*
X40047000Y-114331000D02*
X38040000Y-114331000D01*
X35960000Y-114291000D02*
X33939000Y-114291000D01*
X40061000Y-114291000D02*
X38040000Y-114291000D01*
X35960000Y-114251000D02*
X33926000Y-114251000D01*
X40074000Y-114251000D02*
X38040000Y-114251000D01*
X35960000Y-114211000D02*
X33914000Y-114211000D01*
X40086000Y-114211000D02*
X38040000Y-114211000D01*
X35960000Y-114171000D02*
X33902000Y-114171000D01*
X40098000Y-114171000D02*
X38040000Y-114171000D01*
X35960000Y-114131000D02*
X33890000Y-114131000D01*
X40110000Y-114131000D02*
X38040000Y-114131000D01*
X35960000Y-114091000D02*
X33879000Y-114091000D01*
X40121000Y-114091000D02*
X38040000Y-114091000D01*
X35960000Y-114051000D02*
X33869000Y-114051000D01*
X40131000Y-114051000D02*
X38040000Y-114051000D01*
X35960000Y-114011000D02*
X33859000Y-114011000D01*
X40141000Y-114011000D02*
X38040000Y-114011000D01*
X35960000Y-113971000D02*
X33850000Y-113971000D01*
X40150000Y-113971000D02*
X38040000Y-113971000D01*
X35960000Y-113930000D02*
X33841000Y-113930000D01*
X40159000Y-113930000D02*
X38040000Y-113930000D01*
X35960000Y-113890000D02*
X33833000Y-113890000D01*
X40167000Y-113890000D02*
X38040000Y-113890000D01*
X35960000Y-113850000D02*
X33825000Y-113850000D01*
X40175000Y-113850000D02*
X38040000Y-113850000D01*
X35960000Y-113810000D02*
X33818000Y-113810000D01*
X40182000Y-113810000D02*
X38040000Y-113810000D01*
X35960000Y-113770000D02*
X33811000Y-113770000D01*
X40189000Y-113770000D02*
X38040000Y-113770000D01*
X35960000Y-113730000D02*
X33805000Y-113730000D01*
X40195000Y-113730000D02*
X38040000Y-113730000D01*
X35960000Y-113690000D02*
X33799000Y-113690000D01*
X40201000Y-113690000D02*
X38040000Y-113690000D01*
X35960000Y-113650000D02*
X33794000Y-113650000D01*
X40206000Y-113650000D02*
X38040000Y-113650000D01*
X35960000Y-113610000D02*
X33789000Y-113610000D01*
X40211000Y-113610000D02*
X38040000Y-113610000D01*
X35960000Y-113570000D02*
X33785000Y-113570000D01*
X40215000Y-113570000D02*
X38040000Y-113570000D01*
X35960000Y-113530000D02*
X33782000Y-113530000D01*
X40218000Y-113530000D02*
X38040000Y-113530000D01*
X35960000Y-113490000D02*
X33778000Y-113490000D01*
X40222000Y-113490000D02*
X38040000Y-113490000D01*
X40224000Y-113450000D02*
X33776000Y-113450000D01*
X40227000Y-113410000D02*
X33773000Y-113410000D01*
X40228000Y-113370000D02*
X33772000Y-113370000D01*
X40230000Y-113330000D02*
X33770000Y-113330000D01*
X40230000Y-113290000D02*
X33770000Y-113290000D01*
X40230000Y-113250000D02*
X33770000Y-113250000D01*
X40270000Y-113250000D02*
G75*
G03X40270000Y-113250000I-3270000J0D01*
G01*
X31154000Y-122064759D02*
X30524000Y-122064759D01*
X30839000Y-121749759D02*
X30839000Y-122379759D01*
X29402000Y-128491000D02*
X28598000Y-128491000D01*
X29633000Y-128451000D02*
X28367000Y-128451000D01*
X29802000Y-128411000D02*
X28198000Y-128411000D01*
X29940000Y-128371000D02*
X28060000Y-128371000D01*
X30059000Y-128331000D02*
X27941000Y-128331000D01*
X30165000Y-128291000D02*
X27835000Y-128291000D01*
X30262000Y-128251000D02*
X27738000Y-128251000D01*
X30350000Y-128211000D02*
X27650000Y-128211000D01*
X30432000Y-128171000D02*
X27568000Y-128171000D01*
X30509000Y-128131000D02*
X27491000Y-128131000D01*
X30581000Y-128091000D02*
X27419000Y-128091000D01*
X30650000Y-128051000D02*
X27350000Y-128051000D01*
X30714000Y-128011000D02*
X27286000Y-128011000D01*
X30776000Y-127971000D02*
X27224000Y-127971000D01*
X30834000Y-127931000D02*
X27166000Y-127931000D01*
X30890000Y-127891000D02*
X27110000Y-127891000D01*
X30944000Y-127851000D02*
X27056000Y-127851000D01*
X30995000Y-127811000D02*
X27005000Y-127811000D01*
X31044000Y-127771000D02*
X26956000Y-127771000D01*
X31092000Y-127731000D02*
X26908000Y-127731000D01*
X31137000Y-127691000D02*
X26863000Y-127691000D01*
X31182000Y-127651000D02*
X26818000Y-127651000D01*
X31224000Y-127611000D02*
X26776000Y-127611000D01*
X31265000Y-127571000D02*
X26735000Y-127571000D01*
X27960000Y-127531000D02*
X26695000Y-127531000D01*
X31305000Y-127531000D02*
X30040000Y-127531000D01*
X27960000Y-127491000D02*
X26657000Y-127491000D01*
X31343000Y-127491000D02*
X30040000Y-127491000D01*
X27960000Y-127451000D02*
X26620000Y-127451000D01*
X31380000Y-127451000D02*
X30040000Y-127451000D01*
X27960000Y-127411000D02*
X26584000Y-127411000D01*
X31416000Y-127411000D02*
X30040000Y-127411000D01*
X27960000Y-127371000D02*
X26550000Y-127371000D01*
X31450000Y-127371000D02*
X30040000Y-127371000D01*
X27960000Y-127331000D02*
X26516000Y-127331000D01*
X31484000Y-127331000D02*
X30040000Y-127331000D01*
X27960000Y-127291000D02*
X26484000Y-127291000D01*
X31516000Y-127291000D02*
X30040000Y-127291000D01*
X27960000Y-127251000D02*
X26452000Y-127251000D01*
X31548000Y-127251000D02*
X30040000Y-127251000D01*
X27960000Y-127211000D02*
X26422000Y-127211000D01*
X31578000Y-127211000D02*
X30040000Y-127211000D01*
X27960000Y-127171000D02*
X26393000Y-127171000D01*
X31607000Y-127171000D02*
X30040000Y-127171000D01*
X27960000Y-127131000D02*
X26364000Y-127131000D01*
X31636000Y-127131000D02*
X30040000Y-127131000D01*
X27960000Y-127091000D02*
X26336000Y-127091000D01*
X31664000Y-127091000D02*
X30040000Y-127091000D01*
X27960000Y-127051000D02*
X26310000Y-127051000D01*
X31690000Y-127051000D02*
X30040000Y-127051000D01*
X27960000Y-127011000D02*
X26284000Y-127011000D01*
X31716000Y-127011000D02*
X30040000Y-127011000D01*
X27960000Y-126971000D02*
X26258000Y-126971000D01*
X31742000Y-126971000D02*
X30040000Y-126971000D01*
X27960000Y-126931000D02*
X26234000Y-126931000D01*
X31766000Y-126931000D02*
X30040000Y-126931000D01*
X27960000Y-126891000D02*
X26210000Y-126891000D01*
X31790000Y-126891000D02*
X30040000Y-126891000D01*
X27960000Y-126851000D02*
X26188000Y-126851000D01*
X31812000Y-126851000D02*
X30040000Y-126851000D01*
X27960000Y-126811000D02*
X26166000Y-126811000D01*
X31834000Y-126811000D02*
X30040000Y-126811000D01*
X27960000Y-126771000D02*
X26144000Y-126771000D01*
X31856000Y-126771000D02*
X30040000Y-126771000D01*
X27960000Y-126731000D02*
X26124000Y-126731000D01*
X31876000Y-126731000D02*
X30040000Y-126731000D01*
X27960000Y-126691000D02*
X26104000Y-126691000D01*
X31896000Y-126691000D02*
X30040000Y-126691000D01*
X27960000Y-126651000D02*
X26084000Y-126651000D01*
X31916000Y-126651000D02*
X30040000Y-126651000D01*
X27960000Y-126611000D02*
X26066000Y-126611000D01*
X31934000Y-126611000D02*
X30040000Y-126611000D01*
X27960000Y-126571000D02*
X26048000Y-126571000D01*
X31952000Y-126571000D02*
X30040000Y-126571000D01*
X27960000Y-126531000D02*
X26030000Y-126531000D01*
X31970000Y-126531000D02*
X30040000Y-126531000D01*
X27960000Y-126491000D02*
X26014000Y-126491000D01*
X31986000Y-126491000D02*
X30040000Y-126491000D01*
X27960000Y-126451000D02*
X25998000Y-126451000D01*
X32002000Y-126451000D02*
X30040000Y-126451000D01*
X27960000Y-126411000D02*
X25982000Y-126411000D01*
X32018000Y-126411000D02*
X30040000Y-126411000D01*
X27960000Y-126371000D02*
X25967000Y-126371000D01*
X32033000Y-126371000D02*
X30040000Y-126371000D01*
X27960000Y-126331000D02*
X25953000Y-126331000D01*
X32047000Y-126331000D02*
X30040000Y-126331000D01*
X27960000Y-126291000D02*
X25939000Y-126291000D01*
X32061000Y-126291000D02*
X30040000Y-126291000D01*
X27960000Y-126251000D02*
X25926000Y-126251000D01*
X32074000Y-126251000D02*
X30040000Y-126251000D01*
X27960000Y-126211000D02*
X25914000Y-126211000D01*
X32086000Y-126211000D02*
X30040000Y-126211000D01*
X27960000Y-126171000D02*
X25902000Y-126171000D01*
X32098000Y-126171000D02*
X30040000Y-126171000D01*
X27960000Y-126131000D02*
X25890000Y-126131000D01*
X32110000Y-126131000D02*
X30040000Y-126131000D01*
X27960000Y-126091000D02*
X25879000Y-126091000D01*
X32121000Y-126091000D02*
X30040000Y-126091000D01*
X27960000Y-126051000D02*
X25869000Y-126051000D01*
X32131000Y-126051000D02*
X30040000Y-126051000D01*
X27960000Y-126011000D02*
X25859000Y-126011000D01*
X32141000Y-126011000D02*
X30040000Y-126011000D01*
X27960000Y-125971000D02*
X25850000Y-125971000D01*
X32150000Y-125971000D02*
X30040000Y-125971000D01*
X27960000Y-125930000D02*
X25841000Y-125930000D01*
X32159000Y-125930000D02*
X30040000Y-125930000D01*
X27960000Y-125890000D02*
X25833000Y-125890000D01*
X32167000Y-125890000D02*
X30040000Y-125890000D01*
X27960000Y-125850000D02*
X25825000Y-125850000D01*
X32175000Y-125850000D02*
X30040000Y-125850000D01*
X27960000Y-125810000D02*
X25818000Y-125810000D01*
X32182000Y-125810000D02*
X30040000Y-125810000D01*
X27960000Y-125770000D02*
X25811000Y-125770000D01*
X32189000Y-125770000D02*
X30040000Y-125770000D01*
X27960000Y-125730000D02*
X25805000Y-125730000D01*
X32195000Y-125730000D02*
X30040000Y-125730000D01*
X27960000Y-125690000D02*
X25799000Y-125690000D01*
X32201000Y-125690000D02*
X30040000Y-125690000D01*
X27960000Y-125650000D02*
X25794000Y-125650000D01*
X32206000Y-125650000D02*
X30040000Y-125650000D01*
X27960000Y-125610000D02*
X25789000Y-125610000D01*
X32211000Y-125610000D02*
X30040000Y-125610000D01*
X27960000Y-125570000D02*
X25785000Y-125570000D01*
X32215000Y-125570000D02*
X30040000Y-125570000D01*
X27960000Y-125530000D02*
X25782000Y-125530000D01*
X32218000Y-125530000D02*
X30040000Y-125530000D01*
X27960000Y-125490000D02*
X25778000Y-125490000D01*
X32222000Y-125490000D02*
X30040000Y-125490000D01*
X32224000Y-125450000D02*
X25776000Y-125450000D01*
X32227000Y-125410000D02*
X25773000Y-125410000D01*
X32228000Y-125370000D02*
X25772000Y-125370000D01*
X32230000Y-125330000D02*
X25770000Y-125330000D01*
X32230000Y-125290000D02*
X25770000Y-125290000D01*
X32230000Y-125250000D02*
X25770000Y-125250000D01*
X32270000Y-125250000D02*
G75*
G03X32270000Y-125250000I-3270000J0D01*
G01*
X53460000Y-76670000D02*
X51810000Y-76670000D01*
X53460000Y-81870000D02*
X53460000Y-76670000D01*
X48160000Y-81870000D02*
X53460000Y-81870000D01*
X48160000Y-76670000D02*
X48160000Y-81870000D01*
X49810000Y-76670000D02*
X48160000Y-76670000D01*
X51810000Y-76670000D02*
G75*
G02X49810000Y-76670000I-1000000J0D01*
G01*
X33460000Y-139810000D02*
X48700000Y-139810000D01*
X33460000Y-132190000D02*
X48700000Y-132190000D01*
X33460000Y-138540000D02*
X48700000Y-138540000D01*
X48700000Y-139810000D02*
X48700000Y-132190000D01*
X33460000Y-139810000D02*
X33460000Y-132190000D01*
X81730000Y-113270000D02*
X84270000Y-113270000D01*
X84270000Y-113270000D02*
X84270000Y-110600000D01*
X81730000Y-110600000D02*
X43500000Y-110600000D01*
X86940000Y-110600000D02*
X84270000Y-110600000D01*
X84270000Y-125970000D02*
X84270000Y-128640000D01*
X84270000Y-125970000D02*
X46170000Y-125970000D01*
X46170000Y-125970000D02*
X46170000Y-128640000D01*
X81730000Y-113270000D02*
X81730000Y-110600000D01*
X81730000Y-113270000D02*
X46170000Y-113270000D01*
X46170000Y-113270000D02*
X46170000Y-110600000D01*
X43500000Y-110600000D02*
X43500000Y-128640000D01*
X43500000Y-128640000D02*
X86940000Y-128640000D01*
X86940000Y-128640000D02*
X86940000Y-110600000D01*
X23810000Y-89540000D02*
X23810000Y-74300000D01*
X16190000Y-89540000D02*
X16190000Y-74300000D01*
X22540000Y-89540000D02*
X22540000Y-74300000D01*
X23810000Y-74300000D02*
X16190000Y-74300000D01*
X23810000Y-89540000D02*
X16190000Y-89540000D01*
X37987300Y-34987300D02*
X53405100Y-34987300D01*
X53405100Y-34987300D02*
X53405100Y-53910300D01*
X53405100Y-53910300D02*
X37987300Y-53897600D01*
X37987300Y-53897600D02*
X37987300Y-34987300D01*
X18987300Y-53897600D02*
X18987300Y-34987300D01*
X34405100Y-53910300D02*
X18987300Y-53897600D01*
X34405100Y-34987300D02*
X34405100Y-53910300D01*
X18987300Y-34987300D02*
X34405100Y-34987300D01*
X74090000Y-55860000D02*
X74090000Y-55530000D01*
X74090000Y-55530000D02*
X79530000Y-55530000D01*
X79530000Y-55530000D02*
X79530000Y-55860000D01*
X74090000Y-58140000D02*
X74090000Y-58470000D01*
X74090000Y-58470000D02*
X79530000Y-58470000D01*
X79530000Y-58470000D02*
X79530000Y-58140000D01*
X74990000Y-55530000D02*
X74990000Y-58470000D01*
X75110000Y-55530000D02*
X75110000Y-58470000D01*
X74870000Y-55530000D02*
X74870000Y-58470000D01*
X69987300Y-53897600D02*
X69987300Y-34987300D01*
X85405100Y-53910300D02*
X69987300Y-53897600D01*
X85405100Y-34987300D02*
X85405100Y-53910300D01*
X69987300Y-34987300D02*
X85405100Y-34987300D01*
X84540000Y-20190000D02*
X84540000Y-27810000D01*
X69300000Y-20190000D02*
X69300000Y-27810000D01*
X84540000Y-21460000D02*
X69300000Y-21460000D01*
X84540000Y-27810000D02*
X69300000Y-27810000D01*
X84540000Y-20190000D02*
X69300000Y-20190000D01*
X76000000Y-62340000D02*
X76000000Y-63030000D01*
X76000000Y-72960000D02*
X76000000Y-72270000D01*
X74280000Y-63030000D02*
X74280000Y-72270000D01*
X77720000Y-63030000D02*
X74280000Y-63030000D01*
X77720000Y-72270000D02*
X77720000Y-63030000D01*
X74280000Y-72270000D02*
X77720000Y-72270000D01*
X57000000Y-70660000D02*
X57000000Y-69970000D01*
X57000000Y-60040000D02*
X57000000Y-60730000D01*
X58720000Y-69970000D02*
X58720000Y-60730000D01*
X55280000Y-69970000D02*
X58720000Y-69970000D01*
X55280000Y-60730000D02*
X55280000Y-69970000D01*
X58720000Y-60730000D02*
X55280000Y-60730000D01*
X33000000Y-59340000D02*
X33000000Y-60030000D01*
X33000000Y-69960000D02*
X33000000Y-69270000D01*
X31280000Y-60030000D02*
X31280000Y-69270000D01*
X34720000Y-60030000D02*
X31280000Y-60030000D01*
X34720000Y-69270000D02*
X34720000Y-60030000D01*
X31280000Y-69270000D02*
X34720000Y-69270000D01*
X29340000Y-98000000D02*
X30030000Y-98000000D01*
X39960000Y-98000000D02*
X39270000Y-98000000D01*
X30030000Y-99720000D02*
X39270000Y-99720000D01*
X30030000Y-96280000D02*
X30030000Y-99720000D01*
X39270000Y-96280000D02*
X30030000Y-96280000D01*
X39270000Y-99720000D02*
X39270000Y-96280000D01*
X83660000Y-97000000D02*
X82970000Y-97000000D01*
X73040000Y-97000000D02*
X73730000Y-97000000D01*
X82970000Y-95280000D02*
X73730000Y-95280000D01*
X82970000Y-98720000D02*
X82970000Y-95280000D01*
X73730000Y-98720000D02*
X82970000Y-98720000D01*
X73730000Y-95280000D02*
X73730000Y-98720000D01*
X29340000Y-89000000D02*
X30030000Y-89000000D01*
X39960000Y-89000000D02*
X39270000Y-89000000D01*
X30030000Y-90720000D02*
X39270000Y-90720000D01*
X30030000Y-87280000D02*
X30030000Y-90720000D01*
X39270000Y-87280000D02*
X30030000Y-87280000D01*
X39270000Y-90720000D02*
X39270000Y-87280000D01*
X83660000Y-89000000D02*
X82970000Y-89000000D01*
X73040000Y-89000000D02*
X73730000Y-89000000D01*
X82970000Y-87280000D02*
X73730000Y-87280000D01*
X82970000Y-90720000D02*
X82970000Y-87280000D01*
X73730000Y-90720000D02*
X82970000Y-90720000D01*
X73730000Y-87280000D02*
X73730000Y-90720000D01*
X29340000Y-78000000D02*
X30030000Y-78000000D01*
X39960000Y-78000000D02*
X39270000Y-78000000D01*
X30030000Y-79720000D02*
X39270000Y-79720000D01*
X30030000Y-76280000D02*
X30030000Y-79720000D01*
X39270000Y-76280000D02*
X30030000Y-76280000D01*
X39270000Y-79720000D02*
X39270000Y-76280000D01*
X16190000Y-122460000D02*
X16190000Y-137700000D01*
X23810000Y-122460000D02*
X23810000Y-137700000D01*
X17460000Y-122460000D02*
X17460000Y-137700000D01*
X16190000Y-137700000D02*
X23810000Y-137700000D01*
X16190000Y-122460000D02*
X23810000Y-122460000D01*
X21460000Y-26810000D02*
X51940000Y-26810000D01*
X21460000Y-19190000D02*
X51940000Y-19190000D01*
X21460000Y-25540000D02*
X51940000Y-25540000D01*
X51940000Y-26810000D02*
X51940000Y-19190000D01*
X21460000Y-19190000D02*
X21460000Y-26810000D01*
X82512300Y-140000000D02*
X73000000Y-140000000D01*
X82512300Y-130576600D02*
X82512300Y-140000000D01*
X73000000Y-130576600D02*
X82512300Y-130576600D01*
X73000000Y-140000000D02*
X73000000Y-130576600D01*
X31012700Y-110878100D02*
X31012700Y-121000000D01*
X26593100Y-110878100D02*
X31012700Y-110878100D01*
X26593100Y-121000000D02*
X26593100Y-110878100D01*
X31012700Y-121000000D02*
X26593100Y-121000000D01*
X53080000Y-85670000D02*
G75*
G02X51080000Y-85670000I-1000000J0D01*
G01*
X51080000Y-85670000D02*
X48845000Y-85670000D01*
X48845000Y-85670000D02*
X48845000Y-90870000D01*
X48845000Y-90870000D02*
X55315000Y-90870000D01*
X55315000Y-90870000D02*
X55315000Y-85670000D01*
X55315000Y-85670000D02*
X53080000Y-85670000D01*
X55315000Y-94670000D02*
X53080000Y-94670000D01*
X55315000Y-99870000D02*
X55315000Y-94670000D01*
X48845000Y-99870000D02*
X55315000Y-99870000D01*
X48845000Y-94670000D02*
X48845000Y-99870000D01*
X51080000Y-94670000D02*
X48845000Y-94670000D01*
X53080000Y-94670000D02*
G75*
G02X51080000Y-94670000I-1000000J0D01*
G01*
X39670000Y-65920000D02*
G75*
G02X39670000Y-67920000I0J-1000000D01*
G01*
X39670000Y-67920000D02*
X39670000Y-70155000D01*
X39670000Y-70155000D02*
X44870000Y-70155000D01*
X44870000Y-70155000D02*
X44870000Y-63685000D01*
X44870000Y-63685000D02*
X39670000Y-63685000D01*
X39670000Y-63685000D02*
X39670000Y-65920000D01*
X64670000Y-63685000D02*
X64670000Y-65920000D01*
X69870000Y-63685000D02*
X64670000Y-63685000D01*
X69870000Y-70155000D02*
X69870000Y-63685000D01*
X64670000Y-70155000D02*
X69870000Y-70155000D01*
X64670000Y-67920000D02*
X64670000Y-70155000D01*
X64670000Y-65920000D02*
G75*
G02X64670000Y-67920000I0J-1000000D01*
G01*
X81670000Y-65920000D02*
G75*
G02X81670000Y-67920000I0J-1000000D01*
G01*
X81670000Y-67920000D02*
X81670000Y-70155000D01*
X81670000Y-70155000D02*
X86870000Y-70155000D01*
X86870000Y-70155000D02*
X86870000Y-63685000D01*
X86870000Y-63685000D02*
X81670000Y-63685000D01*
X81670000Y-63685000D02*
X81670000Y-65920000D01*
X21090000Y-55860000D02*
X21090000Y-55530000D01*
X21090000Y-55530000D02*
X26530000Y-55530000D01*
X26530000Y-55530000D02*
X26530000Y-55860000D01*
X21090000Y-58140000D02*
X21090000Y-58470000D01*
X21090000Y-58470000D02*
X26530000Y-58470000D01*
X26530000Y-58470000D02*
X26530000Y-58140000D01*
X21990000Y-55530000D02*
X21990000Y-58470000D01*
X22110000Y-55530000D02*
X22110000Y-58470000D01*
X21870000Y-55530000D02*
X21870000Y-58470000D01*
X40870000Y-56530000D02*
X40870000Y-59470000D01*
X41110000Y-56530000D02*
X41110000Y-59470000D01*
X40990000Y-56530000D02*
X40990000Y-59470000D01*
X45530000Y-59470000D02*
X45530000Y-59140000D01*
X40090000Y-59470000D02*
X45530000Y-59470000D01*
X40090000Y-59140000D02*
X40090000Y-59470000D01*
X45530000Y-56530000D02*
X45530000Y-56860000D01*
X40090000Y-56530000D02*
X45530000Y-56530000D01*
X40090000Y-56860000D02*
X40090000Y-56530000D01*
X73730000Y-78280000D02*
X73730000Y-81720000D01*
X73730000Y-81720000D02*
X82970000Y-81720000D01*
X82970000Y-81720000D02*
X82970000Y-78280000D01*
X82970000Y-78280000D02*
X73730000Y-78280000D01*
X73040000Y-80000000D02*
X73730000Y-80000000D01*
X83660000Y-80000000D02*
X82970000Y-80000000D01*
D10*
X24002380Y-105983333D02*
X24716666Y-105983333D01*
X24859523Y-106030952D01*
X24954761Y-106126190D01*
X25002380Y-106269047D01*
X25002380Y-106364285D01*
X24097619Y-105554761D02*
X24050000Y-105507142D01*
X24002380Y-105411904D01*
X24002380Y-105173809D01*
X24050000Y-105078571D01*
X24097619Y-105030952D01*
X24192857Y-104983333D01*
X24288095Y-104983333D01*
X24430952Y-105030952D01*
X25002380Y-105602380D01*
X25002380Y-104983333D01*
X41757142Y-113416666D02*
X41804761Y-113464285D01*
X41852380Y-113607142D01*
X41852380Y-113702380D01*
X41804761Y-113845238D01*
X41709523Y-113940476D01*
X41614285Y-113988095D01*
X41423809Y-114035714D01*
X41280952Y-114035714D01*
X41090476Y-113988095D01*
X40995238Y-113940476D01*
X40900000Y-113845238D01*
X40852380Y-113702380D01*
X40852380Y-113607142D01*
X40900000Y-113464285D01*
X40947619Y-113416666D01*
X40947619Y-113035714D02*
X40900000Y-112988095D01*
X40852380Y-112892857D01*
X40852380Y-112654761D01*
X40900000Y-112559523D01*
X40947619Y-112511904D01*
X41042857Y-112464285D01*
X41138095Y-112464285D01*
X41280952Y-112511904D01*
X41852380Y-113083333D01*
X41852380Y-112464285D01*
X33757142Y-125416666D02*
X33804761Y-125464285D01*
X33852380Y-125607142D01*
X33852380Y-125702380D01*
X33804761Y-125845238D01*
X33709523Y-125940476D01*
X33614285Y-125988095D01*
X33423809Y-126035714D01*
X33280952Y-126035714D01*
X33090476Y-125988095D01*
X32995238Y-125940476D01*
X32900000Y-125845238D01*
X32852380Y-125702380D01*
X32852380Y-125607142D01*
X32900000Y-125464285D01*
X32947619Y-125416666D01*
X33852380Y-124464285D02*
X33852380Y-125035714D01*
X33852380Y-124750000D02*
X32852380Y-124750000D01*
X32995238Y-124845238D01*
X33090476Y-124940476D01*
X33138095Y-125035714D01*
X50048095Y-75122380D02*
X50048095Y-75931904D01*
X50095714Y-76027142D01*
X50143333Y-76074761D01*
X50238571Y-76122380D01*
X50429047Y-76122380D01*
X50524285Y-76074761D01*
X50571904Y-76027142D01*
X50619523Y-75931904D01*
X50619523Y-75122380D01*
X51048095Y-75217619D02*
X51095714Y-75170000D01*
X51190952Y-75122380D01*
X51429047Y-75122380D01*
X51524285Y-75170000D01*
X51571904Y-75217619D01*
X51619523Y-75312857D01*
X51619523Y-75408095D01*
X51571904Y-75550952D01*
X51000476Y-76122380D01*
X51619523Y-76122380D01*
X40716666Y-130802380D02*
X40716666Y-131516666D01*
X40669047Y-131659523D01*
X40573809Y-131754761D01*
X40430952Y-131802380D01*
X40335714Y-131802380D01*
X41621428Y-130802380D02*
X41430952Y-130802380D01*
X41335714Y-130850000D01*
X41288095Y-130897619D01*
X41192857Y-131040476D01*
X41145238Y-131230952D01*
X41145238Y-131611904D01*
X41192857Y-131707142D01*
X41240476Y-131754761D01*
X41335714Y-131802380D01*
X41526190Y-131802380D01*
X41621428Y-131754761D01*
X41669047Y-131707142D01*
X41716666Y-131611904D01*
X41716666Y-131373809D01*
X41669047Y-131278571D01*
X41621428Y-131230952D01*
X41526190Y-131183333D01*
X41335714Y-131183333D01*
X41240476Y-131230952D01*
X41192857Y-131278571D01*
X41145238Y-131373809D01*
X88246666Y-120334285D02*
X88246666Y-119858095D01*
X88532380Y-120429523D02*
X87532380Y-120096190D01*
X88532380Y-119762857D01*
X88532380Y-118905714D02*
X88532380Y-119477142D01*
X88532380Y-119191428D02*
X87532380Y-119191428D01*
X87675238Y-119286666D01*
X87770476Y-119381904D01*
X87818095Y-119477142D01*
X22452380Y-73333333D02*
X23166666Y-73333333D01*
X23309523Y-73380952D01*
X23404761Y-73476190D01*
X23452380Y-73619047D01*
X23452380Y-73714285D01*
X22452380Y-72380952D02*
X22452380Y-72857142D01*
X22928571Y-72904761D01*
X22880952Y-72857142D01*
X22833333Y-72761904D01*
X22833333Y-72523809D01*
X22880952Y-72428571D01*
X22928571Y-72380952D01*
X23023809Y-72333333D01*
X23261904Y-72333333D01*
X23357142Y-72380952D01*
X23404761Y-72428571D01*
X23452380Y-72523809D01*
X23452380Y-72761904D01*
X23404761Y-72857142D01*
X23357142Y-72904761D01*
X37452380Y-41738095D02*
X36452380Y-41738095D01*
X37452380Y-41166666D02*
X36880952Y-41595238D01*
X36452380Y-41166666D02*
X37023809Y-41738095D01*
X36547619Y-40785714D02*
X36500000Y-40738095D01*
X36452380Y-40642857D01*
X36452380Y-40404761D01*
X36500000Y-40309523D01*
X36547619Y-40261904D01*
X36642857Y-40214285D01*
X36738095Y-40214285D01*
X36880952Y-40261904D01*
X37452380Y-40833333D01*
X37452380Y-40214285D01*
X18452380Y-36738095D02*
X17452380Y-36738095D01*
X18452380Y-36166666D02*
X17880952Y-36595238D01*
X17452380Y-36166666D02*
X18023809Y-36738095D01*
X18452380Y-35214285D02*
X18452380Y-35785714D01*
X18452380Y-35500000D02*
X17452380Y-35500000D01*
X17595238Y-35595238D01*
X17690476Y-35690476D01*
X17738095Y-35785714D01*
X76071904Y-54982380D02*
X76071904Y-53982380D01*
X76310000Y-53982380D01*
X76452857Y-54030000D01*
X76548095Y-54125238D01*
X76595714Y-54220476D01*
X76643333Y-54410952D01*
X76643333Y-54553809D01*
X76595714Y-54744285D01*
X76548095Y-54839523D01*
X76452857Y-54934761D01*
X76310000Y-54982380D01*
X76071904Y-54982380D01*
X76976666Y-53982380D02*
X77595714Y-53982380D01*
X77262380Y-54363333D01*
X77405238Y-54363333D01*
X77500476Y-54410952D01*
X77548095Y-54458571D01*
X77595714Y-54553809D01*
X77595714Y-54791904D01*
X77548095Y-54887142D01*
X77500476Y-54934761D01*
X77405238Y-54982380D01*
X77119523Y-54982380D01*
X77024285Y-54934761D01*
X76976666Y-54887142D01*
X72738095Y-55552380D02*
X72738095Y-54552380D01*
X73309523Y-55552380D02*
X72880952Y-54980952D01*
X73309523Y-54552380D02*
X72738095Y-55123809D01*
X68452380Y-36738095D02*
X67452380Y-36738095D01*
X68452380Y-36166666D02*
X67880952Y-36595238D01*
X67452380Y-36166666D02*
X68023809Y-36738095D01*
X67452380Y-35833333D02*
X67452380Y-35214285D01*
X67833333Y-35547619D01*
X67833333Y-35404761D01*
X67880952Y-35309523D01*
X67928571Y-35261904D01*
X68023809Y-35214285D01*
X68261904Y-35214285D01*
X68357142Y-35261904D01*
X68404761Y-35309523D01*
X68452380Y-35404761D01*
X68452380Y-35690476D01*
X68404761Y-35785714D01*
X68357142Y-35833333D01*
X76616666Y-28102380D02*
X76616666Y-28816666D01*
X76569047Y-28959523D01*
X76473809Y-29054761D01*
X76330952Y-29102380D01*
X76235714Y-29102380D01*
X77521428Y-28435714D02*
X77521428Y-29102380D01*
X77283333Y-28054761D02*
X77045238Y-28769047D01*
X77664285Y-28769047D01*
X73732380Y-67816666D02*
X73256190Y-68150000D01*
X73732380Y-68388095D02*
X72732380Y-68388095D01*
X72732380Y-68007142D01*
X72780000Y-67911904D01*
X72827619Y-67864285D01*
X72922857Y-67816666D01*
X73065714Y-67816666D01*
X73160952Y-67864285D01*
X73208571Y-67911904D01*
X73256190Y-68007142D01*
X73256190Y-68388095D01*
X73732380Y-67340476D02*
X73732380Y-67150000D01*
X73684761Y-67054761D01*
X73637142Y-67007142D01*
X73494285Y-66911904D01*
X73303809Y-66864285D01*
X72922857Y-66864285D01*
X72827619Y-66911904D01*
X72780000Y-66959523D01*
X72732380Y-67054761D01*
X72732380Y-67245238D01*
X72780000Y-67340476D01*
X72827619Y-67388095D01*
X72922857Y-67435714D01*
X73160952Y-67435714D01*
X73256190Y-67388095D01*
X73303809Y-67340476D01*
X73351428Y-67245238D01*
X73351428Y-67054761D01*
X73303809Y-66959523D01*
X73256190Y-66911904D01*
X73160952Y-66864285D01*
X60172380Y-65516666D02*
X59696190Y-65850000D01*
X60172380Y-66088095D02*
X59172380Y-66088095D01*
X59172380Y-65707142D01*
X59220000Y-65611904D01*
X59267619Y-65564285D01*
X59362857Y-65516666D01*
X59505714Y-65516666D01*
X59600952Y-65564285D01*
X59648571Y-65611904D01*
X59696190Y-65707142D01*
X59696190Y-66088095D01*
X59600952Y-64945238D02*
X59553333Y-65040476D01*
X59505714Y-65088095D01*
X59410476Y-65135714D01*
X59362857Y-65135714D01*
X59267619Y-65088095D01*
X59220000Y-65040476D01*
X59172380Y-64945238D01*
X59172380Y-64754761D01*
X59220000Y-64659523D01*
X59267619Y-64611904D01*
X59362857Y-64564285D01*
X59410476Y-64564285D01*
X59505714Y-64611904D01*
X59553333Y-64659523D01*
X59600952Y-64754761D01*
X59600952Y-64945238D01*
X59648571Y-65040476D01*
X59696190Y-65088095D01*
X59791428Y-65135714D01*
X59981904Y-65135714D01*
X60077142Y-65088095D01*
X60124761Y-65040476D01*
X60172380Y-64945238D01*
X60172380Y-64754761D01*
X60124761Y-64659523D01*
X60077142Y-64611904D01*
X59981904Y-64564285D01*
X59791428Y-64564285D01*
X59696190Y-64611904D01*
X59648571Y-64659523D01*
X59600952Y-64754761D01*
X30732380Y-64816666D02*
X30256190Y-65150000D01*
X30732380Y-65388095D02*
X29732380Y-65388095D01*
X29732380Y-65007142D01*
X29780000Y-64911904D01*
X29827619Y-64864285D01*
X29922857Y-64816666D01*
X30065714Y-64816666D01*
X30160952Y-64864285D01*
X30208571Y-64911904D01*
X30256190Y-65007142D01*
X30256190Y-65388095D01*
X29732380Y-64483333D02*
X29732380Y-63816666D01*
X30732380Y-64245238D01*
X34483333Y-101172380D02*
X34150000Y-100696190D01*
X33911904Y-101172380D02*
X33911904Y-100172380D01*
X34292857Y-100172380D01*
X34388095Y-100220000D01*
X34435714Y-100267619D01*
X34483333Y-100362857D01*
X34483333Y-100505714D01*
X34435714Y-100600952D01*
X34388095Y-100648571D01*
X34292857Y-100696190D01*
X33911904Y-100696190D01*
X35340476Y-100172380D02*
X35150000Y-100172380D01*
X35054761Y-100220000D01*
X35007142Y-100267619D01*
X34911904Y-100410476D01*
X34864285Y-100600952D01*
X34864285Y-100981904D01*
X34911904Y-101077142D01*
X34959523Y-101124761D01*
X35054761Y-101172380D01*
X35245238Y-101172380D01*
X35340476Y-101124761D01*
X35388095Y-101077142D01*
X35435714Y-100981904D01*
X35435714Y-100743809D01*
X35388095Y-100648571D01*
X35340476Y-100600952D01*
X35245238Y-100553333D01*
X35054761Y-100553333D01*
X34959523Y-100600952D01*
X34911904Y-100648571D01*
X34864285Y-100743809D01*
X78183333Y-94732380D02*
X77850000Y-94256190D01*
X77611904Y-94732380D02*
X77611904Y-93732380D01*
X77992857Y-93732380D01*
X78088095Y-93780000D01*
X78135714Y-93827619D01*
X78183333Y-93922857D01*
X78183333Y-94065714D01*
X78135714Y-94160952D01*
X78088095Y-94208571D01*
X77992857Y-94256190D01*
X77611904Y-94256190D01*
X79088095Y-93732380D02*
X78611904Y-93732380D01*
X78564285Y-94208571D01*
X78611904Y-94160952D01*
X78707142Y-94113333D01*
X78945238Y-94113333D01*
X79040476Y-94160952D01*
X79088095Y-94208571D01*
X79135714Y-94303809D01*
X79135714Y-94541904D01*
X79088095Y-94637142D01*
X79040476Y-94684761D01*
X78945238Y-94732380D01*
X78707142Y-94732380D01*
X78611904Y-94684761D01*
X78564285Y-94637142D01*
X34483333Y-92172380D02*
X34150000Y-91696190D01*
X33911904Y-92172380D02*
X33911904Y-91172380D01*
X34292857Y-91172380D01*
X34388095Y-91220000D01*
X34435714Y-91267619D01*
X34483333Y-91362857D01*
X34483333Y-91505714D01*
X34435714Y-91600952D01*
X34388095Y-91648571D01*
X34292857Y-91696190D01*
X33911904Y-91696190D01*
X35340476Y-91505714D02*
X35340476Y-92172380D01*
X35102380Y-91124761D02*
X34864285Y-91839047D01*
X35483333Y-91839047D01*
X78183333Y-86732380D02*
X77850000Y-86256190D01*
X77611904Y-86732380D02*
X77611904Y-85732380D01*
X77992857Y-85732380D01*
X78088095Y-85780000D01*
X78135714Y-85827619D01*
X78183333Y-85922857D01*
X78183333Y-86065714D01*
X78135714Y-86160952D01*
X78088095Y-86208571D01*
X77992857Y-86256190D01*
X77611904Y-86256190D01*
X78516666Y-85732380D02*
X79135714Y-85732380D01*
X78802380Y-86113333D01*
X78945238Y-86113333D01*
X79040476Y-86160952D01*
X79088095Y-86208571D01*
X79135714Y-86303809D01*
X79135714Y-86541904D01*
X79088095Y-86637142D01*
X79040476Y-86684761D01*
X78945238Y-86732380D01*
X78659523Y-86732380D01*
X78564285Y-86684761D01*
X78516666Y-86637142D01*
X34483333Y-81172380D02*
X34150000Y-80696190D01*
X33911904Y-81172380D02*
X33911904Y-80172380D01*
X34292857Y-80172380D01*
X34388095Y-80220000D01*
X34435714Y-80267619D01*
X34483333Y-80362857D01*
X34483333Y-80505714D01*
X34435714Y-80600952D01*
X34388095Y-80648571D01*
X34292857Y-80696190D01*
X33911904Y-80696190D01*
X34864285Y-80267619D02*
X34911904Y-80220000D01*
X35007142Y-80172380D01*
X35245238Y-80172380D01*
X35340476Y-80220000D01*
X35388095Y-80267619D01*
X35435714Y-80362857D01*
X35435714Y-80458095D01*
X35388095Y-80600952D01*
X34816666Y-81172380D01*
X35435714Y-81172380D01*
X24102380Y-130383333D02*
X24816666Y-130383333D01*
X24959523Y-130430952D01*
X25054761Y-130526190D01*
X25102380Y-130669047D01*
X25102380Y-130764285D01*
X25102380Y-129383333D02*
X25102380Y-129954761D01*
X25102380Y-129669047D02*
X24102380Y-129669047D01*
X24245238Y-129764285D01*
X24340476Y-129859523D01*
X24388095Y-129954761D01*
X19666666Y-19452380D02*
X19666666Y-20166666D01*
X19619047Y-20309523D01*
X19523809Y-20404761D01*
X19380952Y-20452380D01*
X19285714Y-20452380D01*
X20047619Y-19452380D02*
X20666666Y-19452380D01*
X20333333Y-19833333D01*
X20476190Y-19833333D01*
X20571428Y-19880952D01*
X20619047Y-19928571D01*
X20666666Y-20023809D01*
X20666666Y-20261904D01*
X20619047Y-20357142D01*
X20571428Y-20404761D01*
X20476190Y-20452380D01*
X20190476Y-20452380D01*
X20095238Y-20404761D01*
X20047619Y-20357142D01*
X71949200Y-142128780D02*
X71949200Y-141128780D01*
X72330152Y-141128780D01*
X72425390Y-141176400D01*
X72473009Y-141224019D01*
X72520628Y-141319257D01*
X72520628Y-141462114D01*
X72473009Y-141557352D01*
X72425390Y-141604971D01*
X72330152Y-141652590D01*
X71949200Y-141652590D01*
X73092057Y-142128780D02*
X72996819Y-142081161D01*
X72949200Y-142033542D01*
X72901580Y-141938304D01*
X72901580Y-141652590D01*
X72949200Y-141557352D01*
X72996819Y-141509733D01*
X73092057Y-141462114D01*
X73234914Y-141462114D01*
X73330152Y-141509733D01*
X73377771Y-141557352D01*
X73425390Y-141652590D01*
X73425390Y-141938304D01*
X73377771Y-142033542D01*
X73330152Y-142081161D01*
X73234914Y-142128780D01*
X73092057Y-142128780D01*
X73711104Y-141462114D02*
X74092057Y-141462114D01*
X73853961Y-141128780D02*
X73853961Y-141985923D01*
X73901580Y-142081161D01*
X73996819Y-142128780D01*
X74092057Y-142128780D01*
X30952380Y-121761904D02*
X31761904Y-121761904D01*
X31857142Y-121714285D01*
X31904761Y-121666666D01*
X31952380Y-121571428D01*
X31952380Y-121380952D01*
X31904761Y-121285714D01*
X31857142Y-121238095D01*
X31761904Y-121190476D01*
X30952380Y-121190476D01*
X31952380Y-120190476D02*
X31952380Y-120761904D01*
X31952380Y-120476190D02*
X30952380Y-120476190D01*
X31095238Y-120571428D01*
X31190476Y-120666666D01*
X31238095Y-120761904D01*
X51318095Y-84122380D02*
X51318095Y-84931904D01*
X51365714Y-85027142D01*
X51413333Y-85074761D01*
X51508571Y-85122380D01*
X51699047Y-85122380D01*
X51794285Y-85074761D01*
X51841904Y-85027142D01*
X51889523Y-84931904D01*
X51889523Y-84122380D01*
X52270476Y-84122380D02*
X52889523Y-84122380D01*
X52556190Y-84503333D01*
X52699047Y-84503333D01*
X52794285Y-84550952D01*
X52841904Y-84598571D01*
X52889523Y-84693809D01*
X52889523Y-84931904D01*
X52841904Y-85027142D01*
X52794285Y-85074761D01*
X52699047Y-85122380D01*
X52413333Y-85122380D01*
X52318095Y-85074761D01*
X52270476Y-85027142D01*
X51318095Y-93122380D02*
X51318095Y-93931904D01*
X51365714Y-94027142D01*
X51413333Y-94074761D01*
X51508571Y-94122380D01*
X51699047Y-94122380D01*
X51794285Y-94074761D01*
X51841904Y-94027142D01*
X51889523Y-93931904D01*
X51889523Y-93122380D01*
X52794285Y-93455714D02*
X52794285Y-94122380D01*
X52556190Y-93074761D02*
X52318095Y-93789047D01*
X52937142Y-93789047D01*
X38122380Y-67681904D02*
X38931904Y-67681904D01*
X39027142Y-67634285D01*
X39074761Y-67586666D01*
X39122380Y-67491428D01*
X39122380Y-67300952D01*
X39074761Y-67205714D01*
X39027142Y-67158095D01*
X38931904Y-67110476D01*
X38122380Y-67110476D01*
X38122380Y-66158095D02*
X38122380Y-66634285D01*
X38598571Y-66681904D01*
X38550952Y-66634285D01*
X38503333Y-66539047D01*
X38503333Y-66300952D01*
X38550952Y-66205714D01*
X38598571Y-66158095D01*
X38693809Y-66110476D01*
X38931904Y-66110476D01*
X39027142Y-66158095D01*
X39074761Y-66205714D01*
X39122380Y-66300952D01*
X39122380Y-66539047D01*
X39074761Y-66634285D01*
X39027142Y-66681904D01*
X63122380Y-67681904D02*
X63931904Y-67681904D01*
X64027142Y-67634285D01*
X64074761Y-67586666D01*
X64122380Y-67491428D01*
X64122380Y-67300952D01*
X64074761Y-67205714D01*
X64027142Y-67158095D01*
X63931904Y-67110476D01*
X63122380Y-67110476D01*
X63122380Y-66205714D02*
X63122380Y-66396190D01*
X63170000Y-66491428D01*
X63217619Y-66539047D01*
X63360476Y-66634285D01*
X63550952Y-66681904D01*
X63931904Y-66681904D01*
X64027142Y-66634285D01*
X64074761Y-66586666D01*
X64122380Y-66491428D01*
X64122380Y-66300952D01*
X64074761Y-66205714D01*
X64027142Y-66158095D01*
X63931904Y-66110476D01*
X63693809Y-66110476D01*
X63598571Y-66158095D01*
X63550952Y-66205714D01*
X63503333Y-66300952D01*
X63503333Y-66491428D01*
X63550952Y-66586666D01*
X63598571Y-66634285D01*
X63693809Y-66681904D01*
X80122380Y-67681904D02*
X80931904Y-67681904D01*
X81027142Y-67634285D01*
X81074761Y-67586666D01*
X81122380Y-67491428D01*
X81122380Y-67300952D01*
X81074761Y-67205714D01*
X81027142Y-67158095D01*
X80931904Y-67110476D01*
X80122380Y-67110476D01*
X80122380Y-66729523D02*
X80122380Y-66062857D01*
X81122380Y-66491428D01*
X23071904Y-54982380D02*
X23071904Y-53982380D01*
X23310000Y-53982380D01*
X23452857Y-54030000D01*
X23548095Y-54125238D01*
X23595714Y-54220476D01*
X23643333Y-54410952D01*
X23643333Y-54553809D01*
X23595714Y-54744285D01*
X23548095Y-54839523D01*
X23452857Y-54934761D01*
X23310000Y-54982380D01*
X23071904Y-54982380D01*
X24595714Y-54982380D02*
X24024285Y-54982380D01*
X24310000Y-54982380D02*
X24310000Y-53982380D01*
X24214761Y-54125238D01*
X24119523Y-54220476D01*
X24024285Y-54268095D01*
X19738095Y-55552380D02*
X19738095Y-54552380D01*
X20309523Y-55552380D02*
X19880952Y-54980952D01*
X20309523Y-54552380D02*
X19738095Y-55123809D01*
X42071904Y-55982380D02*
X42071904Y-54982380D01*
X42310000Y-54982380D01*
X42452857Y-55030000D01*
X42548095Y-55125238D01*
X42595714Y-55220476D01*
X42643333Y-55410952D01*
X42643333Y-55553809D01*
X42595714Y-55744285D01*
X42548095Y-55839523D01*
X42452857Y-55934761D01*
X42310000Y-55982380D01*
X42071904Y-55982380D01*
X43024285Y-55077619D02*
X43071904Y-55030000D01*
X43167142Y-54982380D01*
X43405238Y-54982380D01*
X43500476Y-55030000D01*
X43548095Y-55077619D01*
X43595714Y-55172857D01*
X43595714Y-55268095D01*
X43548095Y-55410952D01*
X42976666Y-55982380D01*
X43595714Y-55982380D01*
X38738095Y-56552380D02*
X38738095Y-55552380D01*
X39309523Y-56552380D02*
X38880952Y-55980952D01*
X39309523Y-55552380D02*
X38738095Y-56123809D01*
X78183333Y-77732380D02*
X77850000Y-77256190D01*
X77611904Y-77732380D02*
X77611904Y-76732380D01*
X77992857Y-76732380D01*
X78088095Y-76780000D01*
X78135714Y-76827619D01*
X78183333Y-76922857D01*
X78183333Y-77065714D01*
X78135714Y-77160952D01*
X78088095Y-77208571D01*
X77992857Y-77256190D01*
X77611904Y-77256190D01*
X79135714Y-77732380D02*
X78564285Y-77732380D01*
X78850000Y-77732380D02*
X78850000Y-76732380D01*
X78754761Y-76875238D01*
X78659523Y-76970476D01*
X78564285Y-77018095D01*
M02*
