G04 #@! TF.GenerationSoftware,KiCad,Pcbnew,(5.1.5)-3*
G04 #@! TF.CreationDate,2019-12-23T19:31:05-05:00*
G04 #@! TF.ProjectId,control_digital,636f6e74-726f-46c5-9f64-69676974616c,rev?*
G04 #@! TF.SameCoordinates,Original*
G04 #@! TF.FileFunction,Soldermask,Bot*
G04 #@! TF.FilePolarity,Negative*
%FSLAX46Y46*%
G04 Gerber Fmt 4.6, Leading zero omitted, Abs format (unit mm)*
G04 Created by KiCad (PCBNEW (5.1.5)-3) date 2019-12-23 19:31:05*
%MOMM*%
%LPD*%
G04 APERTURE LIST*
%ADD10C,0.100000*%
G04 APERTURE END LIST*
D10*
G36*
X80590442Y-136462342D02*
G01*
X80738401Y-136523629D01*
X80871555Y-136612599D01*
X80984801Y-136725845D01*
X81073771Y-136858999D01*
X81135058Y-137006958D01*
X81166300Y-137164025D01*
X81166300Y-137324175D01*
X81135058Y-137481242D01*
X81073771Y-137629201D01*
X80984801Y-137762355D01*
X80871555Y-137875601D01*
X80738401Y-137964571D01*
X80590442Y-138025858D01*
X80433375Y-138057100D01*
X80273225Y-138057100D01*
X80116158Y-138025858D01*
X79968199Y-137964571D01*
X79835045Y-137875601D01*
X79721799Y-137762355D01*
X79632829Y-137629201D01*
X79571542Y-137481242D01*
X79540300Y-137324175D01*
X79540300Y-137164025D01*
X79571542Y-137006958D01*
X79632829Y-136858999D01*
X79721799Y-136725845D01*
X79835045Y-136612599D01*
X79968199Y-136523629D01*
X80116158Y-136462342D01*
X80273225Y-136431100D01*
X80433375Y-136431100D01*
X80590442Y-136462342D01*
G37*
G36*
X78088542Y-136462342D02*
G01*
X78236501Y-136523629D01*
X78369655Y-136612599D01*
X78482901Y-136725845D01*
X78571871Y-136858999D01*
X78633158Y-137006958D01*
X78664400Y-137164025D01*
X78664400Y-137324175D01*
X78633158Y-137481242D01*
X78571871Y-137629201D01*
X78482901Y-137762355D01*
X78369655Y-137875601D01*
X78236501Y-137964571D01*
X78088542Y-138025858D01*
X77931475Y-138057100D01*
X77771325Y-138057100D01*
X77614258Y-138025858D01*
X77466299Y-137964571D01*
X77333145Y-137875601D01*
X77219899Y-137762355D01*
X77130929Y-137629201D01*
X77069642Y-137481242D01*
X77038400Y-137324175D01*
X77038400Y-137164025D01*
X77069642Y-137006958D01*
X77130929Y-136858999D01*
X77219899Y-136725845D01*
X77333145Y-136612599D01*
X77466299Y-136523629D01*
X77614258Y-136462342D01*
X77771325Y-136431100D01*
X77931475Y-136431100D01*
X78088542Y-136462342D01*
G37*
G36*
X75599342Y-136462342D02*
G01*
X75747301Y-136523629D01*
X75880455Y-136612599D01*
X75993701Y-136725845D01*
X76082671Y-136858999D01*
X76143958Y-137006958D01*
X76175200Y-137164025D01*
X76175200Y-137324175D01*
X76143958Y-137481242D01*
X76082671Y-137629201D01*
X75993701Y-137762355D01*
X75880455Y-137875601D01*
X75747301Y-137964571D01*
X75599342Y-138025858D01*
X75442275Y-138057100D01*
X75282125Y-138057100D01*
X75125058Y-138025858D01*
X74977099Y-137964571D01*
X74843945Y-137875601D01*
X74730699Y-137762355D01*
X74641729Y-137629201D01*
X74580442Y-137481242D01*
X74549200Y-137324175D01*
X74549200Y-137164025D01*
X74580442Y-137006958D01*
X74641729Y-136858999D01*
X74730699Y-136725845D01*
X74843945Y-136612599D01*
X74977099Y-136523629D01*
X75125058Y-136462342D01*
X75282125Y-136431100D01*
X75442275Y-136431100D01*
X75599342Y-136462342D01*
G37*
G36*
X37551000Y-137551000D02*
G01*
X34449000Y-137551000D01*
X34449000Y-134449000D01*
X37551000Y-134449000D01*
X37551000Y-137551000D01*
G37*
G36*
X46462585Y-134478802D02*
G01*
X46612410Y-134508604D01*
X46894674Y-134625521D01*
X47148705Y-134795259D01*
X47364741Y-135011295D01*
X47534479Y-135265326D01*
X47651396Y-135547590D01*
X47711000Y-135847240D01*
X47711000Y-136152760D01*
X47651396Y-136452410D01*
X47534479Y-136734674D01*
X47364741Y-136988705D01*
X47148705Y-137204741D01*
X46894674Y-137374479D01*
X46612410Y-137491396D01*
X46462585Y-137521198D01*
X46312761Y-137551000D01*
X46007239Y-137551000D01*
X45857415Y-137521198D01*
X45707590Y-137491396D01*
X45425326Y-137374479D01*
X45171295Y-137204741D01*
X44955259Y-136988705D01*
X44785521Y-136734674D01*
X44668604Y-136452410D01*
X44609000Y-136152760D01*
X44609000Y-135847240D01*
X44668604Y-135547590D01*
X44785521Y-135265326D01*
X44955259Y-135011295D01*
X45171295Y-134795259D01*
X45425326Y-134625521D01*
X45707590Y-134508604D01*
X45857415Y-134478802D01*
X46007239Y-134449000D01*
X46312761Y-134449000D01*
X46462585Y-134478802D01*
G37*
G36*
X41382585Y-134478802D02*
G01*
X41532410Y-134508604D01*
X41814674Y-134625521D01*
X42068705Y-134795259D01*
X42284741Y-135011295D01*
X42454479Y-135265326D01*
X42571396Y-135547590D01*
X42631000Y-135847240D01*
X42631000Y-136152760D01*
X42571396Y-136452410D01*
X42454479Y-136734674D01*
X42284741Y-136988705D01*
X42068705Y-137204741D01*
X41814674Y-137374479D01*
X41532410Y-137491396D01*
X41382585Y-137521198D01*
X41232761Y-137551000D01*
X40927239Y-137551000D01*
X40777415Y-137521198D01*
X40627590Y-137491396D01*
X40345326Y-137374479D01*
X40091295Y-137204741D01*
X39875259Y-136988705D01*
X39705521Y-136734674D01*
X39588604Y-136452410D01*
X39529000Y-136152760D01*
X39529000Y-135847240D01*
X39588604Y-135547590D01*
X39705521Y-135265326D01*
X39875259Y-135011295D01*
X40091295Y-134795259D01*
X40345326Y-134625521D01*
X40627590Y-134508604D01*
X40777415Y-134478802D01*
X40927239Y-134449000D01*
X41232761Y-134449000D01*
X41382585Y-134478802D01*
G37*
G36*
X20302585Y-133638802D02*
G01*
X20452410Y-133668604D01*
X20734674Y-133785521D01*
X20988705Y-133955259D01*
X21204741Y-134171295D01*
X21374479Y-134425326D01*
X21491396Y-134707590D01*
X21551000Y-135007240D01*
X21551000Y-135312760D01*
X21491396Y-135612410D01*
X21374479Y-135894674D01*
X21204741Y-136148705D01*
X20988705Y-136364741D01*
X20734674Y-136534479D01*
X20452410Y-136651396D01*
X20302585Y-136681198D01*
X20152761Y-136711000D01*
X19847239Y-136711000D01*
X19697415Y-136681198D01*
X19547590Y-136651396D01*
X19265326Y-136534479D01*
X19011295Y-136364741D01*
X18795259Y-136148705D01*
X18625521Y-135894674D01*
X18508604Y-135612410D01*
X18449000Y-135312760D01*
X18449000Y-135007240D01*
X18508604Y-134707590D01*
X18625521Y-134425326D01*
X18795259Y-134171295D01*
X19011295Y-133955259D01*
X19265326Y-133785521D01*
X19547590Y-133668604D01*
X19697415Y-133638802D01*
X19847239Y-133609000D01*
X20152761Y-133609000D01*
X20302585Y-133638802D01*
G37*
G36*
X20302585Y-128558802D02*
G01*
X20452410Y-128588604D01*
X20734674Y-128705521D01*
X20988705Y-128875259D01*
X21204741Y-129091295D01*
X21374479Y-129345326D01*
X21491396Y-129627590D01*
X21551000Y-129927240D01*
X21551000Y-130232760D01*
X21491396Y-130532410D01*
X21374479Y-130814674D01*
X21204741Y-131068705D01*
X20988705Y-131284741D01*
X20734674Y-131454479D01*
X20452410Y-131571396D01*
X20302585Y-131601198D01*
X20152761Y-131631000D01*
X19847239Y-131631000D01*
X19697415Y-131601198D01*
X19547590Y-131571396D01*
X19265326Y-131454479D01*
X19011295Y-131284741D01*
X18795259Y-131068705D01*
X18625521Y-130814674D01*
X18508604Y-130532410D01*
X18449000Y-130232760D01*
X18449000Y-129927240D01*
X18508604Y-129627590D01*
X18625521Y-129345326D01*
X18795259Y-129091295D01*
X19011295Y-128875259D01*
X19265326Y-128705521D01*
X19547590Y-128588604D01*
X19697415Y-128558802D01*
X19847239Y-128529000D01*
X20152761Y-128529000D01*
X20302585Y-128558802D01*
G37*
G36*
X52768228Y-126421703D02*
G01*
X52923100Y-126485853D01*
X53062481Y-126578985D01*
X53181015Y-126697519D01*
X53274147Y-126836900D01*
X53338297Y-126991772D01*
X53371000Y-127156184D01*
X53371000Y-127323816D01*
X53338297Y-127488228D01*
X53274147Y-127643100D01*
X53181015Y-127782481D01*
X53062481Y-127901015D01*
X52923100Y-127994147D01*
X52768228Y-128058297D01*
X52603816Y-128091000D01*
X52436184Y-128091000D01*
X52271772Y-128058297D01*
X52116900Y-127994147D01*
X51977519Y-127901015D01*
X51858985Y-127782481D01*
X51765853Y-127643100D01*
X51701703Y-127488228D01*
X51669000Y-127323816D01*
X51669000Y-127156184D01*
X51701703Y-126991772D01*
X51765853Y-126836900D01*
X51858985Y-126697519D01*
X51977519Y-126578985D01*
X52116900Y-126485853D01*
X52271772Y-126421703D01*
X52436184Y-126389000D01*
X52603816Y-126389000D01*
X52768228Y-126421703D01*
G37*
G36*
X50228228Y-126421703D02*
G01*
X50383100Y-126485853D01*
X50522481Y-126578985D01*
X50641015Y-126697519D01*
X50734147Y-126836900D01*
X50798297Y-126991772D01*
X50831000Y-127156184D01*
X50831000Y-127323816D01*
X50798297Y-127488228D01*
X50734147Y-127643100D01*
X50641015Y-127782481D01*
X50522481Y-127901015D01*
X50383100Y-127994147D01*
X50228228Y-128058297D01*
X50063816Y-128091000D01*
X49896184Y-128091000D01*
X49731772Y-128058297D01*
X49576900Y-127994147D01*
X49437519Y-127901015D01*
X49318985Y-127782481D01*
X49225853Y-127643100D01*
X49161703Y-127488228D01*
X49129000Y-127323816D01*
X49129000Y-127156184D01*
X49161703Y-126991772D01*
X49225853Y-126836900D01*
X49318985Y-126697519D01*
X49437519Y-126578985D01*
X49576900Y-126485853D01*
X49731772Y-126421703D01*
X49896184Y-126389000D01*
X50063816Y-126389000D01*
X50228228Y-126421703D01*
G37*
G36*
X55308228Y-126421703D02*
G01*
X55463100Y-126485853D01*
X55602481Y-126578985D01*
X55721015Y-126697519D01*
X55814147Y-126836900D01*
X55878297Y-126991772D01*
X55911000Y-127156184D01*
X55911000Y-127323816D01*
X55878297Y-127488228D01*
X55814147Y-127643100D01*
X55721015Y-127782481D01*
X55602481Y-127901015D01*
X55463100Y-127994147D01*
X55308228Y-128058297D01*
X55143816Y-128091000D01*
X54976184Y-128091000D01*
X54811772Y-128058297D01*
X54656900Y-127994147D01*
X54517519Y-127901015D01*
X54398985Y-127782481D01*
X54305853Y-127643100D01*
X54241703Y-127488228D01*
X54209000Y-127323816D01*
X54209000Y-127156184D01*
X54241703Y-126991772D01*
X54305853Y-126836900D01*
X54398985Y-126697519D01*
X54517519Y-126578985D01*
X54656900Y-126485853D01*
X54811772Y-126421703D01*
X54976184Y-126389000D01*
X55143816Y-126389000D01*
X55308228Y-126421703D01*
G37*
G36*
X57848228Y-126421703D02*
G01*
X58003100Y-126485853D01*
X58142481Y-126578985D01*
X58261015Y-126697519D01*
X58354147Y-126836900D01*
X58418297Y-126991772D01*
X58451000Y-127156184D01*
X58451000Y-127323816D01*
X58418297Y-127488228D01*
X58354147Y-127643100D01*
X58261015Y-127782481D01*
X58142481Y-127901015D01*
X58003100Y-127994147D01*
X57848228Y-128058297D01*
X57683816Y-128091000D01*
X57516184Y-128091000D01*
X57351772Y-128058297D01*
X57196900Y-127994147D01*
X57057519Y-127901015D01*
X56938985Y-127782481D01*
X56845853Y-127643100D01*
X56781703Y-127488228D01*
X56749000Y-127323816D01*
X56749000Y-127156184D01*
X56781703Y-126991772D01*
X56845853Y-126836900D01*
X56938985Y-126697519D01*
X57057519Y-126578985D01*
X57196900Y-126485853D01*
X57351772Y-126421703D01*
X57516184Y-126389000D01*
X57683816Y-126389000D01*
X57848228Y-126421703D01*
G37*
G36*
X60388228Y-126421703D02*
G01*
X60543100Y-126485853D01*
X60682481Y-126578985D01*
X60801015Y-126697519D01*
X60894147Y-126836900D01*
X60958297Y-126991772D01*
X60991000Y-127156184D01*
X60991000Y-127323816D01*
X60958297Y-127488228D01*
X60894147Y-127643100D01*
X60801015Y-127782481D01*
X60682481Y-127901015D01*
X60543100Y-127994147D01*
X60388228Y-128058297D01*
X60223816Y-128091000D01*
X60056184Y-128091000D01*
X59891772Y-128058297D01*
X59736900Y-127994147D01*
X59597519Y-127901015D01*
X59478985Y-127782481D01*
X59385853Y-127643100D01*
X59321703Y-127488228D01*
X59289000Y-127323816D01*
X59289000Y-127156184D01*
X59321703Y-126991772D01*
X59385853Y-126836900D01*
X59478985Y-126697519D01*
X59597519Y-126578985D01*
X59736900Y-126485853D01*
X59891772Y-126421703D01*
X60056184Y-126389000D01*
X60223816Y-126389000D01*
X60388228Y-126421703D01*
G37*
G36*
X62928228Y-126421703D02*
G01*
X63083100Y-126485853D01*
X63222481Y-126578985D01*
X63341015Y-126697519D01*
X63434147Y-126836900D01*
X63498297Y-126991772D01*
X63531000Y-127156184D01*
X63531000Y-127323816D01*
X63498297Y-127488228D01*
X63434147Y-127643100D01*
X63341015Y-127782481D01*
X63222481Y-127901015D01*
X63083100Y-127994147D01*
X62928228Y-128058297D01*
X62763816Y-128091000D01*
X62596184Y-128091000D01*
X62431772Y-128058297D01*
X62276900Y-127994147D01*
X62137519Y-127901015D01*
X62018985Y-127782481D01*
X61925853Y-127643100D01*
X61861703Y-127488228D01*
X61829000Y-127323816D01*
X61829000Y-127156184D01*
X61861703Y-126991772D01*
X61925853Y-126836900D01*
X62018985Y-126697519D01*
X62137519Y-126578985D01*
X62276900Y-126485853D01*
X62431772Y-126421703D01*
X62596184Y-126389000D01*
X62763816Y-126389000D01*
X62928228Y-126421703D01*
G37*
G36*
X68008228Y-126421703D02*
G01*
X68163100Y-126485853D01*
X68302481Y-126578985D01*
X68421015Y-126697519D01*
X68514147Y-126836900D01*
X68578297Y-126991772D01*
X68611000Y-127156184D01*
X68611000Y-127323816D01*
X68578297Y-127488228D01*
X68514147Y-127643100D01*
X68421015Y-127782481D01*
X68302481Y-127901015D01*
X68163100Y-127994147D01*
X68008228Y-128058297D01*
X67843816Y-128091000D01*
X67676184Y-128091000D01*
X67511772Y-128058297D01*
X67356900Y-127994147D01*
X67217519Y-127901015D01*
X67098985Y-127782481D01*
X67005853Y-127643100D01*
X66941703Y-127488228D01*
X66909000Y-127323816D01*
X66909000Y-127156184D01*
X66941703Y-126991772D01*
X67005853Y-126836900D01*
X67098985Y-126697519D01*
X67217519Y-126578985D01*
X67356900Y-126485853D01*
X67511772Y-126421703D01*
X67676184Y-126389000D01*
X67843816Y-126389000D01*
X68008228Y-126421703D01*
G37*
G36*
X83248228Y-126421703D02*
G01*
X83403100Y-126485853D01*
X83542481Y-126578985D01*
X83661015Y-126697519D01*
X83754147Y-126836900D01*
X83818297Y-126991772D01*
X83851000Y-127156184D01*
X83851000Y-127323816D01*
X83818297Y-127488228D01*
X83754147Y-127643100D01*
X83661015Y-127782481D01*
X83542481Y-127901015D01*
X83403100Y-127994147D01*
X83248228Y-128058297D01*
X83083816Y-128091000D01*
X82916184Y-128091000D01*
X82751772Y-128058297D01*
X82596900Y-127994147D01*
X82457519Y-127901015D01*
X82338985Y-127782481D01*
X82245853Y-127643100D01*
X82181703Y-127488228D01*
X82149000Y-127323816D01*
X82149000Y-127156184D01*
X82181703Y-126991772D01*
X82245853Y-126836900D01*
X82338985Y-126697519D01*
X82457519Y-126578985D01*
X82596900Y-126485853D01*
X82751772Y-126421703D01*
X82916184Y-126389000D01*
X83083816Y-126389000D01*
X83248228Y-126421703D01*
G37*
G36*
X47688228Y-126421703D02*
G01*
X47843100Y-126485853D01*
X47982481Y-126578985D01*
X48101015Y-126697519D01*
X48194147Y-126836900D01*
X48258297Y-126991772D01*
X48291000Y-127156184D01*
X48291000Y-127323816D01*
X48258297Y-127488228D01*
X48194147Y-127643100D01*
X48101015Y-127782481D01*
X47982481Y-127901015D01*
X47843100Y-127994147D01*
X47688228Y-128058297D01*
X47523816Y-128091000D01*
X47356184Y-128091000D01*
X47191772Y-128058297D01*
X47036900Y-127994147D01*
X46897519Y-127901015D01*
X46778985Y-127782481D01*
X46685853Y-127643100D01*
X46621703Y-127488228D01*
X46589000Y-127323816D01*
X46589000Y-127156184D01*
X46621703Y-126991772D01*
X46685853Y-126836900D01*
X46778985Y-126697519D01*
X46897519Y-126578985D01*
X47036900Y-126485853D01*
X47191772Y-126421703D01*
X47356184Y-126389000D01*
X47523816Y-126389000D01*
X47688228Y-126421703D01*
G37*
G36*
X78168228Y-126421703D02*
G01*
X78323100Y-126485853D01*
X78462481Y-126578985D01*
X78581015Y-126697519D01*
X78674147Y-126836900D01*
X78738297Y-126991772D01*
X78771000Y-127156184D01*
X78771000Y-127323816D01*
X78738297Y-127488228D01*
X78674147Y-127643100D01*
X78581015Y-127782481D01*
X78462481Y-127901015D01*
X78323100Y-127994147D01*
X78168228Y-128058297D01*
X78003816Y-128091000D01*
X77836184Y-128091000D01*
X77671772Y-128058297D01*
X77516900Y-127994147D01*
X77377519Y-127901015D01*
X77258985Y-127782481D01*
X77165853Y-127643100D01*
X77101703Y-127488228D01*
X77069000Y-127323816D01*
X77069000Y-127156184D01*
X77101703Y-126991772D01*
X77165853Y-126836900D01*
X77258985Y-126697519D01*
X77377519Y-126578985D01*
X77516900Y-126485853D01*
X77671772Y-126421703D01*
X77836184Y-126389000D01*
X78003816Y-126389000D01*
X78168228Y-126421703D01*
G37*
G36*
X75628228Y-126421703D02*
G01*
X75783100Y-126485853D01*
X75922481Y-126578985D01*
X76041015Y-126697519D01*
X76134147Y-126836900D01*
X76198297Y-126991772D01*
X76231000Y-127156184D01*
X76231000Y-127323816D01*
X76198297Y-127488228D01*
X76134147Y-127643100D01*
X76041015Y-127782481D01*
X75922481Y-127901015D01*
X75783100Y-127994147D01*
X75628228Y-128058297D01*
X75463816Y-128091000D01*
X75296184Y-128091000D01*
X75131772Y-128058297D01*
X74976900Y-127994147D01*
X74837519Y-127901015D01*
X74718985Y-127782481D01*
X74625853Y-127643100D01*
X74561703Y-127488228D01*
X74529000Y-127323816D01*
X74529000Y-127156184D01*
X74561703Y-126991772D01*
X74625853Y-126836900D01*
X74718985Y-126697519D01*
X74837519Y-126578985D01*
X74976900Y-126485853D01*
X75131772Y-126421703D01*
X75296184Y-126389000D01*
X75463816Y-126389000D01*
X75628228Y-126421703D01*
G37*
G36*
X73088228Y-126421703D02*
G01*
X73243100Y-126485853D01*
X73382481Y-126578985D01*
X73501015Y-126697519D01*
X73594147Y-126836900D01*
X73658297Y-126991772D01*
X73691000Y-127156184D01*
X73691000Y-127323816D01*
X73658297Y-127488228D01*
X73594147Y-127643100D01*
X73501015Y-127782481D01*
X73382481Y-127901015D01*
X73243100Y-127994147D01*
X73088228Y-128058297D01*
X72923816Y-128091000D01*
X72756184Y-128091000D01*
X72591772Y-128058297D01*
X72436900Y-127994147D01*
X72297519Y-127901015D01*
X72178985Y-127782481D01*
X72085853Y-127643100D01*
X72021703Y-127488228D01*
X71989000Y-127323816D01*
X71989000Y-127156184D01*
X72021703Y-126991772D01*
X72085853Y-126836900D01*
X72178985Y-126697519D01*
X72297519Y-126578985D01*
X72436900Y-126485853D01*
X72591772Y-126421703D01*
X72756184Y-126389000D01*
X72923816Y-126389000D01*
X73088228Y-126421703D01*
G37*
G36*
X70548228Y-126421703D02*
G01*
X70703100Y-126485853D01*
X70842481Y-126578985D01*
X70961015Y-126697519D01*
X71054147Y-126836900D01*
X71118297Y-126991772D01*
X71151000Y-127156184D01*
X71151000Y-127323816D01*
X71118297Y-127488228D01*
X71054147Y-127643100D01*
X70961015Y-127782481D01*
X70842481Y-127901015D01*
X70703100Y-127994147D01*
X70548228Y-128058297D01*
X70383816Y-128091000D01*
X70216184Y-128091000D01*
X70051772Y-128058297D01*
X69896900Y-127994147D01*
X69757519Y-127901015D01*
X69638985Y-127782481D01*
X69545853Y-127643100D01*
X69481703Y-127488228D01*
X69449000Y-127323816D01*
X69449000Y-127156184D01*
X69481703Y-126991772D01*
X69545853Y-126836900D01*
X69638985Y-126697519D01*
X69757519Y-126578985D01*
X69896900Y-126485853D01*
X70051772Y-126421703D01*
X70216184Y-126389000D01*
X70383816Y-126389000D01*
X70548228Y-126421703D01*
G37*
G36*
X65468228Y-126421703D02*
G01*
X65623100Y-126485853D01*
X65762481Y-126578985D01*
X65881015Y-126697519D01*
X65974147Y-126836900D01*
X66038297Y-126991772D01*
X66071000Y-127156184D01*
X66071000Y-127323816D01*
X66038297Y-127488228D01*
X65974147Y-127643100D01*
X65881015Y-127782481D01*
X65762481Y-127901015D01*
X65623100Y-127994147D01*
X65468228Y-128058297D01*
X65303816Y-128091000D01*
X65136184Y-128091000D01*
X64971772Y-128058297D01*
X64816900Y-127994147D01*
X64677519Y-127901015D01*
X64558985Y-127782481D01*
X64465853Y-127643100D01*
X64401703Y-127488228D01*
X64369000Y-127323816D01*
X64369000Y-127156184D01*
X64401703Y-126991772D01*
X64465853Y-126836900D01*
X64558985Y-126697519D01*
X64677519Y-126578985D01*
X64816900Y-126485853D01*
X64971772Y-126421703D01*
X65136184Y-126389000D01*
X65303816Y-126389000D01*
X65468228Y-126421703D01*
G37*
G36*
X80708228Y-126421703D02*
G01*
X80863100Y-126485853D01*
X81002481Y-126578985D01*
X81121015Y-126697519D01*
X81214147Y-126836900D01*
X81278297Y-126991772D01*
X81311000Y-127156184D01*
X81311000Y-127323816D01*
X81278297Y-127488228D01*
X81214147Y-127643100D01*
X81121015Y-127782481D01*
X81002481Y-127901015D01*
X80863100Y-127994147D01*
X80708228Y-128058297D01*
X80543816Y-128091000D01*
X80376184Y-128091000D01*
X80211772Y-128058297D01*
X80056900Y-127994147D01*
X79917519Y-127901015D01*
X79798985Y-127782481D01*
X79705853Y-127643100D01*
X79641703Y-127488228D01*
X79609000Y-127323816D01*
X79609000Y-127156184D01*
X79641703Y-126991772D01*
X79705853Y-126836900D01*
X79798985Y-126697519D01*
X79917519Y-126578985D01*
X80056900Y-126485853D01*
X80211772Y-126421703D01*
X80376184Y-126389000D01*
X80543816Y-126389000D01*
X80708228Y-126421703D01*
G37*
G36*
X29248228Y-125681703D02*
G01*
X29403100Y-125745853D01*
X29542481Y-125838985D01*
X29661015Y-125957519D01*
X29754147Y-126096900D01*
X29818297Y-126251772D01*
X29851000Y-126416184D01*
X29851000Y-126583816D01*
X29818297Y-126748228D01*
X29754147Y-126903100D01*
X29661015Y-127042481D01*
X29542481Y-127161015D01*
X29403100Y-127254147D01*
X29248228Y-127318297D01*
X29083816Y-127351000D01*
X28916184Y-127351000D01*
X28751772Y-127318297D01*
X28596900Y-127254147D01*
X28457519Y-127161015D01*
X28338985Y-127042481D01*
X28245853Y-126903100D01*
X28181703Y-126748228D01*
X28149000Y-126583816D01*
X28149000Y-126416184D01*
X28181703Y-126251772D01*
X28245853Y-126096900D01*
X28338985Y-125957519D01*
X28457519Y-125838985D01*
X28596900Y-125745853D01*
X28751772Y-125681703D01*
X28916184Y-125649000D01*
X29083816Y-125649000D01*
X29248228Y-125681703D01*
G37*
G36*
X21551000Y-126551000D02*
G01*
X18449000Y-126551000D01*
X18449000Y-123449000D01*
X21551000Y-123449000D01*
X21551000Y-126551000D01*
G37*
G36*
X29851000Y-124851000D02*
G01*
X28149000Y-124851000D01*
X28149000Y-123149000D01*
X29851000Y-123149000D01*
X29851000Y-124851000D01*
G37*
G36*
X20302585Y-116878802D02*
G01*
X20452410Y-116908604D01*
X20734674Y-117025521D01*
X20988705Y-117195259D01*
X21204741Y-117411295D01*
X21374479Y-117665326D01*
X21491396Y-117947590D01*
X21551000Y-118247240D01*
X21551000Y-118552760D01*
X21491396Y-118852410D01*
X21374479Y-119134674D01*
X21204741Y-119388705D01*
X20988705Y-119604741D01*
X20734674Y-119774479D01*
X20452410Y-119891396D01*
X20302585Y-119921198D01*
X20152761Y-119951000D01*
X19847239Y-119951000D01*
X19697415Y-119921198D01*
X19547590Y-119891396D01*
X19265326Y-119774479D01*
X19011295Y-119604741D01*
X18795259Y-119388705D01*
X18625521Y-119134674D01*
X18508604Y-118852410D01*
X18449000Y-118552760D01*
X18449000Y-118247240D01*
X18508604Y-117947590D01*
X18625521Y-117665326D01*
X18795259Y-117411295D01*
X19011295Y-117195259D01*
X19265326Y-117025521D01*
X19547590Y-116908604D01*
X19697415Y-116878802D01*
X19847239Y-116849000D01*
X20152761Y-116849000D01*
X20302585Y-116878802D01*
G37*
G36*
X28239942Y-117932242D02*
G01*
X28387901Y-117993529D01*
X28521055Y-118082499D01*
X28634301Y-118195745D01*
X28723271Y-118328899D01*
X28784558Y-118476858D01*
X28815800Y-118633925D01*
X28815800Y-118794075D01*
X28784558Y-118951142D01*
X28723271Y-119099101D01*
X28634301Y-119232255D01*
X28521055Y-119345501D01*
X28387901Y-119434471D01*
X28239942Y-119495758D01*
X28082875Y-119527000D01*
X27922725Y-119527000D01*
X27765658Y-119495758D01*
X27617699Y-119434471D01*
X27484545Y-119345501D01*
X27371299Y-119232255D01*
X27282329Y-119099101D01*
X27221042Y-118951142D01*
X27189800Y-118794075D01*
X27189800Y-118633925D01*
X27221042Y-118476858D01*
X27282329Y-118328899D01*
X27371299Y-118195745D01*
X27484545Y-118082499D01*
X27617699Y-117993529D01*
X27765658Y-117932242D01*
X27922725Y-117901000D01*
X28082875Y-117901000D01*
X28239942Y-117932242D01*
G37*
G36*
X28239942Y-114668342D02*
G01*
X28387901Y-114729629D01*
X28521055Y-114818599D01*
X28634301Y-114931845D01*
X28723271Y-115064999D01*
X28784558Y-115212958D01*
X28815800Y-115370025D01*
X28815800Y-115530175D01*
X28784558Y-115687242D01*
X28723271Y-115835201D01*
X28634301Y-115968355D01*
X28521055Y-116081601D01*
X28387901Y-116170571D01*
X28239942Y-116231858D01*
X28082875Y-116263100D01*
X27922725Y-116263100D01*
X27765658Y-116231858D01*
X27617699Y-116170571D01*
X27484545Y-116081601D01*
X27371299Y-115968355D01*
X27282329Y-115835201D01*
X27221042Y-115687242D01*
X27189800Y-115530175D01*
X27189800Y-115370025D01*
X27221042Y-115212958D01*
X27282329Y-115064999D01*
X27371299Y-114931845D01*
X27484545Y-114818599D01*
X27617699Y-114729629D01*
X27765658Y-114668342D01*
X27922725Y-114637100D01*
X28082875Y-114637100D01*
X28239942Y-114668342D01*
G37*
G36*
X37248228Y-113681703D02*
G01*
X37403100Y-113745853D01*
X37542481Y-113838985D01*
X37661015Y-113957519D01*
X37754147Y-114096900D01*
X37818297Y-114251772D01*
X37851000Y-114416184D01*
X37851000Y-114583816D01*
X37818297Y-114748228D01*
X37754147Y-114903100D01*
X37661015Y-115042481D01*
X37542481Y-115161015D01*
X37403100Y-115254147D01*
X37248228Y-115318297D01*
X37083816Y-115351000D01*
X36916184Y-115351000D01*
X36751772Y-115318297D01*
X36596900Y-115254147D01*
X36457519Y-115161015D01*
X36338985Y-115042481D01*
X36245853Y-114903100D01*
X36181703Y-114748228D01*
X36149000Y-114583816D01*
X36149000Y-114416184D01*
X36181703Y-114251772D01*
X36245853Y-114096900D01*
X36338985Y-113957519D01*
X36457519Y-113838985D01*
X36596900Y-113745853D01*
X36751772Y-113681703D01*
X36916184Y-113649000D01*
X37083816Y-113649000D01*
X37248228Y-113681703D01*
G37*
G36*
X20302585Y-111798802D02*
G01*
X20452410Y-111828604D01*
X20734674Y-111945521D01*
X20988705Y-112115259D01*
X21204741Y-112331295D01*
X21374479Y-112585326D01*
X21491396Y-112867590D01*
X21551000Y-113167240D01*
X21551000Y-113472760D01*
X21491396Y-113772410D01*
X21374479Y-114054674D01*
X21204741Y-114308705D01*
X20988705Y-114524741D01*
X20734674Y-114694479D01*
X20452410Y-114811396D01*
X20302585Y-114841198D01*
X20152761Y-114871000D01*
X19847239Y-114871000D01*
X19697415Y-114841198D01*
X19547590Y-114811396D01*
X19265326Y-114694479D01*
X19011295Y-114524741D01*
X18795259Y-114308705D01*
X18625521Y-114054674D01*
X18508604Y-113772410D01*
X18449000Y-113472760D01*
X18449000Y-113167240D01*
X18508604Y-112867590D01*
X18625521Y-112585326D01*
X18795259Y-112331295D01*
X19011295Y-112115259D01*
X19265326Y-111945521D01*
X19547590Y-111828604D01*
X19697415Y-111798802D01*
X19847239Y-111769000D01*
X20152761Y-111769000D01*
X20302585Y-111798802D01*
G37*
G36*
X28239942Y-112115642D02*
G01*
X28387901Y-112176929D01*
X28521055Y-112265899D01*
X28634301Y-112379145D01*
X28723271Y-112512299D01*
X28784558Y-112660258D01*
X28815800Y-112817325D01*
X28815800Y-112977475D01*
X28784558Y-113134542D01*
X28723271Y-113282501D01*
X28634301Y-113415655D01*
X28521055Y-113528901D01*
X28387901Y-113617871D01*
X28239942Y-113679158D01*
X28082875Y-113710400D01*
X27922725Y-113710400D01*
X27765658Y-113679158D01*
X27617699Y-113617871D01*
X27484545Y-113528901D01*
X27371299Y-113415655D01*
X27282329Y-113282501D01*
X27221042Y-113134542D01*
X27189800Y-112977475D01*
X27189800Y-112817325D01*
X27221042Y-112660258D01*
X27282329Y-112512299D01*
X27371299Y-112379145D01*
X27484545Y-112265899D01*
X27617699Y-112176929D01*
X27765658Y-112115642D01*
X27922725Y-112084400D01*
X28082875Y-112084400D01*
X28239942Y-112115642D01*
G37*
G36*
X47688228Y-111181703D02*
G01*
X47843100Y-111245853D01*
X47982481Y-111338985D01*
X48101015Y-111457519D01*
X48194147Y-111596900D01*
X48258297Y-111751772D01*
X48291000Y-111916184D01*
X48291000Y-112083816D01*
X48258297Y-112248228D01*
X48194147Y-112403100D01*
X48101015Y-112542481D01*
X47982481Y-112661015D01*
X47843100Y-112754147D01*
X47688228Y-112818297D01*
X47523816Y-112851000D01*
X47356184Y-112851000D01*
X47191772Y-112818297D01*
X47036900Y-112754147D01*
X46897519Y-112661015D01*
X46778985Y-112542481D01*
X46685853Y-112403100D01*
X46621703Y-112248228D01*
X46589000Y-112083816D01*
X46589000Y-111916184D01*
X46621703Y-111751772D01*
X46685853Y-111596900D01*
X46778985Y-111457519D01*
X46897519Y-111338985D01*
X47036900Y-111245853D01*
X47191772Y-111181703D01*
X47356184Y-111149000D01*
X47523816Y-111149000D01*
X47688228Y-111181703D01*
G37*
G36*
X73088228Y-111181703D02*
G01*
X73243100Y-111245853D01*
X73382481Y-111338985D01*
X73501015Y-111457519D01*
X73594147Y-111596900D01*
X73658297Y-111751772D01*
X73691000Y-111916184D01*
X73691000Y-112083816D01*
X73658297Y-112248228D01*
X73594147Y-112403100D01*
X73501015Y-112542481D01*
X73382481Y-112661015D01*
X73243100Y-112754147D01*
X73088228Y-112818297D01*
X72923816Y-112851000D01*
X72756184Y-112851000D01*
X72591772Y-112818297D01*
X72436900Y-112754147D01*
X72297519Y-112661015D01*
X72178985Y-112542481D01*
X72085853Y-112403100D01*
X72021703Y-112248228D01*
X71989000Y-112083816D01*
X71989000Y-111916184D01*
X72021703Y-111751772D01*
X72085853Y-111596900D01*
X72178985Y-111457519D01*
X72297519Y-111338985D01*
X72436900Y-111245853D01*
X72591772Y-111181703D01*
X72756184Y-111149000D01*
X72923816Y-111149000D01*
X73088228Y-111181703D01*
G37*
G36*
X50228228Y-111181703D02*
G01*
X50383100Y-111245853D01*
X50522481Y-111338985D01*
X50641015Y-111457519D01*
X50734147Y-111596900D01*
X50798297Y-111751772D01*
X50831000Y-111916184D01*
X50831000Y-112083816D01*
X50798297Y-112248228D01*
X50734147Y-112403100D01*
X50641015Y-112542481D01*
X50522481Y-112661015D01*
X50383100Y-112754147D01*
X50228228Y-112818297D01*
X50063816Y-112851000D01*
X49896184Y-112851000D01*
X49731772Y-112818297D01*
X49576900Y-112754147D01*
X49437519Y-112661015D01*
X49318985Y-112542481D01*
X49225853Y-112403100D01*
X49161703Y-112248228D01*
X49129000Y-112083816D01*
X49129000Y-111916184D01*
X49161703Y-111751772D01*
X49225853Y-111596900D01*
X49318985Y-111457519D01*
X49437519Y-111338985D01*
X49576900Y-111245853D01*
X49731772Y-111181703D01*
X49896184Y-111149000D01*
X50063816Y-111149000D01*
X50228228Y-111181703D01*
G37*
G36*
X52768228Y-111181703D02*
G01*
X52923100Y-111245853D01*
X53062481Y-111338985D01*
X53181015Y-111457519D01*
X53274147Y-111596900D01*
X53338297Y-111751772D01*
X53371000Y-111916184D01*
X53371000Y-112083816D01*
X53338297Y-112248228D01*
X53274147Y-112403100D01*
X53181015Y-112542481D01*
X53062481Y-112661015D01*
X52923100Y-112754147D01*
X52768228Y-112818297D01*
X52603816Y-112851000D01*
X52436184Y-112851000D01*
X52271772Y-112818297D01*
X52116900Y-112754147D01*
X51977519Y-112661015D01*
X51858985Y-112542481D01*
X51765853Y-112403100D01*
X51701703Y-112248228D01*
X51669000Y-112083816D01*
X51669000Y-111916184D01*
X51701703Y-111751772D01*
X51765853Y-111596900D01*
X51858985Y-111457519D01*
X51977519Y-111338985D01*
X52116900Y-111245853D01*
X52271772Y-111181703D01*
X52436184Y-111149000D01*
X52603816Y-111149000D01*
X52768228Y-111181703D01*
G37*
G36*
X55308228Y-111181703D02*
G01*
X55463100Y-111245853D01*
X55602481Y-111338985D01*
X55721015Y-111457519D01*
X55814147Y-111596900D01*
X55878297Y-111751772D01*
X55911000Y-111916184D01*
X55911000Y-112083816D01*
X55878297Y-112248228D01*
X55814147Y-112403100D01*
X55721015Y-112542481D01*
X55602481Y-112661015D01*
X55463100Y-112754147D01*
X55308228Y-112818297D01*
X55143816Y-112851000D01*
X54976184Y-112851000D01*
X54811772Y-112818297D01*
X54656900Y-112754147D01*
X54517519Y-112661015D01*
X54398985Y-112542481D01*
X54305853Y-112403100D01*
X54241703Y-112248228D01*
X54209000Y-112083816D01*
X54209000Y-111916184D01*
X54241703Y-111751772D01*
X54305853Y-111596900D01*
X54398985Y-111457519D01*
X54517519Y-111338985D01*
X54656900Y-111245853D01*
X54811772Y-111181703D01*
X54976184Y-111149000D01*
X55143816Y-111149000D01*
X55308228Y-111181703D01*
G37*
G36*
X57848228Y-111181703D02*
G01*
X58003100Y-111245853D01*
X58142481Y-111338985D01*
X58261015Y-111457519D01*
X58354147Y-111596900D01*
X58418297Y-111751772D01*
X58451000Y-111916184D01*
X58451000Y-112083816D01*
X58418297Y-112248228D01*
X58354147Y-112403100D01*
X58261015Y-112542481D01*
X58142481Y-112661015D01*
X58003100Y-112754147D01*
X57848228Y-112818297D01*
X57683816Y-112851000D01*
X57516184Y-112851000D01*
X57351772Y-112818297D01*
X57196900Y-112754147D01*
X57057519Y-112661015D01*
X56938985Y-112542481D01*
X56845853Y-112403100D01*
X56781703Y-112248228D01*
X56749000Y-112083816D01*
X56749000Y-111916184D01*
X56781703Y-111751772D01*
X56845853Y-111596900D01*
X56938985Y-111457519D01*
X57057519Y-111338985D01*
X57196900Y-111245853D01*
X57351772Y-111181703D01*
X57516184Y-111149000D01*
X57683816Y-111149000D01*
X57848228Y-111181703D01*
G37*
G36*
X62928228Y-111181703D02*
G01*
X63083100Y-111245853D01*
X63222481Y-111338985D01*
X63341015Y-111457519D01*
X63434147Y-111596900D01*
X63498297Y-111751772D01*
X63531000Y-111916184D01*
X63531000Y-112083816D01*
X63498297Y-112248228D01*
X63434147Y-112403100D01*
X63341015Y-112542481D01*
X63222481Y-112661015D01*
X63083100Y-112754147D01*
X62928228Y-112818297D01*
X62763816Y-112851000D01*
X62596184Y-112851000D01*
X62431772Y-112818297D01*
X62276900Y-112754147D01*
X62137519Y-112661015D01*
X62018985Y-112542481D01*
X61925853Y-112403100D01*
X61861703Y-112248228D01*
X61829000Y-112083816D01*
X61829000Y-111916184D01*
X61861703Y-111751772D01*
X61925853Y-111596900D01*
X62018985Y-111457519D01*
X62137519Y-111338985D01*
X62276900Y-111245853D01*
X62431772Y-111181703D01*
X62596184Y-111149000D01*
X62763816Y-111149000D01*
X62928228Y-111181703D01*
G37*
G36*
X60388228Y-111181703D02*
G01*
X60543100Y-111245853D01*
X60682481Y-111338985D01*
X60801015Y-111457519D01*
X60894147Y-111596900D01*
X60958297Y-111751772D01*
X60991000Y-111916184D01*
X60991000Y-112083816D01*
X60958297Y-112248228D01*
X60894147Y-112403100D01*
X60801015Y-112542481D01*
X60682481Y-112661015D01*
X60543100Y-112754147D01*
X60388228Y-112818297D01*
X60223816Y-112851000D01*
X60056184Y-112851000D01*
X59891772Y-112818297D01*
X59736900Y-112754147D01*
X59597519Y-112661015D01*
X59478985Y-112542481D01*
X59385853Y-112403100D01*
X59321703Y-112248228D01*
X59289000Y-112083816D01*
X59289000Y-111916184D01*
X59321703Y-111751772D01*
X59385853Y-111596900D01*
X59478985Y-111457519D01*
X59597519Y-111338985D01*
X59736900Y-111245853D01*
X59891772Y-111181703D01*
X60056184Y-111149000D01*
X60223816Y-111149000D01*
X60388228Y-111181703D01*
G37*
G36*
X80708228Y-111181703D02*
G01*
X80863100Y-111245853D01*
X81002481Y-111338985D01*
X81121015Y-111457519D01*
X81214147Y-111596900D01*
X81278297Y-111751772D01*
X81311000Y-111916184D01*
X81311000Y-112083816D01*
X81278297Y-112248228D01*
X81214147Y-112403100D01*
X81121015Y-112542481D01*
X81002481Y-112661015D01*
X80863100Y-112754147D01*
X80708228Y-112818297D01*
X80543816Y-112851000D01*
X80376184Y-112851000D01*
X80211772Y-112818297D01*
X80056900Y-112754147D01*
X79917519Y-112661015D01*
X79798985Y-112542481D01*
X79705853Y-112403100D01*
X79641703Y-112248228D01*
X79609000Y-112083816D01*
X79609000Y-111916184D01*
X79641703Y-111751772D01*
X79705853Y-111596900D01*
X79798985Y-111457519D01*
X79917519Y-111338985D01*
X80056900Y-111245853D01*
X80211772Y-111181703D01*
X80376184Y-111149000D01*
X80543816Y-111149000D01*
X80708228Y-111181703D01*
G37*
G36*
X78168228Y-111181703D02*
G01*
X78323100Y-111245853D01*
X78462481Y-111338985D01*
X78581015Y-111457519D01*
X78674147Y-111596900D01*
X78738297Y-111751772D01*
X78771000Y-111916184D01*
X78771000Y-112083816D01*
X78738297Y-112248228D01*
X78674147Y-112403100D01*
X78581015Y-112542481D01*
X78462481Y-112661015D01*
X78323100Y-112754147D01*
X78168228Y-112818297D01*
X78003816Y-112851000D01*
X77836184Y-112851000D01*
X77671772Y-112818297D01*
X77516900Y-112754147D01*
X77377519Y-112661015D01*
X77258985Y-112542481D01*
X77165853Y-112403100D01*
X77101703Y-112248228D01*
X77069000Y-112083816D01*
X77069000Y-111916184D01*
X77101703Y-111751772D01*
X77165853Y-111596900D01*
X77258985Y-111457519D01*
X77377519Y-111338985D01*
X77516900Y-111245853D01*
X77671772Y-111181703D01*
X77836184Y-111149000D01*
X78003816Y-111149000D01*
X78168228Y-111181703D01*
G37*
G36*
X83851000Y-112851000D02*
G01*
X82149000Y-112851000D01*
X82149000Y-111149000D01*
X83851000Y-111149000D01*
X83851000Y-112851000D01*
G37*
G36*
X68008228Y-111181703D02*
G01*
X68163100Y-111245853D01*
X68302481Y-111338985D01*
X68421015Y-111457519D01*
X68514147Y-111596900D01*
X68578297Y-111751772D01*
X68611000Y-111916184D01*
X68611000Y-112083816D01*
X68578297Y-112248228D01*
X68514147Y-112403100D01*
X68421015Y-112542481D01*
X68302481Y-112661015D01*
X68163100Y-112754147D01*
X68008228Y-112818297D01*
X67843816Y-112851000D01*
X67676184Y-112851000D01*
X67511772Y-112818297D01*
X67356900Y-112754147D01*
X67217519Y-112661015D01*
X67098985Y-112542481D01*
X67005853Y-112403100D01*
X66941703Y-112248228D01*
X66909000Y-112083816D01*
X66909000Y-111916184D01*
X66941703Y-111751772D01*
X67005853Y-111596900D01*
X67098985Y-111457519D01*
X67217519Y-111338985D01*
X67356900Y-111245853D01*
X67511772Y-111181703D01*
X67676184Y-111149000D01*
X67843816Y-111149000D01*
X68008228Y-111181703D01*
G37*
G36*
X75628228Y-111181703D02*
G01*
X75783100Y-111245853D01*
X75922481Y-111338985D01*
X76041015Y-111457519D01*
X76134147Y-111596900D01*
X76198297Y-111751772D01*
X76231000Y-111916184D01*
X76231000Y-112083816D01*
X76198297Y-112248228D01*
X76134147Y-112403100D01*
X76041015Y-112542481D01*
X75922481Y-112661015D01*
X75783100Y-112754147D01*
X75628228Y-112818297D01*
X75463816Y-112851000D01*
X75296184Y-112851000D01*
X75131772Y-112818297D01*
X74976900Y-112754147D01*
X74837519Y-112661015D01*
X74718985Y-112542481D01*
X74625853Y-112403100D01*
X74561703Y-112248228D01*
X74529000Y-112083816D01*
X74529000Y-111916184D01*
X74561703Y-111751772D01*
X74625853Y-111596900D01*
X74718985Y-111457519D01*
X74837519Y-111338985D01*
X74976900Y-111245853D01*
X75131772Y-111181703D01*
X75296184Y-111149000D01*
X75463816Y-111149000D01*
X75628228Y-111181703D01*
G37*
G36*
X37851000Y-112851000D02*
G01*
X36149000Y-112851000D01*
X36149000Y-111149000D01*
X37851000Y-111149000D01*
X37851000Y-112851000D01*
G37*
G36*
X70548228Y-111181703D02*
G01*
X70703100Y-111245853D01*
X70842481Y-111338985D01*
X70961015Y-111457519D01*
X71054147Y-111596900D01*
X71118297Y-111751772D01*
X71151000Y-111916184D01*
X71151000Y-112083816D01*
X71118297Y-112248228D01*
X71054147Y-112403100D01*
X70961015Y-112542481D01*
X70842481Y-112661015D01*
X70703100Y-112754147D01*
X70548228Y-112818297D01*
X70383816Y-112851000D01*
X70216184Y-112851000D01*
X70051772Y-112818297D01*
X69896900Y-112754147D01*
X69757519Y-112661015D01*
X69638985Y-112542481D01*
X69545853Y-112403100D01*
X69481703Y-112248228D01*
X69449000Y-112083816D01*
X69449000Y-111916184D01*
X69481703Y-111751772D01*
X69545853Y-111596900D01*
X69638985Y-111457519D01*
X69757519Y-111338985D01*
X69896900Y-111245853D01*
X70051772Y-111181703D01*
X70216184Y-111149000D01*
X70383816Y-111149000D01*
X70548228Y-111181703D01*
G37*
G36*
X65468228Y-111181703D02*
G01*
X65623100Y-111245853D01*
X65762481Y-111338985D01*
X65881015Y-111457519D01*
X65974147Y-111596900D01*
X66038297Y-111751772D01*
X66071000Y-111916184D01*
X66071000Y-112083816D01*
X66038297Y-112248228D01*
X65974147Y-112403100D01*
X65881015Y-112542481D01*
X65762481Y-112661015D01*
X65623100Y-112754147D01*
X65468228Y-112818297D01*
X65303816Y-112851000D01*
X65136184Y-112851000D01*
X64971772Y-112818297D01*
X64816900Y-112754147D01*
X64677519Y-112661015D01*
X64558985Y-112542481D01*
X64465853Y-112403100D01*
X64401703Y-112248228D01*
X64369000Y-112083816D01*
X64369000Y-111916184D01*
X64401703Y-111751772D01*
X64465853Y-111596900D01*
X64558985Y-111457519D01*
X64677519Y-111338985D01*
X64816900Y-111245853D01*
X64971772Y-111181703D01*
X65136184Y-111149000D01*
X65303816Y-111149000D01*
X65468228Y-111181703D01*
G37*
G36*
X20302585Y-106718802D02*
G01*
X20452410Y-106748604D01*
X20734674Y-106865521D01*
X20988705Y-107035259D01*
X21204741Y-107251295D01*
X21374479Y-107505326D01*
X21491396Y-107787590D01*
X21551000Y-108087240D01*
X21551000Y-108392760D01*
X21491396Y-108692410D01*
X21374479Y-108974674D01*
X21204741Y-109228705D01*
X20988705Y-109444741D01*
X20734674Y-109614479D01*
X20452410Y-109731396D01*
X20302585Y-109761198D01*
X20152761Y-109791000D01*
X19847239Y-109791000D01*
X19697415Y-109761198D01*
X19547590Y-109731396D01*
X19265326Y-109614479D01*
X19011295Y-109444741D01*
X18795259Y-109228705D01*
X18625521Y-108974674D01*
X18508604Y-108692410D01*
X18449000Y-108392760D01*
X18449000Y-108087240D01*
X18508604Y-107787590D01*
X18625521Y-107505326D01*
X18795259Y-107251295D01*
X19011295Y-107035259D01*
X19265326Y-106865521D01*
X19547590Y-106748604D01*
X19697415Y-106718802D01*
X19847239Y-106689000D01*
X20152761Y-106689000D01*
X20302585Y-106718802D01*
G37*
G36*
X20302585Y-101638802D02*
G01*
X20452410Y-101668604D01*
X20734674Y-101785521D01*
X20988705Y-101955259D01*
X21204741Y-102171295D01*
X21374479Y-102425326D01*
X21491396Y-102707590D01*
X21551000Y-103007240D01*
X21551000Y-103312760D01*
X21491396Y-103612410D01*
X21374479Y-103894674D01*
X21204741Y-104148705D01*
X20988705Y-104364741D01*
X20734674Y-104534479D01*
X20452410Y-104651396D01*
X20302585Y-104681198D01*
X20152761Y-104711000D01*
X19847239Y-104711000D01*
X19697415Y-104681198D01*
X19547590Y-104651396D01*
X19265326Y-104534479D01*
X19011295Y-104364741D01*
X18795259Y-104148705D01*
X18625521Y-103894674D01*
X18508604Y-103612410D01*
X18449000Y-103312760D01*
X18449000Y-103007240D01*
X18508604Y-102707590D01*
X18625521Y-102425326D01*
X18795259Y-102171295D01*
X19011295Y-101955259D01*
X19265326Y-101785521D01*
X19547590Y-101668604D01*
X19697415Y-101638802D01*
X19847239Y-101609000D01*
X20152761Y-101609000D01*
X20302585Y-101638802D01*
G37*
G36*
X20220529Y-96542480D02*
G01*
X20452410Y-96588604D01*
X20734674Y-96705521D01*
X20988705Y-96875259D01*
X21204741Y-97091295D01*
X21374479Y-97345326D01*
X21491396Y-97627590D01*
X21503611Y-97689000D01*
X21541402Y-97878985D01*
X21551000Y-97927240D01*
X21551000Y-98232760D01*
X21491396Y-98532410D01*
X21374479Y-98814674D01*
X21204741Y-99068705D01*
X20988705Y-99284741D01*
X20734674Y-99454479D01*
X20452410Y-99571396D01*
X20302585Y-99601198D01*
X20152761Y-99631000D01*
X19847239Y-99631000D01*
X19697415Y-99601198D01*
X19547590Y-99571396D01*
X19265326Y-99454479D01*
X19011295Y-99284741D01*
X18795259Y-99068705D01*
X18625521Y-98814674D01*
X18508604Y-98532410D01*
X18449000Y-98232760D01*
X18449000Y-97927240D01*
X18458599Y-97878985D01*
X18496389Y-97689000D01*
X18508604Y-97627590D01*
X18625521Y-97345326D01*
X18795259Y-97091295D01*
X19011295Y-96875259D01*
X19265326Y-96705521D01*
X19547590Y-96588604D01*
X19779471Y-96542480D01*
X19847239Y-96529000D01*
X20152761Y-96529000D01*
X20220529Y-96542480D01*
G37*
G36*
X57408228Y-97721703D02*
G01*
X57563100Y-97785853D01*
X57702481Y-97878985D01*
X57821015Y-97997519D01*
X57914147Y-98136900D01*
X57978297Y-98291772D01*
X58011000Y-98456184D01*
X58011000Y-98623816D01*
X57978297Y-98788228D01*
X57914147Y-98943100D01*
X57821015Y-99082481D01*
X57702481Y-99201015D01*
X57563100Y-99294147D01*
X57408228Y-99358297D01*
X57243816Y-99391000D01*
X57076184Y-99391000D01*
X56911772Y-99358297D01*
X56756900Y-99294147D01*
X56617519Y-99201015D01*
X56498985Y-99082481D01*
X56405853Y-98943100D01*
X56341703Y-98788228D01*
X56309000Y-98623816D01*
X56309000Y-98456184D01*
X56341703Y-98291772D01*
X56405853Y-98136900D01*
X56498985Y-97997519D01*
X56617519Y-97878985D01*
X56756900Y-97785853D01*
X56911772Y-97721703D01*
X57076184Y-97689000D01*
X57243816Y-97689000D01*
X57408228Y-97721703D01*
G37*
G36*
X47248228Y-97721703D02*
G01*
X47403100Y-97785853D01*
X47542481Y-97878985D01*
X47661015Y-97997519D01*
X47754147Y-98136900D01*
X47818297Y-98291772D01*
X47851000Y-98456184D01*
X47851000Y-98623816D01*
X47818297Y-98788228D01*
X47754147Y-98943100D01*
X47661015Y-99082481D01*
X47542481Y-99201015D01*
X47403100Y-99294147D01*
X47248228Y-99358297D01*
X47083816Y-99391000D01*
X46916184Y-99391000D01*
X46751772Y-99358297D01*
X46596900Y-99294147D01*
X46457519Y-99201015D01*
X46338985Y-99082481D01*
X46245853Y-98943100D01*
X46181703Y-98788228D01*
X46149000Y-98623816D01*
X46149000Y-98456184D01*
X46181703Y-98291772D01*
X46245853Y-98136900D01*
X46338985Y-97997519D01*
X46457519Y-97878985D01*
X46596900Y-97785853D01*
X46751772Y-97721703D01*
X46916184Y-97689000D01*
X47083816Y-97689000D01*
X47248228Y-97721703D01*
G37*
G36*
X41248228Y-97181703D02*
G01*
X41403100Y-97245853D01*
X41542481Y-97338985D01*
X41661015Y-97457519D01*
X41754147Y-97596900D01*
X41818297Y-97751772D01*
X41851000Y-97916184D01*
X41851000Y-98083816D01*
X41818297Y-98248228D01*
X41754147Y-98403100D01*
X41661015Y-98542481D01*
X41542481Y-98661015D01*
X41403100Y-98754147D01*
X41248228Y-98818297D01*
X41083816Y-98851000D01*
X40916184Y-98851000D01*
X40751772Y-98818297D01*
X40596900Y-98754147D01*
X40457519Y-98661015D01*
X40338985Y-98542481D01*
X40245853Y-98403100D01*
X40181703Y-98248228D01*
X40149000Y-98083816D01*
X40149000Y-97916184D01*
X40181703Y-97751772D01*
X40245853Y-97596900D01*
X40338985Y-97457519D01*
X40457519Y-97338985D01*
X40596900Y-97245853D01*
X40751772Y-97181703D01*
X40916184Y-97149000D01*
X41083816Y-97149000D01*
X41248228Y-97181703D01*
G37*
G36*
X28548228Y-97181703D02*
G01*
X28703100Y-97245853D01*
X28842481Y-97338985D01*
X28961015Y-97457519D01*
X29054147Y-97596900D01*
X29118297Y-97751772D01*
X29151000Y-97916184D01*
X29151000Y-98083816D01*
X29118297Y-98248228D01*
X29054147Y-98403100D01*
X28961015Y-98542481D01*
X28842481Y-98661015D01*
X28703100Y-98754147D01*
X28548228Y-98818297D01*
X28383816Y-98851000D01*
X28216184Y-98851000D01*
X28051772Y-98818297D01*
X27896900Y-98754147D01*
X27757519Y-98661015D01*
X27638985Y-98542481D01*
X27545853Y-98403100D01*
X27481703Y-98248228D01*
X27449000Y-98083816D01*
X27449000Y-97916184D01*
X27481703Y-97751772D01*
X27545853Y-97596900D01*
X27638985Y-97457519D01*
X27757519Y-97338985D01*
X27896900Y-97245853D01*
X28051772Y-97181703D01*
X28216184Y-97149000D01*
X28383816Y-97149000D01*
X28548228Y-97181703D01*
G37*
G36*
X72248228Y-96181703D02*
G01*
X72403100Y-96245853D01*
X72542481Y-96338985D01*
X72661015Y-96457519D01*
X72754147Y-96596900D01*
X72818297Y-96751772D01*
X72851000Y-96916184D01*
X72851000Y-97083816D01*
X72818297Y-97248228D01*
X72754147Y-97403100D01*
X72661015Y-97542481D01*
X72542481Y-97661015D01*
X72403100Y-97754147D01*
X72248228Y-97818297D01*
X72083816Y-97851000D01*
X71916184Y-97851000D01*
X71751772Y-97818297D01*
X71596900Y-97754147D01*
X71457519Y-97661015D01*
X71338985Y-97542481D01*
X71245853Y-97403100D01*
X71181703Y-97248228D01*
X71149000Y-97083816D01*
X71149000Y-96916184D01*
X71181703Y-96751772D01*
X71245853Y-96596900D01*
X71338985Y-96457519D01*
X71457519Y-96338985D01*
X71596900Y-96245853D01*
X71751772Y-96181703D01*
X71916184Y-96149000D01*
X72083816Y-96149000D01*
X72248228Y-96181703D01*
G37*
G36*
X84948228Y-96181703D02*
G01*
X85103100Y-96245853D01*
X85242481Y-96338985D01*
X85361015Y-96457519D01*
X85454147Y-96596900D01*
X85518297Y-96751772D01*
X85551000Y-96916184D01*
X85551000Y-97083816D01*
X85518297Y-97248228D01*
X85454147Y-97403100D01*
X85361015Y-97542481D01*
X85242481Y-97661015D01*
X85103100Y-97754147D01*
X84948228Y-97818297D01*
X84783816Y-97851000D01*
X84616184Y-97851000D01*
X84451772Y-97818297D01*
X84296900Y-97754147D01*
X84157519Y-97661015D01*
X84038985Y-97542481D01*
X83945853Y-97403100D01*
X83881703Y-97248228D01*
X83849000Y-97083816D01*
X83849000Y-96916184D01*
X83881703Y-96751772D01*
X83945853Y-96596900D01*
X84038985Y-96457519D01*
X84157519Y-96338985D01*
X84296900Y-96245853D01*
X84451772Y-96181703D01*
X84616184Y-96149000D01*
X84783816Y-96149000D01*
X84948228Y-96181703D01*
G37*
G36*
X47851000Y-96851000D02*
G01*
X46149000Y-96851000D01*
X46149000Y-95149000D01*
X47851000Y-95149000D01*
X47851000Y-96851000D01*
G37*
G36*
X57408228Y-95181703D02*
G01*
X57563100Y-95245853D01*
X57702481Y-95338985D01*
X57821015Y-95457519D01*
X57914147Y-95596900D01*
X57978297Y-95751772D01*
X58011000Y-95916184D01*
X58011000Y-96083816D01*
X57978297Y-96248228D01*
X57914147Y-96403100D01*
X57821015Y-96542481D01*
X57702481Y-96661015D01*
X57563100Y-96754147D01*
X57408228Y-96818297D01*
X57243816Y-96851000D01*
X57076184Y-96851000D01*
X56911772Y-96818297D01*
X56756900Y-96754147D01*
X56617519Y-96661015D01*
X56498985Y-96542481D01*
X56405853Y-96403100D01*
X56341703Y-96248228D01*
X56309000Y-96083816D01*
X56309000Y-95916184D01*
X56341703Y-95751772D01*
X56405853Y-95596900D01*
X56498985Y-95457519D01*
X56617519Y-95338985D01*
X56756900Y-95245853D01*
X56911772Y-95181703D01*
X57076184Y-95149000D01*
X57243816Y-95149000D01*
X57408228Y-95181703D01*
G37*
G36*
X21551000Y-94551000D02*
G01*
X18449000Y-94551000D01*
X18449000Y-91449000D01*
X21551000Y-91449000D01*
X21551000Y-94551000D01*
G37*
G36*
X57408228Y-88721703D02*
G01*
X57563100Y-88785853D01*
X57702481Y-88878985D01*
X57821015Y-88997519D01*
X57914147Y-89136900D01*
X57978297Y-89291772D01*
X58011000Y-89456184D01*
X58011000Y-89623816D01*
X57978297Y-89788228D01*
X57914147Y-89943100D01*
X57821015Y-90082481D01*
X57702481Y-90201015D01*
X57563100Y-90294147D01*
X57408228Y-90358297D01*
X57243816Y-90391000D01*
X57076184Y-90391000D01*
X56911772Y-90358297D01*
X56756900Y-90294147D01*
X56617519Y-90201015D01*
X56498985Y-90082481D01*
X56405853Y-89943100D01*
X56341703Y-89788228D01*
X56309000Y-89623816D01*
X56309000Y-89456184D01*
X56341703Y-89291772D01*
X56405853Y-89136900D01*
X56498985Y-88997519D01*
X56617519Y-88878985D01*
X56756900Y-88785853D01*
X56911772Y-88721703D01*
X57076184Y-88689000D01*
X57243816Y-88689000D01*
X57408228Y-88721703D01*
G37*
G36*
X47248228Y-88721703D02*
G01*
X47403100Y-88785853D01*
X47542481Y-88878985D01*
X47661015Y-88997519D01*
X47754147Y-89136900D01*
X47818297Y-89291772D01*
X47851000Y-89456184D01*
X47851000Y-89623816D01*
X47818297Y-89788228D01*
X47754147Y-89943100D01*
X47661015Y-90082481D01*
X47542481Y-90201015D01*
X47403100Y-90294147D01*
X47248228Y-90358297D01*
X47083816Y-90391000D01*
X46916184Y-90391000D01*
X46751772Y-90358297D01*
X46596900Y-90294147D01*
X46457519Y-90201015D01*
X46338985Y-90082481D01*
X46245853Y-89943100D01*
X46181703Y-89788228D01*
X46149000Y-89623816D01*
X46149000Y-89456184D01*
X46181703Y-89291772D01*
X46245853Y-89136900D01*
X46338985Y-88997519D01*
X46457519Y-88878985D01*
X46596900Y-88785853D01*
X46751772Y-88721703D01*
X46916184Y-88689000D01*
X47083816Y-88689000D01*
X47248228Y-88721703D01*
G37*
G36*
X72248228Y-88181703D02*
G01*
X72403100Y-88245853D01*
X72542481Y-88338985D01*
X72661015Y-88457519D01*
X72754147Y-88596900D01*
X72818297Y-88751772D01*
X72851000Y-88916184D01*
X72851000Y-89083816D01*
X72818297Y-89248228D01*
X72754147Y-89403100D01*
X72661015Y-89542481D01*
X72542481Y-89661015D01*
X72403100Y-89754147D01*
X72248228Y-89818297D01*
X72083816Y-89851000D01*
X71916184Y-89851000D01*
X71751772Y-89818297D01*
X71596900Y-89754147D01*
X71457519Y-89661015D01*
X71338985Y-89542481D01*
X71245853Y-89403100D01*
X71181703Y-89248228D01*
X71149000Y-89083816D01*
X71149000Y-88916184D01*
X71181703Y-88751772D01*
X71245853Y-88596900D01*
X71338985Y-88457519D01*
X71457519Y-88338985D01*
X71596900Y-88245853D01*
X71751772Y-88181703D01*
X71916184Y-88149000D01*
X72083816Y-88149000D01*
X72248228Y-88181703D01*
G37*
G36*
X41248228Y-88181703D02*
G01*
X41403100Y-88245853D01*
X41542481Y-88338985D01*
X41661015Y-88457519D01*
X41754147Y-88596900D01*
X41818297Y-88751772D01*
X41851000Y-88916184D01*
X41851000Y-89083816D01*
X41818297Y-89248228D01*
X41754147Y-89403100D01*
X41661015Y-89542481D01*
X41542481Y-89661015D01*
X41403100Y-89754147D01*
X41248228Y-89818297D01*
X41083816Y-89851000D01*
X40916184Y-89851000D01*
X40751772Y-89818297D01*
X40596900Y-89754147D01*
X40457519Y-89661015D01*
X40338985Y-89542481D01*
X40245853Y-89403100D01*
X40181703Y-89248228D01*
X40149000Y-89083816D01*
X40149000Y-88916184D01*
X40181703Y-88751772D01*
X40245853Y-88596900D01*
X40338985Y-88457519D01*
X40457519Y-88338985D01*
X40596900Y-88245853D01*
X40751772Y-88181703D01*
X40916184Y-88149000D01*
X41083816Y-88149000D01*
X41248228Y-88181703D01*
G37*
G36*
X84948228Y-88181703D02*
G01*
X85103100Y-88245853D01*
X85242481Y-88338985D01*
X85361015Y-88457519D01*
X85454147Y-88596900D01*
X85518297Y-88751772D01*
X85551000Y-88916184D01*
X85551000Y-89083816D01*
X85518297Y-89248228D01*
X85454147Y-89403100D01*
X85361015Y-89542481D01*
X85242481Y-89661015D01*
X85103100Y-89754147D01*
X84948228Y-89818297D01*
X84783816Y-89851000D01*
X84616184Y-89851000D01*
X84451772Y-89818297D01*
X84296900Y-89754147D01*
X84157519Y-89661015D01*
X84038985Y-89542481D01*
X83945853Y-89403100D01*
X83881703Y-89248228D01*
X83849000Y-89083816D01*
X83849000Y-88916184D01*
X83881703Y-88751772D01*
X83945853Y-88596900D01*
X84038985Y-88457519D01*
X84157519Y-88338985D01*
X84296900Y-88245853D01*
X84451772Y-88181703D01*
X84616184Y-88149000D01*
X84783816Y-88149000D01*
X84948228Y-88181703D01*
G37*
G36*
X28548228Y-88181703D02*
G01*
X28703100Y-88245853D01*
X28842481Y-88338985D01*
X28961015Y-88457519D01*
X29054147Y-88596900D01*
X29118297Y-88751772D01*
X29151000Y-88916184D01*
X29151000Y-89083816D01*
X29118297Y-89248228D01*
X29054147Y-89403100D01*
X28961015Y-89542481D01*
X28842481Y-89661015D01*
X28703100Y-89754147D01*
X28548228Y-89818297D01*
X28383816Y-89851000D01*
X28216184Y-89851000D01*
X28051772Y-89818297D01*
X27896900Y-89754147D01*
X27757519Y-89661015D01*
X27638985Y-89542481D01*
X27545853Y-89403100D01*
X27481703Y-89248228D01*
X27449000Y-89083816D01*
X27449000Y-88916184D01*
X27481703Y-88751772D01*
X27545853Y-88596900D01*
X27638985Y-88457519D01*
X27757519Y-88338985D01*
X27896900Y-88245853D01*
X28051772Y-88181703D01*
X28216184Y-88149000D01*
X28383816Y-88149000D01*
X28548228Y-88181703D01*
G37*
G36*
X21551000Y-88551000D02*
G01*
X18449000Y-88551000D01*
X18449000Y-85449000D01*
X21551000Y-85449000D01*
X21551000Y-88551000D01*
G37*
G36*
X57408228Y-86181703D02*
G01*
X57563100Y-86245853D01*
X57702481Y-86338985D01*
X57821015Y-86457519D01*
X57914147Y-86596900D01*
X57978297Y-86751772D01*
X58011000Y-86916184D01*
X58011000Y-87083816D01*
X57978297Y-87248228D01*
X57914147Y-87403100D01*
X57821015Y-87542481D01*
X57702481Y-87661015D01*
X57563100Y-87754147D01*
X57408228Y-87818297D01*
X57243816Y-87851000D01*
X57076184Y-87851000D01*
X56911772Y-87818297D01*
X56756900Y-87754147D01*
X56617519Y-87661015D01*
X56498985Y-87542481D01*
X56405853Y-87403100D01*
X56341703Y-87248228D01*
X56309000Y-87083816D01*
X56309000Y-86916184D01*
X56341703Y-86751772D01*
X56405853Y-86596900D01*
X56498985Y-86457519D01*
X56617519Y-86338985D01*
X56756900Y-86245853D01*
X56911772Y-86181703D01*
X57076184Y-86149000D01*
X57243816Y-86149000D01*
X57408228Y-86181703D01*
G37*
G36*
X47851000Y-87851000D02*
G01*
X46149000Y-87851000D01*
X46149000Y-86149000D01*
X47851000Y-86149000D01*
X47851000Y-87851000D01*
G37*
G36*
X20302585Y-80398802D02*
G01*
X20452410Y-80428604D01*
X20734674Y-80545521D01*
X20988705Y-80715259D01*
X21204741Y-80931295D01*
X21374479Y-81185326D01*
X21491396Y-81467590D01*
X21551000Y-81767240D01*
X21551000Y-82072760D01*
X21491396Y-82372410D01*
X21374479Y-82654674D01*
X21204741Y-82908705D01*
X20988705Y-83124741D01*
X20734674Y-83294479D01*
X20452410Y-83411396D01*
X20302585Y-83441198D01*
X20152761Y-83471000D01*
X19847239Y-83471000D01*
X19697415Y-83441198D01*
X19547590Y-83411396D01*
X19265326Y-83294479D01*
X19011295Y-83124741D01*
X18795259Y-82908705D01*
X18625521Y-82654674D01*
X18508604Y-82372410D01*
X18449000Y-82072760D01*
X18449000Y-81767240D01*
X18508604Y-81467590D01*
X18625521Y-81185326D01*
X18795259Y-80931295D01*
X19011295Y-80715259D01*
X19265326Y-80545521D01*
X19547590Y-80428604D01*
X19697415Y-80398802D01*
X19847239Y-80369000D01*
X20152761Y-80369000D01*
X20302585Y-80398802D01*
G37*
G36*
X47248228Y-79721703D02*
G01*
X47403100Y-79785853D01*
X47542481Y-79878985D01*
X47661015Y-79997519D01*
X47754147Y-80136900D01*
X47818297Y-80291772D01*
X47851000Y-80456184D01*
X47851000Y-80623816D01*
X47818297Y-80788228D01*
X47754147Y-80943100D01*
X47661015Y-81082481D01*
X47542481Y-81201015D01*
X47403100Y-81294147D01*
X47248228Y-81358297D01*
X47083816Y-81391000D01*
X46916184Y-81391000D01*
X46751772Y-81358297D01*
X46596900Y-81294147D01*
X46457519Y-81201015D01*
X46338985Y-81082481D01*
X46245853Y-80943100D01*
X46181703Y-80788228D01*
X46149000Y-80623816D01*
X46149000Y-80456184D01*
X46181703Y-80291772D01*
X46245853Y-80136900D01*
X46338985Y-79997519D01*
X46457519Y-79878985D01*
X46596900Y-79785853D01*
X46751772Y-79721703D01*
X46916184Y-79689000D01*
X47083816Y-79689000D01*
X47248228Y-79721703D01*
G37*
G36*
X54868228Y-79721703D02*
G01*
X55023100Y-79785853D01*
X55162481Y-79878985D01*
X55281015Y-79997519D01*
X55374147Y-80136900D01*
X55438297Y-80291772D01*
X55471000Y-80456184D01*
X55471000Y-80623816D01*
X55438297Y-80788228D01*
X55374147Y-80943100D01*
X55281015Y-81082481D01*
X55162481Y-81201015D01*
X55023100Y-81294147D01*
X54868228Y-81358297D01*
X54703816Y-81391000D01*
X54536184Y-81391000D01*
X54371772Y-81358297D01*
X54216900Y-81294147D01*
X54077519Y-81201015D01*
X53958985Y-81082481D01*
X53865853Y-80943100D01*
X53801703Y-80788228D01*
X53769000Y-80623816D01*
X53769000Y-80456184D01*
X53801703Y-80291772D01*
X53865853Y-80136900D01*
X53958985Y-79997519D01*
X54077519Y-79878985D01*
X54216900Y-79785853D01*
X54371772Y-79721703D01*
X54536184Y-79689000D01*
X54703816Y-79689000D01*
X54868228Y-79721703D01*
G37*
G36*
X72248228Y-79181703D02*
G01*
X72403100Y-79245853D01*
X72542481Y-79338985D01*
X72661015Y-79457519D01*
X72754147Y-79596900D01*
X72818297Y-79751772D01*
X72851000Y-79916184D01*
X72851000Y-80083816D01*
X72818297Y-80248228D01*
X72754147Y-80403100D01*
X72661015Y-80542481D01*
X72542481Y-80661015D01*
X72403100Y-80754147D01*
X72248228Y-80818297D01*
X72083816Y-80851000D01*
X71916184Y-80851000D01*
X71751772Y-80818297D01*
X71596900Y-80754147D01*
X71457519Y-80661015D01*
X71338985Y-80542481D01*
X71245853Y-80403100D01*
X71181703Y-80248228D01*
X71149000Y-80083816D01*
X71149000Y-79916184D01*
X71181703Y-79751772D01*
X71245853Y-79596900D01*
X71338985Y-79457519D01*
X71457519Y-79338985D01*
X71596900Y-79245853D01*
X71751772Y-79181703D01*
X71916184Y-79149000D01*
X72083816Y-79149000D01*
X72248228Y-79181703D01*
G37*
G36*
X84948228Y-79181703D02*
G01*
X85103100Y-79245853D01*
X85242481Y-79338985D01*
X85361015Y-79457519D01*
X85454147Y-79596900D01*
X85518297Y-79751772D01*
X85551000Y-79916184D01*
X85551000Y-80083816D01*
X85518297Y-80248228D01*
X85454147Y-80403100D01*
X85361015Y-80542481D01*
X85242481Y-80661015D01*
X85103100Y-80754147D01*
X84948228Y-80818297D01*
X84783816Y-80851000D01*
X84616184Y-80851000D01*
X84451772Y-80818297D01*
X84296900Y-80754147D01*
X84157519Y-80661015D01*
X84038985Y-80542481D01*
X83945853Y-80403100D01*
X83881703Y-80248228D01*
X83849000Y-80083816D01*
X83849000Y-79916184D01*
X83881703Y-79751772D01*
X83945853Y-79596900D01*
X84038985Y-79457519D01*
X84157519Y-79338985D01*
X84296900Y-79245853D01*
X84451772Y-79181703D01*
X84616184Y-79149000D01*
X84783816Y-79149000D01*
X84948228Y-79181703D01*
G37*
G36*
X47851000Y-78851000D02*
G01*
X46149000Y-78851000D01*
X46149000Y-77149000D01*
X47851000Y-77149000D01*
X47851000Y-78851000D01*
G37*
G36*
X28548228Y-77181703D02*
G01*
X28703100Y-77245853D01*
X28842481Y-77338985D01*
X28961015Y-77457519D01*
X29054147Y-77596900D01*
X29118297Y-77751772D01*
X29151000Y-77916184D01*
X29151000Y-78083816D01*
X29118297Y-78248228D01*
X29054147Y-78403100D01*
X28961015Y-78542481D01*
X28842481Y-78661015D01*
X28703100Y-78754147D01*
X28548228Y-78818297D01*
X28383816Y-78851000D01*
X28216184Y-78851000D01*
X28051772Y-78818297D01*
X27896900Y-78754147D01*
X27757519Y-78661015D01*
X27638985Y-78542481D01*
X27545853Y-78403100D01*
X27481703Y-78248228D01*
X27449000Y-78083816D01*
X27449000Y-77916184D01*
X27481703Y-77751772D01*
X27545853Y-77596900D01*
X27638985Y-77457519D01*
X27757519Y-77338985D01*
X27896900Y-77245853D01*
X28051772Y-77181703D01*
X28216184Y-77149000D01*
X28383816Y-77149000D01*
X28548228Y-77181703D01*
G37*
G36*
X41248228Y-77181703D02*
G01*
X41403100Y-77245853D01*
X41542481Y-77338985D01*
X41661015Y-77457519D01*
X41754147Y-77596900D01*
X41818297Y-77751772D01*
X41851000Y-77916184D01*
X41851000Y-78083816D01*
X41818297Y-78248228D01*
X41754147Y-78403100D01*
X41661015Y-78542481D01*
X41542481Y-78661015D01*
X41403100Y-78754147D01*
X41248228Y-78818297D01*
X41083816Y-78851000D01*
X40916184Y-78851000D01*
X40751772Y-78818297D01*
X40596900Y-78754147D01*
X40457519Y-78661015D01*
X40338985Y-78542481D01*
X40245853Y-78403100D01*
X40181703Y-78248228D01*
X40149000Y-78083816D01*
X40149000Y-77916184D01*
X40181703Y-77751772D01*
X40245853Y-77596900D01*
X40338985Y-77457519D01*
X40457519Y-77338985D01*
X40596900Y-77245853D01*
X40751772Y-77181703D01*
X40916184Y-77149000D01*
X41083816Y-77149000D01*
X41248228Y-77181703D01*
G37*
G36*
X54868228Y-77181703D02*
G01*
X55023100Y-77245853D01*
X55162481Y-77338985D01*
X55281015Y-77457519D01*
X55374147Y-77596900D01*
X55438297Y-77751772D01*
X55471000Y-77916184D01*
X55471000Y-78083816D01*
X55438297Y-78248228D01*
X55374147Y-78403100D01*
X55281015Y-78542481D01*
X55162481Y-78661015D01*
X55023100Y-78754147D01*
X54868228Y-78818297D01*
X54703816Y-78851000D01*
X54536184Y-78851000D01*
X54371772Y-78818297D01*
X54216900Y-78754147D01*
X54077519Y-78661015D01*
X53958985Y-78542481D01*
X53865853Y-78403100D01*
X53801703Y-78248228D01*
X53769000Y-78083816D01*
X53769000Y-77916184D01*
X53801703Y-77751772D01*
X53865853Y-77596900D01*
X53958985Y-77457519D01*
X54077519Y-77338985D01*
X54216900Y-77245853D01*
X54371772Y-77181703D01*
X54536184Y-77149000D01*
X54703816Y-77149000D01*
X54868228Y-77181703D01*
G37*
G36*
X20302585Y-75318802D02*
G01*
X20452410Y-75348604D01*
X20734674Y-75465521D01*
X20988705Y-75635259D01*
X21204741Y-75851295D01*
X21374479Y-76105326D01*
X21491396Y-76387590D01*
X21551000Y-76687240D01*
X21551000Y-76992760D01*
X21491396Y-77292410D01*
X21374479Y-77574674D01*
X21204741Y-77828705D01*
X20988705Y-78044741D01*
X20734674Y-78214479D01*
X20452410Y-78331396D01*
X20302585Y-78361198D01*
X20152761Y-78391000D01*
X19847239Y-78391000D01*
X19697415Y-78361198D01*
X19547590Y-78331396D01*
X19265326Y-78214479D01*
X19011295Y-78044741D01*
X18795259Y-77828705D01*
X18625521Y-77574674D01*
X18508604Y-77292410D01*
X18449000Y-76992760D01*
X18449000Y-76687240D01*
X18508604Y-76387590D01*
X18625521Y-76105326D01*
X18795259Y-75851295D01*
X19011295Y-75635259D01*
X19265326Y-75465521D01*
X19547590Y-75348604D01*
X19697415Y-75318802D01*
X19847239Y-75289000D01*
X20152761Y-75289000D01*
X20302585Y-75318802D01*
G37*
G36*
X76248228Y-73181703D02*
G01*
X76403100Y-73245853D01*
X76542481Y-73338985D01*
X76661015Y-73457519D01*
X76754147Y-73596900D01*
X76818297Y-73751772D01*
X76851000Y-73916184D01*
X76851000Y-74083816D01*
X76818297Y-74248228D01*
X76754147Y-74403100D01*
X76661015Y-74542481D01*
X76542481Y-74661015D01*
X76403100Y-74754147D01*
X76248228Y-74818297D01*
X76083816Y-74851000D01*
X75916184Y-74851000D01*
X75751772Y-74818297D01*
X75596900Y-74754147D01*
X75457519Y-74661015D01*
X75338985Y-74542481D01*
X75245853Y-74403100D01*
X75181703Y-74248228D01*
X75149000Y-74083816D01*
X75149000Y-73916184D01*
X75181703Y-73751772D01*
X75245853Y-73596900D01*
X75338985Y-73457519D01*
X75457519Y-73338985D01*
X75596900Y-73245853D01*
X75751772Y-73181703D01*
X75916184Y-73149000D01*
X76083816Y-73149000D01*
X76248228Y-73181703D01*
G37*
G36*
X41851000Y-72851000D02*
G01*
X40149000Y-72851000D01*
X40149000Y-71149000D01*
X41851000Y-71149000D01*
X41851000Y-72851000D01*
G37*
G36*
X85788228Y-71181703D02*
G01*
X85943100Y-71245853D01*
X86082481Y-71338985D01*
X86201015Y-71457519D01*
X86294147Y-71596900D01*
X86358297Y-71751772D01*
X86391000Y-71916184D01*
X86391000Y-72083816D01*
X86358297Y-72248228D01*
X86294147Y-72403100D01*
X86201015Y-72542481D01*
X86082481Y-72661015D01*
X85943100Y-72754147D01*
X85788228Y-72818297D01*
X85623816Y-72851000D01*
X85456184Y-72851000D01*
X85291772Y-72818297D01*
X85136900Y-72754147D01*
X84997519Y-72661015D01*
X84878985Y-72542481D01*
X84785853Y-72403100D01*
X84721703Y-72248228D01*
X84689000Y-72083816D01*
X84689000Y-71916184D01*
X84721703Y-71751772D01*
X84785853Y-71596900D01*
X84878985Y-71457519D01*
X84997519Y-71338985D01*
X85136900Y-71245853D01*
X85291772Y-71181703D01*
X85456184Y-71149000D01*
X85623816Y-71149000D01*
X85788228Y-71181703D01*
G37*
G36*
X43788228Y-71181703D02*
G01*
X43943100Y-71245853D01*
X44082481Y-71338985D01*
X44201015Y-71457519D01*
X44294147Y-71596900D01*
X44358297Y-71751772D01*
X44391000Y-71916184D01*
X44391000Y-72083816D01*
X44358297Y-72248228D01*
X44294147Y-72403100D01*
X44201015Y-72542481D01*
X44082481Y-72661015D01*
X43943100Y-72754147D01*
X43788228Y-72818297D01*
X43623816Y-72851000D01*
X43456184Y-72851000D01*
X43291772Y-72818297D01*
X43136900Y-72754147D01*
X42997519Y-72661015D01*
X42878985Y-72542481D01*
X42785853Y-72403100D01*
X42721703Y-72248228D01*
X42689000Y-72083816D01*
X42689000Y-71916184D01*
X42721703Y-71751772D01*
X42785853Y-71596900D01*
X42878985Y-71457519D01*
X42997519Y-71338985D01*
X43136900Y-71245853D01*
X43291772Y-71181703D01*
X43456184Y-71149000D01*
X43623816Y-71149000D01*
X43788228Y-71181703D01*
G37*
G36*
X68788228Y-71181703D02*
G01*
X68943100Y-71245853D01*
X69082481Y-71338985D01*
X69201015Y-71457519D01*
X69294147Y-71596900D01*
X69358297Y-71751772D01*
X69391000Y-71916184D01*
X69391000Y-72083816D01*
X69358297Y-72248228D01*
X69294147Y-72403100D01*
X69201015Y-72542481D01*
X69082481Y-72661015D01*
X68943100Y-72754147D01*
X68788228Y-72818297D01*
X68623816Y-72851000D01*
X68456184Y-72851000D01*
X68291772Y-72818297D01*
X68136900Y-72754147D01*
X67997519Y-72661015D01*
X67878985Y-72542481D01*
X67785853Y-72403100D01*
X67721703Y-72248228D01*
X67689000Y-72083816D01*
X67689000Y-71916184D01*
X67721703Y-71751772D01*
X67785853Y-71596900D01*
X67878985Y-71457519D01*
X67997519Y-71338985D01*
X68136900Y-71245853D01*
X68291772Y-71181703D01*
X68456184Y-71149000D01*
X68623816Y-71149000D01*
X68788228Y-71181703D01*
G37*
G36*
X66851000Y-72851000D02*
G01*
X65149000Y-72851000D01*
X65149000Y-71149000D01*
X66851000Y-71149000D01*
X66851000Y-72851000D01*
G37*
G36*
X83851000Y-72851000D02*
G01*
X82149000Y-72851000D01*
X82149000Y-71149000D01*
X83851000Y-71149000D01*
X83851000Y-72851000D01*
G37*
G36*
X57248228Y-70881703D02*
G01*
X57403100Y-70945853D01*
X57542481Y-71038985D01*
X57661015Y-71157519D01*
X57754147Y-71296900D01*
X57818297Y-71451772D01*
X57851000Y-71616184D01*
X57851000Y-71783816D01*
X57818297Y-71948228D01*
X57754147Y-72103100D01*
X57661015Y-72242481D01*
X57542481Y-72361015D01*
X57403100Y-72454147D01*
X57248228Y-72518297D01*
X57083816Y-72551000D01*
X56916184Y-72551000D01*
X56751772Y-72518297D01*
X56596900Y-72454147D01*
X56457519Y-72361015D01*
X56338985Y-72242481D01*
X56245853Y-72103100D01*
X56181703Y-71948228D01*
X56149000Y-71783816D01*
X56149000Y-71616184D01*
X56181703Y-71451772D01*
X56245853Y-71296900D01*
X56338985Y-71157519D01*
X56457519Y-71038985D01*
X56596900Y-70945853D01*
X56751772Y-70881703D01*
X56916184Y-70849000D01*
X57083816Y-70849000D01*
X57248228Y-70881703D01*
G37*
G36*
X33248228Y-70181703D02*
G01*
X33403100Y-70245853D01*
X33542481Y-70338985D01*
X33661015Y-70457519D01*
X33754147Y-70596900D01*
X33818297Y-70751772D01*
X33851000Y-70916184D01*
X33851000Y-71083816D01*
X33818297Y-71248228D01*
X33754147Y-71403100D01*
X33661015Y-71542481D01*
X33542481Y-71661015D01*
X33403100Y-71754147D01*
X33248228Y-71818297D01*
X33083816Y-71851000D01*
X32916184Y-71851000D01*
X32751772Y-71818297D01*
X32596900Y-71754147D01*
X32457519Y-71661015D01*
X32338985Y-71542481D01*
X32245853Y-71403100D01*
X32181703Y-71248228D01*
X32149000Y-71083816D01*
X32149000Y-70916184D01*
X32181703Y-70751772D01*
X32245853Y-70596900D01*
X32338985Y-70457519D01*
X32457519Y-70338985D01*
X32596900Y-70245853D01*
X32751772Y-70181703D01*
X32916184Y-70149000D01*
X33083816Y-70149000D01*
X33248228Y-70181703D01*
G37*
G36*
X85788228Y-61021703D02*
G01*
X85943100Y-61085853D01*
X86082481Y-61178985D01*
X86201015Y-61297519D01*
X86294147Y-61436900D01*
X86358297Y-61591772D01*
X86391000Y-61756184D01*
X86391000Y-61923816D01*
X86358297Y-62088228D01*
X86294147Y-62243100D01*
X86201015Y-62382481D01*
X86082481Y-62501015D01*
X85943100Y-62594147D01*
X85788228Y-62658297D01*
X85623816Y-62691000D01*
X85456184Y-62691000D01*
X85291772Y-62658297D01*
X85136900Y-62594147D01*
X84997519Y-62501015D01*
X84878985Y-62382481D01*
X84785853Y-62243100D01*
X84721703Y-62088228D01*
X84689000Y-61923816D01*
X84689000Y-61756184D01*
X84721703Y-61591772D01*
X84785853Y-61436900D01*
X84878985Y-61297519D01*
X84997519Y-61178985D01*
X85136900Y-61085853D01*
X85291772Y-61021703D01*
X85456184Y-60989000D01*
X85623816Y-60989000D01*
X85788228Y-61021703D01*
G37*
G36*
X68788228Y-61021703D02*
G01*
X68943100Y-61085853D01*
X69082481Y-61178985D01*
X69201015Y-61297519D01*
X69294147Y-61436900D01*
X69358297Y-61591772D01*
X69391000Y-61756184D01*
X69391000Y-61923816D01*
X69358297Y-62088228D01*
X69294147Y-62243100D01*
X69201015Y-62382481D01*
X69082481Y-62501015D01*
X68943100Y-62594147D01*
X68788228Y-62658297D01*
X68623816Y-62691000D01*
X68456184Y-62691000D01*
X68291772Y-62658297D01*
X68136900Y-62594147D01*
X67997519Y-62501015D01*
X67878985Y-62382481D01*
X67785853Y-62243100D01*
X67721703Y-62088228D01*
X67689000Y-61923816D01*
X67689000Y-61756184D01*
X67721703Y-61591772D01*
X67785853Y-61436900D01*
X67878985Y-61297519D01*
X67997519Y-61178985D01*
X68136900Y-61085853D01*
X68291772Y-61021703D01*
X68456184Y-60989000D01*
X68623816Y-60989000D01*
X68788228Y-61021703D01*
G37*
G36*
X66248228Y-61021703D02*
G01*
X66403100Y-61085853D01*
X66542481Y-61178985D01*
X66661015Y-61297519D01*
X66754147Y-61436900D01*
X66818297Y-61591772D01*
X66851000Y-61756184D01*
X66851000Y-61923816D01*
X66818297Y-62088228D01*
X66754147Y-62243100D01*
X66661015Y-62382481D01*
X66542481Y-62501015D01*
X66403100Y-62594147D01*
X66248228Y-62658297D01*
X66083816Y-62691000D01*
X65916184Y-62691000D01*
X65751772Y-62658297D01*
X65596900Y-62594147D01*
X65457519Y-62501015D01*
X65338985Y-62382481D01*
X65245853Y-62243100D01*
X65181703Y-62088228D01*
X65149000Y-61923816D01*
X65149000Y-61756184D01*
X65181703Y-61591772D01*
X65245853Y-61436900D01*
X65338985Y-61297519D01*
X65457519Y-61178985D01*
X65596900Y-61085853D01*
X65751772Y-61021703D01*
X65916184Y-60989000D01*
X66083816Y-60989000D01*
X66248228Y-61021703D01*
G37*
G36*
X41248228Y-61021703D02*
G01*
X41403100Y-61085853D01*
X41542481Y-61178985D01*
X41661015Y-61297519D01*
X41754147Y-61436900D01*
X41818297Y-61591772D01*
X41851000Y-61756184D01*
X41851000Y-61923816D01*
X41818297Y-62088228D01*
X41754147Y-62243100D01*
X41661015Y-62382481D01*
X41542481Y-62501015D01*
X41403100Y-62594147D01*
X41248228Y-62658297D01*
X41083816Y-62691000D01*
X40916184Y-62691000D01*
X40751772Y-62658297D01*
X40596900Y-62594147D01*
X40457519Y-62501015D01*
X40338985Y-62382481D01*
X40245853Y-62243100D01*
X40181703Y-62088228D01*
X40149000Y-61923816D01*
X40149000Y-61756184D01*
X40181703Y-61591772D01*
X40245853Y-61436900D01*
X40338985Y-61297519D01*
X40457519Y-61178985D01*
X40596900Y-61085853D01*
X40751772Y-61021703D01*
X40916184Y-60989000D01*
X41083816Y-60989000D01*
X41248228Y-61021703D01*
G37*
G36*
X43788228Y-61021703D02*
G01*
X43943100Y-61085853D01*
X44082481Y-61178985D01*
X44201015Y-61297519D01*
X44294147Y-61436900D01*
X44358297Y-61591772D01*
X44391000Y-61756184D01*
X44391000Y-61923816D01*
X44358297Y-62088228D01*
X44294147Y-62243100D01*
X44201015Y-62382481D01*
X44082481Y-62501015D01*
X43943100Y-62594147D01*
X43788228Y-62658297D01*
X43623816Y-62691000D01*
X43456184Y-62691000D01*
X43291772Y-62658297D01*
X43136900Y-62594147D01*
X42997519Y-62501015D01*
X42878985Y-62382481D01*
X42785853Y-62243100D01*
X42721703Y-62088228D01*
X42689000Y-61923816D01*
X42689000Y-61756184D01*
X42721703Y-61591772D01*
X42785853Y-61436900D01*
X42878985Y-61297519D01*
X42997519Y-61178985D01*
X43136900Y-61085853D01*
X43291772Y-61021703D01*
X43456184Y-60989000D01*
X43623816Y-60989000D01*
X43788228Y-61021703D01*
G37*
G36*
X83248228Y-61021703D02*
G01*
X83403100Y-61085853D01*
X83542481Y-61178985D01*
X83661015Y-61297519D01*
X83754147Y-61436900D01*
X83818297Y-61591772D01*
X83851000Y-61756184D01*
X83851000Y-61923816D01*
X83818297Y-62088228D01*
X83754147Y-62243100D01*
X83661015Y-62382481D01*
X83542481Y-62501015D01*
X83403100Y-62594147D01*
X83248228Y-62658297D01*
X83083816Y-62691000D01*
X82916184Y-62691000D01*
X82751772Y-62658297D01*
X82596900Y-62594147D01*
X82457519Y-62501015D01*
X82338985Y-62382481D01*
X82245853Y-62243100D01*
X82181703Y-62088228D01*
X82149000Y-61923816D01*
X82149000Y-61756184D01*
X82181703Y-61591772D01*
X82245853Y-61436900D01*
X82338985Y-61297519D01*
X82457519Y-61178985D01*
X82596900Y-61085853D01*
X82751772Y-61021703D01*
X82916184Y-60989000D01*
X83083816Y-60989000D01*
X83248228Y-61021703D01*
G37*
G36*
X76248228Y-60481703D02*
G01*
X76403100Y-60545853D01*
X76542481Y-60638985D01*
X76661015Y-60757519D01*
X76754147Y-60896900D01*
X76818297Y-61051772D01*
X76851000Y-61216184D01*
X76851000Y-61383816D01*
X76818297Y-61548228D01*
X76754147Y-61703100D01*
X76661015Y-61842481D01*
X76542481Y-61961015D01*
X76403100Y-62054147D01*
X76248228Y-62118297D01*
X76083816Y-62151000D01*
X75916184Y-62151000D01*
X75751772Y-62118297D01*
X75596900Y-62054147D01*
X75457519Y-61961015D01*
X75338985Y-61842481D01*
X75245853Y-61703100D01*
X75181703Y-61548228D01*
X75149000Y-61383816D01*
X75149000Y-61216184D01*
X75181703Y-61051772D01*
X75245853Y-60896900D01*
X75338985Y-60757519D01*
X75457519Y-60638985D01*
X75596900Y-60545853D01*
X75751772Y-60481703D01*
X75916184Y-60449000D01*
X76083816Y-60449000D01*
X76248228Y-60481703D01*
G37*
G36*
X57248228Y-58181703D02*
G01*
X57403100Y-58245853D01*
X57542481Y-58338985D01*
X57661015Y-58457519D01*
X57754147Y-58596900D01*
X57818297Y-58751772D01*
X57851000Y-58916184D01*
X57851000Y-59083816D01*
X57818297Y-59248228D01*
X57754147Y-59403100D01*
X57661015Y-59542481D01*
X57542481Y-59661015D01*
X57403100Y-59754147D01*
X57248228Y-59818297D01*
X57083816Y-59851000D01*
X56916184Y-59851000D01*
X56751772Y-59818297D01*
X56596900Y-59754147D01*
X56457519Y-59661015D01*
X56338985Y-59542481D01*
X56245853Y-59403100D01*
X56181703Y-59248228D01*
X56149000Y-59083816D01*
X56149000Y-58916184D01*
X56181703Y-58751772D01*
X56245853Y-58596900D01*
X56338985Y-58457519D01*
X56457519Y-58338985D01*
X56596900Y-58245853D01*
X56751772Y-58181703D01*
X56916184Y-58149000D01*
X57083816Y-58149000D01*
X57248228Y-58181703D01*
G37*
G36*
X33248228Y-57481703D02*
G01*
X33403100Y-57545853D01*
X33542481Y-57638985D01*
X33661015Y-57757519D01*
X33754147Y-57896900D01*
X33818297Y-58051772D01*
X33851000Y-58216184D01*
X33851000Y-58383816D01*
X33818297Y-58548228D01*
X33754147Y-58703100D01*
X33661015Y-58842481D01*
X33542481Y-58961015D01*
X33403100Y-59054147D01*
X33248228Y-59118297D01*
X33083816Y-59151000D01*
X32916184Y-59151000D01*
X32751772Y-59118297D01*
X32596900Y-59054147D01*
X32457519Y-58961015D01*
X32338985Y-58842481D01*
X32245853Y-58703100D01*
X32181703Y-58548228D01*
X32149000Y-58383816D01*
X32149000Y-58216184D01*
X32181703Y-58051772D01*
X32245853Y-57896900D01*
X32338985Y-57757519D01*
X32457519Y-57638985D01*
X32596900Y-57545853D01*
X32751772Y-57481703D01*
X32916184Y-57449000D01*
X33083816Y-57449000D01*
X33248228Y-57481703D01*
G37*
G36*
X39951000Y-58951000D02*
G01*
X38049000Y-58951000D01*
X38049000Y-57049000D01*
X39951000Y-57049000D01*
X39951000Y-58951000D01*
G37*
G36*
X46897395Y-57085546D02*
G01*
X47070466Y-57157234D01*
X47070467Y-57157235D01*
X47226227Y-57261310D01*
X47358690Y-57393773D01*
X47411081Y-57472182D01*
X47462766Y-57549534D01*
X47534454Y-57722605D01*
X47571000Y-57906333D01*
X47571000Y-58093667D01*
X47534454Y-58277395D01*
X47462766Y-58450466D01*
X47411081Y-58527818D01*
X47358690Y-58606227D01*
X47226227Y-58738690D01*
X47206648Y-58751772D01*
X47070466Y-58842766D01*
X46897395Y-58914454D01*
X46713667Y-58951000D01*
X46526333Y-58951000D01*
X46342605Y-58914454D01*
X46169534Y-58842766D01*
X46033352Y-58751772D01*
X46013773Y-58738690D01*
X45881310Y-58606227D01*
X45828919Y-58527818D01*
X45777234Y-58450466D01*
X45705546Y-58277395D01*
X45669000Y-58093667D01*
X45669000Y-57906333D01*
X45705546Y-57722605D01*
X45777234Y-57549534D01*
X45828919Y-57472182D01*
X45881310Y-57393773D01*
X46013773Y-57261310D01*
X46169533Y-57157235D01*
X46169534Y-57157234D01*
X46342605Y-57085546D01*
X46526333Y-57049000D01*
X46713667Y-57049000D01*
X46897395Y-57085546D01*
G37*
G36*
X20951000Y-57951000D02*
G01*
X19049000Y-57951000D01*
X19049000Y-56049000D01*
X20951000Y-56049000D01*
X20951000Y-57951000D01*
G37*
G36*
X27897395Y-56085546D02*
G01*
X28070466Y-56157234D01*
X28070467Y-56157235D01*
X28226227Y-56261310D01*
X28358690Y-56393773D01*
X28358691Y-56393775D01*
X28462766Y-56549534D01*
X28534454Y-56722605D01*
X28571000Y-56906333D01*
X28571000Y-57093667D01*
X28534454Y-57277395D01*
X28462766Y-57450466D01*
X28462765Y-57450467D01*
X28358690Y-57606227D01*
X28226227Y-57738690D01*
X28147818Y-57791081D01*
X28070466Y-57842766D01*
X27897395Y-57914454D01*
X27713667Y-57951000D01*
X27526333Y-57951000D01*
X27342605Y-57914454D01*
X27169534Y-57842766D01*
X27092182Y-57791081D01*
X27013773Y-57738690D01*
X26881310Y-57606227D01*
X26777235Y-57450467D01*
X26777234Y-57450466D01*
X26705546Y-57277395D01*
X26669000Y-57093667D01*
X26669000Y-56906333D01*
X26705546Y-56722605D01*
X26777234Y-56549534D01*
X26881309Y-56393775D01*
X26881310Y-56393773D01*
X27013773Y-56261310D01*
X27169533Y-56157235D01*
X27169534Y-56157234D01*
X27342605Y-56085546D01*
X27526333Y-56049000D01*
X27713667Y-56049000D01*
X27897395Y-56085546D01*
G37*
G36*
X80897395Y-56085546D02*
G01*
X81070466Y-56157234D01*
X81070467Y-56157235D01*
X81226227Y-56261310D01*
X81358690Y-56393773D01*
X81358691Y-56393775D01*
X81462766Y-56549534D01*
X81534454Y-56722605D01*
X81571000Y-56906333D01*
X81571000Y-57093667D01*
X81534454Y-57277395D01*
X81462766Y-57450466D01*
X81462765Y-57450467D01*
X81358690Y-57606227D01*
X81226227Y-57738690D01*
X81147818Y-57791081D01*
X81070466Y-57842766D01*
X80897395Y-57914454D01*
X80713667Y-57951000D01*
X80526333Y-57951000D01*
X80342605Y-57914454D01*
X80169534Y-57842766D01*
X80092182Y-57791081D01*
X80013773Y-57738690D01*
X79881310Y-57606227D01*
X79777235Y-57450467D01*
X79777234Y-57450466D01*
X79705546Y-57277395D01*
X79669000Y-57093667D01*
X79669000Y-56906333D01*
X79705546Y-56722605D01*
X79777234Y-56549534D01*
X79881309Y-56393775D01*
X79881310Y-56393773D01*
X80013773Y-56261310D01*
X80169533Y-56157235D01*
X80169534Y-56157234D01*
X80342605Y-56085546D01*
X80526333Y-56049000D01*
X80713667Y-56049000D01*
X80897395Y-56085546D01*
G37*
G36*
X73951000Y-57951000D02*
G01*
X72049000Y-57951000D01*
X72049000Y-56049000D01*
X73951000Y-56049000D01*
X73951000Y-57951000D01*
G37*
G36*
X78816393Y-51466203D02*
G01*
X78880811Y-51485744D01*
X78940181Y-51517478D01*
X78992217Y-51560183D01*
X79034922Y-51612219D01*
X79066656Y-51671589D01*
X79086197Y-51736007D01*
X79093400Y-51809140D01*
X79093400Y-52734860D01*
X79086197Y-52807993D01*
X79066656Y-52872411D01*
X79034922Y-52931781D01*
X78992217Y-52983817D01*
X78940181Y-53026522D01*
X78880811Y-53058256D01*
X78816393Y-53077797D01*
X78743260Y-53085000D01*
X77817540Y-53085000D01*
X77744407Y-53077797D01*
X77679989Y-53058256D01*
X77620619Y-53026522D01*
X77568583Y-52983817D01*
X77525878Y-52931781D01*
X77494144Y-52872411D01*
X77474603Y-52807993D01*
X77467400Y-52734860D01*
X77467400Y-51809140D01*
X77474603Y-51736007D01*
X77494144Y-51671589D01*
X77525878Y-51612219D01*
X77568583Y-51560183D01*
X77620619Y-51517478D01*
X77679989Y-51485744D01*
X77744407Y-51466203D01*
X77817540Y-51459000D01*
X78743260Y-51459000D01*
X78816393Y-51466203D01*
G37*
G36*
X46816393Y-51466203D02*
G01*
X46880811Y-51485744D01*
X46940181Y-51517478D01*
X46992217Y-51560183D01*
X47034922Y-51612219D01*
X47066656Y-51671589D01*
X47086197Y-51736007D01*
X47093400Y-51809140D01*
X47093400Y-52734860D01*
X47086197Y-52807993D01*
X47066656Y-52872411D01*
X47034922Y-52931781D01*
X46992217Y-52983817D01*
X46940181Y-53026522D01*
X46880811Y-53058256D01*
X46816393Y-53077797D01*
X46743260Y-53085000D01*
X45817540Y-53085000D01*
X45744407Y-53077797D01*
X45679989Y-53058256D01*
X45620619Y-53026522D01*
X45568583Y-52983817D01*
X45525878Y-52931781D01*
X45494144Y-52872411D01*
X45474603Y-52807993D01*
X45467400Y-52734860D01*
X45467400Y-51809140D01*
X45474603Y-51736007D01*
X45494144Y-51671589D01*
X45525878Y-51612219D01*
X45568583Y-51560183D01*
X45620619Y-51517478D01*
X45679989Y-51485744D01*
X45744407Y-51466203D01*
X45817540Y-51459000D01*
X46743260Y-51459000D01*
X46816393Y-51466203D01*
G37*
G36*
X27816393Y-51466203D02*
G01*
X27880811Y-51485744D01*
X27940181Y-51517478D01*
X27992217Y-51560183D01*
X28034922Y-51612219D01*
X28066656Y-51671589D01*
X28086197Y-51736007D01*
X28093400Y-51809140D01*
X28093400Y-52734860D01*
X28086197Y-52807993D01*
X28066656Y-52872411D01*
X28034922Y-52931781D01*
X27992217Y-52983817D01*
X27940181Y-53026522D01*
X27880811Y-53058256D01*
X27816393Y-53077797D01*
X27743260Y-53085000D01*
X26817540Y-53085000D01*
X26744407Y-53077797D01*
X26679989Y-53058256D01*
X26620619Y-53026522D01*
X26568583Y-52983817D01*
X26525878Y-52931781D01*
X26494144Y-52872411D01*
X26474603Y-52807993D01*
X26467400Y-52734860D01*
X26467400Y-51809140D01*
X26474603Y-51736007D01*
X26494144Y-51671589D01*
X26525878Y-51612219D01*
X26568583Y-51560183D01*
X26620619Y-51517478D01*
X26679989Y-51485744D01*
X26744407Y-51466203D01*
X26817540Y-51459000D01*
X27743260Y-51459000D01*
X27816393Y-51466203D01*
G37*
G36*
X84150393Y-49485003D02*
G01*
X84214811Y-49504544D01*
X84274181Y-49536278D01*
X84326217Y-49578983D01*
X84368922Y-49631019D01*
X84400656Y-49690389D01*
X84420197Y-49754807D01*
X84427400Y-49827940D01*
X84427400Y-50753660D01*
X84420197Y-50826793D01*
X84400656Y-50891211D01*
X84368922Y-50950581D01*
X84326217Y-51002617D01*
X84274181Y-51045322D01*
X84214811Y-51077056D01*
X84150393Y-51096597D01*
X84077260Y-51103800D01*
X83151540Y-51103800D01*
X83078407Y-51096597D01*
X83013989Y-51077056D01*
X82954619Y-51045322D01*
X82902583Y-51002617D01*
X82859878Y-50950581D01*
X82828144Y-50891211D01*
X82808603Y-50826793D01*
X82801400Y-50753660D01*
X82801400Y-49827940D01*
X82808603Y-49754807D01*
X82828144Y-49690389D01*
X82859878Y-49631019D01*
X82902583Y-49578983D01*
X82954619Y-49536278D01*
X83013989Y-49504544D01*
X83078407Y-49485003D01*
X83151540Y-49477800D01*
X84077260Y-49477800D01*
X84150393Y-49485003D01*
G37*
G36*
X72390193Y-49485003D02*
G01*
X72454611Y-49504544D01*
X72513981Y-49536278D01*
X72566017Y-49578983D01*
X72608722Y-49631019D01*
X72640456Y-49690389D01*
X72659997Y-49754807D01*
X72667200Y-49827940D01*
X72667200Y-50753660D01*
X72659997Y-50826793D01*
X72640456Y-50891211D01*
X72608722Y-50950581D01*
X72566017Y-51002617D01*
X72513981Y-51045322D01*
X72454611Y-51077056D01*
X72390193Y-51096597D01*
X72317060Y-51103800D01*
X71391340Y-51103800D01*
X71318207Y-51096597D01*
X71253789Y-51077056D01*
X71194419Y-51045322D01*
X71142383Y-51002617D01*
X71099678Y-50950581D01*
X71067944Y-50891211D01*
X71048403Y-50826793D01*
X71041200Y-50753660D01*
X71041200Y-49827940D01*
X71048403Y-49754807D01*
X71067944Y-49690389D01*
X71099678Y-49631019D01*
X71142383Y-49578983D01*
X71194419Y-49536278D01*
X71253789Y-49504544D01*
X71318207Y-49485003D01*
X71391340Y-49477800D01*
X72317060Y-49477800D01*
X72390193Y-49485003D01*
G37*
G36*
X21390193Y-49485003D02*
G01*
X21454611Y-49504544D01*
X21513981Y-49536278D01*
X21566017Y-49578983D01*
X21608722Y-49631019D01*
X21640456Y-49690389D01*
X21659997Y-49754807D01*
X21667200Y-49827940D01*
X21667200Y-50753660D01*
X21659997Y-50826793D01*
X21640456Y-50891211D01*
X21608722Y-50950581D01*
X21566017Y-51002617D01*
X21513981Y-51045322D01*
X21454611Y-51077056D01*
X21390193Y-51096597D01*
X21317060Y-51103800D01*
X20391340Y-51103800D01*
X20318207Y-51096597D01*
X20253789Y-51077056D01*
X20194419Y-51045322D01*
X20142383Y-51002617D01*
X20099678Y-50950581D01*
X20067944Y-50891211D01*
X20048403Y-50826793D01*
X20041200Y-50753660D01*
X20041200Y-49827940D01*
X20048403Y-49754807D01*
X20067944Y-49690389D01*
X20099678Y-49631019D01*
X20142383Y-49578983D01*
X20194419Y-49536278D01*
X20253789Y-49504544D01*
X20318207Y-49485003D01*
X20391340Y-49477800D01*
X21317060Y-49477800D01*
X21390193Y-49485003D01*
G37*
G36*
X40390193Y-49485003D02*
G01*
X40454611Y-49504544D01*
X40513981Y-49536278D01*
X40566017Y-49578983D01*
X40608722Y-49631019D01*
X40640456Y-49690389D01*
X40659997Y-49754807D01*
X40667200Y-49827940D01*
X40667200Y-50753660D01*
X40659997Y-50826793D01*
X40640456Y-50891211D01*
X40608722Y-50950581D01*
X40566017Y-51002617D01*
X40513981Y-51045322D01*
X40454611Y-51077056D01*
X40390193Y-51096597D01*
X40317060Y-51103800D01*
X39391340Y-51103800D01*
X39318207Y-51096597D01*
X39253789Y-51077056D01*
X39194419Y-51045322D01*
X39142383Y-51002617D01*
X39099678Y-50950581D01*
X39067944Y-50891211D01*
X39048403Y-50826793D01*
X39041200Y-50753660D01*
X39041200Y-49827940D01*
X39048403Y-49754807D01*
X39067944Y-49690389D01*
X39099678Y-49631019D01*
X39142383Y-49578983D01*
X39194419Y-49536278D01*
X39253789Y-49504544D01*
X39318207Y-49485003D01*
X39391340Y-49477800D01*
X40317060Y-49477800D01*
X40390193Y-49485003D01*
G37*
G36*
X33150393Y-49485003D02*
G01*
X33214811Y-49504544D01*
X33274181Y-49536278D01*
X33326217Y-49578983D01*
X33368922Y-49631019D01*
X33400656Y-49690389D01*
X33420197Y-49754807D01*
X33427400Y-49827940D01*
X33427400Y-50753660D01*
X33420197Y-50826793D01*
X33400656Y-50891211D01*
X33368922Y-50950581D01*
X33326217Y-51002617D01*
X33274181Y-51045322D01*
X33214811Y-51077056D01*
X33150393Y-51096597D01*
X33077260Y-51103800D01*
X32151540Y-51103800D01*
X32078407Y-51096597D01*
X32013989Y-51077056D01*
X31954619Y-51045322D01*
X31902583Y-51002617D01*
X31859878Y-50950581D01*
X31828144Y-50891211D01*
X31808603Y-50826793D01*
X31801400Y-50753660D01*
X31801400Y-49827940D01*
X31808603Y-49754807D01*
X31828144Y-49690389D01*
X31859878Y-49631019D01*
X31902583Y-49578983D01*
X31954619Y-49536278D01*
X32013989Y-49504544D01*
X32078407Y-49485003D01*
X32151540Y-49477800D01*
X33077260Y-49477800D01*
X33150393Y-49485003D01*
G37*
G36*
X52150393Y-49485003D02*
G01*
X52214811Y-49504544D01*
X52274181Y-49536278D01*
X52326217Y-49578983D01*
X52368922Y-49631019D01*
X52400656Y-49690389D01*
X52420197Y-49754807D01*
X52427400Y-49827940D01*
X52427400Y-50753660D01*
X52420197Y-50826793D01*
X52400656Y-50891211D01*
X52368922Y-50950581D01*
X52326217Y-51002617D01*
X52274181Y-51045322D01*
X52214811Y-51077056D01*
X52150393Y-51096597D01*
X52077260Y-51103800D01*
X51151540Y-51103800D01*
X51078407Y-51096597D01*
X51013989Y-51077056D01*
X50954619Y-51045322D01*
X50902583Y-51002617D01*
X50859878Y-50950581D01*
X50828144Y-50891211D01*
X50808603Y-50826793D01*
X50801400Y-50753660D01*
X50801400Y-49827940D01*
X50808603Y-49754807D01*
X50828144Y-49690389D01*
X50859878Y-49631019D01*
X50902583Y-49578983D01*
X50954619Y-49536278D01*
X51013989Y-49504544D01*
X51078407Y-49485003D01*
X51151540Y-49477800D01*
X52077260Y-49477800D01*
X52150393Y-49485003D01*
G37*
G36*
X72364793Y-37762903D02*
G01*
X72429211Y-37782444D01*
X72488581Y-37814178D01*
X72540617Y-37856883D01*
X72583322Y-37908919D01*
X72615056Y-37968289D01*
X72634597Y-38032707D01*
X72641800Y-38105840D01*
X72641800Y-39031560D01*
X72634597Y-39104693D01*
X72615056Y-39169111D01*
X72583322Y-39228481D01*
X72540617Y-39280517D01*
X72488581Y-39323222D01*
X72429211Y-39354956D01*
X72364793Y-39374497D01*
X72291660Y-39381700D01*
X71365940Y-39381700D01*
X71292807Y-39374497D01*
X71228389Y-39354956D01*
X71169019Y-39323222D01*
X71116983Y-39280517D01*
X71074278Y-39228481D01*
X71042544Y-39169111D01*
X71023003Y-39104693D01*
X71015800Y-39031560D01*
X71015800Y-38105840D01*
X71023003Y-38032707D01*
X71042544Y-37968289D01*
X71074278Y-37908919D01*
X71116983Y-37856883D01*
X71169019Y-37814178D01*
X71228389Y-37782444D01*
X71292807Y-37762903D01*
X71365940Y-37755700D01*
X72291660Y-37755700D01*
X72364793Y-37762903D01*
G37*
G36*
X84137693Y-37762903D02*
G01*
X84202111Y-37782444D01*
X84261481Y-37814178D01*
X84313517Y-37856883D01*
X84356222Y-37908919D01*
X84387956Y-37968289D01*
X84407497Y-38032707D01*
X84414700Y-38105840D01*
X84414700Y-39031560D01*
X84407497Y-39104693D01*
X84387956Y-39169111D01*
X84356222Y-39228481D01*
X84313517Y-39280517D01*
X84261481Y-39323222D01*
X84202111Y-39354956D01*
X84137693Y-39374497D01*
X84064560Y-39381700D01*
X83138840Y-39381700D01*
X83065707Y-39374497D01*
X83001289Y-39354956D01*
X82941919Y-39323222D01*
X82889883Y-39280517D01*
X82847178Y-39228481D01*
X82815444Y-39169111D01*
X82795903Y-39104693D01*
X82788700Y-39031560D01*
X82788700Y-38105840D01*
X82795903Y-38032707D01*
X82815444Y-37968289D01*
X82847178Y-37908919D01*
X82889883Y-37856883D01*
X82941919Y-37814178D01*
X83001289Y-37782444D01*
X83065707Y-37762903D01*
X83138840Y-37755700D01*
X84064560Y-37755700D01*
X84137693Y-37762903D01*
G37*
G36*
X52137693Y-37762903D02*
G01*
X52202111Y-37782444D01*
X52261481Y-37814178D01*
X52313517Y-37856883D01*
X52356222Y-37908919D01*
X52387956Y-37968289D01*
X52407497Y-38032707D01*
X52414700Y-38105840D01*
X52414700Y-39031560D01*
X52407497Y-39104693D01*
X52387956Y-39169111D01*
X52356222Y-39228481D01*
X52313517Y-39280517D01*
X52261481Y-39323222D01*
X52202111Y-39354956D01*
X52137693Y-39374497D01*
X52064560Y-39381700D01*
X51138840Y-39381700D01*
X51065707Y-39374497D01*
X51001289Y-39354956D01*
X50941919Y-39323222D01*
X50889883Y-39280517D01*
X50847178Y-39228481D01*
X50815444Y-39169111D01*
X50795903Y-39104693D01*
X50788700Y-39031560D01*
X50788700Y-38105840D01*
X50795903Y-38032707D01*
X50815444Y-37968289D01*
X50847178Y-37908919D01*
X50889883Y-37856883D01*
X50941919Y-37814178D01*
X51001289Y-37782444D01*
X51065707Y-37762903D01*
X51138840Y-37755700D01*
X52064560Y-37755700D01*
X52137693Y-37762903D01*
G37*
G36*
X40364793Y-37762903D02*
G01*
X40429211Y-37782444D01*
X40488581Y-37814178D01*
X40540617Y-37856883D01*
X40583322Y-37908919D01*
X40615056Y-37968289D01*
X40634597Y-38032707D01*
X40641800Y-38105840D01*
X40641800Y-39031560D01*
X40634597Y-39104693D01*
X40615056Y-39169111D01*
X40583322Y-39228481D01*
X40540617Y-39280517D01*
X40488581Y-39323222D01*
X40429211Y-39354956D01*
X40364793Y-39374497D01*
X40291660Y-39381700D01*
X39365940Y-39381700D01*
X39292807Y-39374497D01*
X39228389Y-39354956D01*
X39169019Y-39323222D01*
X39116983Y-39280517D01*
X39074278Y-39228481D01*
X39042544Y-39169111D01*
X39023003Y-39104693D01*
X39015800Y-39031560D01*
X39015800Y-38105840D01*
X39023003Y-38032707D01*
X39042544Y-37968289D01*
X39074278Y-37908919D01*
X39116983Y-37856883D01*
X39169019Y-37814178D01*
X39228389Y-37782444D01*
X39292807Y-37762903D01*
X39365940Y-37755700D01*
X40291660Y-37755700D01*
X40364793Y-37762903D01*
G37*
G36*
X33137693Y-37762903D02*
G01*
X33202111Y-37782444D01*
X33261481Y-37814178D01*
X33313517Y-37856883D01*
X33356222Y-37908919D01*
X33387956Y-37968289D01*
X33407497Y-38032707D01*
X33414700Y-38105840D01*
X33414700Y-39031560D01*
X33407497Y-39104693D01*
X33387956Y-39169111D01*
X33356222Y-39228481D01*
X33313517Y-39280517D01*
X33261481Y-39323222D01*
X33202111Y-39354956D01*
X33137693Y-39374497D01*
X33064560Y-39381700D01*
X32138840Y-39381700D01*
X32065707Y-39374497D01*
X32001289Y-39354956D01*
X31941919Y-39323222D01*
X31889883Y-39280517D01*
X31847178Y-39228481D01*
X31815444Y-39169111D01*
X31795903Y-39104693D01*
X31788700Y-39031560D01*
X31788700Y-38105840D01*
X31795903Y-38032707D01*
X31815444Y-37968289D01*
X31847178Y-37908919D01*
X31889883Y-37856883D01*
X31941919Y-37814178D01*
X32001289Y-37782444D01*
X32065707Y-37762903D01*
X32138840Y-37755700D01*
X33064560Y-37755700D01*
X33137693Y-37762903D01*
G37*
G36*
X21364793Y-37762903D02*
G01*
X21429211Y-37782444D01*
X21488581Y-37814178D01*
X21540617Y-37856883D01*
X21583322Y-37908919D01*
X21615056Y-37968289D01*
X21634597Y-38032707D01*
X21641800Y-38105840D01*
X21641800Y-39031560D01*
X21634597Y-39104693D01*
X21615056Y-39169111D01*
X21583322Y-39228481D01*
X21540617Y-39280517D01*
X21488581Y-39323222D01*
X21429211Y-39354956D01*
X21364793Y-39374497D01*
X21291660Y-39381700D01*
X20365940Y-39381700D01*
X20292807Y-39374497D01*
X20228389Y-39354956D01*
X20169019Y-39323222D01*
X20116983Y-39280517D01*
X20074278Y-39228481D01*
X20042544Y-39169111D01*
X20023003Y-39104693D01*
X20015800Y-39031560D01*
X20015800Y-38105840D01*
X20023003Y-38032707D01*
X20042544Y-37968289D01*
X20074278Y-37908919D01*
X20116983Y-37856883D01*
X20169019Y-37814178D01*
X20228389Y-37782444D01*
X20292807Y-37762903D01*
X20365940Y-37755700D01*
X21291660Y-37755700D01*
X21364793Y-37762903D01*
G37*
G36*
X77222585Y-22478802D02*
G01*
X77372410Y-22508604D01*
X77654674Y-22625521D01*
X77908705Y-22795259D01*
X78124741Y-23011295D01*
X78294479Y-23265326D01*
X78411396Y-23547590D01*
X78471000Y-23847240D01*
X78471000Y-24152760D01*
X78411396Y-24452410D01*
X78294479Y-24734674D01*
X78124741Y-24988705D01*
X77908705Y-25204741D01*
X77654674Y-25374479D01*
X77372410Y-25491396D01*
X77222585Y-25521198D01*
X77072761Y-25551000D01*
X76767239Y-25551000D01*
X76617415Y-25521198D01*
X76467590Y-25491396D01*
X76185326Y-25374479D01*
X75931295Y-25204741D01*
X75715259Y-24988705D01*
X75545521Y-24734674D01*
X75428604Y-24452410D01*
X75369000Y-24152760D01*
X75369000Y-23847240D01*
X75428604Y-23547590D01*
X75545521Y-23265326D01*
X75715259Y-23011295D01*
X75931295Y-22795259D01*
X76185326Y-22625521D01*
X76467590Y-22508604D01*
X76617415Y-22478802D01*
X76767239Y-22449000D01*
X77072761Y-22449000D01*
X77222585Y-22478802D01*
G37*
G36*
X83551000Y-25551000D02*
G01*
X80449000Y-25551000D01*
X80449000Y-22449000D01*
X83551000Y-22449000D01*
X83551000Y-25551000D01*
G37*
G36*
X72142585Y-22478802D02*
G01*
X72292410Y-22508604D01*
X72574674Y-22625521D01*
X72828705Y-22795259D01*
X73044741Y-23011295D01*
X73214479Y-23265326D01*
X73331396Y-23547590D01*
X73391000Y-23847240D01*
X73391000Y-24152760D01*
X73331396Y-24452410D01*
X73214479Y-24734674D01*
X73044741Y-24988705D01*
X72828705Y-25204741D01*
X72574674Y-25374479D01*
X72292410Y-25491396D01*
X72142585Y-25521198D01*
X71992761Y-25551000D01*
X71687239Y-25551000D01*
X71537415Y-25521198D01*
X71387590Y-25491396D01*
X71105326Y-25374479D01*
X70851295Y-25204741D01*
X70635259Y-24988705D01*
X70465521Y-24734674D01*
X70348604Y-24452410D01*
X70289000Y-24152760D01*
X70289000Y-23847240D01*
X70348604Y-23547590D01*
X70465521Y-23265326D01*
X70635259Y-23011295D01*
X70851295Y-22795259D01*
X71105326Y-22625521D01*
X71387590Y-22508604D01*
X71537415Y-22478802D01*
X71687239Y-22449000D01*
X71992761Y-22449000D01*
X72142585Y-22478802D01*
G37*
G36*
X49702585Y-21478802D02*
G01*
X49852410Y-21508604D01*
X50134674Y-21625521D01*
X50388705Y-21795259D01*
X50604741Y-22011295D01*
X50774479Y-22265326D01*
X50891396Y-22547590D01*
X50951000Y-22847240D01*
X50951000Y-23152760D01*
X50891396Y-23452410D01*
X50774479Y-23734674D01*
X50604741Y-23988705D01*
X50388705Y-24204741D01*
X50134674Y-24374479D01*
X49852410Y-24491396D01*
X49702585Y-24521198D01*
X49552761Y-24551000D01*
X49247239Y-24551000D01*
X49097415Y-24521198D01*
X48947590Y-24491396D01*
X48665326Y-24374479D01*
X48411295Y-24204741D01*
X48195259Y-23988705D01*
X48025521Y-23734674D01*
X47908604Y-23452410D01*
X47849000Y-23152760D01*
X47849000Y-22847240D01*
X47908604Y-22547590D01*
X48025521Y-22265326D01*
X48195259Y-22011295D01*
X48411295Y-21795259D01*
X48665326Y-21625521D01*
X48947590Y-21508604D01*
X49097415Y-21478802D01*
X49247239Y-21449000D01*
X49552761Y-21449000D01*
X49702585Y-21478802D01*
G37*
G36*
X44622585Y-21478802D02*
G01*
X44772410Y-21508604D01*
X45054674Y-21625521D01*
X45308705Y-21795259D01*
X45524741Y-22011295D01*
X45694479Y-22265326D01*
X45811396Y-22547590D01*
X45871000Y-22847240D01*
X45871000Y-23152760D01*
X45811396Y-23452410D01*
X45694479Y-23734674D01*
X45524741Y-23988705D01*
X45308705Y-24204741D01*
X45054674Y-24374479D01*
X44772410Y-24491396D01*
X44622585Y-24521198D01*
X44472761Y-24551000D01*
X44167239Y-24551000D01*
X44017415Y-24521198D01*
X43867590Y-24491396D01*
X43585326Y-24374479D01*
X43331295Y-24204741D01*
X43115259Y-23988705D01*
X42945521Y-23734674D01*
X42828604Y-23452410D01*
X42769000Y-23152760D01*
X42769000Y-22847240D01*
X42828604Y-22547590D01*
X42945521Y-22265326D01*
X43115259Y-22011295D01*
X43331295Y-21795259D01*
X43585326Y-21625521D01*
X43867590Y-21508604D01*
X44017415Y-21478802D01*
X44167239Y-21449000D01*
X44472761Y-21449000D01*
X44622585Y-21478802D01*
G37*
G36*
X39542585Y-21478802D02*
G01*
X39692410Y-21508604D01*
X39974674Y-21625521D01*
X40228705Y-21795259D01*
X40444741Y-22011295D01*
X40614479Y-22265326D01*
X40731396Y-22547590D01*
X40791000Y-22847240D01*
X40791000Y-23152760D01*
X40731396Y-23452410D01*
X40614479Y-23734674D01*
X40444741Y-23988705D01*
X40228705Y-24204741D01*
X39974674Y-24374479D01*
X39692410Y-24491396D01*
X39542585Y-24521198D01*
X39392761Y-24551000D01*
X39087239Y-24551000D01*
X38937415Y-24521198D01*
X38787590Y-24491396D01*
X38505326Y-24374479D01*
X38251295Y-24204741D01*
X38035259Y-23988705D01*
X37865521Y-23734674D01*
X37748604Y-23452410D01*
X37689000Y-23152760D01*
X37689000Y-22847240D01*
X37748604Y-22547590D01*
X37865521Y-22265326D01*
X38035259Y-22011295D01*
X38251295Y-21795259D01*
X38505326Y-21625521D01*
X38787590Y-21508604D01*
X38937415Y-21478802D01*
X39087239Y-21449000D01*
X39392761Y-21449000D01*
X39542585Y-21478802D01*
G37*
G36*
X25551000Y-24551000D02*
G01*
X22449000Y-24551000D01*
X22449000Y-21449000D01*
X25551000Y-21449000D01*
X25551000Y-24551000D01*
G37*
G36*
X34462585Y-21478802D02*
G01*
X34612410Y-21508604D01*
X34894674Y-21625521D01*
X35148705Y-21795259D01*
X35364741Y-22011295D01*
X35534479Y-22265326D01*
X35651396Y-22547590D01*
X35711000Y-22847240D01*
X35711000Y-23152760D01*
X35651396Y-23452410D01*
X35534479Y-23734674D01*
X35364741Y-23988705D01*
X35148705Y-24204741D01*
X34894674Y-24374479D01*
X34612410Y-24491396D01*
X34462585Y-24521198D01*
X34312761Y-24551000D01*
X34007239Y-24551000D01*
X33857415Y-24521198D01*
X33707590Y-24491396D01*
X33425326Y-24374479D01*
X33171295Y-24204741D01*
X32955259Y-23988705D01*
X32785521Y-23734674D01*
X32668604Y-23452410D01*
X32609000Y-23152760D01*
X32609000Y-22847240D01*
X32668604Y-22547590D01*
X32785521Y-22265326D01*
X32955259Y-22011295D01*
X33171295Y-21795259D01*
X33425326Y-21625521D01*
X33707590Y-21508604D01*
X33857415Y-21478802D01*
X34007239Y-21449000D01*
X34312761Y-21449000D01*
X34462585Y-21478802D01*
G37*
G36*
X29382585Y-21478802D02*
G01*
X29532410Y-21508604D01*
X29814674Y-21625521D01*
X30068705Y-21795259D01*
X30284741Y-22011295D01*
X30454479Y-22265326D01*
X30571396Y-22547590D01*
X30631000Y-22847240D01*
X30631000Y-23152760D01*
X30571396Y-23452410D01*
X30454479Y-23734674D01*
X30284741Y-23988705D01*
X30068705Y-24204741D01*
X29814674Y-24374479D01*
X29532410Y-24491396D01*
X29382585Y-24521198D01*
X29232761Y-24551000D01*
X28927239Y-24551000D01*
X28777415Y-24521198D01*
X28627590Y-24491396D01*
X28345326Y-24374479D01*
X28091295Y-24204741D01*
X27875259Y-23988705D01*
X27705521Y-23734674D01*
X27588604Y-23452410D01*
X27529000Y-23152760D01*
X27529000Y-22847240D01*
X27588604Y-22547590D01*
X27705521Y-22265326D01*
X27875259Y-22011295D01*
X28091295Y-21795259D01*
X28345326Y-21625521D01*
X28627590Y-21508604D01*
X28777415Y-21478802D01*
X28927239Y-21449000D01*
X29232761Y-21449000D01*
X29382585Y-21478802D01*
G37*
M02*
