%TF.GenerationSoftware,KiCad,Pcbnew,(5.1.6)-1*%
%TF.CreationDate,2020-11-28T00:37:20-05:00*%
%TF.ProjectId,arduino_graphite,61726475-696e-46f5-9f67-726170686974,rev?*%
%TF.SameCoordinates,Original*%
%TF.FileFunction,Copper,L2,Bot*%
%TF.FilePolarity,Positive*%
%FSLAX46Y46*%
G04 Gerber Fmt 4.6, Leading zero omitted, Abs format (unit mm)*
G04 Created by KiCad (PCBNEW (5.1.6)-1) date 2020-11-28 00:37:20*
%MOMM*%
%LPD*%
G01*
G04 APERTURE LIST*
%TA.AperFunction,ComponentPad*%
%ADD10O,3.960000X1.980000*%
%TD*%
%TA.AperFunction,ComponentPad*%
%ADD11R,3.960000X1.980000*%
%TD*%
%TA.AperFunction,ComponentPad*%
%ADD12C,2.800000*%
%TD*%
%TA.AperFunction,ComponentPad*%
%ADD13C,1.524000*%
%TD*%
%TA.AperFunction,ComponentPad*%
%ADD14O,1.600000X1.600000*%
%TD*%
%TA.AperFunction,ComponentPad*%
%ADD15R,1.600000X1.600000*%
%TD*%
%TA.AperFunction,ComponentPad*%
%ADD16C,1.800000*%
%TD*%
%TA.AperFunction,ComponentPad*%
%ADD17R,1.800000X1.800000*%
%TD*%
%TA.AperFunction,ComponentPad*%
%ADD18C,1.200000*%
%TD*%
%TA.AperFunction,ComponentPad*%
%ADD19R,1.200000X1.200000*%
%TD*%
%TA.AperFunction,ComponentPad*%
%ADD20O,1.500000X1.500000*%
%TD*%
%TA.AperFunction,ComponentPad*%
%ADD21R,1.500000X1.500000*%
%TD*%
%TA.AperFunction,ComponentPad*%
%ADD22C,1.600000*%
%TD*%
%TA.AperFunction,ComponentPad*%
%ADD23C,1.440000*%
%TD*%
%TA.AperFunction,ComponentPad*%
%ADD24O,2.000000X1.905000*%
%TD*%
%TA.AperFunction,ComponentPad*%
%ADD25R,2.000000X1.905000*%
%TD*%
%TA.AperFunction,ViaPad*%
%ADD26C,0.800000*%
%TD*%
%TA.AperFunction,Conductor*%
%ADD27C,0.400000*%
%TD*%
%TA.AperFunction,Conductor*%
%ADD28C,1.500000*%
%TD*%
%TA.AperFunction,Conductor*%
%ADD29C,0.500000*%
%TD*%
%TA.AperFunction,Conductor*%
%ADD30C,0.800000*%
%TD*%
%TA.AperFunction,Conductor*%
%ADD31C,0.250000*%
%TD*%
G04 APERTURE END LIST*
D10*
%TO.P,J4,2*%
%TO.N,+24vdc*%
X43434000Y-36833800D03*
D11*
%TO.P,J4,1*%
%TO.N,GND*%
X43434000Y-41833800D03*
%TD*%
D10*
%TO.P,J5,3*%
%TO.N,Net-(J5-Pad3)*%
X124028200Y-48074600D03*
%TO.P,J5,2*%
%TO.N,Net-(J5-Pad2)*%
X124028200Y-43074600D03*
D11*
%TO.P,J5,1*%
%TO.N,Net-(J5-Pad1)*%
X124028200Y-38074600D03*
%TD*%
D10*
%TO.P,J1,3*%
%TO.N,Net-(D1-Pad2)*%
X44119800Y-49436000D03*
%TO.P,J1,2*%
%TO.N,+24vdc*%
X44119800Y-54436000D03*
D11*
%TO.P,J1,1*%
%TO.N,GND*%
X44119800Y-59436000D03*
%TD*%
D10*
%TO.P,J2,3*%
%TO.N,Net-(D3-Pad2)*%
X43713400Y-66758800D03*
%TO.P,J2,2*%
%TO.N,+24vdc*%
X43713400Y-71758800D03*
D11*
%TO.P,J2,1*%
%TO.N,GND*%
X43713400Y-76758800D03*
%TD*%
D10*
%TO.P,J3,3*%
%TO.N,Net-(D2-Pad2)*%
X43967400Y-84538800D03*
%TO.P,J3,2*%
%TO.N,+24vdc*%
X43967400Y-89538800D03*
D11*
%TO.P,J3,1*%
%TO.N,GND*%
X43967400Y-94538800D03*
%TD*%
D10*
%TO.P,J6,3*%
%TO.N,Net-(J6-Pad3)*%
X124155200Y-66692800D03*
%TO.P,J6,2*%
%TO.N,Net-(J6-Pad2)*%
X124155200Y-61692800D03*
D11*
%TO.P,J6,1*%
%TO.N,Net-(J6-Pad1)*%
X124155200Y-56692800D03*
%TD*%
D10*
%TO.P,J7,3*%
%TO.N,Net-(J7-Pad3)*%
X124282200Y-84726800D03*
%TO.P,J7,2*%
%TO.N,Net-(J7-Pad2)*%
X124282200Y-79726800D03*
D11*
%TO.P,J7,1*%
%TO.N,Net-(J7-Pad1)*%
X124282200Y-74726800D03*
%TD*%
D12*
%TO.P,U5,*%
%TO.N,*%
X54446400Y-122439200D03*
X78446400Y-122439200D03*
X78446400Y-98439200D03*
X54446400Y-98439200D03*
D13*
%TO.P,U5,4*%
%TO.N,A4*%
X70256400Y-98339200D03*
%TO.P,U5,3*%
%TO.N,A5*%
X67716400Y-98339200D03*
%TO.P,U5,2*%
%TO.N,+5vdc*%
X65176400Y-98339200D03*
%TO.P,U5,1*%
%TO.N,GND*%
X62636400Y-98339200D03*
%TD*%
D14*
%TO.P,A1,16*%
%TO.N,Net-(A1-Pad16)*%
X90703400Y-74625200D03*
%TO.P,A1,15*%
%TO.N,out_chamber*%
X75463400Y-74625200D03*
%TO.P,A1,30*%
%TO.N,+5vdc*%
X90703400Y-39065200D03*
%TO.P,A1,14*%
%TO.N,out_vibrator*%
X75463400Y-72085200D03*
%TO.P,A1,29*%
%TO.N,GND*%
X90703400Y-41605200D03*
%TO.P,A1,13*%
%TO.N,out_hopper*%
X75463400Y-69545200D03*
%TO.P,A1,28*%
%TO.N,Net-(A1-Pad28)*%
X90703400Y-44145200D03*
%TO.P,A1,12*%
%TO.N,Net-(A1-Pad12)*%
X75463400Y-67005200D03*
%TO.P,A1,27*%
%TO.N,Net-(A1-Pad27)*%
X90703400Y-46685200D03*
%TO.P,A1,11*%
%TO.N,Net-(A1-Pad11)*%
X75463400Y-64465200D03*
%TO.P,A1,26*%
%TO.N,A7*%
X90703400Y-49225200D03*
%TO.P,A1,10*%
%TO.N,Net-(A1-Pad10)*%
X75463400Y-61925200D03*
%TO.P,A1,25*%
%TO.N,Net-(A1-Pad25)*%
X90703400Y-51765200D03*
%TO.P,A1,9*%
%TO.N,safety_doors*%
X75463400Y-59385200D03*
%TO.P,A1,24*%
%TO.N,A5*%
X90703400Y-54305200D03*
%TO.P,A1,8*%
%TO.N,level_chamber*%
X75463400Y-56845200D03*
%TO.P,A1,23*%
%TO.N,A4*%
X90703400Y-56845200D03*
%TO.P,A1,7*%
%TO.N,gate_hopper*%
X75463400Y-54305200D03*
%TO.P,A1,22*%
%TO.N,Net-(A1-Pad22)*%
X90703400Y-59385200D03*
%TO.P,A1,6*%
%TO.N,Net-(A1-Pad6)*%
X75463400Y-51765200D03*
%TO.P,A1,21*%
%TO.N,Net-(A1-Pad21)*%
X90703400Y-61925200D03*
%TO.P,A1,5*%
%TO.N,Net-(A1-Pad5)*%
X75463400Y-49225200D03*
%TO.P,A1,20*%
%TO.N,A1*%
X90703400Y-64465200D03*
%TO.P,A1,4*%
%TO.N,GND*%
X75463400Y-46685200D03*
%TO.P,A1,19*%
%TO.N,Ao*%
X90703400Y-67005200D03*
%TO.P,A1,3*%
%TO.N,Net-(A1-Pad3)*%
X75463400Y-44145200D03*
%TO.P,A1,18*%
%TO.N,Net-(A1-Pad18)*%
X90703400Y-69545200D03*
%TO.P,A1,2*%
%TO.N,Net-(A1-Pad2)*%
X75463400Y-41605200D03*
%TO.P,A1,17*%
%TO.N,Net-(A1-Pad17)*%
X90703400Y-72085200D03*
D15*
%TO.P,A1,1*%
%TO.N,Net-(A1-Pad1)*%
X75463400Y-39065200D03*
%TD*%
D16*
%TO.P,D1,2*%
%TO.N,Net-(D1-Pad2)*%
X56870600Y-56692800D03*
D17*
%TO.P,D1,1*%
%TO.N,Net-(D1-Pad1)*%
X54330600Y-56692800D03*
%TD*%
D16*
%TO.P,D2,2*%
%TO.N,Net-(D2-Pad2)*%
X56997600Y-85217000D03*
D17*
%TO.P,D2,1*%
%TO.N,Net-(D2-Pad1)*%
X54457600Y-85217000D03*
%TD*%
D16*
%TO.P,D3,2*%
%TO.N,Net-(D3-Pad2)*%
X57683400Y-70307200D03*
D17*
%TO.P,D3,1*%
%TO.N,Net-(D3-Pad1)*%
X55143400Y-70307200D03*
%TD*%
D16*
%TO.P,D4,2*%
%TO.N,out_hopper*%
X96240600Y-94132400D03*
D17*
%TO.P,D4,1*%
%TO.N,Net-(D4-Pad1)*%
X98780600Y-94132400D03*
%TD*%
D16*
%TO.P,D5,2*%
%TO.N,out_chamber*%
X123926600Y-92964000D03*
D17*
%TO.P,D5,1*%
%TO.N,Net-(D5-Pad1)*%
X126466600Y-92964000D03*
%TD*%
D16*
%TO.P,D6,2*%
%TO.N,out_vibrator*%
X110185200Y-93040200D03*
D17*
%TO.P,D6,1*%
%TO.N,Net-(D6-Pad1)*%
X112725200Y-93040200D03*
%TD*%
%TO.P,K1,2*%
%TO.N,Net-(D7-Pad2)*%
%TA.AperFunction,ComponentPad*%
G36*
G01*
X101079400Y-49660200D02*
X101079400Y-48860200D01*
G75*
G02*
X101479400Y-48460200I400000J0D01*
G01*
X102679400Y-48460200D01*
G75*
G02*
X103079400Y-48860200I0J-400000D01*
G01*
X103079400Y-49660200D01*
G75*
G02*
X102679400Y-50060200I-400000J0D01*
G01*
X101479400Y-50060200D01*
G75*
G02*
X101079400Y-49660200I0J400000D01*
G01*
G37*
%TD.AperFunction*%
%TO.P,K1,5*%
%TO.N,Net-(J5-Pad3)*%
%TA.AperFunction,ComponentPad*%
G36*
G01*
X113279400Y-49660200D02*
X113279400Y-48860200D01*
G75*
G02*
X113679400Y-48460200I400000J0D01*
G01*
X114879400Y-48460200D01*
G75*
G02*
X115279400Y-48860200I0J-400000D01*
G01*
X115279400Y-49660200D01*
G75*
G02*
X114879400Y-50060200I-400000J0D01*
G01*
X113679400Y-50060200D01*
G75*
G02*
X113279400Y-49660200I0J400000D01*
G01*
G37*
%TD.AperFunction*%
%TO.P,K1,3*%
%TO.N,Net-(J5-Pad1)*%
%TA.AperFunction,ComponentPad*%
G36*
G01*
X113129400Y-37520200D02*
X113129400Y-36720200D01*
G75*
G02*
X113529400Y-36320200I400000J0D01*
G01*
X114729400Y-36320200D01*
G75*
G02*
X115129400Y-36720200I0J-400000D01*
G01*
X115129400Y-37520200D01*
G75*
G02*
X114729400Y-37920200I-400000J0D01*
G01*
X113529400Y-37920200D01*
G75*
G02*
X113129400Y-37520200I0J400000D01*
G01*
G37*
%TD.AperFunction*%
%TO.P,K1,1*%
%TO.N,+24vdc*%
%TA.AperFunction,ComponentPad*%
G36*
G01*
X100929400Y-37520200D02*
X100929400Y-36720200D01*
G75*
G02*
X101329400Y-36320200I400000J0D01*
G01*
X102529400Y-36320200D01*
G75*
G02*
X102929400Y-36720200I0J-400000D01*
G01*
X102929400Y-37520200D01*
G75*
G02*
X102529400Y-37920200I-400000J0D01*
G01*
X101329400Y-37920200D01*
G75*
G02*
X100929400Y-37520200I0J400000D01*
G01*
G37*
%TD.AperFunction*%
%TO.P,K1,4*%
%TO.N,Net-(J5-Pad2)*%
%TA.AperFunction,ComponentPad*%
G36*
G01*
X99079400Y-43660200D02*
X99079400Y-42860200D01*
G75*
G02*
X99479400Y-42460200I400000J0D01*
G01*
X100679400Y-42460200D01*
G75*
G02*
X101079400Y-42860200I0J-400000D01*
G01*
X101079400Y-43660200D01*
G75*
G02*
X100679400Y-44060200I-400000J0D01*
G01*
X99479400Y-44060200D01*
G75*
G02*
X99079400Y-43660200I0J400000D01*
G01*
G37*
%TD.AperFunction*%
%TD*%
%TO.P,K2,2*%
%TO.N,Net-(D8-Pad2)*%
%TA.AperFunction,ComponentPad*%
G36*
G01*
X100825400Y-68684800D02*
X100825400Y-67884800D01*
G75*
G02*
X101225400Y-67484800I400000J0D01*
G01*
X102425400Y-67484800D01*
G75*
G02*
X102825400Y-67884800I0J-400000D01*
G01*
X102825400Y-68684800D01*
G75*
G02*
X102425400Y-69084800I-400000J0D01*
G01*
X101225400Y-69084800D01*
G75*
G02*
X100825400Y-68684800I0J400000D01*
G01*
G37*
%TD.AperFunction*%
%TO.P,K2,5*%
%TO.N,Net-(J6-Pad3)*%
%TA.AperFunction,ComponentPad*%
G36*
G01*
X113025400Y-68684800D02*
X113025400Y-67884800D01*
G75*
G02*
X113425400Y-67484800I400000J0D01*
G01*
X114625400Y-67484800D01*
G75*
G02*
X115025400Y-67884800I0J-400000D01*
G01*
X115025400Y-68684800D01*
G75*
G02*
X114625400Y-69084800I-400000J0D01*
G01*
X113425400Y-69084800D01*
G75*
G02*
X113025400Y-68684800I0J400000D01*
G01*
G37*
%TD.AperFunction*%
%TO.P,K2,3*%
%TO.N,Net-(J6-Pad1)*%
%TA.AperFunction,ComponentPad*%
G36*
G01*
X112875400Y-56544800D02*
X112875400Y-55744800D01*
G75*
G02*
X113275400Y-55344800I400000J0D01*
G01*
X114475400Y-55344800D01*
G75*
G02*
X114875400Y-55744800I0J-400000D01*
G01*
X114875400Y-56544800D01*
G75*
G02*
X114475400Y-56944800I-400000J0D01*
G01*
X113275400Y-56944800D01*
G75*
G02*
X112875400Y-56544800I0J400000D01*
G01*
G37*
%TD.AperFunction*%
%TO.P,K2,1*%
%TO.N,+24vdc*%
%TA.AperFunction,ComponentPad*%
G36*
G01*
X100675400Y-56544800D02*
X100675400Y-55744800D01*
G75*
G02*
X101075400Y-55344800I400000J0D01*
G01*
X102275400Y-55344800D01*
G75*
G02*
X102675400Y-55744800I0J-400000D01*
G01*
X102675400Y-56544800D01*
G75*
G02*
X102275400Y-56944800I-400000J0D01*
G01*
X101075400Y-56944800D01*
G75*
G02*
X100675400Y-56544800I0J400000D01*
G01*
G37*
%TD.AperFunction*%
%TO.P,K2,4*%
%TO.N,Net-(J6-Pad2)*%
%TA.AperFunction,ComponentPad*%
G36*
G01*
X98825400Y-62684800D02*
X98825400Y-61884800D01*
G75*
G02*
X99225400Y-61484800I400000J0D01*
G01*
X100425400Y-61484800D01*
G75*
G02*
X100825400Y-61884800I0J-400000D01*
G01*
X100825400Y-62684800D01*
G75*
G02*
X100425400Y-63084800I-400000J0D01*
G01*
X99225400Y-63084800D01*
G75*
G02*
X98825400Y-62684800I0J400000D01*
G01*
G37*
%TD.AperFunction*%
%TD*%
%TO.P,K3,2*%
%TO.N,Net-(D9-Pad2)*%
%TA.AperFunction,ComponentPad*%
G36*
G01*
X100546000Y-86668000D02*
X100546000Y-85868000D01*
G75*
G02*
X100946000Y-85468000I400000J0D01*
G01*
X102146000Y-85468000D01*
G75*
G02*
X102546000Y-85868000I0J-400000D01*
G01*
X102546000Y-86668000D01*
G75*
G02*
X102146000Y-87068000I-400000J0D01*
G01*
X100946000Y-87068000D01*
G75*
G02*
X100546000Y-86668000I0J400000D01*
G01*
G37*
%TD.AperFunction*%
%TO.P,K3,5*%
%TO.N,Net-(J7-Pad3)*%
%TA.AperFunction,ComponentPad*%
G36*
G01*
X112746000Y-86668000D02*
X112746000Y-85868000D01*
G75*
G02*
X113146000Y-85468000I400000J0D01*
G01*
X114346000Y-85468000D01*
G75*
G02*
X114746000Y-85868000I0J-400000D01*
G01*
X114746000Y-86668000D01*
G75*
G02*
X114346000Y-87068000I-400000J0D01*
G01*
X113146000Y-87068000D01*
G75*
G02*
X112746000Y-86668000I0J400000D01*
G01*
G37*
%TD.AperFunction*%
%TO.P,K3,3*%
%TO.N,Net-(J7-Pad1)*%
%TA.AperFunction,ComponentPad*%
G36*
G01*
X112596000Y-74528000D02*
X112596000Y-73728000D01*
G75*
G02*
X112996000Y-73328000I400000J0D01*
G01*
X114196000Y-73328000D01*
G75*
G02*
X114596000Y-73728000I0J-400000D01*
G01*
X114596000Y-74528000D01*
G75*
G02*
X114196000Y-74928000I-400000J0D01*
G01*
X112996000Y-74928000D01*
G75*
G02*
X112596000Y-74528000I0J400000D01*
G01*
G37*
%TD.AperFunction*%
%TO.P,K3,1*%
%TO.N,+24vdc*%
%TA.AperFunction,ComponentPad*%
G36*
G01*
X100396000Y-74528000D02*
X100396000Y-73728000D01*
G75*
G02*
X100796000Y-73328000I400000J0D01*
G01*
X101996000Y-73328000D01*
G75*
G02*
X102396000Y-73728000I0J-400000D01*
G01*
X102396000Y-74528000D01*
G75*
G02*
X101996000Y-74928000I-400000J0D01*
G01*
X100796000Y-74928000D01*
G75*
G02*
X100396000Y-74528000I0J400000D01*
G01*
G37*
%TD.AperFunction*%
%TO.P,K3,4*%
%TO.N,Net-(J7-Pad2)*%
%TA.AperFunction,ComponentPad*%
G36*
G01*
X98546000Y-80668000D02*
X98546000Y-79868000D01*
G75*
G02*
X98946000Y-79468000I400000J0D01*
G01*
X100146000Y-79468000D01*
G75*
G02*
X100546000Y-79868000I0J-400000D01*
G01*
X100546000Y-80668000D01*
G75*
G02*
X100146000Y-81068000I-400000J0D01*
G01*
X98946000Y-81068000D01*
G75*
G02*
X98546000Y-80668000I0J400000D01*
G01*
G37*
%TD.AperFunction*%
%TD*%
D18*
%TO.P,C1,2*%
%TO.N,GND*%
X55473600Y-37991800D03*
D19*
%TO.P,C1,1*%
%TO.N,+24vdc*%
X55473600Y-35991800D03*
%TD*%
D18*
%TO.P,C2,2*%
%TO.N,GND*%
X55422800Y-42348400D03*
D19*
%TO.P,C2,1*%
%TO.N,+5vdc*%
X55422800Y-44348400D03*
%TD*%
D20*
%TO.P,D7,2*%
%TO.N,Net-(D7-Pad2)*%
X95300800Y-47777400D03*
D21*
%TO.P,D7,1*%
%TO.N,+24vdc*%
X95300800Y-37617400D03*
%TD*%
D20*
%TO.P,D8,2*%
%TO.N,Net-(D8-Pad2)*%
X94996000Y-66446400D03*
D21*
%TO.P,D8,1*%
%TO.N,+24vdc*%
X94996000Y-56286400D03*
%TD*%
D20*
%TO.P,D9,2*%
%TO.N,Net-(D9-Pad2)*%
X94665800Y-84251800D03*
D21*
%TO.P,D9,1*%
%TO.N,+24vdc*%
X94665800Y-74091800D03*
%TD*%
D14*
%TO.P,R1,2*%
%TO.N,Net-(D1-Pad1)*%
X54254400Y-61163200D03*
D22*
%TO.P,R1,1*%
%TO.N,Net-(R1-Pad1)*%
X64414400Y-61163200D03*
%TD*%
D14*
%TO.P,R2,2*%
%TO.N,Net-(D2-Pad1)*%
X54152800Y-91592400D03*
D22*
%TO.P,R2,1*%
%TO.N,Net-(R2-Pad1)*%
X64312800Y-91592400D03*
%TD*%
D14*
%TO.P,R3,2*%
%TO.N,Net-(D3-Pad1)*%
X54991000Y-76200000D03*
D22*
%TO.P,R3,1*%
%TO.N,Net-(R3-Pad1)*%
X65151000Y-76200000D03*
%TD*%
D14*
%TO.P,R4,2*%
%TO.N,gate_hopper*%
X60883800Y-49453800D03*
D22*
%TO.P,R4,1*%
%TO.N,+5vdc*%
X71043800Y-49453800D03*
%TD*%
D14*
%TO.P,R5,2*%
%TO.N,level_chamber*%
X61798200Y-65074800D03*
D22*
%TO.P,R5,1*%
%TO.N,+5vdc*%
X71958200Y-65074800D03*
%TD*%
D14*
%TO.P,R6,2*%
%TO.N,safety_doors*%
X62484000Y-80137000D03*
D22*
%TO.P,R6,1*%
%TO.N,+5vdc*%
X72644000Y-80137000D03*
%TD*%
D14*
%TO.P,R7,2*%
%TO.N,Net-(D4-Pad1)*%
X98653600Y-98653600D03*
D22*
%TO.P,R7,1*%
%TO.N,Net-(R7-Pad1)*%
X88493600Y-98653600D03*
%TD*%
D14*
%TO.P,R8,2*%
%TO.N,Net-(D6-Pad1)*%
X112877600Y-98907600D03*
D22*
%TO.P,R8,1*%
%TO.N,Net-(R8-Pad1)*%
X102717600Y-98907600D03*
%TD*%
D14*
%TO.P,R9,2*%
%TO.N,Net-(D5-Pad1)*%
X126593600Y-98983800D03*
D22*
%TO.P,R9,1*%
%TO.N,Net-(R9-Pad1)*%
X116433600Y-98983800D03*
%TD*%
D23*
%TO.P,RV1,3*%
%TO.N,GND*%
X47498000Y-119456200D03*
%TO.P,RV1,2*%
%TO.N,Ao*%
X44958000Y-119456200D03*
%TO.P,RV1,1*%
%TO.N,+5vdc*%
X42418000Y-119456200D03*
%TD*%
%TO.P,RV2,3*%
%TO.N,GND*%
X47625000Y-109956600D03*
%TO.P,RV2,2*%
%TO.N,A1*%
X45085000Y-109956600D03*
%TO.P,RV2,1*%
%TO.N,+5vdc*%
X42545000Y-109956600D03*
%TD*%
%TO.P,RV3,3*%
%TO.N,GND*%
X47879000Y-101777800D03*
%TO.P,RV3,2*%
%TO.N,A7*%
X45339000Y-101777800D03*
%TO.P,RV3,1*%
%TO.N,+5vdc*%
X42799000Y-101777800D03*
%TD*%
D24*
%TO.P,U1,3*%
%TO.N,+5vdc*%
X62001400Y-42265600D03*
%TO.P,U1,2*%
%TO.N,GND*%
X62001400Y-39725600D03*
D25*
%TO.P,U1,1*%
%TO.N,+24vdc*%
X62001400Y-37185600D03*
%TD*%
D14*
%TO.P,U2,4*%
%TO.N,gate_hopper*%
X68122800Y-54254400D03*
%TO.P,U2,2*%
%TO.N,GND*%
X60502800Y-56794400D03*
%TO.P,U2,3*%
X68122800Y-56794400D03*
D15*
%TO.P,U2,1*%
%TO.N,Net-(R1-Pad1)*%
X60502800Y-54254400D03*
%TD*%
D14*
%TO.P,U3,4*%
%TO.N,level_chamber*%
X68910200Y-69088000D03*
%TO.P,U3,2*%
%TO.N,GND*%
X61290200Y-71628000D03*
%TO.P,U3,3*%
X68910200Y-71628000D03*
D15*
%TO.P,U3,1*%
%TO.N,Net-(R3-Pad1)*%
X61290200Y-69088000D03*
%TD*%
D14*
%TO.P,U4,4*%
%TO.N,safety_doors*%
X68783200Y-83616800D03*
%TO.P,U4,2*%
%TO.N,GND*%
X61163200Y-86156800D03*
%TO.P,U4,3*%
X68783200Y-86156800D03*
D15*
%TO.P,U4,1*%
%TO.N,Net-(R2-Pad1)*%
X61163200Y-83616800D03*
%TD*%
D14*
%TO.P,U6,4*%
%TO.N,Net-(D7-Pad2)*%
X96113600Y-103073200D03*
%TO.P,U6,2*%
%TO.N,GND*%
X88493600Y-105613200D03*
%TO.P,U6,3*%
X96113600Y-105613200D03*
D15*
%TO.P,U6,1*%
%TO.N,Net-(R7-Pad1)*%
X88493600Y-103073200D03*
%TD*%
D14*
%TO.P,U7,4*%
%TO.N,Net-(D8-Pad2)*%
X110998000Y-103860600D03*
%TO.P,U7,2*%
%TO.N,GND*%
X103378000Y-106400600D03*
%TO.P,U7,3*%
X110998000Y-106400600D03*
D15*
%TO.P,U7,1*%
%TO.N,Net-(R8-Pad1)*%
X103378000Y-103860600D03*
%TD*%
D14*
%TO.P,U8,4*%
%TO.N,Net-(D9-Pad2)*%
X123926600Y-104190800D03*
%TO.P,U8,2*%
%TO.N,GND*%
X116306600Y-106730800D03*
%TO.P,U8,3*%
X123926600Y-106730800D03*
D15*
%TO.P,U8,1*%
%TO.N,Net-(R9-Pad1)*%
X116306600Y-104190800D03*
%TD*%
D26*
%TO.N,Ao*%
X65659000Y-104902000D03*
%TO.N,A1*%
X74117200Y-89611200D03*
X81915000Y-65278000D03*
%TO.N,level_chamber*%
X68910200Y-59486800D03*
%TO.N,out_vibrator*%
X87045800Y-83896200D03*
%TO.N,+5vdc*%
X67487800Y-110820200D03*
%TO.N,out_chamber*%
X88894322Y-77541222D03*
%TD*%
D27*
%TO.N,Ao*%
X85928200Y-79019400D02*
X85928200Y-84387162D01*
X88773000Y-67005200D02*
X88163400Y-67614800D01*
X88163400Y-67614800D02*
X88163400Y-76784200D01*
X88163400Y-76784200D02*
X85928200Y-79019400D01*
X65735200Y-104825800D02*
X65659000Y-104902000D01*
X90703400Y-67005200D02*
X88773000Y-67005200D01*
X85928200Y-84387162D02*
X65735200Y-104580162D01*
X65735200Y-104580162D02*
X65735200Y-104825800D01*
D28*
%TO.N,GND*%
X123926600Y-106730800D02*
X116306600Y-106730800D01*
X115976400Y-106400600D02*
X116306600Y-106730800D01*
X110998000Y-106400600D02*
X115976400Y-106400600D01*
X103378000Y-106400600D02*
X110998000Y-106400600D01*
X96113600Y-105613200D02*
X98044000Y-107543600D01*
X99187000Y-106400600D02*
X103378000Y-106400600D01*
X98044000Y-107543600D02*
X99187000Y-106400600D01*
X88493600Y-105613200D02*
X88493600Y-107823000D01*
X88493600Y-107823000D02*
X89001600Y-108331000D01*
X93395800Y-108331000D02*
X96113600Y-105613200D01*
X89001600Y-108331000D02*
X93395800Y-108331000D01*
X62636400Y-98339200D02*
X62636400Y-106578400D01*
X64389000Y-108331000D02*
X89001600Y-108331000D01*
X62636400Y-106578400D02*
X64389000Y-108331000D01*
X47879000Y-109702600D02*
X47625000Y-109956600D01*
X47879000Y-101777800D02*
X47879000Y-109702600D01*
X47498000Y-110083600D02*
X47625000Y-109956600D01*
X47498000Y-119456200D02*
X47498000Y-110083600D01*
X62763400Y-109956600D02*
X64389000Y-108331000D01*
X47625000Y-109956600D02*
X62763400Y-109956600D01*
X43967400Y-94538800D02*
X48234600Y-94538800D01*
X47879000Y-94894400D02*
X47879000Y-101777800D01*
X48234600Y-94538800D02*
X47879000Y-94894400D01*
X43713400Y-76758800D02*
X39751000Y-76758800D01*
X39751000Y-76758800D02*
X39395400Y-77114400D01*
X39395400Y-77114400D02*
X39395400Y-93421200D01*
X40513000Y-94538800D02*
X43967400Y-94538800D01*
X39395400Y-93421200D02*
X40513000Y-94538800D01*
X44119800Y-59436000D02*
X39141400Y-59436000D01*
X39395400Y-59690000D02*
X39395400Y-77114400D01*
X39141400Y-59436000D02*
X39395400Y-59690000D01*
X43434000Y-41833800D02*
X39497000Y-41833800D01*
X39141400Y-42189400D02*
X39141400Y-59436000D01*
X39497000Y-41833800D02*
X39141400Y-42189400D01*
X55473600Y-42297600D02*
X55422800Y-42348400D01*
X55009800Y-41833800D02*
X55473600Y-42297600D01*
X43434000Y-41833800D02*
X55009800Y-41833800D01*
X56235600Y-39725600D02*
X55473600Y-38963600D01*
X62001400Y-39725600D02*
X56235600Y-39725600D01*
X55473600Y-37991800D02*
X55473600Y-38963600D01*
X55473600Y-38963600D02*
X55473600Y-42297600D01*
X68122800Y-56794400D02*
X60502800Y-56794400D01*
X68783200Y-86156800D02*
X61163200Y-86156800D01*
D29*
X90703400Y-41605200D02*
X85115400Y-41605200D01*
X80035400Y-46685200D02*
X75463400Y-46685200D01*
X85115400Y-41605200D02*
X80035400Y-46685200D01*
X62636400Y-98339200D02*
X58902600Y-94605400D01*
X58902600Y-88417400D02*
X61163200Y-86156800D01*
X58902600Y-94605400D02*
X58902600Y-88417400D01*
D27*
%TO.N,A1*%
X74117200Y-89611200D02*
X81991200Y-81737200D01*
X81991200Y-81737200D02*
X81991200Y-65354200D01*
X81991200Y-65354200D02*
X81915000Y-65278000D01*
D28*
%TO.N,gate_hopper*%
X65684400Y-54254400D02*
X60883800Y-49453800D01*
X68122800Y-54254400D02*
X65684400Y-54254400D01*
D30*
X75412600Y-54254400D02*
X75463400Y-54305200D01*
X68122800Y-54254400D02*
X75412600Y-54254400D01*
D29*
%TO.N,A4*%
X85344000Y-77236546D02*
X85344000Y-60756800D01*
X85278189Y-83317411D02*
X85278189Y-78750157D01*
X70256400Y-98339200D02*
X85278189Y-83317411D01*
X89179400Y-56845200D02*
X90703400Y-56845200D01*
X85331199Y-60693401D02*
X89179400Y-56845200D01*
D31*
X85369400Y-77211146D02*
X85344000Y-77236546D01*
D29*
X85267800Y-78867000D02*
X85344000Y-77114400D01*
D28*
%TO.N,level_chamber*%
X65811400Y-69088000D02*
X61798200Y-65074800D01*
X68910200Y-69088000D02*
X65811400Y-69088000D01*
D29*
X68910200Y-59486800D02*
X71450200Y-56946800D01*
X75361800Y-56946800D02*
X75463400Y-56845200D01*
X71450200Y-56946800D02*
X75361800Y-56946800D01*
%TO.N,A5*%
X83601211Y-78069789D02*
X83722433Y-77948567D01*
X83718400Y-77800200D02*
X83718400Y-59770419D01*
X89484200Y-54305200D02*
X90703400Y-54305200D01*
X83896200Y-59893200D02*
X89484200Y-54305200D01*
D31*
X83540600Y-81127600D02*
X83718400Y-81305400D01*
X83540600Y-81051400D02*
X83540600Y-81127600D01*
D29*
X83642200Y-81254600D02*
X83667600Y-77952600D01*
X67716400Y-98339200D02*
X83718400Y-81305400D01*
D28*
%TO.N,safety_doors*%
X65963800Y-83616800D02*
X62484000Y-80137000D01*
X68783200Y-83616800D02*
X65963800Y-83616800D01*
D29*
X62484000Y-80137000D02*
X66370200Y-80137000D01*
X66370200Y-80137000D02*
X71374000Y-75133200D01*
X71374000Y-75133200D02*
X71374000Y-67614800D01*
X71374000Y-67614800D02*
X70104000Y-66344800D01*
X70104000Y-66344800D02*
X70104000Y-62204600D01*
X72923400Y-59385200D02*
X75463400Y-59385200D01*
X70104000Y-62204600D02*
X72923400Y-59385200D01*
%TO.N,out_vibrator*%
X110185200Y-93040200D02*
X103657400Y-93040200D01*
X103657400Y-93040200D02*
X98094800Y-87477600D01*
X98094800Y-87477600D02*
X90551000Y-87477600D01*
X90551000Y-87477600D02*
X87045800Y-83972400D01*
X87045800Y-83972400D02*
X87045800Y-83896200D01*
D28*
%TO.N,+5vdc*%
X42799000Y-109702600D02*
X42545000Y-109956600D01*
X42799000Y-101777800D02*
X42799000Y-109702600D01*
X42418000Y-110083600D02*
X42545000Y-109956600D01*
X42418000Y-119456200D02*
X42418000Y-110083600D01*
X62001400Y-42265600D02*
X62001400Y-43586400D01*
X62001400Y-43586400D02*
X59766200Y-45821600D01*
X56896000Y-45821600D02*
X55422800Y-44348400D01*
X59766200Y-45821600D02*
X56896000Y-45821600D01*
X69189600Y-49453800D02*
X62001400Y-42265600D01*
X71043800Y-49453800D02*
X69189600Y-49453800D01*
D29*
X67513200Y-36753800D02*
X62001400Y-42265600D01*
X90703400Y-39065200D02*
X90703400Y-36753800D01*
X90703400Y-36753800D02*
X67513200Y-36753800D01*
X65176400Y-98339200D02*
X65176400Y-96342200D01*
X72644000Y-88874600D02*
X72644000Y-80137000D01*
X65176400Y-96342200D02*
X72644000Y-88874600D01*
X42418000Y-119456200D02*
X45262800Y-122301000D01*
X45262800Y-122301000D02*
X49479200Y-122301000D01*
X49479200Y-122301000D02*
X58039000Y-113741200D01*
X58039000Y-113741200D02*
X65201800Y-113741200D01*
X65201800Y-113741200D02*
X67487800Y-111455200D01*
X67487800Y-111455200D02*
X67487800Y-110820200D01*
X72644000Y-65760600D02*
X72644000Y-80137000D01*
X71958200Y-65074800D02*
X72644000Y-65760600D01*
%TO.N,out_chamber*%
X104775000Y-82600800D02*
X93953900Y-82600800D01*
X120142000Y-89179400D02*
X111353600Y-89179400D01*
X93953900Y-82600800D02*
X88894322Y-77541222D01*
X111353600Y-89179400D02*
X104775000Y-82600800D01*
X123926600Y-92964000D02*
X120142000Y-89179400D01*
D28*
%TO.N,+24vdc*%
X101533800Y-56286400D02*
X101675400Y-56144800D01*
X94996000Y-56286400D02*
X101533800Y-56286400D01*
X101359800Y-74091800D02*
X101396000Y-74128000D01*
X94665800Y-74091800D02*
X101359800Y-74091800D01*
X101432200Y-37617400D02*
X101929400Y-37120200D01*
X95300800Y-37617400D02*
X101432200Y-37617400D01*
X43434000Y-36833800D02*
X48916600Y-36833800D01*
X49758600Y-35991800D02*
X55473600Y-35991800D01*
X48916600Y-36833800D02*
X49758600Y-35991800D01*
X62001400Y-37185600D02*
X62001400Y-36728400D01*
X62001400Y-36728400D02*
X59994800Y-34721800D01*
X56743600Y-34721800D02*
X55473600Y-35991800D01*
X59994800Y-34721800D02*
X56743600Y-34721800D01*
D29*
X95300800Y-37617400D02*
X95300800Y-36652200D01*
D28*
X95300800Y-37617400D02*
X95300800Y-36118800D01*
X95300800Y-36118800D02*
X93954600Y-34772600D01*
X64414400Y-34772600D02*
X62001400Y-37185600D01*
X93954600Y-34772600D02*
X64414400Y-34772600D01*
%TO.N,Net-(D1-Pad2)*%
X56870600Y-55420008D02*
X50886592Y-49436000D01*
X50886592Y-49436000D02*
X44119800Y-49436000D01*
X56870600Y-56692800D02*
X56870600Y-55420008D01*
%TO.N,Net-(D1-Pad1)*%
X54330600Y-61087000D02*
X54254400Y-61163200D01*
X54330600Y-56692800D02*
X54330600Y-61087000D01*
%TO.N,Net-(D2-Pad2)*%
X56420391Y-83366999D02*
X45139201Y-83366999D01*
X45139201Y-83366999D02*
X43967400Y-84538800D01*
X56997600Y-83944208D02*
X56420391Y-83366999D01*
X56997600Y-85217000D02*
X56997600Y-83944208D01*
%TO.N,Net-(D2-Pad1)*%
X54457600Y-91287600D02*
X54152800Y-91592400D01*
X54457600Y-85217000D02*
X54457600Y-91287600D01*
%TO.N,Net-(D3-Pad1)*%
X55143400Y-76047600D02*
X54991000Y-76200000D01*
X55143400Y-70307200D02*
X55143400Y-76047600D01*
%TO.N,Net-(D3-Pad2)*%
X55407792Y-66758800D02*
X43713400Y-66758800D01*
X57683400Y-69034408D02*
X55407792Y-66758800D01*
X57683400Y-70307200D02*
X57683400Y-69034408D01*
%TO.N,Net-(D4-Pad1)*%
X98780600Y-98526600D02*
X98653600Y-98653600D01*
X98780600Y-94132400D02*
X98780600Y-98526600D01*
%TO.N,Net-(D5-Pad1)*%
X126466600Y-98856800D02*
X126593600Y-98983800D01*
X126466600Y-92964000D02*
X126466600Y-98856800D01*
%TO.N,Net-(D6-Pad1)*%
X112725200Y-98755200D02*
X112877600Y-98907600D01*
X112725200Y-93040200D02*
X112725200Y-98755200D01*
%TO.N,Net-(D7-Pad2)*%
X100596600Y-47777400D02*
X102079400Y-49260200D01*
X95300800Y-47777400D02*
X100596600Y-47777400D01*
%TO.N,Net-(D8-Pad2)*%
X99987000Y-66446400D02*
X101825400Y-68284800D01*
X94996000Y-66446400D02*
X99987000Y-66446400D01*
%TO.N,Net-(D9-Pad2)*%
X99529800Y-84251800D02*
X101546000Y-86268000D01*
X94665800Y-84251800D02*
X99529800Y-84251800D01*
D29*
X123926600Y-104190800D02*
X123926600Y-98933000D01*
X123926600Y-98933000D02*
X117195600Y-92202000D01*
X117195600Y-92202000D02*
X116611400Y-92202000D01*
X116611400Y-92202000D02*
X115062000Y-90652600D01*
X105930600Y-90652600D02*
X101546000Y-86268000D01*
X115062000Y-90652600D02*
X105930600Y-90652600D01*
D28*
%TO.N,Net-(J5-Pad3)*%
X124028200Y-48074600D02*
X124569200Y-48277800D01*
X114279400Y-49260200D02*
X124028200Y-48074600D01*
%TO.N,Net-(J5-Pad2)*%
X124010600Y-43057000D02*
X124028200Y-43074600D01*
X100079400Y-43260200D02*
X124028200Y-43074600D01*
%TO.N,Net-(J5-Pad1)*%
X122870600Y-36917000D02*
X124028200Y-38074600D01*
X113737600Y-37109400D02*
X124028200Y-38074600D01*
%TO.N,Net-(J6-Pad3)*%
X114025400Y-68284800D02*
X124155200Y-66692800D01*
%TO.N,Net-(J6-Pad2)*%
X123766400Y-62081600D02*
X124155200Y-61692800D01*
X99825400Y-62284800D02*
X124155200Y-61692800D01*
%TO.N,Net-(J6-Pad1)*%
X113875400Y-56144800D02*
X124155200Y-56692800D01*
%TO.N,Net-(J7-Pad1)*%
X113596000Y-74128000D02*
X124282200Y-74726800D01*
%TO.N,Net-(J7-Pad2)*%
X123944200Y-80064800D02*
X124282200Y-79726800D01*
X99546000Y-80268000D02*
X124282200Y-79726800D01*
%TO.N,Net-(J7-Pad3)*%
X113746000Y-86268000D02*
X124282200Y-84726800D01*
D27*
%TO.N,Net-(R1-Pad1)*%
X64414400Y-61163200D02*
X60909200Y-61163200D01*
X60909200Y-61163200D02*
X58674000Y-58928000D01*
X58674000Y-58928000D02*
X58674000Y-55016400D01*
X59436000Y-54254400D02*
X60502800Y-54254400D01*
X58674000Y-55016400D02*
X59436000Y-54254400D01*
X60502800Y-54254400D02*
X60502800Y-54102000D01*
D28*
%TO.N,Net-(R3-Pad1)*%
X65151000Y-76200000D02*
X65151000Y-72212200D01*
X62026800Y-69088000D02*
X61290200Y-69088000D01*
X65151000Y-72212200D02*
X62026800Y-69088000D01*
%TO.N,Net-(R7-Pad1)*%
X88493600Y-98653600D02*
X88493600Y-103073200D01*
%TO.N,Net-(R8-Pad1)*%
X102717600Y-103200200D02*
X103378000Y-103860600D01*
X102717600Y-98907600D02*
X102717600Y-103200200D01*
%TO.N,Net-(R9-Pad1)*%
X116433600Y-104063800D02*
X116306600Y-104190800D01*
X116433600Y-98983800D02*
X116433600Y-104063800D01*
%TD*%
M02*
