%TF.GenerationSoftware,KiCad,Pcbnew,(5.1.6)-1*%
%TF.CreationDate,2020-11-28T00:37:20-05:00*%
%TF.ProjectId,arduino_graphite,61726475-696e-46f5-9f67-726170686974,rev?*%
%TF.SameCoordinates,Original*%
%TF.FileFunction,Soldermask,Bot*%
%TF.FilePolarity,Negative*%
%FSLAX46Y46*%
G04 Gerber Fmt 4.6, Leading zero omitted, Abs format (unit mm)*
G04 Created by KiCad (PCBNEW (5.1.6)-1) date 2020-11-28 00:37:20*
%MOMM*%
%LPD*%
G01*
G04 APERTURE LIST*
%ADD10C,2.200000*%
%ADD11O,4.060000X2.080000*%
%ADD12R,4.060000X2.080000*%
%ADD13C,2.900000*%
%ADD14C,1.624000*%
%ADD15O,1.700000X1.700000*%
%ADD16R,1.700000X1.700000*%
%ADD17C,1.900000*%
%ADD18R,1.900000X1.900000*%
%ADD19C,1.300000*%
%ADD20R,1.300000X1.300000*%
%ADD21O,1.600000X1.600000*%
%ADD22R,1.600000X1.600000*%
%ADD23C,1.700000*%
%ADD24C,1.540000*%
%ADD25O,2.100000X2.005000*%
%ADD26R,2.100000X2.005000*%
G04 APERTURE END LIST*
D10*
%TO.C,REF\u002A\u002A*%
X129133600Y-33121600D03*
%TD*%
%TO.C,1*%
X37007800Y-123825000D03*
%TD*%
%TO.C,REF\u002A\u002A*%
X127381000Y-122656600D03*
%TD*%
D11*
%TO.C,J4*%
X43434000Y-36833800D03*
D12*
X43434000Y-41833800D03*
%TD*%
D11*
%TO.C,J5*%
X124028200Y-48074600D03*
X124028200Y-43074600D03*
D12*
X124028200Y-38074600D03*
%TD*%
D11*
%TO.C,J1*%
X44119800Y-49436000D03*
X44119800Y-54436000D03*
D12*
X44119800Y-59436000D03*
%TD*%
D11*
%TO.C,J2*%
X43713400Y-66758800D03*
X43713400Y-71758800D03*
D12*
X43713400Y-76758800D03*
%TD*%
D11*
%TO.C,J3*%
X43967400Y-84538800D03*
X43967400Y-89538800D03*
D12*
X43967400Y-94538800D03*
%TD*%
D11*
%TO.C,J6*%
X124155200Y-66692800D03*
X124155200Y-61692800D03*
D12*
X124155200Y-56692800D03*
%TD*%
D11*
%TO.C,J7*%
X124282200Y-84726800D03*
X124282200Y-79726800D03*
D12*
X124282200Y-74726800D03*
%TD*%
D13*
%TO.C,U5*%
X54446400Y-122439200D03*
X78446400Y-122439200D03*
X78446400Y-98439200D03*
X54446400Y-98439200D03*
D14*
X70256400Y-98339200D03*
X67716400Y-98339200D03*
X65176400Y-98339200D03*
X62636400Y-98339200D03*
%TD*%
D15*
%TO.C,A1*%
X90703400Y-74625200D03*
X75463400Y-74625200D03*
X90703400Y-39065200D03*
X75463400Y-72085200D03*
X90703400Y-41605200D03*
X75463400Y-69545200D03*
X90703400Y-44145200D03*
X75463400Y-67005200D03*
X90703400Y-46685200D03*
X75463400Y-64465200D03*
X90703400Y-49225200D03*
X75463400Y-61925200D03*
X90703400Y-51765200D03*
X75463400Y-59385200D03*
X90703400Y-54305200D03*
X75463400Y-56845200D03*
X90703400Y-56845200D03*
X75463400Y-54305200D03*
X90703400Y-59385200D03*
X75463400Y-51765200D03*
X90703400Y-61925200D03*
X75463400Y-49225200D03*
X90703400Y-64465200D03*
X75463400Y-46685200D03*
X90703400Y-67005200D03*
X75463400Y-44145200D03*
X90703400Y-69545200D03*
X75463400Y-41605200D03*
X90703400Y-72085200D03*
D16*
X75463400Y-39065200D03*
%TD*%
D17*
%TO.C,D1*%
X56870600Y-56692800D03*
D18*
X54330600Y-56692800D03*
%TD*%
D17*
%TO.C,D2*%
X56997600Y-85217000D03*
D18*
X54457600Y-85217000D03*
%TD*%
D17*
%TO.C,D3*%
X57683400Y-70307200D03*
D18*
X55143400Y-70307200D03*
%TD*%
D17*
%TO.C,D4*%
X96240600Y-94132400D03*
D18*
X98780600Y-94132400D03*
%TD*%
D17*
%TO.C,D5*%
X123926600Y-92964000D03*
D18*
X126466600Y-92964000D03*
%TD*%
D17*
%TO.C,D6*%
X110185200Y-93040200D03*
D18*
X112725200Y-93040200D03*
%TD*%
%TO.C,K1*%
G36*
G01*
X101029400Y-49685200D02*
X101029400Y-48835200D01*
G75*
G02*
X101454400Y-48410200I425000J0D01*
G01*
X102704400Y-48410200D01*
G75*
G02*
X103129400Y-48835200I0J-425000D01*
G01*
X103129400Y-49685200D01*
G75*
G02*
X102704400Y-50110200I-425000J0D01*
G01*
X101454400Y-50110200D01*
G75*
G02*
X101029400Y-49685200I0J425000D01*
G01*
G37*
G36*
G01*
X113229400Y-49685200D02*
X113229400Y-48835200D01*
G75*
G02*
X113654400Y-48410200I425000J0D01*
G01*
X114904400Y-48410200D01*
G75*
G02*
X115329400Y-48835200I0J-425000D01*
G01*
X115329400Y-49685200D01*
G75*
G02*
X114904400Y-50110200I-425000J0D01*
G01*
X113654400Y-50110200D01*
G75*
G02*
X113229400Y-49685200I0J425000D01*
G01*
G37*
G36*
G01*
X113079400Y-37545200D02*
X113079400Y-36695200D01*
G75*
G02*
X113504400Y-36270200I425000J0D01*
G01*
X114754400Y-36270200D01*
G75*
G02*
X115179400Y-36695200I0J-425000D01*
G01*
X115179400Y-37545200D01*
G75*
G02*
X114754400Y-37970200I-425000J0D01*
G01*
X113504400Y-37970200D01*
G75*
G02*
X113079400Y-37545200I0J425000D01*
G01*
G37*
G36*
G01*
X100879400Y-37545200D02*
X100879400Y-36695200D01*
G75*
G02*
X101304400Y-36270200I425000J0D01*
G01*
X102554400Y-36270200D01*
G75*
G02*
X102979400Y-36695200I0J-425000D01*
G01*
X102979400Y-37545200D01*
G75*
G02*
X102554400Y-37970200I-425000J0D01*
G01*
X101304400Y-37970200D01*
G75*
G02*
X100879400Y-37545200I0J425000D01*
G01*
G37*
G36*
G01*
X99029400Y-43685200D02*
X99029400Y-42835200D01*
G75*
G02*
X99454400Y-42410200I425000J0D01*
G01*
X100704400Y-42410200D01*
G75*
G02*
X101129400Y-42835200I0J-425000D01*
G01*
X101129400Y-43685200D01*
G75*
G02*
X100704400Y-44110200I-425000J0D01*
G01*
X99454400Y-44110200D01*
G75*
G02*
X99029400Y-43685200I0J425000D01*
G01*
G37*
%TD*%
%TO.C,K2*%
G36*
G01*
X100775400Y-68709800D02*
X100775400Y-67859800D01*
G75*
G02*
X101200400Y-67434800I425000J0D01*
G01*
X102450400Y-67434800D01*
G75*
G02*
X102875400Y-67859800I0J-425000D01*
G01*
X102875400Y-68709800D01*
G75*
G02*
X102450400Y-69134800I-425000J0D01*
G01*
X101200400Y-69134800D01*
G75*
G02*
X100775400Y-68709800I0J425000D01*
G01*
G37*
G36*
G01*
X112975400Y-68709800D02*
X112975400Y-67859800D01*
G75*
G02*
X113400400Y-67434800I425000J0D01*
G01*
X114650400Y-67434800D01*
G75*
G02*
X115075400Y-67859800I0J-425000D01*
G01*
X115075400Y-68709800D01*
G75*
G02*
X114650400Y-69134800I-425000J0D01*
G01*
X113400400Y-69134800D01*
G75*
G02*
X112975400Y-68709800I0J425000D01*
G01*
G37*
G36*
G01*
X112825400Y-56569800D02*
X112825400Y-55719800D01*
G75*
G02*
X113250400Y-55294800I425000J0D01*
G01*
X114500400Y-55294800D01*
G75*
G02*
X114925400Y-55719800I0J-425000D01*
G01*
X114925400Y-56569800D01*
G75*
G02*
X114500400Y-56994800I-425000J0D01*
G01*
X113250400Y-56994800D01*
G75*
G02*
X112825400Y-56569800I0J425000D01*
G01*
G37*
G36*
G01*
X100625400Y-56569800D02*
X100625400Y-55719800D01*
G75*
G02*
X101050400Y-55294800I425000J0D01*
G01*
X102300400Y-55294800D01*
G75*
G02*
X102725400Y-55719800I0J-425000D01*
G01*
X102725400Y-56569800D01*
G75*
G02*
X102300400Y-56994800I-425000J0D01*
G01*
X101050400Y-56994800D01*
G75*
G02*
X100625400Y-56569800I0J425000D01*
G01*
G37*
G36*
G01*
X98775400Y-62709800D02*
X98775400Y-61859800D01*
G75*
G02*
X99200400Y-61434800I425000J0D01*
G01*
X100450400Y-61434800D01*
G75*
G02*
X100875400Y-61859800I0J-425000D01*
G01*
X100875400Y-62709800D01*
G75*
G02*
X100450400Y-63134800I-425000J0D01*
G01*
X99200400Y-63134800D01*
G75*
G02*
X98775400Y-62709800I0J425000D01*
G01*
G37*
%TD*%
%TO.C,K3*%
G36*
G01*
X100496000Y-86693000D02*
X100496000Y-85843000D01*
G75*
G02*
X100921000Y-85418000I425000J0D01*
G01*
X102171000Y-85418000D01*
G75*
G02*
X102596000Y-85843000I0J-425000D01*
G01*
X102596000Y-86693000D01*
G75*
G02*
X102171000Y-87118000I-425000J0D01*
G01*
X100921000Y-87118000D01*
G75*
G02*
X100496000Y-86693000I0J425000D01*
G01*
G37*
G36*
G01*
X112696000Y-86693000D02*
X112696000Y-85843000D01*
G75*
G02*
X113121000Y-85418000I425000J0D01*
G01*
X114371000Y-85418000D01*
G75*
G02*
X114796000Y-85843000I0J-425000D01*
G01*
X114796000Y-86693000D01*
G75*
G02*
X114371000Y-87118000I-425000J0D01*
G01*
X113121000Y-87118000D01*
G75*
G02*
X112696000Y-86693000I0J425000D01*
G01*
G37*
G36*
G01*
X112546000Y-74553000D02*
X112546000Y-73703000D01*
G75*
G02*
X112971000Y-73278000I425000J0D01*
G01*
X114221000Y-73278000D01*
G75*
G02*
X114646000Y-73703000I0J-425000D01*
G01*
X114646000Y-74553000D01*
G75*
G02*
X114221000Y-74978000I-425000J0D01*
G01*
X112971000Y-74978000D01*
G75*
G02*
X112546000Y-74553000I0J425000D01*
G01*
G37*
G36*
G01*
X100346000Y-74553000D02*
X100346000Y-73703000D01*
G75*
G02*
X100771000Y-73278000I425000J0D01*
G01*
X102021000Y-73278000D01*
G75*
G02*
X102446000Y-73703000I0J-425000D01*
G01*
X102446000Y-74553000D01*
G75*
G02*
X102021000Y-74978000I-425000J0D01*
G01*
X100771000Y-74978000D01*
G75*
G02*
X100346000Y-74553000I0J425000D01*
G01*
G37*
G36*
G01*
X98496000Y-80693000D02*
X98496000Y-79843000D01*
G75*
G02*
X98921000Y-79418000I425000J0D01*
G01*
X100171000Y-79418000D01*
G75*
G02*
X100596000Y-79843000I0J-425000D01*
G01*
X100596000Y-80693000D01*
G75*
G02*
X100171000Y-81118000I-425000J0D01*
G01*
X98921000Y-81118000D01*
G75*
G02*
X98496000Y-80693000I0J425000D01*
G01*
G37*
%TD*%
D19*
%TO.C,C1*%
X55473600Y-37991800D03*
D20*
X55473600Y-35991800D03*
%TD*%
D19*
%TO.C,C2*%
X55422800Y-42348400D03*
D20*
X55422800Y-44348400D03*
%TD*%
D21*
%TO.C,D7*%
X95300800Y-47777400D03*
D22*
X95300800Y-37617400D03*
%TD*%
D21*
%TO.C,D8*%
X94996000Y-66446400D03*
D22*
X94996000Y-56286400D03*
%TD*%
D21*
%TO.C,D9*%
X94665800Y-84251800D03*
D22*
X94665800Y-74091800D03*
%TD*%
D15*
%TO.C,R1*%
X54254400Y-61163200D03*
D23*
X64414400Y-61163200D03*
%TD*%
D15*
%TO.C,R2*%
X54152800Y-91592400D03*
D23*
X64312800Y-91592400D03*
%TD*%
D15*
%TO.C,R3*%
X54991000Y-76200000D03*
D23*
X65151000Y-76200000D03*
%TD*%
D15*
%TO.C,R4*%
X60883800Y-49453800D03*
D23*
X71043800Y-49453800D03*
%TD*%
D15*
%TO.C,R5*%
X61798200Y-65074800D03*
D23*
X71958200Y-65074800D03*
%TD*%
D15*
%TO.C,R6*%
X62484000Y-80137000D03*
D23*
X72644000Y-80137000D03*
%TD*%
D15*
%TO.C,R7*%
X98653600Y-98653600D03*
D23*
X88493600Y-98653600D03*
%TD*%
D15*
%TO.C,R8*%
X112877600Y-98907600D03*
D23*
X102717600Y-98907600D03*
%TD*%
D15*
%TO.C,R9*%
X126593600Y-98983800D03*
D23*
X116433600Y-98983800D03*
%TD*%
D24*
%TO.C,RV1*%
X47498000Y-119456200D03*
X44958000Y-119456200D03*
X42418000Y-119456200D03*
%TD*%
%TO.C,RV2*%
X47625000Y-109956600D03*
X45085000Y-109956600D03*
X42545000Y-109956600D03*
%TD*%
%TO.C,RV3*%
X47879000Y-101777800D03*
X45339000Y-101777800D03*
X42799000Y-101777800D03*
%TD*%
D25*
%TO.C,U1*%
X62001400Y-42265600D03*
X62001400Y-39725600D03*
D26*
X62001400Y-37185600D03*
%TD*%
D15*
%TO.C,U2*%
X68122800Y-54254400D03*
X60502800Y-56794400D03*
X68122800Y-56794400D03*
D16*
X60502800Y-54254400D03*
%TD*%
D15*
%TO.C,U3*%
X68910200Y-69088000D03*
X61290200Y-71628000D03*
X68910200Y-71628000D03*
D16*
X61290200Y-69088000D03*
%TD*%
D15*
%TO.C,U4*%
X68783200Y-83616800D03*
X61163200Y-86156800D03*
X68783200Y-86156800D03*
D16*
X61163200Y-83616800D03*
%TD*%
D15*
%TO.C,U6*%
X96113600Y-103073200D03*
X88493600Y-105613200D03*
X96113600Y-105613200D03*
D16*
X88493600Y-103073200D03*
%TD*%
D15*
%TO.C,U7*%
X110998000Y-103860600D03*
X103378000Y-106400600D03*
X110998000Y-106400600D03*
D16*
X103378000Y-103860600D03*
%TD*%
D15*
%TO.C,U8*%
X123926600Y-104190800D03*
X116306600Y-106730800D03*
X123926600Y-106730800D03*
D16*
X116306600Y-104190800D03*
%TD*%
M02*
